<svg width="440" height="220" viewBox="0 0 440 220" fill="none" xmlns="http://www.w3.org/2000/svg">
<path d="M430 0C435.523 0 440 4.47715 440 10V210C440 215.523 435.523 220 430 220H10C4.47715 220 1.61069e-07 215.523 0 210V95C0 89.4772 4.47715 85 10 85H75C80.5228 85 85 80.5228 85 75V10C85 4.47715 89.4772 0 95 0H430Z" fill="white"/>
<path d="M20.836 121.134H23.838C24.0407 122.983 24.6487 124.415 25.662 125.428C26.6753 126.416 28.018 126.91 29.69 126.91C30.5007 126.91 31.2353 126.771 31.894 126.492C32.578 126.213 33.1607 125.833 33.642 125.352C34.1487 124.845 34.5413 124.25 34.82 123.566C35.0987 122.882 35.238 122.135 35.238 121.324C35.238 120.589 35.124 119.931 34.896 119.348C34.6933 118.765 34.3387 118.246 33.832 117.79C33.3507 117.334 32.7047 116.916 31.894 116.536C31.1087 116.156 30.1333 115.801 28.968 115.472C27.6507 115.092 26.5233 114.674 25.586 114.218C24.674 113.737 23.9267 113.205 23.344 112.622C22.7867 112.039 22.3813 111.368 22.128 110.608C21.8747 109.848 21.748 108.974 21.748 107.986C21.748 106.897 21.938 105.896 22.318 104.984C22.7233 104.047 23.268 103.249 23.952 102.59C24.636 101.906 25.4467 101.374 26.384 100.994C27.3467 100.614 28.398 100.424 29.538 100.424C30.678 100.424 31.7293 100.614 32.692 100.994C33.6547 101.349 34.478 101.855 35.162 102.514C35.846 103.173 36.378 103.971 36.758 104.908C37.1633 105.845 37.3787 106.884 37.404 108.024H34.478C34.3767 106.504 33.87 105.288 32.958 104.376C32.0713 103.464 30.906 103.008 29.462 103.008C28.0433 103.008 26.878 103.477 25.966 104.414C25.054 105.326 24.598 106.491 24.598 107.91C24.598 108.518 24.6867 109.075 24.864 109.582C25.0667 110.063 25.3833 110.507 25.814 110.912C26.27 111.292 26.84 111.647 27.524 111.976C28.2333 112.305 29.082 112.622 30.07 112.926C31.5393 113.357 32.7807 113.838 33.794 114.37C34.8073 114.877 35.6307 115.459 36.264 116.118C36.8973 116.751 37.3533 117.486 37.632 118.322C37.936 119.158 38.088 120.108 38.088 121.172C38.088 122.363 37.8727 123.465 37.442 124.478C37.0113 125.491 36.416 126.378 35.656 127.138C34.9213 127.873 34.0347 128.455 32.996 128.886C31.9573 129.291 30.83 129.494 29.614 129.494C28.3473 129.494 27.1947 129.304 26.156 128.924C25.1173 128.519 24.2053 127.949 23.42 127.214C22.66 126.479 22.052 125.605 21.596 124.592C21.1653 123.553 20.912 122.401 20.836 121.134ZM41.8138 129V100.918H57.1658V103.464H44.6258V113.534H56.7478V116.08H44.6258V126.454H57.1658V129H41.8138ZM60.9708 114.978C60.9708 112.951 61.3635 111.064 62.1488 109.316C62.9342 107.543 63.9982 105.997 65.3408 104.68C66.7088 103.363 68.3048 102.324 70.1288 101.564C71.9528 100.804 73.9162 100.424 76.0188 100.424C78.0202 100.424 79.9075 100.817 81.6808 101.602C83.4542 102.362 84.9995 103.413 86.3168 104.756C87.6595 106.073 88.7108 107.619 89.4708 109.392C90.2562 111.14 90.6488 113.002 90.6488 114.978C90.6488 116.979 90.2562 118.867 89.4708 120.64C88.6855 122.388 87.6215 123.921 86.2788 125.238C84.9362 126.555 83.3655 127.594 81.5668 128.354C79.7682 129.114 77.8555 129.494 75.8288 129.494C73.8022 129.494 71.8895 129.114 70.0908 128.354C68.2922 127.569 66.7088 126.517 65.3408 125.2C63.9982 123.883 62.9342 122.35 62.1488 120.602C61.3635 118.829 60.9708 116.954 60.9708 114.978ZM63.8208 114.978C63.8208 116.599 64.1375 118.145 64.7708 119.614C65.4042 121.058 66.2655 122.325 67.3548 123.414C68.4442 124.478 69.7108 125.327 71.1548 125.96C72.6242 126.593 74.1822 126.91 75.8288 126.91C77.4755 126.91 79.0208 126.593 80.4648 125.96C81.9088 125.327 83.1755 124.478 84.2648 123.414C85.3542 122.325 86.2155 121.058 86.8488 119.614C87.4822 118.17 87.7988 116.637 87.7988 115.016C87.7988 113.344 87.4822 111.786 86.8488 110.342C86.2155 108.873 85.3542 107.593 84.2648 106.504C83.1755 105.415 81.8835 104.566 80.3888 103.958C78.9195 103.325 77.3488 103.008 75.6768 103.008C74.0808 103.008 72.5608 103.337 71.1168 103.996C69.6728 104.629 68.4062 105.491 67.3168 106.58C66.2528 107.669 65.4042 108.936 64.7708 110.38C64.1375 111.824 63.8208 113.357 63.8208 114.978Z" fill="#070707"/>
<path d="M25.061 161.21C24.0577 161.21 23.2107 160.988 22.52 160.545C21.8293 160.097 21.3067 159.479 20.952 158.69C20.5973 157.901 20.42 156.991 20.42 155.96C20.42 154.929 20.5973 154.019 20.952 153.23C21.3067 152.441 21.8293 151.825 22.52 151.382C23.2107 150.934 24.0577 150.71 25.061 150.71C26.2323 150.71 27.189 151.011 27.931 151.613C28.673 152.21 29.1817 153.013 29.457 154.021L28.407 154.294C28.1923 153.496 27.8073 152.864 27.252 152.397C26.6967 151.93 25.9663 151.697 25.061 151.697C24.2723 151.697 23.6167 151.877 23.094 152.236C22.5713 152.595 22.177 153.097 21.911 153.741C21.6497 154.38 21.5143 155.12 21.505 155.96C21.5003 156.8 21.6287 157.54 21.89 158.179C22.156 158.818 22.5527 159.32 23.08 159.684C23.612 160.043 24.2723 160.223 25.061 160.223C25.9663 160.223 26.6967 159.99 27.252 159.523C27.8073 159.052 28.1923 158.419 28.407 157.626L29.457 157.899C29.1817 158.907 28.673 159.712 27.931 160.314C27.189 160.911 26.2323 161.21 25.061 161.21ZM33.1645 161.21C32.5952 161.21 32.1168 161.107 31.7295 160.902C31.3468 160.697 31.0598 160.424 30.8685 160.083C30.6772 159.742 30.5815 159.371 30.5815 158.97C30.5815 158.559 30.6632 158.209 30.8265 157.92C30.9945 157.626 31.2208 157.386 31.5055 157.199C31.7948 157.012 32.1285 156.87 32.5065 156.772C32.8892 156.679 33.3115 156.597 33.7735 156.527C34.2402 156.452 34.6952 156.389 35.1385 156.338C35.5865 156.282 35.9785 156.228 36.3145 156.177L35.9505 156.401C35.9645 155.654 35.8198 155.101 35.5165 154.742C35.2132 154.383 34.6858 154.203 33.9345 154.203C33.4165 154.203 32.9778 154.32 32.6185 154.553C32.2638 154.786 32.0142 155.155 31.8695 155.659L30.8685 155.365C31.0412 154.688 31.3888 154.163 31.9115 153.79C32.4342 153.417 33.1132 153.23 33.9485 153.23C34.6392 153.23 35.2248 153.361 35.7055 153.622C36.1908 153.879 36.5338 154.252 36.7345 154.742C36.8278 154.961 36.8885 155.206 36.9165 155.477C36.9445 155.748 36.9585 156.023 36.9585 156.303V161H36.0415V159.103L36.3075 159.215C36.0508 159.864 35.6518 160.358 35.1105 160.699C34.5692 161.04 33.9205 161.21 33.1645 161.21ZM33.2835 160.321C33.7642 160.321 34.1842 160.235 34.5435 160.062C34.9028 159.889 35.1922 159.654 35.4115 159.355C35.6308 159.052 35.7732 158.711 35.8385 158.333C35.8945 158.09 35.9248 157.824 35.9295 157.535C35.9342 157.241 35.9365 157.022 35.9365 156.877L36.3285 157.08C35.9785 157.127 35.5982 157.173 35.1875 157.22C34.7815 157.267 34.3802 157.32 33.9835 157.381C33.5915 157.442 33.2368 157.514 32.9195 157.598C32.7048 157.659 32.4972 157.745 32.2965 157.857C32.0958 157.964 31.9302 158.109 31.7995 158.291C31.6735 158.473 31.6105 158.699 31.6105 158.97C31.6105 159.189 31.6642 159.402 31.7715 159.607C31.8835 159.812 32.0608 159.983 32.3035 160.118C32.5508 160.253 32.8775 160.321 33.2835 160.321ZM41.9168 152.544C41.5854 152.544 41.2821 152.462 41.0068 152.299C40.7314 152.136 40.5121 151.919 40.3488 151.648C40.1901 151.373 40.1108 151.069 40.1108 150.738H40.9648C40.9648 150.999 41.0581 151.223 41.2448 151.41C41.4314 151.597 41.6554 151.69 41.9168 151.69C42.1828 151.69 42.4068 151.597 42.5888 151.41C42.7754 151.223 42.8688 150.999 42.8688 150.738H43.7228C43.7228 151.069 43.6411 151.373 43.4778 151.648C43.3191 151.919 43.1021 152.136 42.8268 152.299C42.5514 152.462 42.2481 152.544 41.9168 152.544ZM44.7868 153.44V161H43.7858V155.113L39.6418 161H38.7738V153.44H39.7748V159.278L43.9258 153.44H44.7868ZM48.8025 161V154.392H46.1215V153.44H52.5125V154.392H49.8315V161H48.8025ZM59.7859 161.21C59.0253 161.21 58.3813 161.04 57.8539 160.699C57.3266 160.358 56.9253 159.889 56.6499 159.292C56.3793 158.69 56.2393 157.999 56.2299 157.22C56.2393 156.427 56.3839 155.731 56.6639 155.134C56.9439 154.532 57.3476 154.065 57.8749 153.734C58.4023 153.398 59.0416 153.23 59.7929 153.23C60.5583 153.23 61.2233 153.417 61.7879 153.79C62.3573 154.163 62.7469 154.674 62.9569 155.323L61.9489 155.645C61.7716 155.192 61.4893 154.842 61.1019 154.595C60.7193 154.343 60.2806 154.217 59.7859 154.217C59.2306 154.217 58.7709 154.345 58.4069 154.602C58.0429 154.854 57.7723 155.206 57.5949 155.659C57.4176 156.112 57.3266 156.632 57.3219 157.22C57.3313 158.125 57.5413 158.853 57.9519 159.404C58.3626 159.95 58.9739 160.223 59.7859 160.223C60.2993 160.223 60.7356 160.106 61.0949 159.873C61.4589 159.635 61.7343 159.29 61.9209 158.837L62.9569 159.145C62.6769 159.817 62.2663 160.33 61.7249 160.685C61.1836 161.035 60.5373 161.21 59.7859 161.21ZM66.2751 161V154.392H63.5941V153.44H69.9851V154.392H67.3041V161H66.2751ZM73.1957 161.21C72.6264 161.21 72.1481 161.107 71.7607 160.902C71.3781 160.697 71.0911 160.424 70.8997 160.083C70.7084 159.742 70.6127 159.371 70.6127 158.97C70.6127 158.559 70.6944 158.209 70.8577 157.92C71.0257 157.626 71.2521 157.386 71.5367 157.199C71.8261 157.012 72.1597 156.87 72.5377 156.772C72.9204 156.679 73.3427 156.597 73.8047 156.527C74.2714 156.452 74.7264 156.389 75.1697 156.338C75.6177 156.282 76.0097 156.228 76.3457 156.177L75.9817 156.401C75.9957 155.654 75.8511 155.101 75.5477 154.742C75.2444 154.383 74.7171 154.203 73.9657 154.203C73.4477 154.203 73.0091 154.32 72.6497 154.553C72.2951 154.786 72.0454 155.155 71.9007 155.659L70.8997 155.365C71.0724 154.688 71.4201 154.163 71.9427 153.79C72.4654 153.417 73.1444 153.23 73.9797 153.23C74.6704 153.23 75.2561 153.361 75.7367 153.622C76.2221 153.879 76.5651 154.252 76.7657 154.742C76.8591 154.961 76.9197 155.206 76.9477 155.477C76.9757 155.748 76.9897 156.023 76.9897 156.303V161H76.0727V159.103L76.3387 159.215C76.0821 159.864 75.6831 160.358 75.1417 160.699C74.6004 161.04 73.9517 161.21 73.1957 161.21ZM73.3147 160.321C73.7954 160.321 74.2154 160.235 74.5747 160.062C74.9341 159.889 75.2234 159.654 75.4427 159.355C75.6621 159.052 75.8044 158.711 75.8697 158.333C75.9257 158.09 75.9561 157.824 75.9607 157.535C75.9654 157.241 75.9677 157.022 75.9677 156.877L76.3597 157.08C76.0097 157.127 75.6294 157.173 75.2187 157.22C74.8127 157.267 74.4114 157.32 74.0147 157.381C73.6227 157.442 73.2681 157.514 72.9507 157.598C72.7361 157.659 72.5284 157.745 72.3277 157.857C72.1271 157.964 71.9614 158.109 71.8307 158.291C71.7047 158.473 71.6417 158.699 71.6417 158.97C71.6417 159.189 71.6954 159.402 71.8027 159.607C71.9147 159.812 72.0921 159.983 72.3347 160.118C72.5821 160.253 72.9087 160.321 73.3147 160.321ZM78.805 161V153.44H79.834V156.723H84.097V153.44H85.126V161H84.097V157.71H79.834V161H78.805ZM90.2405 161.21C89.4892 161.21 88.8475 161.04 88.3155 160.699C87.7835 160.358 87.3752 159.887 87.0905 159.285C86.8058 158.683 86.6635 157.992 86.6635 157.213C86.6635 156.42 86.8082 155.724 87.0975 155.127C87.3868 154.53 87.7975 154.065 88.3295 153.734C88.8662 153.398 89.5032 153.23 90.2405 153.23C90.9965 153.23 91.6405 153.4 92.1725 153.741C92.7092 154.077 93.1175 154.546 93.3975 155.148C93.6822 155.745 93.8245 156.434 93.8245 157.213C93.8245 158.006 93.6822 158.704 93.3975 159.306C93.1128 159.903 92.7022 160.37 92.1655 160.706C91.6288 161.042 90.9872 161.21 90.2405 161.21ZM90.2405 160.223C91.0805 160.223 91.7058 159.945 92.1165 159.39C92.5272 158.83 92.7325 158.104 92.7325 157.213C92.7325 156.298 92.5248 155.57 92.1095 155.029C91.6988 154.488 91.0758 154.217 90.2405 154.217C89.6758 154.217 89.2092 154.345 88.8405 154.602C88.4765 154.854 88.2035 155.206 88.0215 155.659C87.8442 156.107 87.7555 156.625 87.7555 157.213C87.7555 158.123 87.9655 158.853 88.3855 159.404C88.8055 159.95 89.4238 160.223 90.2405 160.223ZM95.3617 161V153.44H98.4767C98.6353 153.44 98.8267 153.449 99.0507 153.468C99.2793 153.487 99.4917 153.522 99.6877 153.573C100.112 153.685 100.453 153.914 100.71 154.259C100.971 154.604 101.102 155.02 101.102 155.505C101.102 155.776 101.06 156.018 100.976 156.233C100.896 156.443 100.782 156.625 100.633 156.779C100.563 156.858 100.486 156.928 100.402 156.989C100.318 157.045 100.236 157.092 100.157 157.129C100.306 157.157 100.467 157.222 100.64 157.325C100.91 157.484 101.116 157.698 101.256 157.969C101.396 158.235 101.466 158.559 101.466 158.942C101.466 159.46 101.342 159.882 101.095 160.209C100.847 160.536 100.516 160.76 100.101 160.881C99.914 160.932 99.711 160.965 99.4917 160.979C99.277 160.993 99.074 161 98.8827 161H95.3617ZM96.3977 160.125H98.8337C98.9317 160.125 99.0553 160.118 99.2047 160.104C99.354 160.085 99.487 160.062 99.6037 160.034C99.879 159.964 100.08 159.824 100.206 159.614C100.336 159.399 100.402 159.166 100.402 158.914C100.402 158.583 100.304 158.312 100.108 158.102C99.9163 157.887 99.6597 157.757 99.3377 157.71C99.2303 157.687 99.1183 157.673 99.0017 157.668C98.885 157.663 98.78 157.661 98.6867 157.661H96.3977V160.125ZM96.3977 156.779H98.5117C98.633 156.779 98.7683 156.772 98.9177 156.758C99.0717 156.739 99.2047 156.709 99.3167 156.667C99.5593 156.583 99.7367 156.438 99.8487 156.233C99.9653 156.028 100.024 155.804 100.024 155.561C100.024 155.295 99.9607 155.062 99.8347 154.861C99.7133 154.66 99.529 154.52 99.2817 154.441C99.1137 154.38 98.9317 154.345 98.7357 154.336C98.5443 154.327 98.423 154.322 98.3717 154.322H96.3977V156.779ZM108.867 153.44V161H107.866V155.113L103.722 161H102.854V153.44H103.855V159.278L108.006 153.44H108.867ZM112.883 161V154.392H110.202V153.44H116.593V154.392H113.912V161H112.883ZM120.927 161.21C120.166 161.21 119.522 161.04 118.995 160.699C118.467 160.358 118.066 159.889 117.791 159.292C117.52 158.69 117.38 157.999 117.371 157.22C117.38 156.427 117.525 155.731 117.805 155.134C118.085 154.532 118.488 154.065 119.016 153.734C119.543 153.398 120.182 153.23 120.934 153.23C121.699 153.23 122.364 153.417 122.929 153.79C123.498 154.163 123.888 154.674 124.098 155.323L123.09 155.645C122.912 155.192 122.63 154.842 122.243 154.595C121.86 154.343 121.421 154.217 120.927 154.217C120.371 154.217 119.912 154.345 119.548 154.602C119.184 154.854 118.913 155.206 118.736 155.659C118.558 156.112 118.467 156.632 118.463 157.22C118.472 158.125 118.682 158.853 119.093 159.404C119.503 159.95 120.115 160.223 120.927 160.223C121.44 160.223 121.876 160.106 122.236 159.873C122.6 159.635 122.875 159.29 123.062 158.837L124.098 159.145C123.818 159.817 123.407 160.33 122.866 160.685C122.324 161.035 121.678 161.21 120.927 161.21ZM130.24 161V158.151H128.476C128.271 158.151 128.059 158.144 127.839 158.13C127.625 158.111 127.424 158.086 127.237 158.053C126.705 157.95 126.253 157.717 125.879 157.353C125.511 156.984 125.326 156.476 125.326 155.827C125.326 155.192 125.499 154.684 125.844 154.301C126.19 153.914 126.607 153.662 127.097 153.545C127.321 153.494 127.548 153.463 127.776 153.454C128.01 153.445 128.21 153.44 128.378 153.44H131.269L131.276 161H130.24ZM125.081 161L127.188 157.829H128.329L126.208 161H125.081ZM128.42 157.269H130.24V154.322H128.42C128.308 154.322 128.152 154.327 127.951 154.336C127.751 154.345 127.562 154.376 127.384 154.427C127.23 154.474 127.076 154.555 126.922 154.672C126.773 154.784 126.647 154.936 126.544 155.127C126.442 155.314 126.39 155.542 126.39 155.813C126.39 156.191 126.493 156.494 126.698 156.723C126.908 156.947 127.17 157.101 127.482 157.185C127.65 157.222 127.818 157.246 127.986 157.255C128.154 157.264 128.299 157.269 128.42 157.269ZM139.178 161.21C138.418 161.21 137.774 161.04 137.247 160.699C136.719 160.358 136.318 159.889 136.043 159.292C135.772 158.69 135.632 157.999 135.623 157.22C135.632 156.427 135.777 155.731 136.057 155.134C136.337 154.532 136.74 154.065 137.268 153.734C137.795 153.398 138.434 153.23 139.186 153.23C139.951 153.23 140.616 153.417 141.181 153.79C141.75 154.163 142.14 154.674 142.35 155.323L141.342 155.645C141.164 155.192 140.882 154.842 140.495 154.595C140.112 154.343 139.673 154.217 139.178 154.217C138.623 154.217 138.164 154.345 137.8 154.602C137.436 154.854 137.165 155.206 136.988 155.659C136.81 156.112 136.719 156.632 136.715 157.22C136.724 158.125 136.934 158.853 137.345 159.404C137.755 159.95 138.367 160.223 139.178 160.223C139.692 160.223 140.128 160.106 140.488 159.873C140.852 159.635 141.127 159.29 141.314 158.837L142.35 159.145C142.07 159.817 141.659 160.33 141.118 160.685C140.576 161.035 139.93 161.21 139.178 161.21ZM145.668 161V154.392H142.987V153.44H149.378V154.392H146.697V161H145.668ZM152.588 161.21C152.019 161.21 151.541 161.107 151.153 160.902C150.771 160.697 150.484 160.424 150.292 160.083C150.101 159.742 150.005 159.371 150.005 158.97C150.005 158.559 150.087 158.209 150.25 157.92C150.418 157.626 150.645 157.386 150.929 157.199C151.219 157.012 151.552 156.87 151.93 156.772C152.313 156.679 152.735 156.597 153.197 156.527C153.664 156.452 154.119 156.389 154.562 156.338C155.01 156.282 155.402 156.228 155.738 156.177L155.374 156.401C155.388 155.654 155.244 155.101 154.94 154.742C154.637 154.383 154.11 154.203 153.358 154.203C152.84 154.203 152.402 154.32 152.042 154.553C151.688 154.786 151.438 155.155 151.293 155.659L150.292 155.365C150.465 154.688 150.813 154.163 151.335 153.79C151.858 153.417 152.537 153.23 153.372 153.23C154.063 153.23 154.649 153.361 155.129 153.622C155.615 153.879 155.958 154.252 156.158 154.742C156.252 154.961 156.312 155.206 156.34 155.477C156.368 155.748 156.382 156.023 156.382 156.303V161H155.465V159.103L155.731 159.215C155.475 159.864 155.076 160.358 154.534 160.699C153.993 161.04 153.344 161.21 152.588 161.21ZM152.707 160.321C153.188 160.321 153.608 160.235 153.967 160.062C154.327 159.889 154.616 159.654 154.835 159.355C155.055 159.052 155.197 158.711 155.262 158.333C155.318 158.09 155.349 157.824 155.353 157.535C155.358 157.241 155.36 157.022 155.36 156.877L155.752 157.08C155.402 157.127 155.022 157.173 154.611 157.22C154.205 157.267 153.804 157.32 153.407 157.381C153.015 157.442 152.661 157.514 152.343 157.598C152.129 157.659 151.921 157.745 151.72 157.857C151.52 157.964 151.354 158.109 151.223 158.291C151.097 158.473 151.034 158.699 151.034 158.97C151.034 159.189 151.088 159.402 151.195 159.607C151.307 159.812 151.485 159.983 151.727 160.118C151.975 160.253 152.301 160.321 152.707 160.321ZM161.236 161.217C160.531 161.212 159.927 161.058 159.423 160.755C158.919 160.452 158.527 159.999 158.247 159.397C157.971 158.795 157.822 158.044 157.799 157.143C157.785 156.746 157.794 156.315 157.827 155.848C157.859 155.377 157.911 154.929 157.981 154.504C158.051 154.079 158.135 153.734 158.233 153.468C158.354 153.123 158.527 152.801 158.751 152.502C158.979 152.199 159.243 151.951 159.542 151.76C159.831 151.564 160.158 151.412 160.522 151.305C160.89 151.193 161.273 151.107 161.67 151.046C162.071 150.985 162.468 150.932 162.86 150.885C163.256 150.838 163.623 150.78 163.959 150.71L164.071 151.641C163.814 151.692 163.511 151.739 163.161 151.781C162.811 151.823 162.444 151.874 162.062 151.935C161.679 151.991 161.313 152.068 160.963 152.166C160.613 152.264 160.314 152.392 160.067 152.551C159.689 152.78 159.397 153.125 159.192 153.587C158.991 154.049 158.867 154.579 158.821 155.176C159.11 154.723 159.493 154.383 159.969 154.154C160.449 153.925 160.97 153.811 161.53 153.811C162.211 153.811 162.797 153.967 163.287 154.28C163.781 154.593 164.162 155.027 164.428 155.582C164.694 156.137 164.827 156.774 164.827 157.493C164.827 158.244 164.68 158.9 164.386 159.46C164.096 160.02 163.683 160.454 163.147 160.762C162.61 161.065 161.973 161.217 161.236 161.217ZM161.313 160.23C162.106 160.23 162.708 159.983 163.119 159.488C163.534 158.993 163.742 158.335 163.742 157.514C163.742 156.674 163.527 156.011 163.098 155.526C162.673 155.041 162.073 154.798 161.299 154.798C160.524 154.798 159.929 155.041 159.514 155.526C159.098 156.011 158.891 156.674 158.891 157.514C158.891 158.354 159.098 159.017 159.514 159.502C159.929 159.987 160.529 160.23 161.313 160.23ZM172.373 153.44V161H171.372V155.113L167.228 161H166.36V153.44H167.361V159.278L171.512 153.44H172.373ZM173.637 161V160.097C173.917 160.148 174.13 160.137 174.274 160.062C174.424 159.983 174.533 159.852 174.603 159.67C174.673 159.483 174.732 159.252 174.778 158.977C174.853 158.52 174.921 158.016 174.981 157.465C175.042 156.914 175.096 156.308 175.142 155.645C175.194 154.978 175.245 154.243 175.296 153.44H180.434V161H179.412V154.427H176.248C176.216 154.922 176.178 155.414 176.136 155.904C176.094 156.394 176.05 156.865 176.003 157.318C175.961 157.766 175.915 158.179 175.863 158.557C175.812 158.935 175.758 159.262 175.702 159.537C175.618 159.952 175.506 160.284 175.366 160.531C175.231 160.778 175.028 160.942 174.757 161.021C174.487 161.1 174.113 161.093 173.637 161ZM182.397 161L182.383 153.44H183.419V156.289H185.19C185.409 156.289 185.624 156.294 185.834 156.303C186.049 156.312 186.238 156.331 186.401 156.359C186.774 156.429 187.106 156.553 187.395 156.73C187.689 156.907 187.918 157.152 188.081 157.465C188.249 157.778 188.333 158.17 188.333 158.641C188.333 159.29 188.165 159.801 187.829 160.174C187.498 160.547 187.078 160.79 186.569 160.902C186.378 160.944 186.17 160.972 185.946 160.986C185.722 160.995 185.5 161 185.281 161H182.397ZM183.419 160.118H185.239C185.398 160.118 185.575 160.113 185.771 160.104C185.967 160.095 186.14 160.069 186.289 160.027C186.536 159.957 186.76 159.817 186.961 159.607C187.166 159.392 187.269 159.07 187.269 158.641C187.269 158.216 187.171 157.897 186.975 157.682C186.779 157.463 186.518 157.318 186.191 157.248C186.046 157.215 185.89 157.194 185.722 157.185C185.554 157.176 185.393 157.171 185.239 157.171H183.419V160.118ZM189.657 161V153.44H190.686V156.723H194.949V153.44H195.978V161H194.949V157.71H190.686V161H189.657ZM197.942 161L197.928 153.44H198.964V156.289H200.28C200.499 156.289 200.714 156.294 200.924 156.303C201.134 156.312 201.323 156.331 201.491 156.359C201.864 156.434 202.196 156.56 202.485 156.737C202.774 156.914 203.003 157.159 203.171 157.472C203.339 157.78 203.423 158.17 203.423 158.641C203.423 159.29 203.255 159.801 202.919 160.174C202.583 160.547 202.161 160.79 201.652 160.902C201.461 160.944 201.253 160.972 201.029 160.986C200.805 160.995 200.586 161 200.371 161H197.942ZM198.964 160.118H200.329C200.483 160.118 200.658 160.113 200.854 160.104C201.05 160.095 201.223 160.069 201.372 160.027C201.624 159.957 201.85 159.817 202.051 159.607C202.256 159.392 202.359 159.07 202.359 158.641C202.359 158.216 202.261 157.897 202.065 157.682C201.869 157.463 201.608 157.318 201.281 157.248C201.132 157.215 200.973 157.194 200.805 157.185C200.642 157.176 200.483 157.171 200.329 157.171H198.964V160.118ZM204.326 161V153.44H205.355V161H204.326ZM207.307 161V153.44H208.224L211.171 159.628L214.125 153.44H215.035V161H214.041V155.638L211.5 161H210.849L208.308 155.638V161H207.307ZM225.802 153.44V161H224.801V155.113L220.657 161H219.789V153.44H220.79V159.278L224.941 153.44H225.802ZM230.903 161.21C230.142 161.21 229.498 161.04 228.971 160.699C228.444 160.358 228.042 159.889 227.767 159.292C227.496 158.69 227.356 157.999 227.347 157.22C227.356 156.427 227.501 155.731 227.781 155.134C228.061 154.532 228.465 154.065 228.992 153.734C229.519 153.398 230.159 153.23 230.91 153.23C231.675 153.23 232.34 153.417 232.905 153.79C233.474 154.163 233.864 154.674 234.074 155.323L233.066 155.645C232.889 155.192 232.606 154.842 232.219 154.595C231.836 154.343 231.398 154.217 230.903 154.217C230.348 154.217 229.888 154.345 229.524 154.602C229.16 154.854 228.889 155.206 228.712 155.659C228.535 156.112 228.444 156.632 228.439 157.22C228.448 158.125 228.658 158.853 229.069 159.404C229.48 159.95 230.091 160.223 230.903 160.223C231.416 160.223 231.853 160.106 232.212 159.873C232.576 159.635 232.851 159.29 233.038 158.837L234.074 159.145C233.794 159.817 233.383 160.33 232.842 160.685C232.301 161.035 231.654 161.21 230.903 161.21ZM237.392 161V154.392H234.711V153.44H241.102V154.392H238.421V161H237.392ZM245.457 161.21C244.706 161.21 244.064 161.04 243.532 160.699C243 160.358 242.592 159.887 242.307 159.285C242.023 158.683 241.88 157.992 241.88 157.213C241.88 156.42 242.025 155.724 242.314 155.127C242.604 154.53 243.014 154.065 243.546 153.734C244.083 153.398 244.72 153.23 245.457 153.23C246.213 153.23 246.857 153.4 247.389 153.741C247.926 154.077 248.334 154.546 248.614 155.148C248.899 155.745 249.041 156.434 249.041 157.213C249.041 158.006 248.899 158.704 248.614 159.306C248.33 159.903 247.919 160.37 247.382 160.706C246.846 161.042 246.204 161.21 245.457 161.21ZM245.457 160.223C246.297 160.223 246.923 159.945 247.333 159.39C247.744 158.83 247.949 158.104 247.949 157.213C247.949 156.298 247.742 155.57 247.326 155.029C246.916 154.488 246.293 154.217 245.457 154.217C244.893 154.217 244.426 154.345 244.057 154.602C243.693 154.854 243.42 155.206 243.238 155.659C243.061 156.107 242.972 156.625 242.972 157.213C242.972 158.123 243.182 158.853 243.602 159.404C244.022 159.95 244.641 160.223 245.457 160.223ZM255.212 161V158.186C254.96 158.312 254.65 158.422 254.281 158.515C253.913 158.608 253.516 158.655 253.091 158.655C252.326 158.655 251.705 158.485 251.229 158.144C250.753 157.803 250.443 157.311 250.298 156.667C250.252 156.476 250.219 156.273 250.2 156.058C250.186 155.843 250.177 155.65 250.172 155.477C250.168 155.304 250.165 155.181 250.165 155.106V153.44H251.201V155.106C251.201 155.26 251.206 155.435 251.215 155.631C251.225 155.827 251.246 156.018 251.278 156.205C251.372 156.714 251.582 157.099 251.908 157.36C252.24 157.621 252.704 157.752 253.301 157.752C253.675 157.752 254.027 157.705 254.358 157.612C254.694 157.514 254.979 157.383 255.212 157.22V153.44H256.241V161H255.212ZM258.194 161V153.44H259.223V156.723H263.486V153.44H264.515V161H263.486V157.71H259.223V161H258.194ZM272.478 153.44V161H271.477V155.113L267.333 161H266.465V153.44H267.466V159.278L271.617 153.44H272.478ZM274.436 161L274.443 153.44H275.479V157.08L278.853 153.44H280.225L276.683 157.22L280.687 161H279.189L275.479 157.36V161H274.436ZM284.408 161.21C283.657 161.21 283.015 161.04 282.483 160.699C281.951 160.358 281.543 159.887 281.258 159.285C280.974 158.683 280.831 157.992 280.831 157.213C280.831 156.42 280.976 155.724 281.265 155.127C281.555 154.53 281.965 154.065 282.497 153.734C283.034 153.398 283.671 153.23 284.408 153.23C285.164 153.23 285.808 153.4 286.34 153.741C286.877 154.077 287.285 154.546 287.565 155.148C287.85 155.745 287.992 156.434 287.992 157.213C287.992 158.006 287.85 158.704 287.565 159.306C287.281 159.903 286.87 160.37 286.333 160.706C285.797 161.042 285.155 161.21 284.408 161.21ZM284.408 160.223C285.248 160.223 285.874 159.945 286.284 159.39C286.695 158.83 286.9 158.104 286.9 157.213C286.9 156.298 286.693 155.57 286.277 155.029C285.867 154.488 285.244 154.217 284.408 154.217C283.844 154.217 283.377 154.345 283.008 154.602C282.644 154.854 282.371 155.206 282.189 155.659C282.012 156.107 281.923 156.625 281.923 157.213C281.923 158.123 282.133 158.853 282.553 159.404C282.973 159.95 283.592 160.223 284.408 160.223ZM289.53 161V153.44H290.447L293.394 159.628L296.348 153.44H297.258V161H296.264V155.638L293.723 161H293.072L290.531 155.638V161H289.53ZM302.012 161L302.019 153.44H303.055V157.08L306.429 153.44H307.801L304.259 157.22L308.263 161H306.765L303.055 157.36V161H302.012ZM308.128 161V160.097C308.408 160.148 308.62 160.137 308.765 160.062C308.914 159.983 309.024 159.852 309.094 159.67C309.164 159.483 309.222 159.252 309.269 158.977C309.343 158.52 309.411 158.016 309.472 157.465C309.532 156.914 309.586 156.308 309.633 155.645C309.684 154.978 309.735 154.243 309.787 153.44H314.925V161H313.903V154.427H310.739C310.706 154.922 310.669 155.414 310.627 155.904C310.585 156.394 310.54 156.865 310.494 157.318C310.452 157.766 310.405 158.179 310.354 158.557C310.302 158.935 310.249 159.262 310.193 159.537C310.109 159.952 309.997 160.284 309.857 160.531C309.721 160.778 309.518 160.942 309.248 161.021C308.977 161.1 308.604 161.093 308.128 161ZM322.886 153.44V161H321.885V155.113L317.741 161H316.873V153.44H317.874V159.278L322.025 153.44H322.886ZM328.05 161.21C327.313 161.21 326.673 161.047 326.132 160.72C325.595 160.393 325.178 159.934 324.879 159.341C324.58 158.748 324.431 158.053 324.431 157.255C324.431 156.429 324.578 155.715 324.872 155.113C325.166 154.511 325.579 154.047 326.111 153.72C326.648 153.393 327.28 153.23 328.008 153.23C328.755 153.23 329.392 153.403 329.919 153.748C330.446 154.089 330.845 154.579 331.116 155.218C331.387 155.857 331.51 156.62 331.487 157.507H330.437V157.143C330.418 156.163 330.206 155.423 329.8 154.924C329.399 154.425 328.811 154.175 328.036 154.175C327.224 154.175 326.601 154.439 326.167 154.966C325.738 155.493 325.523 156.245 325.523 157.22C325.523 158.172 325.738 158.912 326.167 159.439C326.601 159.962 327.215 160.223 328.008 160.223C328.549 160.223 329.021 160.099 329.422 159.852C329.828 159.6 330.148 159.238 330.381 158.767L331.34 159.138C331.041 159.796 330.6 160.307 330.017 160.671C329.438 161.03 328.783 161.21 328.05 161.21ZM325.159 157.507V156.646H330.934V157.507H325.159ZM333.034 161V153.44H334.063V156.723H338.326V153.44H339.355V161H338.326V157.71H334.063V161H333.034ZM343.363 161V154.392H340.682V153.44H347.073V154.392H344.392V161H343.363ZM351.428 161.21C350.677 161.21 350.035 161.04 349.503 160.699C348.971 160.358 348.563 159.887 348.278 159.285C347.993 158.683 347.851 157.992 347.851 157.213C347.851 156.42 347.996 155.724 348.285 155.127C348.574 154.53 348.985 154.065 349.517 153.734C350.054 153.398 350.691 153.23 351.428 153.23C352.184 153.23 352.828 153.4 353.36 153.741C353.897 154.077 354.305 154.546 354.585 155.148C354.87 155.745 355.012 156.434 355.012 157.213C355.012 158.006 354.87 158.704 354.585 159.306C354.3 159.903 353.89 160.37 353.353 160.706C352.816 161.042 352.175 161.21 351.428 161.21ZM351.428 160.223C352.268 160.223 352.893 159.945 353.304 159.39C353.715 158.83 353.92 158.104 353.92 157.213C353.92 156.298 353.712 155.57 353.297 155.029C352.886 154.488 352.263 154.217 351.428 154.217C350.863 154.217 350.397 154.345 350.028 154.602C349.664 154.854 349.391 155.206 349.209 155.659C349.032 156.107 348.943 156.625 348.943 157.213C348.943 158.123 349.153 158.853 349.573 159.404C349.993 159.95 350.611 160.223 351.428 160.223ZM356.549 161V153.44H359.664C359.823 153.44 360.014 153.449 360.238 153.468C360.467 153.487 360.679 153.522 360.875 153.573C361.3 153.685 361.641 153.914 361.897 154.259C362.159 154.604 362.289 155.02 362.289 155.505C362.289 155.776 362.247 156.018 362.163 156.233C362.084 156.443 361.97 156.625 361.82 156.779C361.75 156.858 361.673 156.928 361.589 156.989C361.505 157.045 361.424 157.092 361.344 157.129C361.494 157.157 361.655 157.222 361.827 157.325C362.098 157.484 362.303 157.698 362.443 157.969C362.583 158.235 362.653 158.559 362.653 158.942C362.653 159.46 362.53 159.882 362.282 160.209C362.035 160.536 361.704 160.76 361.288 160.881C361.102 160.932 360.899 160.965 360.679 160.979C360.465 160.993 360.262 161 360.07 161H356.549ZM357.585 160.125H360.021C360.119 160.125 360.243 160.118 360.392 160.104C360.542 160.085 360.675 160.062 360.791 160.034C361.067 159.964 361.267 159.824 361.393 159.614C361.524 159.399 361.589 159.166 361.589 158.914C361.589 158.583 361.491 158.312 361.295 158.102C361.104 157.887 360.847 157.757 360.525 157.71C360.418 157.687 360.306 157.673 360.189 157.668C360.073 157.663 359.968 157.661 359.874 157.661H357.585V160.125ZM357.585 156.779H359.699C359.821 156.779 359.956 156.772 360.105 156.758C360.259 156.739 360.392 156.709 360.504 156.667C360.747 156.583 360.924 156.438 361.036 156.233C361.153 156.028 361.211 155.804 361.211 155.561C361.211 155.295 361.148 155.062 361.022 154.861C360.901 154.66 360.717 154.52 360.469 154.441C360.301 154.38 360.119 154.345 359.923 154.336C359.732 154.327 359.611 154.322 359.559 154.322H357.585V156.779ZM372.857 153.44V161H371.856V155.113L367.712 161H366.844V153.44H367.845V159.278L371.996 153.44H372.857ZM377.545 161.21C376.784 161.21 376.119 161.044 375.55 160.713C374.985 160.377 374.539 159.913 374.213 159.32L375.039 158.795C375.314 159.262 375.657 159.616 376.068 159.859C376.478 160.102 376.95 160.223 377.482 160.223C378.037 160.223 378.483 160.095 378.819 159.838C379.155 159.581 379.323 159.229 379.323 158.781C379.323 158.473 379.25 158.228 379.106 158.046C378.966 157.864 378.751 157.733 378.462 157.654C378.177 157.575 377.82 157.535 377.391 157.535H376.495V156.653H377.377C377.899 156.653 378.319 156.56 378.637 156.373C378.959 156.182 379.12 155.883 379.12 155.477C379.12 155.048 378.959 154.73 378.637 154.525C378.319 154.315 377.939 154.21 377.496 154.21C377.048 154.21 376.623 154.303 376.222 154.49C375.825 154.672 375.491 154.908 375.221 155.197L374.563 154.504C374.941 154.089 375.382 153.774 375.886 153.559C376.394 153.34 376.957 153.23 377.573 153.23C378.058 153.23 378.497 153.316 378.889 153.489C379.285 153.657 379.598 153.904 379.827 154.231C380.06 154.558 380.177 154.95 380.177 155.407C380.177 155.836 380.072 156.207 379.862 156.52C379.656 156.833 379.365 157.092 378.987 157.297L378.931 156.912C379.257 156.973 379.528 157.103 379.743 157.304C379.957 157.505 380.116 157.745 380.219 158.025C380.321 158.305 380.373 158.59 380.373 158.879C380.373 159.36 380.247 159.775 379.995 160.125C379.747 160.47 379.409 160.739 378.98 160.93C378.555 161.117 378.077 161.21 377.545 161.21ZM27.847 178H26.825V174.171H23.472L23.115 174.087C22.3683 173.942 21.7943 173.59 21.393 173.03C20.9917 172.47 20.791 171.81 20.791 171.049C20.791 170.522 20.8867 170.041 21.078 169.607C21.2693 169.173 21.547 168.814 21.911 168.529C22.2797 168.24 22.7253 168.055 23.248 167.976C23.3787 167.953 23.5047 167.939 23.626 167.934C23.7473 167.925 23.857 167.92 23.955 167.92H27.847V178ZM21.743 178H20.56L22.744 173.52L23.731 173.898L21.743 178ZM26.825 173.191V168.907H23.983C23.9037 168.907 23.8057 168.912 23.689 168.921C23.577 168.926 23.4673 168.94 23.36 168.963C23.0147 169.038 22.73 169.18 22.506 169.39C22.2867 169.6 22.1233 169.852 22.016 170.146C21.9087 170.435 21.855 170.736 21.855 171.049C21.855 171.362 21.9087 171.663 22.016 171.952C22.1233 172.241 22.2867 172.491 22.506 172.701C22.73 172.911 23.0147 173.053 23.36 173.128C23.4673 173.151 23.577 173.168 23.689 173.177C23.8057 173.186 23.9037 173.191 23.983 173.191H26.825ZM29.805 178V170.44H30.834V173.723H35.097V170.44H36.126V178H35.097V174.71H30.834V178H29.805ZM37.5235 179.68V177.118C37.9528 177.118 38.2608 176.98 38.4475 176.705C38.6342 176.425 38.7858 175.979 38.9025 175.368C38.9818 174.971 39.0472 174.544 39.0985 174.087C39.1498 173.63 39.1942 173.107 39.2315 172.519C39.2688 171.926 39.3038 171.233 39.3365 170.44H44.3345V177.118H45.0625V179.68H44.0685V178H38.5105V179.68H37.5235ZM39.2665 177.118H43.3125V171.322H40.2885C40.2745 171.677 40.2535 172.052 40.2255 172.449C40.2022 172.846 40.1718 173.242 40.1345 173.639C40.1018 174.036 40.0622 174.409 40.0155 174.759C39.9735 175.104 39.9222 175.408 39.8615 175.669C39.7915 176.005 39.7145 176.292 39.6305 176.53C39.5512 176.768 39.4298 176.964 39.2665 177.118ZM49.6634 178.21C48.926 178.21 48.2867 178.047 47.7454 177.72C47.2087 177.393 46.791 176.934 46.4924 176.341C46.1937 175.748 46.0444 175.053 46.0444 174.255C46.0444 173.429 46.1914 172.715 46.4854 172.113C46.7794 171.511 47.1924 171.047 47.7244 170.72C48.261 170.393 48.8934 170.23 49.6214 170.23C50.368 170.23 51.005 170.403 51.5324 170.748C52.0597 171.089 52.4587 171.579 52.7294 172.218C53 172.857 53.1237 173.62 53.1004 174.507H52.0504V174.143C52.0317 173.163 51.8194 172.423 51.4134 171.924C51.012 171.425 50.424 171.175 49.6494 171.175C48.8374 171.175 48.2144 171.439 47.7804 171.966C47.351 172.493 47.1364 173.245 47.1364 174.22C47.1364 175.172 47.351 175.912 47.7804 176.439C48.2144 176.962 48.828 177.223 49.6214 177.223C50.1627 177.223 50.634 177.099 51.0354 176.852C51.4414 176.6 51.761 176.238 51.9944 175.767L52.9534 176.138C52.6547 176.796 52.2137 177.307 51.6304 177.671C51.0517 178.03 50.396 178.21 49.6634 178.21ZM46.7724 174.507V173.646H52.5474V174.507H46.7724ZM54.6468 178L54.6538 170.44H55.6898V174.08L59.0638 170.44H60.4358L56.8938 174.22L60.8978 178H59.3998L55.6898 174.36V178H54.6468ZM64.5984 178.21C63.8378 178.21 63.1938 178.04 62.6664 177.699C62.1391 177.358 61.7378 176.889 61.4624 176.292C61.1918 175.69 61.0518 174.999 61.0424 174.22C61.0518 173.427 61.1964 172.731 61.4764 172.134C61.7564 171.532 62.1601 171.065 62.6874 170.734C63.2148 170.398 63.8541 170.23 64.6054 170.23C65.3708 170.23 66.0358 170.417 66.6004 170.79C67.1698 171.163 67.5594 171.674 67.7694 172.323L66.7614 172.645C66.5841 172.192 66.3018 171.842 65.9144 171.595C65.5318 171.343 65.0931 171.217 64.5984 171.217C64.0431 171.217 63.5834 171.345 63.2194 171.602C62.8554 171.854 62.5848 172.206 62.4074 172.659C62.2301 173.112 62.1391 173.632 62.1344 174.22C62.1438 175.125 62.3538 175.853 62.7644 176.404C63.1751 176.95 63.7864 177.223 64.5984 177.223C65.1118 177.223 65.5481 177.106 65.9074 176.873C66.2714 176.635 66.5468 176.29 66.7334 175.837L67.7694 176.145C67.4894 176.817 67.0788 177.33 66.5374 177.685C65.9961 178.035 65.3498 178.21 64.5984 178.21ZM71.3364 178.21C70.767 178.21 70.2887 178.107 69.9014 177.902C69.5187 177.697 69.2317 177.424 69.0404 177.083C68.849 176.742 68.7534 176.371 68.7534 175.97C68.7534 175.559 68.835 175.209 68.9984 174.92C69.1664 174.626 69.3927 174.386 69.6774 174.199C69.9667 174.012 70.3004 173.87 70.6784 173.772C71.061 173.679 71.4834 173.597 71.9454 173.527C72.412 173.452 72.867 173.389 73.3104 173.338C73.7584 173.282 74.1504 173.228 74.4864 173.177L74.1224 173.401C74.1364 172.654 73.9917 172.101 73.6884 171.742C73.385 171.383 72.8577 171.203 72.1064 171.203C71.5884 171.203 71.1497 171.32 70.7904 171.553C70.4357 171.786 70.186 172.155 70.0414 172.659L69.0404 172.365C69.213 171.688 69.5607 171.163 70.0834 170.79C70.606 170.417 71.285 170.23 72.1204 170.23C72.811 170.23 73.3967 170.361 73.8774 170.622C74.3627 170.879 74.7057 171.252 74.9064 171.742C74.9997 171.961 75.0604 172.206 75.0884 172.477C75.1164 172.748 75.1304 173.023 75.1304 173.303V178H74.2134V176.103L74.4794 176.215C74.2227 176.864 73.8237 177.358 73.2824 177.699C72.741 178.04 72.0924 178.21 71.3364 178.21ZM71.4554 177.321C71.936 177.321 72.356 177.235 72.7154 177.062C73.0747 176.889 73.364 176.654 73.5834 176.355C73.8027 176.052 73.945 175.711 74.0104 175.333C74.0664 175.09 74.0967 174.824 74.1014 174.535C74.106 174.241 74.1084 174.022 74.1084 173.877L74.5004 174.08C74.1504 174.127 73.77 174.173 73.3594 174.22C72.9534 174.267 72.552 174.32 72.1554 174.381C71.7634 174.442 71.4087 174.514 71.0914 174.598C70.8767 174.659 70.669 174.745 70.4684 174.857C70.2677 174.964 70.102 175.109 69.9714 175.291C69.8454 175.473 69.7824 175.699 69.7824 175.97C69.7824 176.189 69.836 176.402 69.9434 176.607C70.0554 176.812 70.2327 176.983 70.4754 177.118C70.7227 177.253 71.0494 177.321 71.4554 177.321ZM85.7614 170.44V178H84.7604V172.113L80.6164 178H79.7484V170.44H80.7494V176.278L84.9004 170.44H85.7614ZM94.5678 178.21C93.8585 178.21 93.2192 178.086 92.6498 177.839C92.0805 177.592 91.5952 177.239 91.1938 176.782C90.7972 176.325 90.4938 175.774 90.2838 175.13C90.0738 174.481 89.9688 173.758 89.9688 172.96C89.9688 171.905 90.1508 170.986 90.5148 170.202C90.8835 169.413 91.4108 168.802 92.0968 168.368C92.7828 167.934 93.6065 167.717 94.5678 167.717C95.6412 167.717 96.5138 167.969 97.1858 168.473C97.8625 168.972 98.3338 169.644 98.5998 170.489L97.5638 170.741C97.3445 170.125 96.9828 169.633 96.4788 169.264C95.9795 168.895 95.3565 168.711 94.6098 168.711C93.8212 168.706 93.1655 168.884 92.6428 169.243C92.1202 169.598 91.7258 170.097 91.4598 170.741C91.1985 171.38 91.0655 172.12 91.0608 172.96C91.0562 173.8 91.1845 174.54 91.4458 175.179C91.7118 175.814 92.1085 176.313 92.6358 176.677C93.1632 177.036 93.8212 177.218 94.6098 177.223C95.3332 177.223 95.9305 177.083 96.4018 176.803C96.8732 176.523 97.2302 176.122 97.4728 175.599C97.7202 175.076 97.8602 174.458 97.8928 173.744H95.5688V172.862H98.9708C98.9848 172.969 98.9918 173.084 98.9918 173.205C98.9965 173.322 98.9988 173.406 98.9988 173.457C98.9988 174.367 98.8355 175.181 98.5088 175.9C98.1822 176.614 97.6898 177.179 97.0318 177.594C96.3785 178.005 95.5572 178.21 94.5678 178.21ZM103.557 178.21C102.806 178.21 102.164 178.04 101.632 177.699C101.1 177.358 100.692 176.887 100.407 176.285C100.122 175.683 99.9799 174.992 99.9799 174.213C99.9799 173.42 100.125 172.724 100.414 172.127C100.703 171.53 101.114 171.065 101.646 170.734C102.183 170.398 102.82 170.23 103.557 170.23C104.313 170.23 104.957 170.4 105.489 170.741C106.026 171.077 106.434 171.546 106.714 172.148C106.999 172.745 107.141 173.434 107.141 174.213C107.141 175.006 106.999 175.704 106.714 176.306C106.429 176.903 106.019 177.37 105.482 177.706C104.945 178.042 104.304 178.21 103.557 178.21ZM103.557 177.223C104.397 177.223 105.022 176.945 105.433 176.39C105.844 175.83 106.049 175.104 106.049 174.213C106.049 173.298 105.841 172.57 105.426 172.029C105.015 171.488 104.392 171.217 103.557 171.217C102.992 171.217 102.526 171.345 102.157 171.602C101.793 171.854 101.52 172.206 101.338 172.659C101.161 173.107 101.072 173.625 101.072 174.213C101.072 175.123 101.282 175.853 101.702 176.404C102.122 176.95 102.74 177.223 103.557 177.223ZM111.842 178.21C111.091 178.21 110.449 178.04 109.917 177.699C109.385 177.358 108.977 176.887 108.692 176.285C108.407 175.683 108.265 174.992 108.265 174.213C108.265 173.42 108.41 172.724 108.699 172.127C108.988 171.53 109.399 171.065 109.931 170.734C110.468 170.398 111.105 170.23 111.842 170.23C112.598 170.23 113.242 170.4 113.774 170.741C114.311 171.077 114.719 171.546 114.999 172.148C115.284 172.745 115.426 173.434 115.426 174.213C115.426 175.006 115.284 175.704 114.999 176.306C114.714 176.903 114.304 177.37 113.767 177.706C113.23 178.042 112.589 178.21 111.842 178.21ZM111.842 177.223C112.682 177.223 113.307 176.945 113.718 176.39C114.129 175.83 114.334 175.104 114.334 174.213C114.334 173.298 114.126 172.57 113.711 172.029C113.3 171.488 112.677 171.217 111.842 171.217C111.277 171.217 110.811 171.345 110.442 171.602C110.078 171.854 109.805 172.206 109.623 172.659C109.446 173.107 109.357 173.625 109.357 174.213C109.357 175.123 109.567 175.853 109.987 176.404C110.407 176.95 111.025 177.223 111.842 177.223ZM119.973 181.57C119.586 181.57 119.203 181.512 118.825 181.395C118.452 181.283 118.107 181.103 117.789 180.856C117.472 180.613 117.206 180.296 116.991 179.904L117.922 179.386C118.132 179.806 118.426 180.107 118.804 180.289C119.187 180.476 119.577 180.569 119.973 180.569C120.519 180.569 120.96 180.466 121.296 180.261C121.637 180.06 121.884 179.762 122.038 179.365C122.192 178.968 122.267 178.474 122.262 177.881V175.865H122.381V170.44H123.298V177.895C123.298 178.11 123.291 178.315 123.277 178.511C123.268 178.712 123.247 178.908 123.214 179.099C123.126 179.664 122.941 180.128 122.661 180.492C122.386 180.856 122.022 181.127 121.569 181.304C121.121 181.481 120.589 181.57 119.973 181.57ZM119.903 178.21C119.199 178.21 118.597 178.035 118.097 177.685C117.598 177.33 117.215 176.852 116.949 176.25C116.683 175.648 116.55 174.969 116.55 174.213C116.55 173.462 116.681 172.785 116.942 172.183C117.208 171.581 117.589 171.105 118.083 170.755C118.578 170.405 119.171 170.23 119.861 170.23C120.571 170.23 121.168 170.403 121.653 170.748C122.139 171.093 122.505 171.567 122.752 172.169C123.004 172.766 123.13 173.448 123.13 174.213C123.13 174.964 123.007 175.643 122.759 176.25C122.512 176.852 122.148 177.33 121.667 177.685C121.187 178.035 120.599 178.21 119.903 178.21ZM120.008 177.251C120.545 177.251 120.988 177.12 121.338 176.859C121.688 176.598 121.95 176.238 122.122 175.781C122.295 175.319 122.381 174.796 122.381 174.213C122.381 173.62 122.295 173.098 122.122 172.645C121.95 172.188 121.688 171.831 121.338 171.574C120.993 171.317 120.557 171.189 120.029 171.189C119.488 171.189 119.04 171.322 118.685 171.588C118.331 171.854 118.067 172.216 117.894 172.673C117.726 173.13 117.642 173.644 117.642 174.213C117.642 174.787 117.729 175.305 117.901 175.767C118.079 176.224 118.342 176.586 118.692 176.852C119.042 177.118 119.481 177.251 120.008 177.251ZM125.395 178V167.71H126.424V178H125.395ZM131.722 178.21C130.985 178.21 130.345 178.047 129.804 177.72C129.267 177.393 128.85 176.934 128.551 176.341C128.252 175.748 128.103 175.053 128.103 174.255C128.103 173.429 128.25 172.715 128.544 172.113C128.838 171.511 129.251 171.047 129.783 170.72C130.32 170.393 130.952 170.23 131.68 170.23C132.427 170.23 133.064 170.403 133.591 170.748C134.118 171.089 134.517 171.579 134.788 172.218C135.059 172.857 135.182 173.62 135.159 174.507H134.109V174.143C134.09 173.163 133.878 172.423 133.472 171.924C133.071 171.425 132.483 171.175 131.708 171.175C130.896 171.175 130.273 171.439 129.839 171.966C129.41 172.493 129.195 173.245 129.195 174.22C129.195 175.172 129.41 175.912 129.839 176.439C130.273 176.962 130.887 177.223 131.68 177.223C132.221 177.223 132.693 177.099 133.094 176.852C133.5 176.6 133.82 176.238 134.053 175.767L135.012 176.138C134.713 176.796 134.272 177.307 133.689 177.671C133.11 178.03 132.455 178.21 131.722 178.21ZM128.831 174.507V173.646H134.606V174.507H128.831ZM142.238 178.21C141.477 178.21 140.812 178.044 140.243 177.713C139.678 177.377 139.233 176.913 138.906 176.32L139.732 175.795C140.007 176.262 140.35 176.616 140.761 176.859C141.172 177.102 141.643 177.223 142.175 177.223C142.73 177.223 143.176 177.095 143.512 176.838C143.848 176.581 144.016 176.229 144.016 175.781C144.016 175.473 143.944 175.228 143.799 175.046C143.659 174.864 143.444 174.733 143.155 174.654C142.87 174.575 142.513 174.535 142.084 174.535H141.188V173.653H142.07C142.593 173.653 143.013 173.56 143.33 173.373C143.652 173.182 143.813 172.883 143.813 172.477C143.813 172.048 143.652 171.73 143.33 171.525C143.013 171.315 142.632 171.21 142.189 171.21C141.741 171.21 141.316 171.303 140.915 171.49C140.518 171.672 140.185 171.908 139.914 172.197L139.256 171.504C139.634 171.089 140.075 170.774 140.579 170.559C141.088 170.34 141.65 170.23 142.266 170.23C142.751 170.23 143.19 170.316 143.582 170.489C143.979 170.657 144.291 170.904 144.52 171.231C144.753 171.558 144.87 171.95 144.87 172.407C144.87 172.836 144.765 173.207 144.555 173.52C144.35 173.833 144.058 174.092 143.68 174.297L143.624 173.912C143.951 173.973 144.221 174.103 144.436 174.304C144.651 174.505 144.809 174.745 144.912 175.025C145.015 175.305 145.066 175.59 145.066 175.879C145.066 176.36 144.94 176.775 144.688 177.125C144.441 177.47 144.102 177.739 143.673 177.93C143.248 178.117 142.77 178.21 142.238 178.21ZM148.774 178.21C148.205 178.21 147.726 178.107 147.339 177.902C146.956 177.697 146.669 177.424 146.478 177.083C146.287 176.742 146.191 176.371 146.191 175.97C146.191 175.559 146.273 175.209 146.436 174.92C146.604 174.626 146.83 174.386 147.115 174.199C147.404 174.012 147.738 173.87 148.116 173.772C148.499 173.679 148.921 173.597 149.383 173.527C149.85 173.452 150.305 173.389 150.748 173.338C151.196 173.282 151.588 173.228 151.924 173.177L151.56 173.401C151.574 172.654 151.429 172.101 151.126 171.742C150.823 171.383 150.295 171.203 149.544 171.203C149.026 171.203 148.587 171.32 148.228 171.553C147.873 171.786 147.624 172.155 147.479 172.659L146.478 172.365C146.651 171.688 146.998 171.163 147.521 170.79C148.044 170.417 148.723 170.23 149.558 170.23C150.249 170.23 150.834 170.361 151.315 170.622C151.8 170.879 152.143 171.252 152.344 171.742C152.437 171.961 152.498 172.206 152.526 172.477C152.554 172.748 152.568 173.023 152.568 173.303V178H151.651V176.103L151.917 176.215C151.66 176.864 151.261 177.358 150.72 177.699C150.179 178.04 149.53 178.21 148.774 178.21ZM148.893 177.321C149.374 177.321 149.794 177.235 150.153 177.062C150.512 176.889 150.802 176.654 151.021 176.355C151.24 176.052 151.383 175.711 151.448 175.333C151.504 175.09 151.534 174.824 151.539 174.535C151.544 174.241 151.546 174.022 151.546 173.877L151.938 174.08C151.588 174.127 151.208 174.173 150.797 174.22C150.391 174.267 149.99 174.32 149.593 174.381C149.201 174.442 148.846 174.514 148.529 174.598C148.314 174.659 148.107 174.745 147.906 174.857C147.705 174.964 147.54 175.109 147.409 175.291C147.283 175.473 147.22 175.699 147.22 175.97C147.22 176.189 147.274 176.402 147.381 176.607C147.493 176.812 147.67 176.983 147.913 177.118C148.16 177.253 148.487 177.321 148.893 177.321ZM160.329 178.21C159.568 178.21 158.924 178.04 158.397 177.699C157.87 177.358 157.468 176.889 157.193 176.292C156.922 175.69 156.782 174.999 156.773 174.22C156.782 173.427 156.927 172.731 157.207 172.134C157.487 171.532 157.891 171.065 158.418 170.734C158.945 170.398 159.585 170.23 160.336 170.23C161.101 170.23 161.766 170.417 162.331 170.79C162.9 171.163 163.29 171.674 163.5 172.323L162.492 172.645C162.315 172.192 162.032 171.842 161.645 171.595C161.262 171.343 160.824 171.217 160.329 171.217C159.774 171.217 159.314 171.345 158.95 171.602C158.586 171.854 158.315 172.206 158.138 172.659C157.961 173.112 157.87 173.632 157.865 174.22C157.874 175.125 158.084 175.853 158.495 176.404C158.906 176.95 159.517 177.223 160.329 177.223C160.842 177.223 161.279 177.106 161.638 176.873C162.002 176.635 162.277 176.29 162.464 175.837L163.5 176.145C163.22 176.817 162.809 177.33 162.268 177.685C161.727 178.035 161.08 178.21 160.329 178.21ZM169.572 178V175.186C169.32 175.312 169.01 175.422 168.641 175.515C168.272 175.608 167.876 175.655 167.451 175.655C166.686 175.655 166.065 175.485 165.589 175.144C165.113 174.803 164.803 174.311 164.658 173.667C164.611 173.476 164.579 173.273 164.56 173.058C164.546 172.843 164.537 172.65 164.532 172.477C164.527 172.304 164.525 172.181 164.525 172.106V170.44H165.561V172.106C165.561 172.26 165.566 172.435 165.575 172.631C165.584 172.827 165.605 173.018 165.638 173.205C165.731 173.714 165.941 174.099 166.268 174.36C166.599 174.621 167.064 174.752 167.661 174.752C168.034 174.752 168.387 174.705 168.718 174.612C169.054 174.514 169.339 174.383 169.572 174.22V170.44H170.601V178H169.572ZM176.494 168.963V167.843H177.614V168.963H176.494ZM173.827 168.963V167.843H174.947V168.963H173.827ZM175.759 178.21C175.022 178.21 174.382 178.047 173.841 177.72C173.304 177.393 172.887 176.934 172.588 176.341C172.289 175.748 172.14 175.053 172.14 174.255C172.14 173.429 172.287 172.715 172.581 172.113C172.875 171.511 173.288 171.047 173.82 170.72C174.357 170.393 174.989 170.23 175.717 170.23C176.464 170.23 177.101 170.403 177.628 170.748C178.155 171.089 178.554 171.579 178.825 172.218C179.096 172.857 179.219 173.62 179.196 174.507H178.146V174.143C178.127 173.163 177.915 172.423 177.509 171.924C177.108 171.425 176.52 171.175 175.745 171.175C174.933 171.175 174.31 171.439 173.876 171.966C173.447 172.493 173.232 173.245 173.232 174.22C173.232 175.172 173.447 175.912 173.876 176.439C174.31 176.962 174.924 177.223 175.717 177.223C176.258 177.223 176.73 177.099 177.131 176.852C177.537 176.6 177.857 176.238 178.09 175.767L179.049 176.138C178.75 176.796 178.309 177.307 177.726 177.671C177.147 178.03 176.492 178.21 175.759 178.21ZM172.868 174.507V173.646H178.643V174.507H172.868ZM182.705 178V171.392H180.024V170.44H186.415V171.392H183.734V178H182.705ZM190.545 178V170.44H196.558V178H195.529V171.427H191.574V178H190.545ZM201.918 178.21C201.223 178.21 200.635 178.035 200.154 177.685C199.673 177.33 199.309 176.852 199.062 176.25C198.815 175.643 198.691 174.964 198.691 174.213C198.691 173.448 198.815 172.766 199.062 172.169C199.314 171.567 199.683 171.093 200.168 170.748C200.653 170.403 201.251 170.23 201.96 170.23C202.651 170.23 203.243 170.405 203.738 170.755C204.233 171.105 204.611 171.581 204.872 172.183C205.138 172.785 205.271 173.462 205.271 174.213C205.271 174.969 205.138 175.648 204.872 176.25C204.606 176.852 204.223 177.33 203.724 177.685C203.225 178.035 202.623 178.21 201.918 178.21ZM198.516 181.36V170.44H199.44V176.131H199.552V181.36H198.516ZM201.813 177.251C202.34 177.251 202.779 177.118 203.129 176.852C203.479 176.586 203.74 176.224 203.913 175.767C204.09 175.305 204.179 174.787 204.179 174.213C204.179 173.644 204.093 173.13 203.92 172.673C203.747 172.216 203.484 171.854 203.129 171.588C202.779 171.322 202.333 171.189 201.792 171.189C201.265 171.189 200.826 171.317 200.476 171.574C200.131 171.831 199.872 172.188 199.699 172.645C199.526 173.098 199.44 173.62 199.44 174.213C199.44 174.796 199.526 175.319 199.699 175.781C199.872 176.238 200.133 176.598 200.483 176.859C200.833 177.12 201.276 177.251 201.813 177.251ZM209.965 178.21C209.214 178.21 208.572 178.04 208.04 177.699C207.508 177.358 207.1 176.887 206.815 176.285C206.53 175.683 206.388 174.992 206.388 174.213C206.388 173.42 206.533 172.724 206.822 172.127C207.111 171.53 207.522 171.065 208.054 170.734C208.591 170.398 209.228 170.23 209.965 170.23C210.721 170.23 211.365 170.4 211.897 170.741C212.434 171.077 212.842 171.546 213.122 172.148C213.407 172.745 213.549 173.434 213.549 174.213C213.549 175.006 213.407 175.704 213.122 176.306C212.837 176.903 212.427 177.37 211.89 177.706C211.353 178.042 210.712 178.21 209.965 178.21ZM209.965 177.223C210.805 177.223 211.43 176.945 211.841 176.39C212.252 175.83 212.457 175.104 212.457 174.213C212.457 173.298 212.249 172.57 211.834 172.029C211.423 171.488 210.8 171.217 209.965 171.217C209.4 171.217 208.934 171.345 208.565 171.602C208.201 171.854 207.928 172.206 207.746 172.659C207.569 173.107 207.48 173.625 207.48 174.213C207.48 175.123 207.69 175.853 208.11 176.404C208.53 176.95 209.148 177.223 209.965 177.223ZM214.533 179.68V177.118C214.963 177.118 215.271 176.98 215.457 176.705C215.644 176.425 215.796 175.979 215.912 175.368C215.992 174.971 216.057 174.544 216.108 174.087C216.16 173.63 216.204 173.107 216.241 172.519C216.279 171.926 216.314 171.233 216.346 170.44H221.344V177.118H222.072V179.68H221.078V178H215.52V179.68H214.533ZM216.276 177.118H220.322V171.322H217.298C217.284 171.677 217.263 172.052 217.235 172.449C217.212 172.846 217.182 173.242 217.144 173.639C217.112 174.036 217.072 174.409 217.025 174.759C216.983 175.104 216.932 175.408 216.871 175.669C216.801 176.005 216.724 176.292 216.64 176.53C216.561 176.768 216.44 176.964 216.276 177.118ZM224.552 181.36L226.015 177.391L226.036 178.567L222.725 170.44H223.817L226.533 177.237H226.085L228.591 170.44H229.641L225.581 181.36H224.552ZM230.85 178V170.44H231.767L234.714 176.628L237.668 170.44H238.578V178H237.584V172.638L235.043 178H234.392L231.851 172.638V178H230.85ZM242.7 178.21C242.13 178.21 241.652 178.107 241.265 177.902C240.882 177.697 240.595 177.424 240.404 177.083C240.212 176.742 240.117 176.371 240.117 175.97C240.117 175.559 240.198 175.209 240.362 174.92C240.53 174.626 240.756 174.386 241.041 174.199C241.33 174.012 241.664 173.87 242.042 173.772C242.424 173.679 242.847 173.597 243.309 173.527C243.775 173.452 244.23 173.389 244.674 173.338C245.122 173.282 245.514 173.228 245.85 173.177L245.486 173.401C245.5 172.654 245.355 172.101 245.052 171.742C244.748 171.383 244.221 171.203 243.47 171.203C242.952 171.203 242.513 171.32 242.154 171.553C241.799 171.786 241.549 172.155 241.405 172.659L240.404 172.365C240.576 171.688 240.924 171.163 241.447 170.79C241.969 170.417 242.648 170.23 243.484 170.23C244.174 170.23 244.76 170.361 245.241 170.622C245.726 170.879 246.069 171.252 246.27 171.742C246.363 171.961 246.424 172.206 246.452 172.477C246.48 172.748 246.494 173.023 246.494 173.303V178H245.577V176.103L245.843 176.215C245.586 176.864 245.187 177.358 244.646 177.699C244.104 178.04 243.456 178.21 242.7 178.21ZM242.819 177.321C243.299 177.321 243.719 177.235 244.079 177.062C244.438 176.889 244.727 176.654 244.947 176.355C245.166 176.052 245.308 175.711 245.374 175.333C245.43 175.09 245.46 174.824 245.465 174.535C245.469 174.241 245.472 174.022 245.472 173.877L245.864 174.08C245.514 174.127 245.133 174.173 244.723 174.22C244.317 174.267 243.915 174.32 243.519 174.381C243.127 174.442 242.772 174.514 242.455 174.598C242.24 174.659 242.032 174.745 241.832 174.857C241.631 174.964 241.465 175.109 241.335 175.291C241.209 175.473 241.146 175.699 241.146 175.97C241.146 176.189 241.199 176.402 241.307 176.607C241.419 176.812 241.596 176.983 241.839 177.118C242.086 177.253 242.413 177.321 242.819 177.321ZM248.309 178V170.44H249.338V173.723H253.601V170.44H254.63V178H253.601V174.71H249.338V178H248.309ZM256.58 178V170.44H257.609V173.723H261.872V170.44H262.901V178H261.872V174.71H257.609V178H256.58ZM268.016 178.21C267.265 178.21 266.623 178.04 266.091 177.699C265.559 177.358 265.151 176.887 264.866 176.285C264.581 175.683 264.439 174.992 264.439 174.213C264.439 173.42 264.584 172.724 264.873 172.127C265.162 171.53 265.573 171.065 266.105 170.734C266.642 170.398 267.279 170.23 268.016 170.23C268.772 170.23 269.416 170.4 269.948 170.741C270.485 171.077 270.893 171.546 271.173 172.148C271.458 172.745 271.6 173.434 271.6 174.213C271.6 175.006 271.458 175.704 271.173 176.306C270.888 176.903 270.478 177.37 269.941 177.706C269.404 178.042 268.763 178.21 268.016 178.21ZM268.016 177.223C268.856 177.223 269.481 176.945 269.892 176.39C270.303 175.83 270.508 175.104 270.508 174.213C270.508 173.298 270.3 172.57 269.885 172.029C269.474 171.488 268.851 171.217 268.016 171.217C267.451 171.217 266.985 171.345 266.616 171.602C266.252 171.854 265.979 172.206 265.797 172.659C265.62 173.107 265.531 173.625 265.531 174.213C265.531 175.123 265.741 175.853 266.161 176.404C266.581 176.95 267.199 177.223 268.016 177.223ZM276.28 169.544C275.949 169.544 275.645 169.462 275.37 169.299C275.095 169.136 274.875 168.919 274.712 168.648C274.553 168.373 274.474 168.069 274.474 167.738H275.328C275.328 167.999 275.421 168.223 275.608 168.41C275.795 168.597 276.019 168.69 276.28 168.69C276.546 168.69 276.77 168.597 276.952 168.41C277.139 168.223 277.232 167.999 277.232 167.738H278.086C278.086 168.069 278.004 168.373 277.841 168.648C277.682 168.919 277.465 169.136 277.19 169.299C276.915 169.462 276.611 169.544 276.28 169.544ZM279.15 170.44V178H278.149V172.113L274.005 178H273.137V170.44H274.138V176.278L278.289 170.44H279.15ZM287.053 178.21C286.293 178.21 285.649 178.04 285.122 177.699C284.594 177.358 284.193 176.889 283.918 176.292C283.647 175.69 283.507 174.999 283.498 174.22C283.507 173.427 283.652 172.731 283.932 172.134C284.212 171.532 284.615 171.065 285.143 170.734C285.67 170.398 286.309 170.23 287.061 170.23C287.826 170.23 288.491 170.417 289.056 170.79C289.625 171.163 290.015 171.674 290.225 172.323L289.217 172.645C289.039 172.192 288.757 171.842 288.37 171.595C287.987 171.343 287.548 171.217 287.053 171.217C286.498 171.217 286.039 171.345 285.675 171.602C285.311 171.854 285.04 172.206 284.863 172.659C284.685 173.112 284.594 173.632 284.59 174.22C284.599 175.125 284.809 175.853 285.22 176.404C285.63 176.95 286.242 177.223 287.053 177.223C287.567 177.223 288.003 177.106 288.363 176.873C288.727 176.635 289.002 176.29 289.189 175.837L290.225 176.145C289.945 176.817 289.534 177.33 288.993 177.685C288.451 178.035 287.805 178.21 287.053 178.21ZM293.543 178V171.392H290.862V170.44H297.253V171.392H294.572V178H293.543ZM301.982 178.21C301.287 178.21 300.699 178.035 300.218 177.685C299.738 177.33 299.374 176.852 299.126 176.25C298.879 175.643 298.755 174.964 298.755 174.213C298.755 173.448 298.879 172.766 299.126 172.169C299.378 171.567 299.747 171.093 300.232 170.748C300.718 170.403 301.315 170.23 302.024 170.23C302.715 170.23 303.308 170.405 303.802 170.755C304.297 171.105 304.675 171.581 304.936 172.183C305.202 172.785 305.335 173.462 305.335 174.213C305.335 174.969 305.202 175.648 304.936 176.25C304.67 176.852 304.288 177.33 303.788 177.685C303.289 178.035 302.687 178.21 301.982 178.21ZM298.58 181.36V170.44H299.504V176.131H299.616V181.36H298.58ZM301.877 177.251C302.405 177.251 302.843 177.118 303.193 176.852C303.543 176.586 303.805 176.224 303.977 175.767C304.155 175.305 304.243 174.787 304.243 174.213C304.243 173.644 304.157 173.13 303.984 172.673C303.812 172.216 303.548 171.854 303.193 171.588C302.843 171.322 302.398 171.189 301.856 171.189C301.329 171.189 300.89 171.317 300.54 171.574C300.195 171.831 299.936 172.188 299.763 172.645C299.591 173.098 299.504 173.62 299.504 174.213C299.504 174.796 299.591 175.319 299.763 175.781C299.936 176.238 300.197 176.598 300.547 176.859C300.897 177.12 301.341 177.251 301.877 177.251ZM307.677 181.36L309.14 177.391L309.161 178.567L305.85 170.44H306.942L309.658 177.237H309.21L311.716 170.44H312.766L308.706 181.36H307.677ZM313.975 178L313.982 170.44H315.018V174.08L318.392 170.44H319.764L316.222 174.22L320.226 178H318.728L315.018 174.36V178H313.975ZM322.978 178V171.392H320.297V170.44H326.688V171.392H324.007V178H322.978ZM329.005 181.36L330.468 177.391L330.489 178.567L327.178 170.44H328.27L330.986 177.237H330.538L333.044 170.44H334.094L330.034 181.36H329.005ZM338.705 178.21C338.01 178.21 337.422 178.035 336.941 177.685C336.46 177.33 336.096 176.852 335.849 176.25C335.602 175.643 335.478 174.964 335.478 174.213C335.478 173.448 335.602 172.766 335.849 172.169C336.101 171.567 336.47 171.093 336.955 170.748C337.44 170.403 338.038 170.23 338.747 170.23C339.438 170.23 340.03 170.405 340.525 170.755C341.02 171.105 341.398 171.581 341.659 172.183C341.925 172.785 342.058 173.462 342.058 174.213C342.058 174.969 341.925 175.648 341.659 176.25C341.393 176.852 341.01 177.33 340.511 177.685C340.012 178.035 339.41 178.21 338.705 178.21ZM335.303 181.36V170.44H336.227V176.131H336.339V181.36H335.303ZM338.6 177.251C339.127 177.251 339.566 177.118 339.916 176.852C340.266 176.586 340.527 176.224 340.7 175.767C340.877 175.305 340.966 174.787 340.966 174.213C340.966 173.644 340.88 173.13 340.707 172.673C340.534 172.216 340.271 171.854 339.916 171.588C339.566 171.322 339.12 171.189 338.579 171.189C338.052 171.189 337.613 171.317 337.263 171.574C336.918 171.831 336.659 172.188 336.486 172.645C336.313 173.098 336.227 173.62 336.227 174.213C336.227 174.796 336.313 175.319 336.486 175.781C336.659 176.238 336.92 176.598 337.27 176.859C337.62 177.12 338.063 177.251 338.6 177.251ZM343.602 178L343.588 170.44H344.624V173.289H345.94C346.16 173.289 346.374 173.294 346.584 173.303C346.794 173.312 346.983 173.331 347.151 173.359C347.525 173.434 347.856 173.56 348.145 173.737C348.435 173.914 348.663 174.159 348.831 174.472C348.999 174.78 349.083 175.17 349.083 175.641C349.083 176.29 348.915 176.801 348.579 177.174C348.243 177.547 347.821 177.79 347.312 177.902C347.121 177.944 346.913 177.972 346.689 177.986C346.465 177.995 346.246 178 346.031 178H343.602ZM344.624 177.118H345.989C346.143 177.118 346.318 177.113 346.514 177.104C346.71 177.095 346.883 177.069 347.032 177.027C347.284 176.957 347.511 176.817 347.711 176.607C347.917 176.392 348.019 176.07 348.019 175.641C348.019 175.216 347.921 174.897 347.725 174.682C347.529 174.463 347.268 174.318 346.941 174.248C346.792 174.215 346.633 174.194 346.465 174.185C346.302 174.176 346.143 174.171 345.989 174.171H344.624V177.118ZM349.986 178V170.44H351.015V178H349.986ZM26.986 187.44V195H25.985V189.113L21.841 195H20.973V187.44H21.974V193.278L26.125 187.44H26.986ZM35.2534 195.21C34.5488 195.21 33.9141 195.093 33.3494 194.86C32.7894 194.622 32.3251 194.286 31.9564 193.852C31.5924 193.418 31.3544 192.902 31.2424 192.305L32.2924 192.13C32.4604 192.783 32.8151 193.297 33.3564 193.67C33.8978 194.039 34.5441 194.223 35.2954 194.223C35.7901 194.223 36.2334 194.146 36.6254 193.992C37.0174 193.833 37.3254 193.609 37.5494 193.32C37.7734 193.031 37.8854 192.688 37.8854 192.291C37.8854 192.03 37.8388 191.808 37.7454 191.626C37.6521 191.439 37.5284 191.285 37.3744 191.164C37.2204 191.043 37.0524 190.942 36.8704 190.863C36.6884 190.779 36.5111 190.711 36.3384 190.66L33.7834 189.897C33.4754 189.808 33.1908 189.696 32.9294 189.561C32.6681 189.421 32.4394 189.255 32.2434 189.064C32.0521 188.868 31.9028 188.639 31.7954 188.378C31.6881 188.117 31.6344 187.818 31.6344 187.482C31.6344 186.913 31.7838 186.42 32.0824 186.005C32.3811 185.59 32.7894 185.27 33.3074 185.046C33.8254 184.822 34.4158 184.712 35.0784 184.717C35.7504 184.717 36.3501 184.836 36.8774 185.074C37.4094 185.312 37.8481 185.653 38.1934 186.096C38.5388 186.535 38.7674 187.055 38.8794 187.657L37.8014 187.853C37.7314 187.414 37.5704 187.034 37.3184 186.712C37.0664 186.39 36.7444 186.143 36.3524 185.97C35.9651 185.793 35.5381 185.702 35.0714 185.697C34.6188 185.697 34.2151 185.774 33.8604 185.928C33.5104 186.077 33.2328 186.283 33.0274 186.544C32.8221 186.805 32.7194 187.104 32.7194 187.44C32.7194 187.781 32.8128 188.054 32.9994 188.259C33.1908 188.464 33.4241 188.625 33.6994 188.742C33.9794 188.859 34.2501 188.954 34.5114 189.029L36.4854 189.61C36.6908 189.666 36.9311 189.748 37.2064 189.855C37.4864 189.958 37.7571 190.107 38.0184 190.303C38.2844 190.494 38.5038 190.746 38.6764 191.059C38.8491 191.372 38.9354 191.768 38.9354 192.249C38.9354 192.716 38.8421 193.133 38.6554 193.502C38.4734 193.871 38.2144 194.181 37.8784 194.433C37.5471 194.685 37.1574 194.876 36.7094 195.007C36.2661 195.142 35.7808 195.21 35.2534 195.21ZM40.3804 195V184.92H46.6804V185.907H41.4094V189.393H45.8404V190.38H41.4094V194.013H46.6804V195H40.3804ZM52.0219 195.21C51.0186 195.21 50.1716 194.988 49.4809 194.545C48.7903 194.097 48.2676 193.479 47.9129 192.69C47.5583 191.901 47.3809 190.991 47.3809 189.96C47.3809 188.929 47.5583 188.019 47.9129 187.23C48.2676 186.441 48.7903 185.825 49.4809 185.382C50.1716 184.934 51.0186 184.71 52.0219 184.71C53.0299 184.71 53.8769 184.934 54.5629 185.382C55.2536 185.825 55.7763 186.441 56.1309 187.23C56.4903 188.019 56.6699 188.929 56.6699 189.96C56.6699 190.991 56.4903 191.901 56.1309 192.69C55.7763 193.479 55.2536 194.097 54.5629 194.545C53.8769 194.988 53.0299 195.21 52.0219 195.21ZM52.0219 194.223C52.8106 194.223 53.4686 194.043 53.9959 193.684C54.5233 193.325 54.9176 192.825 55.1789 192.186C55.4449 191.542 55.5779 190.8 55.5779 189.96C55.5779 189.12 55.4449 188.38 55.1789 187.741C54.9176 187.102 54.5233 186.602 53.9959 186.243C53.4686 185.884 52.8106 185.702 52.0219 185.697C51.2333 185.697 50.5776 185.877 50.0549 186.236C49.5323 186.595 49.1379 187.097 48.8719 187.741C48.6106 188.38 48.4776 189.12 48.4729 189.96C48.4683 190.8 48.5966 191.54 48.8579 192.179C49.1239 192.814 49.5206 193.313 50.0479 193.677C50.5753 194.036 51.2333 194.218 52.0219 194.223ZM57.9318 191.031V190.149H62.1318V191.031H57.9318ZM67.1077 195.21C66.3564 195.21 65.7147 195.04 65.1827 194.699C64.6507 194.358 64.2424 193.887 63.9577 193.285C63.673 192.683 63.5307 191.992 63.5307 191.213C63.5307 190.42 63.6754 189.724 63.9647 189.127C64.254 188.53 64.6647 188.065 65.1967 187.734C65.7334 187.398 66.3704 187.23 67.1077 187.23C67.8637 187.23 68.5077 187.4 69.0397 187.741C69.5764 188.077 69.9847 188.546 70.2647 189.148C70.5494 189.745 70.6917 190.434 70.6917 191.213C70.6917 192.006 70.5494 192.704 70.2647 193.306C69.98 193.903 69.5694 194.37 69.0327 194.706C68.496 195.042 67.8544 195.21 67.1077 195.21ZM67.1077 194.223C67.9477 194.223 68.573 193.945 68.9837 193.39C69.3944 192.83 69.5997 192.104 69.5997 191.213C69.5997 190.298 69.392 189.57 68.9767 189.029C68.566 188.488 67.943 188.217 67.1077 188.217C66.543 188.217 66.0764 188.345 65.7077 188.602C65.3437 188.854 65.0707 189.206 64.8887 189.659C64.7114 190.107 64.6227 190.625 64.6227 191.213C64.6227 192.123 64.8327 192.853 65.2527 193.404C65.6727 193.95 66.291 194.223 67.1077 194.223ZM75.3719 195.21C74.6112 195.21 73.9672 195.04 73.4399 194.699C72.9125 194.358 72.5112 193.889 72.2359 193.292C71.9652 192.69 71.8252 191.999 71.8159 191.22C71.8252 190.427 71.9699 189.731 72.2499 189.134C72.5299 188.532 72.9335 188.065 73.4609 187.734C73.9882 187.398 74.6275 187.23 75.3789 187.23C76.1442 187.23 76.8092 187.417 77.3739 187.79C77.9432 188.163 78.3329 188.674 78.5429 189.323L77.5349 189.645C77.3575 189.192 77.0752 188.842 76.6879 188.595C76.3052 188.343 75.8665 188.217 75.3719 188.217C74.8165 188.217 74.3569 188.345 73.9929 188.602C73.6289 188.854 73.3582 189.206 73.1809 189.659C73.0035 190.112 72.9125 190.632 72.9079 191.22C72.9172 192.125 73.1272 192.853 73.5379 193.404C73.9485 193.95 74.5599 194.223 75.3719 194.223C75.8852 194.223 76.3215 194.106 76.6809 193.873C77.0449 193.635 77.3202 193.29 77.5069 192.837L78.5429 193.145C78.2629 193.817 77.8522 194.33 77.3109 194.685C76.7695 195.035 76.1232 195.21 75.3719 195.21ZM79.9808 195V187.44H81.0098V190.723H85.2728V187.44H86.3018V195H85.2728V191.71H81.0098V195H79.9808ZM91.4163 195.21C90.665 195.21 90.0233 195.04 89.4913 194.699C88.9593 194.358 88.551 193.887 88.2663 193.285C87.9816 192.683 87.8393 191.992 87.8393 191.213C87.8393 190.42 87.984 189.724 88.2733 189.127C88.5626 188.53 88.9733 188.065 89.5053 187.734C90.042 187.398 90.679 187.23 91.4163 187.23C92.1723 187.23 92.8163 187.4 93.3483 187.741C93.885 188.077 94.2933 188.546 94.5733 189.148C94.858 189.745 95.0003 190.434 95.0003 191.213C95.0003 192.006 94.858 192.704 94.5733 193.306C94.2886 193.903 93.878 194.37 93.3413 194.706C92.8046 195.042 92.163 195.21 91.4163 195.21ZM91.4163 194.223C92.2563 194.223 92.8816 193.945 93.2923 193.39C93.703 192.83 93.9083 192.104 93.9083 191.213C93.9083 190.298 93.7006 189.57 93.2853 189.029C92.8746 188.488 92.2516 188.217 91.4163 188.217C90.8516 188.217 90.385 188.345 90.0163 188.602C89.6523 188.854 89.3793 189.206 89.1973 189.659C89.02 190.107 88.9313 190.625 88.9313 191.213C88.9313 192.123 89.1413 192.853 89.5613 193.404C89.9813 193.95 90.5996 194.223 91.4163 194.223ZM96.5375 195V187.44H99.6525C99.8111 187.44 100.002 187.449 100.226 187.468C100.455 187.487 100.667 187.522 100.863 187.573C101.288 187.685 101.629 187.914 101.885 188.259C102.147 188.604 102.277 189.02 102.277 189.505C102.277 189.776 102.235 190.018 102.151 190.233C102.072 190.443 101.958 190.625 101.808 190.779C101.738 190.858 101.661 190.928 101.577 190.989C101.493 191.045 101.412 191.092 101.332 191.129C101.482 191.157 101.643 191.222 101.815 191.325C102.086 191.484 102.291 191.698 102.431 191.969C102.571 192.235 102.641 192.559 102.641 192.942C102.641 193.46 102.518 193.882 102.27 194.209C102.023 194.536 101.692 194.76 101.276 194.881C101.09 194.932 100.887 194.965 100.667 194.979C100.453 194.993 100.25 195 100.058 195H96.5375ZM97.5735 194.125H100.009C100.107 194.125 100.231 194.118 100.38 194.104C100.53 194.085 100.663 194.062 100.779 194.034C101.055 193.964 101.255 193.824 101.381 193.614C101.512 193.399 101.577 193.166 101.577 192.914C101.577 192.583 101.479 192.312 101.283 192.102C101.092 191.887 100.835 191.757 100.513 191.71C100.406 191.687 100.294 191.673 100.177 191.668C100.061 191.663 99.9558 191.661 99.8625 191.661H97.5735V194.125ZM97.5735 190.779H99.6875C99.8088 190.779 99.9441 190.772 100.093 190.758C100.247 190.739 100.38 190.709 100.492 190.667C100.735 190.583 100.912 190.438 101.024 190.233C101.141 190.028 101.199 189.804 101.199 189.561C101.199 189.295 101.136 189.062 101.01 188.861C100.889 188.66 100.705 188.52 100.457 188.441C100.289 188.38 100.107 188.345 99.9115 188.336C99.7201 188.327 99.5988 188.322 99.5475 188.322H97.5735V190.779ZM104.044 195L104.03 187.44H105.066V190.289H106.382C106.601 190.289 106.816 190.294 107.026 190.303C107.236 190.312 107.425 190.331 107.593 190.359C107.966 190.434 108.297 190.56 108.587 190.737C108.876 190.914 109.105 191.159 109.273 191.472C109.441 191.78 109.525 192.17 109.525 192.641C109.525 193.29 109.357 193.801 109.021 194.174C108.685 194.547 108.262 194.79 107.754 194.902C107.562 194.944 107.355 194.972 107.131 194.986C106.907 194.995 106.687 195 106.473 195H104.044ZM105.066 194.118H106.431C106.585 194.118 106.76 194.113 106.956 194.104C107.152 194.095 107.324 194.069 107.474 194.027C107.726 193.957 107.952 193.817 108.153 193.607C108.358 193.392 108.461 193.07 108.461 192.641C108.461 192.216 108.363 191.897 108.167 191.682C107.971 191.463 107.709 191.318 107.383 191.248C107.233 191.215 107.075 191.194 106.907 191.185C106.743 191.176 106.585 191.171 106.431 191.171H105.066V194.118ZM110.428 195V187.44H111.457V195H110.428ZM113.612 195V193.803H114.809V195H113.612Z" fill="#262626"/>
<rect width="68" height="68" rx="10" fill="#FF5C10"/>
<path d="M34 45.5H50M18 34H50M18 22.5H50" stroke="white" stroke-width="2" stroke-linecap="round" stroke-linejoin="round"/>
</svg>
