<svg width="168" height="18" viewBox="0 0 168 18" fill="none" xmlns="http://www.w3.org/2000/svg">
<path d="M2.16797 0.522217V15.5222H10.9336V17.28H0V0.522217H2.16797ZM26.0883 0.522217L18.975 17.28H16.5727L9.42422 0.522217H11.7094L17.85 15.03L23.8383 0.522217H26.0883ZM28.1414 0.522217V15.5222H36.907V17.28H25.9734V0.522217H28.1414ZM42.1359 12.3113C42.1359 10.5691 42.9641 9.31519 44.6203 8.54956C43.2766 7.72925 42.6047 6.42847 42.6047 4.64722C42.6047 1.78784 44.4797 0.358154 48.2297 0.358154C51.9797 0.358154 53.8547 1.78784 53.8547 4.64722C53.8547 6.42847 53.1633 7.72925 51.7805 8.54956C53.4758 9.31519 54.3234 10.5691 54.3234 12.3113C54.3234 15.7019 52.2922 17.3972 48.2297 17.3972C44.1672 17.3972 42.1359 15.7019 42.1359 12.3113ZM48.2883 7.67065C50.5539 7.67065 51.6867 6.74097 51.6867 4.88159C51.6867 3.06909 50.5031 2.16284 48.1359 2.16284C45.8937 2.16284 44.7727 3.06909 44.7727 4.88159C44.7727 6.74097 45.9445 7.67065 48.2883 7.67065ZM48.2883 15.6394C50.8664 15.6394 52.1555 14.5535 52.1555 12.3816C52.1555 10.4128 50.8156 9.42847 48.1359 9.42847C45.5812 9.42847 44.3039 10.4128 44.3039 12.3816C44.3039 14.5535 45.632 15.6394 48.2883 15.6394ZM59.0695 8.85425C59.0695 13.3777 60.7219 15.6394 64.0266 15.6394C67.2453 15.6394 68.8547 13.3777 68.8547 8.85425C68.8547 4.39331 67.2453 2.16284 64.0266 2.16284C60.7219 2.16284 59.0695 4.39331 59.0695 8.85425ZM56.7844 8.92456C56.7844 3.24487 59.1984 0.405029 64.0266 0.405029C68.7687 0.405029 71.1398 3.24487 71.1398 8.92456C71.1398 14.573 68.7687 17.3972 64.0266 17.3972C59.1984 17.3972 56.7844 14.573 56.7844 8.92456ZM82.6761 17.472C80.4441 17.472 78.7881 17.16 77.5641 16.608L78.0921 11.376H78.1161C78.5481 13.248 79.0761 14.544 79.8201 15.432C80.6361 16.416 81.8361 16.92 83.3001 16.92C85.8921 16.92 87.6441 15.576 87.6441 13.368C87.6441 11.688 86.5881 10.704 83.6361 9.60003C80.6841 8.49603 79.5801 7.12803 79.5801 5.40003C79.5801 2.11203 82.4841 0.0240283 86.3481 0.0240283C87.8601 0.0240283 89.5161 0.288029 90.5241 0.720028L90.1161 5.42403H90.0921C89.6601 3.52803 89.2521 2.44803 88.5321 1.72803C87.7401 0.936028 86.8761 0.576028 85.5321 0.576028C83.3241 0.576028 81.6201 1.94403 81.6201 3.67203C81.6201 5.23203 82.6281 6.04803 85.4361 7.15203C88.4841 8.32803 89.7081 9.72003 89.7081 11.568C89.7081 15.168 86.6361 17.472 82.6761 17.472ZM107.114 0.264028L106.634 5.76003H106.514C106.466 4.10403 105.962 2.83203 105.314 1.96803C104.882 1.39203 104.21 0.816028 103.202 0.816028H102.938C102.17 0.816028 101.69 1.22403 101.522 2.18403L99.0499 15C98.7859 16.32 99.1219 17.064 100.37 17.136L100.346 17.28H94.1059L94.1299 17.136C95.2819 17.04 96.0499 16.272 96.2899 15L98.7859 2.18403C98.9539 1.24803 98.6899 0.816028 97.8499 0.816028H97.5859C96.4579 0.816028 95.4499 1.44003 94.7539 2.08803C93.8899 2.88003 93.0019 4.03203 92.2099 5.76003H92.1139L93.7459 0.264028H107.114ZM114.046 17.472C109.63 17.472 107.446 15.36 108.286 11.064L109.942 2.54403C110.182 1.27203 109.678 0.480028 108.574 0.408029L108.598 0.264028H114.862L114.838 0.408029C113.71 0.480028 112.942 1.24803 112.678 2.54403L110.926 11.688C110.278 15 111.718 16.8 114.742 16.8C117.334 16.8 119.398 15.048 120.094 11.472L121.75 2.97603C122.014 1.70403 121.582 0.600028 120.478 0.408029L120.502 0.264028H124.606L124.582 0.408029C123.43 0.600028 122.59 1.68003 122.35 2.97603L120.694 11.472C119.95 15.216 117.958 17.472 114.046 17.472ZM133.097 0.264028C138.065 0.264028 140.801 3.00003 140.801 7.17603C140.801 12.84 136.097 17.28 130.097 17.28H122.897L122.921 17.136C124.049 17.04 124.841 16.296 125.081 15L127.505 2.54403C127.745 1.24803 127.289 0.480028 126.185 0.408029L126.209 0.264028H133.097ZM129.617 16.728H130.217C134.633 16.728 137.825 12.624 137.825 6.69603C137.825 3.28803 136.073 0.816028 133.049 0.816028H132.809C131.537 0.816028 130.505 1.34403 130.217 2.68803L127.889 14.736C127.649 15.888 128.009 16.728 129.617 16.728ZM147.044 17.28H140.78L140.804 17.136C141.98 17.064 142.748 16.224 142.964 15L145.388 2.54403C145.604 1.29603 145.172 0.480028 144.044 0.408029L144.068 0.264028H150.332L150.308 0.408029C149.132 0.504028 148.388 1.29603 148.124 2.54403L145.724 15C145.46 16.272 145.916 17.064 147.068 17.136L147.044 17.28ZM157.46 17.472C153.284 17.472 150.308 14.592 150.308 10.584C150.308 4.87203 154.748 2.86102e-05 160.34 2.86102e-05C164.492 2.86102e-05 167.492 2.88003 167.492 6.88803C167.492 12.6 163.052 17.472 157.46 17.472ZM157.556 16.944C161.42 16.944 164.516 12.072 164.516 6.48003C164.516 2.95203 163.148 0.528029 160.22 0.528029C156.38 0.528029 153.26 5.40003 153.26 10.992C153.26 14.52 154.628 16.944 157.556 16.944Z" fill="white"/>
<path d="M75.7805 15.1121V17.28H73.6125V15.1121H75.7805Z" fill="#FF5C10"/>
</svg>
