<svg width="32" height="28" viewBox="0 0 32 28" fill="none" xmlns="http://www.w3.org/2000/svg">
<g filter="url(#filter0_d_338_1046)">
<path d="M4.63053 9.11689C4.68565 9.08914 4.74079 9.06277 4.79453 9.03779C5.72874 8.60212 6.67535 8.19419 7.62058 7.78627C7.67156 7.78627 7.75697 7.72659 7.80519 7.70717C7.87822 7.67526 7.95126 7.64474 8.02429 7.61283C8.16484 7.55178 8.30539 7.49211 8.44455 7.43106C8.72564 7.31035 9.00534 7.18965 9.28642 7.06894C9.84723 6.82752 10.408 6.58609 10.9688 6.34328C12.0904 5.86043 13.2134 5.37617 14.335 4.89332C15.4566 4.41047 16.5796 3.92624 17.7012 3.44339C18.8228 2.96054 19.9458 2.47631 21.0674 1.99347C22.189 1.51062 23.312 1.02639 24.4336 0.543538C24.683 0.435314 24.953 0.27436 25.2203 0.227185C25.4449 0.186948 25.664 0.10926 25.89 0.0662477C26.3185 -0.0156146 26.7911 -0.04892 27.2017 0.130067C27.3437 0.192504 27.4746 0.279899 27.5834 0.389511C28.1043 0.908435 28.0312 1.76038 27.921 2.4902C27.1535 7.57676 26.386 12.6647 25.6172 17.7513C25.5124 18.4492 25.3691 19.2151 24.8221 19.6563C24.3591 20.0295 23.7005 20.0711 23.1287 19.913C22.5569 19.7534 22.0526 19.419 21.5579 19.0902C19.5062 17.7221 17.4532 16.354 15.4015 14.986C14.9137 14.6613 14.3709 14.2367 14.3764 13.6471C14.3791 13.2919 14.5899 12.9755 14.8049 12.6938C16.5879 10.3517 19.1604 8.74226 21.0743 6.50839C21.3443 6.19342 21.5565 5.62456 21.1859 5.4428C20.9654 5.33457 20.7119 5.48162 20.5107 5.62176C17.9809 7.39082 15.4525 9.16126 12.9227 10.9303C12.0973 11.5075 11.232 12.1014 10.2372 12.2429C9.34707 12.3705 8.45145 12.1208 7.59027 11.8655C6.86826 11.6518 6.1476 11.4326 5.42972 11.2064C5.04804 11.0871 4.65396 10.9581 4.35909 10.6875C4.06423 10.4169 3.89477 9.96187 4.07252 9.60112C4.18412 9.37496 4.40046 9.23205 4.62781 9.1155L4.63053 9.11689Z" fill="white"/>
</g>
<defs>
<filter id="filter0_d_338_1046" x="0" y="0" width="32" height="28" filterUnits="userSpaceOnUse" color-interpolation-filters="sRGB">
<feFlood flood-opacity="0" result="BackgroundImageFix"/>
<feColorMatrix in="SourceAlpha" type="matrix" values="0 0 0 0 0 0 0 0 0 0 0 0 0 0 0 0 0 0 127 0" result="hardAlpha"/>
<feOffset dy="4"/>
<feGaussianBlur stdDeviation="2"/>
<feComposite in2="hardAlpha" operator="out"/>
<feColorMatrix type="matrix" values="0 0 0 0 0 0 0 0 0 0 0 0 0 0 0 0 0 0 0.25 0"/>
<feBlend mode="normal" in2="BackgroundImageFix" result="effect1_dropShadow_338_1046"/>
<feBlend mode="normal" in="SourceGraphic" in2="effect1_dropShadow_338_1046" result="shape"/>
</filter>
</defs>
</svg>
