<svg width="29" height="20" viewBox="0 0 29 20" fill="none" xmlns="http://www.w3.org/2000/svg">
<path d="M28.7528 5.36145C28.5747 3.66085 28.1914 1.7809 26.7807 0.792941C25.688 0.0268032 24.2519 -0.00152018 22.9111 5.30015e-05C20.0769 0.00162618 17.2411 0.00477868 14.4069 0.00635186C11.6809 0.00949821 8.95482 0.0110791 6.22878 0.0142254C5.09001 0.0157986 3.98305 -0.0722916 2.92539 0.415393C2.01724 0.833858 1.30631 1.62986 0.878476 2.51556C0.285235 3.74736 0.161185 5.14278 0.0896148 6.50516C-0.0423932 8.98606 -0.0280791 11.4733 0.129376 13.9526C0.24548 15.7617 0.53971 17.7612 1.95363 18.9144C3.20691 19.9354 4.97549 19.9857 6.60094 19.9873C11.7604 19.992 16.9214 19.9967 22.0825 19.9999C22.7441 20.0014 23.4344 19.9889 24.1087 19.9165C25.4352 19.7749 26.6996 19.3989 27.552 18.4267C28.4125 17.4466 28.6336 16.0826 28.764 14.7911C29.0821 11.6573 29.0789 8.49365 28.7528 5.36145ZM11.4232 14.3931V5.60688L19.1147 9.99918L11.4232 14.3931Z" fill="white"/>
</svg>
