<svg width="68" height="68" viewBox="0 0 68 68" fill="none" xmlns="http://www.w3.org/2000/svg">
<rect width="68" height="68" rx="10" fill="#FF5C10" fill-opacity="0.3"/>
<path fill-rule="evenodd" clip-rule="evenodd" d="M15.0114 14H52.9517C53.5103 14 53.9635 14.4536 53.9635 15.0128C53.9635 17.7886 54.3398 19.8936 52.6753 21.9137L40.9342 36.1602C40.3765 36.8374 40.1122 37.5871 40.1122 38.4703V45.6378C40.1122 45.9889 39.9333 46.299 39.6615 46.4806L29.4518 53.8106C28.7763 54.2952 27.8513 53.7881 27.8518 52.9879L27.8513 38.4703C27.8513 37.5871 27.5875 36.8369 27.0294 36.1602L15.2882 21.9137C14.4262 20.8679 14 19.6696 14 18.3222V15.0133C14 14.4536 14.4527 14 15.0114 14ZM51.9403 16.0256H16.0232C16.0232 17.639 15.7604 19.316 16.8452 20.6323L28.5864 34.8788C29.4513 35.9291 29.8746 37.1129 29.8746 38.4703V51.0158L38.0889 45.1187V38.4703C38.0889 37.1129 38.5122 35.9286 39.3771 34.8788L51.1183 20.6323C52.1986 19.3215 51.9403 17.625 51.9403 16.0256Z" fill="#FF5C10"/>
</svg>
