<svg width="68" height="68" viewBox="0 0 68 68" fill="none" xmlns="http://www.w3.org/2000/svg">
<rect width="68" height="68" rx="10" fill="#FF5C10" fill-opacity="0.3"/>
<path d="M41.7421 14.4993H52.0643C52.445 14.4993 52.8108 14.651 53.08 14.9202C53.3489 15.1893 53.4999 15.5543 53.4999 15.9348V26.2581C53.4998 27.0508 52.8571 27.6936 52.0643 27.6936C51.2717 27.6935 50.6289 27.0507 50.6288 26.2581V19.3987L49.7753 20.2522L37.5946 32.4338C37.3256 32.7023 36.961 32.8527 36.5809 32.8528C36.2006 32.8528 35.8354 32.7025 35.5663 32.4338L29.1923 26.0588L28.8387 25.7053L28.4852 26.0588L17.5175 37.0276L17.371 37.1741V49.1301C17.3712 49.9584 18.0427 50.6301 18.871 50.6301H52.0643C52.8572 50.6301 53.4999 51.2728 53.4999 52.0657C53.4997 52.8584 52.8571 53.5012 52.0643 53.5012L17.9999 53.5002C16.0669 53.5002 14.4999 51.9332 14.4999 50.0002V15.9348C14.4999 15.1421 15.1427 14.4993 15.9354 14.4993C16.7282 14.4993 17.371 15.142 17.371 15.9348V33.1165L18.2245 32.2629L27.8231 22.6624L27.8241 22.6633C28.0932 22.3945 28.4584 22.2434 28.8387 22.2434C29.2191 22.2434 29.5842 22.3945 29.8534 22.6633V22.6624L36.2274 29.0374L36.5809 29.3909L36.9344 29.0374L47.7469 18.2239L48.6005 17.3704H41.7421C40.9492 17.3704 40.3065 16.7277 40.3065 15.9348C40.3065 15.142 40.9492 14.4993 41.7421 14.4993Z" fill="#FF5C10" stroke="#62301A"/>
</svg>
