<svg width="68" height="68" viewBox="0 0 68 68" fill="none" xmlns="http://www.w3.org/2000/svg">
<rect width="68" height="68" rx="10" fill="#FF5C10" fill-opacity="0.3"/>
<path fill-rule="evenodd" clip-rule="evenodd" d="M48.9022 24.2631L34.9807 16.2262C34.3735 15.8748 33.6264 15.8748 33.0192 16.2262L19.0977 24.2631C18.4887 24.6127 18.1152 25.2622 18.1152 25.9632V42.0373C18.1152 42.7384 18.4887 43.3879 19.0977 43.7375L33.0192 51.7743C33.6264 52.1258 34.3735 52.1258 34.9807 51.7743L48.9022 43.7375C49.5094 43.3879 49.8847 42.7384 49.8847 42.0373V25.9632C49.8847 25.2622 49.5093 24.6127 48.9022 24.2631ZM35.9633 14.5258C34.7489 13.8247 33.2511 13.8247 32.0367 14.5258L18.1153 22.5626C16.9009 23.2637 16.1538 24.559 16.1538 25.9629V42.0371C16.1538 43.4392 16.9008 44.7363 18.1153 45.4374L32.0367 53.4742C33.2511 54.1753 34.7489 54.1753 35.9633 53.4742L49.8848 45.4374C51.0991 44.7363 51.8462 43.4392 51.8462 42.0371V25.9629C51.8462 24.559 51.0992 23.2637 49.8848 22.5626L35.9633 14.5258Z" fill="#FF5C10"/>
<path fill-rule="evenodd" clip-rule="evenodd" d="M17.4441 24.6878C17.7091 24.2149 18.3071 24.0475 18.78 24.3125L34.4806 33.1444C34.9534 33.4112 35.1209 34.0092 34.8559 34.4802C34.5891 34.9531 33.9911 35.1205 33.5201 34.8556L17.8176 26.0236C17.3447 25.7568 17.1773 25.1589 17.4441 24.6878Z" fill="#FF5C10"/>
<path fill-rule="evenodd" clip-rule="evenodd" d="M33.9994 33.0195C34.5422 33.0195 34.9801 33.4574 34.9801 34.0002V52.6448C34.9801 53.1876 34.5422 53.6273 33.9994 53.6273C33.4566 53.6273 33.0187 53.1876 33.0187 52.6448V34.0002C33.0187 33.4575 33.4566 33.0195 33.9994 33.0195Z" fill="#FF5C10"/>
<path fill-rule="evenodd" clip-rule="evenodd" d="M50.5562 24.6878C50.823 25.1589 50.6555 25.7568 50.1827 26.0236L34.4802 34.8556C34.0091 35.1205 33.4112 34.9531 33.1444 34.4802C32.8794 34.0092 33.0468 33.4112 33.5197 33.1444L49.2203 24.3125C49.6932 24.0475 50.2912 24.2149 50.5562 24.6878Z" fill="#FF5C10"/>
</svg>
