<svg width="68" height="68" viewBox="0 0 68 68" fill="none" xmlns="http://www.w3.org/2000/svg">
<rect width="68" height="68" rx="10" fill="#FF5C10" fill-opacity="0.3"/>
<path d="M18.7625 17.8089H36.4946C37.0214 17.8089 37.4482 17.3821 37.4482 16.8571C37.4482 16.3304 37.0214 15.9036 36.4946 15.9036H18.7625C16.1339 15.9071 14.0037 18.0375 14 20.6661V49.2375C14.0036 51.866 16.1339 53.9963 18.7625 54H47.3339C49.9625 53.9964 52.0927 51.866 52.0964 49.2375V31.5054C52.0964 30.9786 51.6696 30.5518 51.1429 30.5518C50.6179 30.5518 50.1911 30.9786 50.1911 31.5054V49.2375C50.1893 50.8142 48.9107 52.0928 47.3339 52.0946H18.7626C17.1858 52.0928 15.9072 50.8142 15.9054 49.2375V20.6661C15.9072 19.0893 17.1857 17.8107 18.7625 17.8089Z" fill="#FF5C10"/>
<path d="M53.4127 14.0732C53.2967 14.025 53.1735 14 53.0485 14H43.5253C42.9985 14 42.5717 14.425 42.5717 14.9518C42.5717 15.4785 42.9985 15.9035 43.5253 15.9035H50.7504L32.3756 34.2784C32.1916 34.4552 32.0863 34.6998 32.0845 34.9552C32.0827 35.2105 32.1827 35.457 32.3631 35.6373C32.5434 35.8177 32.7899 35.9177 33.0452 35.9159C33.3006 35.9141 33.5452 35.8087 33.722 35.6248L52.0968 17.2518V24.4751C52.0968 25.0019 52.5218 25.4287 53.0486 25.4287C53.5754 25.4287 54.0004 25.0019 54.0004 24.4751V14.9519C54.0004 14.568 53.7681 14.2214 53.4127 14.0732Z" fill="#FF5C10"/>
</svg>
