<svg width="655" height="150" viewBox="0 0 655 150" fill="none" xmlns="http://www.w3.org/2000/svg">
<path d="M620.836 141.083L629.967 115.995L654.467 124.912L645.336 150L620.836 141.083Z" fill="#7F7F7F"/>
<path d="M620.836 141.083L629.967 115.995L654.467 124.912L645.336 150L620.836 141.083Z" fill="black" fill-opacity="0.2"/>
<path d="M558.004 147.572C548.498 147.572 539.842 145.264 532.034 140.647C524.293 136.03 518.115 129.851 513.498 122.111C508.881 114.303 506.573 105.68 506.573 96.2428C506.573 86.7373 508.881 78.1145 513.498 70.3744C518.115 62.5663 524.293 56.3539 532.034 51.7369C539.842 47.12 548.498 44.8115 558.004 44.8115C565.065 44.8115 571.685 46.1694 577.863 48.8853C584.11 51.5332 591.307 56.931 599.454 65.0785L582.243 82.392C576.268 76.4171 571.651 72.7508 568.392 71.3928C565.133 69.967 561.67 69.2541 558.004 69.2541C553.047 69.2541 548.498 70.4762 544.357 72.9205C540.283 75.2969 537.024 78.5219 534.58 82.5957C532.203 86.6694 531.015 91.2185 531.015 96.2428C531.015 101.199 532.203 105.714 534.58 109.788C537.024 113.862 540.283 117.121 544.357 119.565C548.498 121.941 553.047 123.13 558.004 123.13C561.67 123.13 565.133 122.451 568.392 121.093C571.651 119.667 576.268 115.967 582.243 109.992L599.556 127.305C591.341 135.453 584.11 140.884 577.863 143.6C571.685 146.248 565.065 147.572 558.004 147.572Z" fill="#7F7F7F"/>
<path d="M558.004 147.572C548.498 147.572 539.842 145.264 532.034 140.647C524.293 136.03 518.115 129.851 513.498 122.111C508.881 114.303 506.573 105.68 506.573 96.2428C506.573 86.7373 508.881 78.1145 513.498 70.3744C518.115 62.5663 524.293 56.3539 532.034 51.7369C539.842 47.12 548.498 44.8115 558.004 44.8115C565.065 44.8115 571.685 46.1694 577.863 48.8853C584.11 51.5332 591.307 56.931 599.454 65.0785L582.243 82.392C576.268 76.4171 571.651 72.7508 568.392 71.3928C565.133 69.967 561.67 69.2541 558.004 69.2541C553.047 69.2541 548.498 70.4762 544.357 72.9205C540.283 75.2969 537.024 78.5219 534.58 82.5957C532.203 86.6694 531.015 91.2185 531.015 96.2428C531.015 101.199 532.203 105.714 534.58 109.788C537.024 113.862 540.283 117.121 544.357 119.565C548.498 121.941 553.047 123.13 558.004 123.13C561.67 123.13 565.133 122.451 568.392 121.093C571.651 119.667 576.268 115.967 582.243 109.992L599.556 127.305C591.341 135.453 584.11 140.884 577.863 143.6C571.685 146.248 565.065 147.572 558.004 147.572Z" fill="black" fill-opacity="0.2"/>
<path d="M490.379 146.147C476.325 146.147 465.495 143.906 457.891 139.425C450.355 134.876 444.346 128.833 439.865 121.297C435.384 113.76 433.075 107.887 432.939 103.678H424.283V146.147H399.84V46.1357H424.283V79.1332H429.68C434.365 79.1332 438.643 78.0129 442.513 75.7724C446.383 73.4639 449.438 70.3746 451.679 66.5046C453.987 62.5666 455.141 55.777 455.141 46.1357H479.686C479.686 63.1098 475.884 76.1798 468.279 85.3457C464.138 90.2342 460.539 93.5611 457.484 95.3264V96.0394C457.484 100.792 458.638 105.137 460.946 109.075C463.255 112.945 466.344 116.035 470.214 118.343C474.152 120.652 480.874 121.806 490.379 121.806V146.147Z" fill="#7F7F7F"/>
<path d="M490.379 146.147C476.325 146.147 465.495 143.906 457.891 139.425C450.355 134.876 444.346 128.833 439.865 121.297C435.384 113.76 433.075 107.887 432.939 103.678H424.283V146.147H399.84V46.1357H424.283V79.1332H429.68C434.365 79.1332 438.643 78.0129 442.513 75.7724C446.383 73.4639 449.438 70.3746 451.679 66.5046C453.987 62.5666 455.141 55.777 455.141 46.1357H479.686C479.686 63.1098 475.884 76.1798 468.279 85.3457C464.138 90.2342 460.539 93.5611 457.484 95.3264V96.0394C457.484 100.792 458.638 105.137 460.946 109.075C463.255 112.945 466.344 116.035 470.214 118.343C474.152 120.652 480.874 121.806 490.379 121.806V146.147Z" fill="black" fill-opacity="0.2"/>
<path d="M330.891 147.572C321.454 147.572 312.831 145.264 305.023 140.647C297.215 136.03 291.003 129.817 286.386 122.009C281.769 114.201 279.46 105.612 279.46 96.2428C279.46 86.8052 281.769 78.1824 286.386 70.3744C291.003 62.5663 297.215 56.3539 305.023 51.7369C312.831 47.12 321.454 44.8115 330.891 44.8115C339.65 44.8115 347.73 46.8484 355.13 50.9222C362.531 54.928 368.574 60.3597 373.259 67.2172C377.943 74.0747 380.829 81.9507 381.915 90.8451L382.119 96.2428L381.712 108.362H305.532C305.668 109.449 308.214 112.198 313.171 116.612C318.127 121.025 324.034 123.231 330.891 123.231C337.477 123.231 345.014 119.633 353.501 112.436L370.509 129.648C362.09 137.116 354.995 141.971 349.223 144.211C343.452 146.452 337.342 147.572 330.891 147.572ZM356.251 84.0215C356.047 82.9352 353.433 80.2193 348.409 75.874C343.452 71.4607 337.613 69.2541 330.891 69.2541C324.034 69.2541 318.127 71.4607 313.171 75.874C308.214 80.2193 305.634 82.9352 305.43 84.0215H356.251Z" fill="#7F7F7F"/>
<path d="M330.891 147.572C321.454 147.572 312.831 145.264 305.023 140.647C297.215 136.03 291.003 129.817 286.386 122.009C281.769 114.201 279.46 105.612 279.46 96.2428C279.46 86.8052 281.769 78.1824 286.386 70.3744C291.003 62.5663 297.215 56.3539 305.023 51.7369C312.831 47.12 321.454 44.8115 330.891 44.8115C339.65 44.8115 347.73 46.8484 355.13 50.9222C362.531 54.928 368.574 60.3597 373.259 67.2172C377.943 74.0747 380.829 81.9507 381.915 90.8451L382.119 96.2428L381.712 108.362H305.532C305.668 109.449 308.214 112.198 313.171 116.612C318.127 121.025 324.034 123.231 330.891 123.231C337.477 123.231 345.014 119.633 353.501 112.436L370.509 129.648C362.09 137.116 354.995 141.971 349.223 144.211C343.452 146.452 337.342 147.572 330.891 147.572ZM356.251 84.0215C356.047 82.9352 353.433 80.2193 348.409 75.874C343.452 71.4607 337.613 69.2541 330.891 69.2541C324.034 69.2541 318.127 71.4607 313.171 75.874C308.214 80.2193 305.634 82.9352 305.43 84.0215H356.251Z" fill="black" fill-opacity="0.2"/>
<path d="M256.342 146.146H231.899V70.578H190.856V146.146H166.413V46.2373H256.342V146.146Z" fill="#7F7F7F"/>
<path d="M256.342 146.146H231.899V70.578H190.856V146.146H166.413V46.2373H256.342V146.146Z" fill="black" fill-opacity="0.2"/>
<path d="M117.426 148.183H144.72L82.7993 0H61.9212L0 148.183H27.2942L39.1081 119.769H89.3816L75.0855 94.6132H49.6999L72.3093 40.2284L95.0205 94.6132L117.426 148.183Z" fill="#7F7F7F"/>
<path d="M117.426 148.183H144.72L82.7993 0H61.9212L0 148.183H27.2942L39.1081 119.769H89.3816L75.0855 94.6132H49.6999L72.3093 40.2284L95.0205 94.6132L117.426 148.183Z" fill="black" fill-opacity="0.2"/>
</svg>
