<svg width="440" height="220" viewBox="0 0 440 220" fill="none" xmlns="http://www.w3.org/2000/svg">
<path d="M430 0C435.523 0 440 4.47715 440 10V210C440 215.523 435.523 220 430 220H10C4.47715 220 1.61069e-07 215.523 0 210V95C0 89.4771 4.47715 85 10 85H75C80.5229 85 85 80.5229 85 75V10C85 4.47715 89.4771 0 95 0H430Z" fill="white"/>
<path d="M26.507 134.27C25.217 134.27 24.128 133.985 23.24 133.415C22.352 132.839 21.68 132.044 21.224 131.03C20.768 130.016 20.54 128.846 20.54 127.52C20.54 126.194 20.768 125.024 21.224 124.01C21.68 122.996 22.352 122.204 23.24 121.634C24.128 121.058 25.217 120.77 26.507 120.77C28.013 120.77 29.243 121.157 30.197 121.931C31.151 122.699 31.805 123.731 32.159 125.027L30.809 125.378C30.533 124.352 30.038 123.539 29.324 122.939C28.61 122.339 27.671 122.039 26.507 122.039C25.493 122.039 24.65 122.27 23.978 122.732C23.306 123.194 22.799 123.839 22.457 124.667C22.121 125.489 21.947 126.44 21.935 127.52C21.929 128.6 22.094 129.551 22.43 130.373C22.772 131.195 23.282 131.84 23.96 132.308C24.644 132.77 25.493 133.001 26.507 133.001C27.671 133.001 28.61 132.701 29.324 132.101C30.038 131.495 30.533 130.682 30.809 129.662L32.159 130.013C31.805 131.309 31.151 132.344 30.197 133.118C29.243 133.886 28.013 134.27 26.507 134.27ZM36.9258 134.27C36.1938 134.27 35.5788 134.138 35.0808 133.874C34.5888 133.61 34.2198 133.259 33.9738 132.821C33.7278 132.383 33.6048 131.906 33.6048 131.39C33.6048 130.862 33.7098 130.412 33.9198 130.04C34.1358 129.662 34.4268 129.353 34.7928 129.113C35.1648 128.873 35.5938 128.69 36.0798 128.564C36.5718 128.444 37.1148 128.339 37.7088 128.249C38.3088 128.153 38.8938 128.072 39.4638 128.006C40.0398 127.934 40.5438 127.865 40.9758 127.799L40.5078 128.087C40.5258 127.127 40.3398 126.416 39.9498 125.954C39.5598 125.492 38.8818 125.261 37.9158 125.261C37.2498 125.261 36.6858 125.411 36.2238 125.711C35.7678 126.011 35.4468 126.485 35.2608 127.133L33.9738 126.755C34.1958 125.885 34.6428 125.21 35.3148 124.73C35.9868 124.25 36.8598 124.01 37.9338 124.01C38.8218 124.01 39.5748 124.178 40.1928 124.514C40.8168 124.844 41.2578 125.324 41.5158 125.954C41.6358 126.236 41.7138 126.551 41.7498 126.899C41.7858 127.247 41.8038 127.601 41.8038 127.961V134H40.6248V131.561L40.9668 131.705C40.6368 132.539 40.1238 133.175 39.4278 133.613C38.7318 134.051 37.8978 134.27 36.9258 134.27ZM37.0788 133.127C37.6968 133.127 38.2368 133.016 38.6988 132.794C39.1608 132.572 39.5328 132.269 39.8148 131.885C40.0968 131.495 40.2798 131.057 40.3638 130.571C40.4358 130.259 40.4748 129.917 40.4808 129.545C40.4868 129.167 40.4898 128.885 40.4898 128.699L40.9938 128.96C40.5438 129.02 40.0548 129.08 39.5268 129.14C39.0048 129.2 38.4888 129.269 37.9788 129.347C37.4748 129.425 37.0188 129.518 36.6108 129.626C36.3348 129.704 36.0678 129.815 35.8098 129.959C35.5518 130.097 35.3388 130.283 35.1708 130.517C35.0088 130.751 34.9278 131.042 34.9278 131.39C34.9278 131.672 34.9968 131.945 35.1348 132.209C35.2788 132.473 35.5068 132.692 35.8188 132.866C36.1368 133.04 36.5568 133.127 37.0788 133.127ZM48.1787 123.128C47.7527 123.128 47.3627 123.023 47.0087 122.813C46.6547 122.603 46.3727 122.324 46.1627 121.976C45.9587 121.622 45.8567 121.232 45.8567 120.806H46.9547C46.9547 121.142 47.0747 121.43 47.3147 121.67C47.5547 121.91 47.8427 122.03 48.1787 122.03C48.5207 122.03 48.8087 121.91 49.0427 121.67C49.2827 121.43 49.4027 121.142 49.4027 120.806H50.5007C50.5007 121.232 50.3957 121.622 50.1857 121.976C49.9817 122.324 49.7027 122.603 49.3487 122.813C48.9947 123.023 48.6047 123.128 48.1787 123.128ZM51.8687 124.28V134H50.5817V126.431L45.2537 134H44.1377V124.28H45.4247V131.786L50.7617 124.28H51.8687ZM57.0318 134V125.504H53.5848V124.28H61.8018V125.504H58.3548V134H57.0318ZM71.1533 134.27C70.1753 134.27 69.3473 134.051 68.6693 133.613C67.9913 133.175 67.4753 132.572 67.1213 131.804C66.7733 131.03 66.5933 130.142 66.5813 129.14C66.5933 128.12 66.7793 127.226 67.1393 126.458C67.4993 125.684 68.0183 125.084 68.6963 124.658C69.3743 124.226 70.1963 124.01 71.1623 124.01C72.1463 124.01 73.0013 124.25 73.7273 124.73C74.4593 125.21 74.9603 125.867 75.2303 126.701L73.9343 127.115C73.7063 126.533 73.3433 126.083 72.8453 125.765C72.3533 125.441 71.7893 125.279 71.1533 125.279C70.4393 125.279 69.8483 125.444 69.3803 125.774C68.9123 126.098 68.5643 126.551 68.3363 127.133C68.1083 127.715 67.9913 128.384 67.9853 129.14C67.9973 130.304 68.2673 131.24 68.7953 131.948C69.3233 132.65 70.1093 133.001 71.1533 133.001C71.8133 133.001 72.3743 132.851 72.8363 132.551C73.3043 132.245 73.6583 131.801 73.8983 131.219L75.2303 131.615C74.8703 132.479 74.3423 133.139 73.6463 133.595C72.9503 134.045 72.1193 134.27 71.1533 134.27ZM80.6826 134V124.28H88.4136V134H87.0906V125.549H82.0056V134H80.6826ZM95.3047 134.27C94.4107 134.27 93.6547 134.045 93.0367 133.595C92.4187 133.139 91.9507 132.524 91.6327 131.75C91.3147 130.97 91.1557 130.097 91.1557 129.131C91.1557 128.147 91.3147 127.271 91.6327 126.503C91.9567 125.729 92.4307 125.12 93.0547 124.676C93.6787 124.232 94.4467 124.01 95.3587 124.01C96.2467 124.01 97.0087 124.235 97.6447 124.685C98.2807 125.135 98.7667 125.747 99.1027 126.521C99.4447 127.295 99.6157 128.165 99.6157 129.131C99.6157 130.103 99.4447 130.976 99.1027 131.75C98.7607 132.524 98.2687 133.139 97.6267 133.595C96.9847 134.045 96.2107 134.27 95.3047 134.27ZM90.9307 138.32V124.28H92.1187V131.597H92.2627V138.32H90.9307ZM95.1697 133.037C95.8477 133.037 96.4117 132.866 96.8617 132.524C97.3117 132.182 97.6477 131.717 97.8697 131.129C98.0977 130.535 98.2117 129.869 98.2117 129.131C98.2117 128.399 98.1007 127.739 97.8787 127.151C97.6567 126.563 97.3177 126.098 96.8617 125.756C96.4117 125.414 95.8387 125.243 95.1427 125.243C94.4647 125.243 93.9007 125.408 93.4507 125.738C93.0067 126.068 92.6737 126.527 92.4517 127.115C92.2297 127.697 92.1187 128.369 92.1187 129.131C92.1187 129.881 92.2297 130.553 92.4517 131.147C92.6737 131.735 93.0097 132.197 93.4597 132.533C93.9097 132.869 94.4797 133.037 95.1697 133.037ZM105.651 134.27C104.685 134.27 103.86 134.051 103.176 133.613C102.492 133.175 101.967 132.569 101.601 131.795C101.235 131.021 101.052 130.133 101.052 129.131C101.052 128.111 101.238 127.217 101.61 126.449C101.982 125.681 102.51 125.084 103.194 124.658C103.884 124.226 104.703 124.01 105.651 124.01C106.623 124.01 107.451 124.229 108.135 124.667C108.825 125.099 109.35 125.702 109.71 126.476C110.076 127.244 110.259 128.129 110.259 129.131C110.259 130.151 110.076 131.048 109.71 131.822C109.344 132.59 108.816 133.19 108.126 133.622C107.436 134.054 106.611 134.27 105.651 134.27ZM105.651 133.001C106.731 133.001 107.535 132.644 108.063 131.93C108.591 131.21 108.855 130.277 108.855 129.131C108.855 127.955 108.588 127.019 108.054 126.323C107.526 125.627 106.725 125.279 105.651 125.279C104.925 125.279 104.325 125.444 103.851 125.774C103.383 126.098 103.032 126.551 102.798 127.133C102.57 127.709 102.456 128.375 102.456 129.131C102.456 130.301 102.726 131.24 103.266 131.948C103.806 132.65 104.601 133.001 105.651 133.001ZM111.524 136.16V132.866C112.076 132.866 112.472 132.689 112.712 132.335C112.952 131.975 113.147 131.402 113.297 130.616C113.399 130.106 113.483 129.557 113.549 128.969C113.615 128.381 113.672 127.709 113.72 126.953C113.768 126.191 113.813 125.3 113.855 124.28H120.281V132.866H121.217V136.16H119.939V134H112.793V136.16H111.524ZM113.765 132.866H118.967V125.414H115.079C115.061 125.87 115.034 126.353 114.998 126.863C114.968 127.373 114.929 127.883 114.881 128.393C114.839 128.903 114.788 129.383 114.728 129.833C114.674 130.277 114.608 130.667 114.53 131.003C114.44 131.435 114.341 131.804 114.233 132.11C114.131 132.416 113.975 132.668 113.765 132.866ZM124.406 138.32L126.287 133.217L126.314 134.729L122.057 124.28H123.461L126.953 133.019H126.377L129.599 124.28H130.949L125.729 138.32H124.406ZM132.503 134V124.28H133.682L137.471 132.236L141.269 124.28H142.439V134H141.161V127.106L137.894 134H137.057L133.79 127.106V134H132.503ZM147.738 134.27C147.006 134.27 146.391 134.138 145.893 133.874C145.401 133.61 145.032 133.259 144.786 132.821C144.54 132.383 144.417 131.906 144.417 131.39C144.417 130.862 144.522 130.412 144.732 130.04C144.948 129.662 145.239 129.353 145.605 129.113C145.977 128.873 146.406 128.69 146.892 128.564C147.384 128.444 147.927 128.339 148.521 128.249C149.121 128.153 149.706 128.072 150.276 128.006C150.852 127.934 151.356 127.865 151.788 127.799L151.32 128.087C151.338 127.127 151.152 126.416 150.762 125.954C150.372 125.492 149.694 125.261 148.728 125.261C148.062 125.261 147.498 125.411 147.036 125.711C146.58 126.011 146.259 126.485 146.073 127.133L144.786 126.755C145.008 125.885 145.455 125.21 146.127 124.73C146.799 124.25 147.672 124.01 148.746 124.01C149.634 124.01 150.387 124.178 151.005 124.514C151.629 124.844 152.07 125.324 152.328 125.954C152.448 126.236 152.526 126.551 152.562 126.899C152.598 127.247 152.616 127.601 152.616 127.961V134H151.437V131.561L151.779 131.705C151.449 132.539 150.936 133.175 150.24 133.613C149.544 134.051 148.71 134.27 147.738 134.27ZM147.891 133.127C148.509 133.127 149.049 133.016 149.511 132.794C149.973 132.572 150.345 132.269 150.627 131.885C150.909 131.495 151.092 131.057 151.176 130.571C151.248 130.259 151.287 129.917 151.293 129.545C151.299 129.167 151.302 128.885 151.302 128.699L151.806 128.96C151.356 129.02 150.867 129.08 150.339 129.14C149.817 129.2 149.301 129.269 148.791 129.347C148.287 129.425 147.831 129.518 147.423 129.626C147.147 129.704 146.88 129.815 146.622 129.959C146.364 130.097 146.151 130.283 145.983 130.517C145.821 130.751 145.74 131.042 145.74 131.39C145.74 131.672 145.809 131.945 145.947 132.209C146.091 132.473 146.319 132.692 146.631 132.866C146.949 133.04 147.369 133.127 147.891 133.127ZM154.95 134V124.28H156.273V128.501H161.754V124.28H163.077V134H161.754V129.77H156.273V134H154.95ZM165.585 134V124.28H166.908V128.501H172.389V124.28H173.712V134H172.389V129.77H166.908V134H165.585ZM180.288 134.27C179.322 134.27 178.497 134.051 177.813 133.613C177.129 133.175 176.604 132.569 176.238 131.795C175.872 131.021 175.689 130.133 175.689 129.131C175.689 128.111 175.875 127.217 176.247 126.449C176.619 125.681 177.147 125.084 177.831 124.658C178.521 124.226 179.34 124.01 180.288 124.01C181.26 124.01 182.088 124.229 182.772 124.667C183.462 125.099 183.987 125.702 184.347 126.476C184.713 127.244 184.896 128.129 184.896 129.131C184.896 130.151 184.713 131.048 184.347 131.822C183.981 132.59 183.453 133.19 182.763 133.622C182.073 134.054 181.248 134.27 180.288 134.27ZM180.288 133.001C181.368 133.001 182.172 132.644 182.7 131.93C183.228 131.21 183.492 130.277 183.492 129.131C183.492 127.955 183.225 127.019 182.691 126.323C182.163 125.627 181.362 125.279 180.288 125.279C179.562 125.279 178.962 125.444 178.488 125.774C178.02 126.098 177.669 126.551 177.435 127.133C177.207 127.709 177.093 128.375 177.093 129.131C177.093 130.301 177.363 131.24 177.903 131.948C178.443 132.65 179.238 133.001 180.288 133.001ZM190.913 123.128C190.487 123.128 190.097 123.023 189.743 122.813C189.389 122.603 189.107 122.324 188.897 121.976C188.693 121.622 188.591 121.232 188.591 120.806H189.689C189.689 121.142 189.809 121.43 190.049 121.67C190.289 121.91 190.577 122.03 190.913 122.03C191.255 122.03 191.543 121.91 191.777 121.67C192.017 121.43 192.137 121.142 192.137 120.806H193.235C193.235 121.232 193.13 121.622 192.92 121.976C192.716 122.324 192.437 122.603 192.083 122.813C191.729 123.023 191.339 123.128 190.913 123.128ZM194.603 124.28V134H193.316V126.431L187.988 134H186.872V124.28H188.159V131.786L193.496 124.28H194.603ZM199.833 134V132.839C200.193 132.905 200.466 132.89 200.652 132.794C200.844 132.692 200.985 132.524 201.075 132.29C201.165 132.05 201.24 131.753 201.3 131.399C201.396 130.811 201.483 130.163 201.561 129.455C201.639 128.747 201.708 127.967 201.768 127.115C201.834 126.257 201.9 125.312 201.966 124.28H208.572V134H207.258V125.549H203.19C203.148 126.185 203.1 126.818 203.046 127.448C202.992 128.078 202.935 128.684 202.875 129.266C202.821 129.842 202.761 130.373 202.695 130.859C202.629 131.345 202.56 131.765 202.488 132.119C202.38 132.653 202.236 133.079 202.056 133.397C201.882 133.715 201.621 133.925 201.273 134.027C200.925 134.129 200.445 134.12 199.833 134ZM215.145 134.27C214.179 134.27 213.354 134.051 212.67 133.613C211.986 133.175 211.461 132.569 211.095 131.795C210.729 131.021 210.546 130.133 210.546 129.131C210.546 128.111 210.732 127.217 211.104 126.449C211.476 125.681 212.004 125.084 212.688 124.658C213.378 124.226 214.197 124.01 215.145 124.01C216.117 124.01 216.945 124.229 217.629 124.667C218.319 125.099 218.844 125.702 219.204 126.476C219.57 127.244 219.753 128.129 219.753 129.131C219.753 130.151 219.57 131.048 219.204 131.822C218.838 132.59 218.31 133.19 217.62 133.622C216.93 134.054 216.105 134.27 215.145 134.27ZM215.145 133.001C216.225 133.001 217.029 132.644 217.557 131.93C218.085 131.21 218.349 130.277 218.349 129.131C218.349 127.955 218.082 127.019 217.548 126.323C217.02 125.627 216.219 125.279 215.145 125.279C214.419 125.279 213.819 125.444 213.345 125.774C212.877 126.098 212.526 126.551 212.292 127.133C212.064 127.709 211.95 128.375 211.95 129.131C211.95 130.301 212.22 131.24 212.76 131.948C213.3 132.65 214.095 133.001 215.145 133.001ZM221.739 134V124.28H228.399V125.549H223.062V134H221.739ZM237.828 124.28V134H236.541V126.431L231.213 134H230.097V124.28H231.384V131.786L236.721 124.28H237.828ZM240.345 134L240.354 124.28H241.686V128.96L246.024 124.28H247.788L243.234 129.14L248.382 134H246.456L241.686 129.32V134H240.345ZM253.167 134.27C252.201 134.27 251.376 134.051 250.692 133.613C250.008 133.175 249.483 132.569 249.117 131.795C248.751 131.021 248.568 130.133 248.568 129.131C248.568 128.111 248.754 127.217 249.126 126.449C249.498 125.681 250.026 125.084 250.71 124.658C251.4 124.226 252.219 124.01 253.167 124.01C254.139 124.01 254.967 124.229 255.651 124.667C256.341 125.099 256.866 125.702 257.226 126.476C257.592 127.244 257.775 128.129 257.775 129.131C257.775 130.151 257.592 131.048 257.226 131.822C256.86 132.59 256.332 133.19 255.642 133.622C254.952 134.054 254.127 134.27 253.167 134.27ZM253.167 133.001C254.247 133.001 255.051 132.644 255.579 131.93C256.107 131.21 256.371 130.277 256.371 129.131C256.371 127.955 256.104 127.019 255.57 126.323C255.042 125.627 254.241 125.279 253.167 125.279C252.441 125.279 251.841 125.444 251.367 125.774C250.899 126.098 250.548 126.551 250.314 127.133C250.086 127.709 249.972 128.375 249.972 129.131C249.972 130.301 250.242 131.24 250.782 131.948C251.322 132.65 252.117 133.001 253.167 133.001ZM263.792 123.128C263.366 123.128 262.976 123.023 262.622 122.813C262.268 122.603 261.986 122.324 261.776 121.976C261.572 121.622 261.47 121.232 261.47 120.806H262.568C262.568 121.142 262.688 121.43 262.928 121.67C263.168 121.91 263.456 122.03 263.792 122.03C264.134 122.03 264.422 121.91 264.656 121.67C264.896 121.43 265.016 121.142 265.016 120.806H266.114C266.114 121.232 266.009 121.622 265.799 121.976C265.595 122.324 265.316 122.603 264.962 122.813C264.608 123.023 264.218 123.128 263.792 123.128ZM267.482 124.28V134H266.195V126.431L260.867 134H259.751V124.28H261.038V131.786L266.375 124.28H267.482ZM269.828 135.881L269.909 135.224C270.149 135.242 270.323 135.194 270.431 135.08C270.539 134.966 270.605 134.813 270.629 134.621C270.653 134.429 270.659 134.222 270.647 134H269.828V132.101H271.367V134.36C271.367 134.912 271.226 135.326 270.944 135.602C270.668 135.878 270.296 135.971 269.828 135.881ZM282.425 134.27C281.447 134.27 280.619 134.051 279.941 133.613C279.263 133.175 278.747 132.572 278.393 131.804C278.045 131.03 277.865 130.142 277.853 129.14C277.865 128.12 278.051 127.226 278.411 126.458C278.771 125.684 279.29 125.084 279.968 124.658C280.646 124.226 281.468 124.01 282.434 124.01C283.418 124.01 284.273 124.25 284.999 124.73C285.731 125.21 286.232 125.867 286.502 126.701L285.206 127.115C284.978 126.533 284.615 126.083 284.117 125.765C283.625 125.441 283.061 125.279 282.425 125.279C281.711 125.279 281.12 125.444 280.652 125.774C280.184 126.098 279.836 126.551 279.608 127.133C279.38 127.715 279.263 128.384 279.257 129.14C279.269 130.304 279.539 131.24 280.067 131.948C280.595 132.65 281.381 133.001 282.425 133.001C283.085 133.001 283.646 132.851 284.108 132.551C284.576 132.245 284.93 131.801 285.17 131.219L286.502 131.615C286.142 132.479 285.614 133.139 284.918 133.595C284.222 134.045 283.391 134.27 282.425 134.27ZM296.712 135.683V134H288.351V124.28H289.674V132.731H294.759V124.28H296.082V132.776H298.035V135.683H296.712ZM303.582 134.27C302.634 134.27 301.812 134.06 301.116 133.64C300.426 133.22 299.889 132.629 299.505 131.867C299.121 131.105 298.929 130.211 298.929 129.185C298.929 128.123 299.118 127.205 299.496 126.431C299.874 125.657 300.405 125.06 301.089 124.64C301.779 124.22 302.592 124.01 303.528 124.01C304.488 124.01 305.307 124.232 305.985 124.676C306.663 125.114 307.176 125.744 307.524 126.566C307.872 127.388 308.031 128.369 308.001 129.509H306.651V129.041C306.627 127.781 306.354 126.83 305.832 126.188C305.316 125.546 304.56 125.225 303.564 125.225C302.52 125.225 301.719 125.564 301.161 126.242C300.609 126.92 300.333 127.886 300.333 129.14C300.333 130.364 300.609 131.315 301.161 131.993C301.719 132.665 302.508 133.001 303.528 133.001C304.224 133.001 304.83 132.842 305.346 132.524C305.868 132.2 306.279 131.735 306.579 131.129L307.812 131.606C307.428 132.452 306.861 133.109 306.111 133.577C305.367 134.039 304.524 134.27 303.582 134.27ZM299.865 129.509V128.402H307.29V129.509H299.865ZM309.989 134V124.28H311.312V128.501H316.793V124.28H318.116V134H316.793V129.77H311.312V134H309.989ZM323.414 134.27C322.682 134.27 322.067 134.138 321.569 133.874C321.077 133.61 320.708 133.259 320.462 132.821C320.216 132.383 320.093 131.906 320.093 131.39C320.093 130.862 320.198 130.412 320.408 130.04C320.624 129.662 320.915 129.353 321.281 129.113C321.653 128.873 322.082 128.69 322.568 128.564C323.06 128.444 323.603 128.339 324.197 128.249C324.797 128.153 325.382 128.072 325.952 128.006C326.528 127.934 327.032 127.865 327.464 127.799L326.996 128.087C327.014 127.127 326.828 126.416 326.438 125.954C326.048 125.492 325.37 125.261 324.404 125.261C323.738 125.261 323.174 125.411 322.712 125.711C322.256 126.011 321.935 126.485 321.749 127.133L320.462 126.755C320.684 125.885 321.131 125.21 321.803 124.73C322.475 124.25 323.348 124.01 324.422 124.01C325.31 124.01 326.063 124.178 326.681 124.514C327.305 124.844 327.746 125.324 328.004 125.954C328.124 126.236 328.202 126.551 328.238 126.899C328.274 127.247 328.292 127.601 328.292 127.961V134H327.113V131.561L327.455 131.705C327.125 132.539 326.612 133.175 325.916 133.613C325.22 134.051 324.386 134.27 323.414 134.27ZM323.567 133.127C324.185 133.127 324.725 133.016 325.187 132.794C325.649 132.572 326.021 132.269 326.303 131.885C326.585 131.495 326.768 131.057 326.852 130.571C326.924 130.259 326.963 129.917 326.969 129.545C326.975 129.167 326.978 128.885 326.978 128.699L327.482 128.96C327.032 129.02 326.543 129.08 326.015 129.14C325.493 129.2 324.977 129.269 324.467 129.347C323.963 129.425 323.507 129.518 323.099 129.626C322.823 129.704 322.556 129.815 322.298 129.959C322.04 130.097 321.827 130.283 321.659 130.517C321.497 130.751 321.416 131.042 321.416 131.39C321.416 131.672 321.485 131.945 321.623 132.209C321.767 132.473 321.995 132.692 322.307 132.866C322.625 133.04 323.045 133.127 323.567 133.127ZM335 134.27C334.106 134.27 333.35 134.045 332.732 133.595C332.114 133.139 331.646 132.524 331.328 131.75C331.01 130.97 330.851 130.097 330.851 129.131C330.851 128.147 331.01 127.271 331.328 126.503C331.652 125.729 332.126 125.12 332.75 124.676C333.374 124.232 334.142 124.01 335.054 124.01C335.942 124.01 336.704 124.235 337.34 124.685C337.976 125.135 338.462 125.747 338.798 126.521C339.14 127.295 339.311 128.165 339.311 129.131C339.311 130.103 339.14 130.976 338.798 131.75C338.456 132.524 337.964 133.139 337.322 133.595C336.68 134.045 335.906 134.27 335 134.27ZM330.626 138.32V124.28H331.814V131.597H331.958V138.32H330.626ZM334.865 133.037C335.543 133.037 336.107 132.866 336.557 132.524C337.007 132.182 337.343 131.717 337.565 131.129C337.793 130.535 337.907 129.869 337.907 129.131C337.907 128.399 337.796 127.739 337.574 127.151C337.352 126.563 337.013 126.098 336.557 125.756C336.107 125.414 335.534 125.243 334.838 125.243C334.16 125.243 333.596 125.408 333.146 125.738C332.702 126.068 332.369 126.527 332.147 127.115C331.925 127.697 331.814 128.369 331.814 129.131C331.814 129.881 331.925 130.553 332.147 131.147C332.369 131.735 332.705 132.197 333.155 132.533C333.605 132.869 334.175 133.037 334.865 133.037ZM349.009 124.28V134H347.722V126.431L342.394 134H341.278V124.28H342.565V131.786L347.902 124.28H349.009ZM355.648 134.27C354.7 134.27 353.878 134.06 353.182 133.64C352.492 133.22 351.955 132.629 351.571 131.867C351.187 131.105 350.995 130.211 350.995 129.185C350.995 128.123 351.184 127.205 351.562 126.431C351.94 125.657 352.471 125.06 353.155 124.64C353.845 124.22 354.658 124.01 355.594 124.01C356.554 124.01 357.373 124.232 358.051 124.676C358.729 125.114 359.242 125.744 359.59 126.566C359.938 127.388 360.097 128.369 360.067 129.509H358.717V129.041C358.693 127.781 358.42 126.83 357.898 126.188C357.382 125.546 356.626 125.225 355.63 125.225C354.586 125.225 353.785 125.564 353.227 126.242C352.675 126.92 352.399 127.886 352.399 129.14C352.399 130.364 352.675 131.315 353.227 131.993C353.785 132.665 354.574 133.001 355.594 133.001C356.29 133.001 356.896 132.842 357.412 132.524C357.934 132.2 358.345 131.735 358.645 131.129L359.878 131.606C359.494 132.452 358.927 133.109 358.177 133.577C357.433 134.039 356.59 134.27 355.648 134.27ZM351.931 129.509V128.402H359.356V129.509H351.931ZM361.792 134V124.28H362.971L366.76 132.236L370.558 124.28H371.728V134H370.45V127.106L367.183 134H366.346L363.079 127.106V134H361.792ZM385.572 124.28V134H384.285V126.431L378.957 134H377.841V124.28H379.128V131.786L384.465 124.28H385.572ZM20.54 158.16V154.866C21.092 154.866 21.488 154.689 21.728 154.335C21.968 153.975 22.163 153.402 22.313 152.616C22.415 152.106 22.499 151.557 22.565 150.969C22.631 150.381 22.688 149.709 22.736 148.953C22.784 148.191 22.829 147.3 22.871 146.28H29.297V154.866H30.233V158.16H28.955V156H21.809V158.16H20.54ZM22.781 154.866H27.983V147.414H24.095C24.077 147.87 24.05 148.353 24.014 148.863C23.984 149.373 23.945 149.883 23.897 150.393C23.855 150.903 23.804 151.383 23.744 151.833C23.69 152.277 23.624 152.667 23.546 153.003C23.456 153.435 23.357 153.804 23.249 154.11C23.147 154.416 22.991 154.668 22.781 154.866ZM39.7574 146.28V156H38.4704V148.431L33.1424 156H32.0264V146.28H33.3134V153.786L38.6504 146.28H39.7574ZM45.7844 156.27C44.8064 156.27 43.9514 156.057 43.2194 155.631C42.4934 155.199 41.9204 154.602 41.5004 153.84L42.5624 153.165C42.9164 153.765 43.3574 154.221 43.8854 154.533C44.4134 154.845 45.0194 155.001 45.7034 155.001C46.4174 155.001 46.9904 154.836 47.4224 154.506C47.8544 154.176 48.0704 153.723 48.0704 153.147C48.0704 152.751 47.9774 152.436 47.7914 152.202C47.6114 151.968 47.3354 151.8 46.9634 151.698C46.5974 151.596 46.1384 151.545 45.5864 151.545H44.4344V150.411H45.5684C46.2404 150.411 46.7804 150.291 47.1884 150.051C47.6024 149.805 47.8094 149.421 47.8094 148.899C47.8094 148.347 47.6024 147.939 47.1884 147.675C46.7804 147.405 46.2914 147.27 45.7214 147.27C45.1454 147.27 44.5994 147.39 44.0834 147.63C43.5734 147.864 43.1444 148.167 42.7964 148.539L41.9504 147.648C42.4364 147.114 43.0034 146.709 43.6514 146.433C44.3054 146.151 45.0284 146.01 45.8204 146.01C46.4444 146.01 47.0084 146.121 47.5124 146.343C48.0224 146.559 48.4244 146.877 48.7184 147.297C49.0184 147.717 49.1684 148.221 49.1684 148.809C49.1684 149.361 49.0334 149.838 48.7634 150.24C48.4994 150.642 48.1244 150.975 47.6384 151.239L47.5664 150.744C47.9864 150.822 48.3344 150.99 48.6104 151.248C48.8864 151.506 49.0904 151.815 49.2224 152.175C49.3544 152.535 49.4204 152.901 49.4204 153.273C49.4204 153.891 49.2584 154.425 48.9344 154.875C48.6164 155.319 48.1814 155.664 47.6294 155.91C47.0834 156.15 46.4684 156.27 45.7844 156.27ZM54.1875 156.27C53.4555 156.27 52.8405 156.138 52.3425 155.874C51.8505 155.61 51.4815 155.259 51.2355 154.821C50.9895 154.383 50.8665 153.906 50.8665 153.39C50.8665 152.862 50.9715 152.412 51.1815 152.04C51.3975 151.662 51.6885 151.353 52.0545 151.113C52.4265 150.873 52.8555 150.69 53.3415 150.564C53.8335 150.444 54.3765 150.339 54.9705 150.249C55.5705 150.153 56.1555 150.072 56.7255 150.006C57.3015 149.934 57.8055 149.865 58.2375 149.799L57.7695 150.087C57.7875 149.127 57.6015 148.416 57.2115 147.954C56.8215 147.492 56.1435 147.261 55.1775 147.261C54.5115 147.261 53.9475 147.411 53.4855 147.711C53.0295 148.011 52.7085 148.485 52.5225 149.133L51.2355 148.755C51.4575 147.885 51.9045 147.21 52.5765 146.73C53.2485 146.25 54.1215 146.01 55.1955 146.01C56.0835 146.01 56.8365 146.178 57.4545 146.514C58.0785 146.844 58.5195 147.324 58.7775 147.954C58.8975 148.236 58.9755 148.551 59.0115 148.899C59.0475 149.247 59.0655 149.601 59.0655 149.961V156H57.8865V153.561L58.2285 153.705C57.8985 154.539 57.3855 155.175 56.6895 155.613C55.9935 156.051 55.1595 156.27 54.1875 156.27ZM54.3405 155.127C54.9585 155.127 55.4985 155.016 55.9605 154.794C56.4225 154.572 56.7945 154.269 57.0765 153.885C57.3585 153.495 57.5415 153.057 57.6255 152.571C57.6975 152.259 57.7365 151.917 57.7425 151.545C57.7485 151.167 57.7515 150.885 57.7515 150.699L58.2555 150.96C57.8055 151.02 57.3165 151.08 56.7885 151.14C56.2665 151.2 55.7505 151.269 55.2405 151.347C54.7365 151.425 54.2805 151.518 53.8725 151.626C53.5965 151.704 53.3295 151.815 53.0715 151.959C52.8135 152.097 52.6005 152.283 52.4325 152.517C52.2705 152.751 52.1895 153.042 52.1895 153.39C52.1895 153.672 52.2585 153.945 52.3965 154.209C52.5405 154.473 52.7685 154.692 53.0805 154.866C53.3985 155.04 53.8185 155.127 54.3405 155.127ZM65.4404 145.128C65.0144 145.128 64.6244 145.023 64.2704 144.813C63.9164 144.603 63.6344 144.324 63.4244 143.976C63.2204 143.622 63.1184 143.232 63.1184 142.806H64.2164C64.2164 143.142 64.3364 143.43 64.5764 143.67C64.8164 143.91 65.1044 144.03 65.4404 144.03C65.7824 144.03 66.0704 143.91 66.3044 143.67C66.5444 143.43 66.6644 143.142 66.6644 142.806H67.7624C67.7624 143.232 67.6574 143.622 67.4474 143.976C67.2434 144.324 66.9644 144.603 66.6104 144.813C66.2564 145.023 65.8664 145.128 65.4404 145.128ZM69.1304 146.28V156H67.8434V148.431L62.5154 156H61.3994V146.28H62.6864V153.786L68.0234 146.28H69.1304ZM71.6475 156V146.28H72.9705V150.501H78.4515V146.28H79.7745V156H78.4515V151.77H72.9705V156H71.6475ZM86.3503 156.27C85.3843 156.27 84.5593 156.051 83.8753 155.613C83.1913 155.175 82.6663 154.569 82.3003 153.795C81.9343 153.021 81.7513 152.133 81.7513 151.131C81.7513 150.111 81.9373 149.217 82.3093 148.449C82.6813 147.681 83.2093 147.084 83.8933 146.658C84.5833 146.226 85.4023 146.01 86.3503 146.01C87.3223 146.01 88.1503 146.229 88.8343 146.667C89.5243 147.099 90.0493 147.702 90.4093 148.476C90.7753 149.244 90.9583 150.129 90.9583 151.131C90.9583 152.151 90.7753 153.048 90.4093 153.822C90.0433 154.59 89.5153 155.19 88.8253 155.622C88.1353 156.054 87.3103 156.27 86.3503 156.27ZM86.3503 155.001C87.4303 155.001 88.2343 154.644 88.7623 153.93C89.2903 153.21 89.5543 152.277 89.5543 151.131C89.5543 149.955 89.2873 149.019 88.7533 148.323C88.2253 147.627 87.4243 147.279 86.3503 147.279C85.6243 147.279 85.0243 147.444 84.5503 147.774C84.0823 148.098 83.7313 148.551 83.4973 149.133C83.2693 149.709 83.1553 150.375 83.1553 151.131C83.1553 152.301 83.4253 153.24 83.9653 153.948C84.5053 154.65 85.3003 155.001 86.3503 155.001ZM92.9346 156V146.28H94.1136L97.9026 154.236L101.701 146.28H102.871V156H101.593V149.106L98.3256 156H97.4886L94.2216 149.106V156H92.9346ZM105.209 157.881L105.29 157.224C105.53 157.242 105.704 157.194 105.812 157.08C105.92 156.966 105.986 156.813 106.01 156.621C106.034 156.429 106.04 156.222 106.028 156H105.209V154.101H106.748V156.36C106.748 156.912 106.607 157.326 106.325 157.602C106.049 157.878 105.677 157.971 105.209 157.881ZM113.765 156L113.774 146.28H115.106V150.96L119.444 146.28H121.208L116.654 151.14L121.802 156H119.876L115.106 151.32V156H113.765ZM126.587 156.27C125.621 156.27 124.796 156.051 124.112 155.613C123.428 155.175 122.903 154.569 122.537 153.795C122.171 153.021 121.988 152.133 121.988 151.131C121.988 150.111 122.174 149.217 122.546 148.449C122.918 147.681 123.446 147.084 124.13 146.658C124.82 146.226 125.639 146.01 126.587 146.01C127.559 146.01 128.387 146.229 129.071 146.667C129.761 147.099 130.286 147.702 130.646 148.476C131.012 149.244 131.195 150.129 131.195 151.131C131.195 152.151 131.012 153.048 130.646 153.822C130.28 154.59 129.752 155.19 129.062 155.622C128.372 156.054 127.547 156.27 126.587 156.27ZM126.587 155.001C127.667 155.001 128.471 154.644 128.999 153.93C129.527 153.21 129.791 152.277 129.791 151.131C129.791 149.955 129.524 149.019 128.99 148.323C128.462 147.627 127.661 147.279 126.587 147.279C125.861 147.279 125.261 147.444 124.787 147.774C124.319 148.098 123.968 148.551 123.734 149.133C123.506 149.709 123.392 150.375 123.392 151.131C123.392 152.301 123.662 153.24 124.202 153.948C124.742 154.65 125.537 155.001 126.587 155.001ZM135.588 156V147.504H132.141V146.28H140.358V147.504H136.911V156H135.588ZM145.958 156.27C144.992 156.27 144.167 156.051 143.483 155.613C142.799 155.175 142.274 154.569 141.908 153.795C141.542 153.021 141.359 152.133 141.359 151.131C141.359 150.111 141.545 149.217 141.917 148.449C142.289 147.681 142.817 147.084 143.501 146.658C144.191 146.226 145.01 146.01 145.958 146.01C146.93 146.01 147.758 146.229 148.442 146.667C149.132 147.099 149.657 147.702 150.017 148.476C150.383 149.244 150.566 150.129 150.566 151.131C150.566 152.151 150.383 153.048 150.017 153.822C149.651 154.59 149.123 155.19 148.433 155.622C147.743 156.054 146.918 156.27 145.958 156.27ZM145.958 155.001C147.038 155.001 147.842 154.644 148.37 153.93C148.898 153.21 149.162 152.277 149.162 151.131C149.162 149.955 148.895 149.019 148.361 148.323C147.833 147.627 147.032 147.279 145.958 147.279C145.232 147.279 144.632 147.444 144.158 147.774C143.69 148.098 143.339 148.551 143.105 149.133C142.877 149.709 142.763 150.375 142.763 151.131C142.763 152.301 143.033 153.24 143.573 153.948C144.113 154.65 144.908 155.001 145.958 155.001ZM156.916 156.27C156.022 156.27 155.266 156.045 154.648 155.595C154.03 155.139 153.562 154.524 153.244 153.75C152.926 152.97 152.767 152.097 152.767 151.131C152.767 150.147 152.926 149.271 153.244 148.503C153.568 147.729 154.042 147.12 154.666 146.676C155.29 146.232 156.058 146.01 156.97 146.01C157.858 146.01 158.62 146.235 159.256 146.685C159.892 147.135 160.378 147.747 160.714 148.521C161.056 149.295 161.227 150.165 161.227 151.131C161.227 152.103 161.056 152.976 160.714 153.75C160.372 154.524 159.88 155.139 159.238 155.595C158.596 156.045 157.822 156.27 156.916 156.27ZM152.542 160.32V146.28H153.73V153.597H153.874V160.32H152.542ZM156.781 155.037C157.459 155.037 158.023 154.866 158.473 154.524C158.923 154.182 159.259 153.717 159.481 153.129C159.709 152.535 159.823 151.869 159.823 151.131C159.823 150.399 159.712 149.739 159.49 149.151C159.268 148.563 158.929 148.098 158.473 147.756C158.023 147.414 157.45 147.243 156.754 147.243C156.076 147.243 155.512 147.408 155.062 147.738C154.618 148.068 154.285 148.527 154.063 149.115C153.841 149.697 153.73 150.369 153.73 151.131C153.73 151.881 153.841 152.553 154.063 153.147C154.285 153.735 154.621 154.197 155.071 154.533C155.521 154.869 156.091 155.037 156.781 155.037ZM163.212 156L163.194 146.28H164.526V149.943H166.218C166.5 149.943 166.776 149.949 167.046 149.961C167.316 149.973 167.559 149.997 167.775 150.033C168.255 150.129 168.681 150.291 169.053 150.519C169.425 150.747 169.719 151.062 169.935 151.464C170.151 151.86 170.259 152.361 170.259 152.967C170.259 153.801 170.043 154.458 169.611 154.938C169.179 155.418 168.636 155.73 167.982 155.874C167.736 155.928 167.469 155.964 167.181 155.982C166.893 155.994 166.611 156 166.335 156H163.212ZM164.526 154.866H166.281C166.479 154.866 166.704 154.86 166.956 154.848C167.208 154.836 167.43 154.803 167.622 154.749C167.946 154.659 168.237 154.479 168.495 154.209C168.759 153.933 168.891 153.519 168.891 152.967C168.891 152.421 168.765 152.01 168.513 151.734C168.261 151.452 167.925 151.266 167.505 151.176C167.313 151.134 167.109 151.107 166.893 151.095C166.683 151.083 166.479 151.077 166.281 151.077H164.526V154.866ZM171.42 156V146.28H172.743V156H171.42ZM179.294 145.128C178.868 145.128 178.478 145.023 178.124 144.813C177.77 144.603 177.488 144.324 177.278 143.976C177.074 143.622 176.972 143.232 176.972 142.806H178.07C178.07 143.142 178.19 143.43 178.43 143.67C178.67 143.91 178.958 144.03 179.294 144.03C179.636 144.03 179.924 143.91 180.158 143.67C180.398 143.43 180.518 143.142 180.518 142.806H181.616C181.616 143.232 181.511 143.622 181.301 143.976C181.097 144.324 180.818 144.603 180.464 144.813C180.11 145.023 179.72 145.128 179.294 145.128ZM182.984 146.28V156H181.697V148.431L176.369 156H175.253V146.28H176.54V153.786L181.877 146.28H182.984ZM188.394 158.16V154.866C188.946 154.866 189.342 154.689 189.582 154.335C189.822 153.975 190.017 153.402 190.167 152.616C190.269 152.106 190.353 151.557 190.419 150.969C190.485 150.381 190.542 149.709 190.59 148.953C190.638 148.191 190.683 147.3 190.725 146.28H197.151V154.866H198.087V158.16H196.809V156H189.663V158.16H188.394ZM190.635 154.866H195.837V147.414H191.949C191.931 147.87 191.904 148.353 191.868 148.863C191.838 149.373 191.799 149.883 191.751 150.393C191.709 150.903 191.658 151.383 191.598 151.833C191.544 152.277 191.478 152.667 191.4 153.003C191.31 153.435 191.211 153.804 191.103 154.11C191.001 154.416 190.845 154.668 190.635 154.866ZM203.948 156.27C202.982 156.27 202.157 156.051 201.473 155.613C200.789 155.175 200.264 154.569 199.898 153.795C199.532 153.021 199.349 152.133 199.349 151.131C199.349 150.111 199.535 149.217 199.907 148.449C200.279 147.681 200.807 147.084 201.491 146.658C202.181 146.226 203 146.01 203.948 146.01C204.92 146.01 205.748 146.229 206.432 146.667C207.122 147.099 207.647 147.702 208.007 148.476C208.373 149.244 208.556 150.129 208.556 151.131C208.556 152.151 208.373 153.048 208.007 153.822C207.641 154.59 207.113 155.19 206.423 155.622C205.733 156.054 204.908 156.27 203.948 156.27ZM203.948 155.001C205.028 155.001 205.832 154.644 206.36 153.93C206.888 153.21 207.152 152.277 207.152 151.131C207.152 149.955 206.885 149.019 206.351 148.323C205.823 147.627 205.022 147.279 203.948 147.279C203.222 147.279 202.622 147.444 202.148 147.774C201.68 148.098 201.329 148.551 201.095 149.133C200.867 149.709 200.753 150.375 200.753 151.131C200.753 152.301 201.023 153.24 201.563 153.948C202.103 154.65 202.898 155.001 203.948 155.001ZM210.532 156V146.28H214.537C214.741 146.28 214.987 146.292 215.275 146.316C215.569 146.34 215.842 146.385 216.094 146.451C216.64 146.595 217.078 146.889 217.408 147.333C217.744 147.777 217.912 148.311 217.912 148.935C217.912 149.283 217.858 149.595 217.75 149.871C217.648 150.141 217.501 150.375 217.309 150.573C217.219 150.675 217.12 150.765 217.012 150.843C216.904 150.915 216.799 150.975 216.697 151.023C216.889 151.059 217.096 151.143 217.318 151.275C217.666 151.479 217.93 151.755 218.11 152.103C218.29 152.445 218.38 152.862 218.38 153.354C218.38 154.02 218.221 154.563 217.903 154.983C217.585 155.403 217.159 155.691 216.625 155.847C216.385 155.913 216.124 155.955 215.842 155.973C215.566 155.991 215.305 156 215.059 156H210.532ZM211.864 154.875H214.996C215.122 154.875 215.281 154.866 215.473 154.848C215.665 154.824 215.836 154.794 215.986 154.758C216.34 154.668 216.598 154.488 216.76 154.218C216.928 153.942 217.012 153.642 217.012 153.318C217.012 152.892 216.886 152.544 216.634 152.274C216.388 151.998 216.058 151.83 215.644 151.77C215.506 151.74 215.362 151.722 215.212 151.716C215.062 151.71 214.927 151.707 214.807 151.707H211.864V154.875ZM211.864 150.573H214.582C214.738 150.573 214.912 150.564 215.104 150.546C215.302 150.522 215.473 150.483 215.617 150.429C215.929 150.321 216.157 150.135 216.301 149.871C216.451 149.607 216.526 149.319 216.526 149.007C216.526 148.665 216.445 148.365 216.283 148.107C216.127 147.849 215.89 147.669 215.572 147.567C215.356 147.489 215.122 147.444 214.87 147.432C214.624 147.42 214.468 147.414 214.402 147.414H211.864V150.573ZM224.287 156.27C223.339 156.27 222.517 156.06 221.821 155.64C221.131 155.22 220.594 154.629 220.21 153.867C219.826 153.105 219.634 152.211 219.634 151.185C219.634 150.123 219.823 149.205 220.201 148.431C220.579 147.657 221.11 147.06 221.794 146.64C222.484 146.22 223.297 146.01 224.233 146.01C225.193 146.01 226.012 146.232 226.69 146.676C227.368 147.114 227.881 147.744 228.229 148.566C228.577 149.388 228.736 150.369 228.706 151.509H227.356V151.041C227.332 149.781 227.059 148.83 226.537 148.188C226.021 147.546 225.265 147.225 224.269 147.225C223.225 147.225 222.424 147.564 221.866 148.242C221.314 148.92 221.038 149.886 221.038 151.14C221.038 152.364 221.314 153.315 221.866 153.993C222.424 154.665 223.213 155.001 224.233 155.001C224.929 155.001 225.535 154.842 226.051 154.524C226.573 154.2 226.984 153.735 227.284 153.129L228.517 153.606C228.133 154.452 227.566 155.109 226.816 155.577C226.072 156.039 225.229 156.27 224.287 156.27ZM220.57 151.509V150.402H227.995V151.509H220.57ZM229.983 158.16V154.866C230.535 154.866 230.931 154.689 231.171 154.335C231.411 153.975 231.606 153.402 231.756 152.616C231.858 152.106 231.942 151.557 232.008 150.969C232.074 150.381 232.131 149.709 232.179 148.953C232.227 148.191 232.272 147.3 232.314 146.28H238.74V154.866H239.676V158.16H238.398V156H231.252V158.16H229.983ZM232.224 154.866H237.426V147.414H233.538C233.52 147.87 233.493 148.353 233.457 148.863C233.427 149.373 233.388 149.883 233.34 150.393C233.298 150.903 233.247 151.383 233.187 151.833C233.133 152.277 233.067 152.667 232.989 153.003C232.899 153.435 232.8 153.804 232.692 154.11C232.59 154.416 232.434 154.668 232.224 154.866ZM246.537 144.381V142.941H247.977V144.381H246.537ZM243.108 144.381V142.941H244.548V144.381H243.108ZM245.592 156.27C244.644 156.27 243.822 156.06 243.126 155.64C242.436 155.22 241.899 154.629 241.515 153.867C241.131 153.105 240.939 152.211 240.939 151.185C240.939 150.123 241.128 149.205 241.506 148.431C241.884 147.657 242.415 147.06 243.099 146.64C243.789 146.22 244.602 146.01 245.538 146.01C246.498 146.01 247.317 146.232 247.995 146.676C248.673 147.114 249.186 147.744 249.534 148.566C249.882 149.388 250.041 150.369 250.011 151.509H248.661V151.041C248.637 149.781 248.364 148.83 247.842 148.188C247.326 147.546 246.57 147.225 245.574 147.225C244.53 147.225 243.729 147.564 243.171 148.242C242.619 148.92 242.343 149.886 242.343 151.14C242.343 152.364 242.619 153.315 243.171 153.993C243.729 154.665 244.518 155.001 245.538 155.001C246.234 155.001 246.84 154.842 247.356 154.524C247.878 154.2 248.289 153.735 248.589 153.129L249.822 153.606C249.438 154.452 248.871 155.109 248.121 155.577C247.377 156.039 246.534 156.27 245.592 156.27ZM241.875 151.509V150.402H249.3V151.509H241.875ZM254.522 156V147.504H251.075V146.28H259.292V147.504H255.845V156H254.522ZM264.603 156V146.28H272.334V156H271.011V147.549H265.926V156H264.603ZM278.919 156.27C277.953 156.27 277.128 156.051 276.444 155.613C275.76 155.175 275.235 154.569 274.869 153.795C274.503 153.021 274.32 152.133 274.32 151.131C274.32 150.111 274.506 149.217 274.878 148.449C275.25 147.681 275.778 147.084 276.462 146.658C277.152 146.226 277.971 146.01 278.919 146.01C279.891 146.01 280.719 146.229 281.403 146.667C282.093 147.099 282.618 147.702 282.978 148.476C283.344 149.244 283.527 150.129 283.527 151.131C283.527 152.151 283.344 153.048 282.978 153.822C282.612 154.59 282.084 155.19 281.394 155.622C280.704 156.054 279.879 156.27 278.919 156.27ZM278.919 155.001C279.999 155.001 280.803 154.644 281.331 153.93C281.859 153.21 282.123 152.277 282.123 151.131C282.123 149.955 281.856 149.019 281.322 148.323C280.794 147.627 279.993 147.279 278.919 147.279C278.193 147.279 277.593 147.444 277.119 147.774C276.651 148.098 276.3 148.551 276.066 149.133C275.838 149.709 275.724 150.375 275.724 151.131C275.724 152.301 275.994 153.24 276.534 153.948C277.074 154.65 277.869 155.001 278.919 155.001ZM284.612 156V154.839C284.972 154.905 285.245 154.89 285.431 154.794C285.623 154.692 285.764 154.524 285.854 154.29C285.944 154.05 286.019 153.753 286.079 153.399C286.175 152.811 286.262 152.163 286.34 151.455C286.418 150.747 286.487 149.967 286.547 149.115C286.613 148.257 286.679 147.312 286.745 146.28H293.351V156H292.037V147.549H287.969C287.927 148.185 287.879 148.818 287.825 149.448C287.771 150.078 287.714 150.684 287.654 151.266C287.6 151.842 287.54 152.373 287.474 152.859C287.408 153.345 287.339 153.765 287.267 154.119C287.159 154.653 287.015 155.079 286.835 155.397C286.661 155.715 286.4 155.925 286.052 156.027C285.704 156.129 285.224 156.12 284.612 156ZM295.874 156L295.856 146.28H297.188V149.943H299.465C299.747 149.943 300.023 149.949 300.293 149.961C300.569 149.973 300.812 149.997 301.022 150.033C301.502 150.123 301.928 150.282 302.3 150.51C302.678 150.738 302.972 151.053 303.182 151.455C303.398 151.857 303.506 152.361 303.506 152.967C303.506 153.801 303.29 154.458 302.858 154.938C302.432 155.418 301.892 155.73 301.238 155.874C300.992 155.928 300.725 155.964 300.437 155.982C300.149 155.994 299.864 156 299.582 156H295.874ZM297.188 154.866H299.528C299.732 154.866 299.96 154.86 300.212 154.848C300.464 154.836 300.686 154.803 300.878 154.749C301.196 154.659 301.484 154.479 301.742 154.209C302.006 153.933 302.138 153.519 302.138 152.967C302.138 152.421 302.012 152.01 301.76 151.734C301.508 151.452 301.172 151.266 300.752 151.176C300.566 151.134 300.365 151.107 300.149 151.095C299.933 151.083 299.726 151.077 299.528 151.077H297.188V154.866ZM308.982 156.27C308.004 156.27 307.149 156.057 306.417 155.631C305.691 155.199 305.118 154.602 304.698 153.84L305.76 153.165C306.114 153.765 306.555 154.221 307.083 154.533C307.611 154.845 308.217 155.001 308.901 155.001C309.615 155.001 310.188 154.836 310.62 154.506C311.052 154.176 311.268 153.723 311.268 153.147C311.268 152.751 311.175 152.436 310.989 152.202C310.809 151.968 310.533 151.8 310.161 151.698C309.795 151.596 309.336 151.545 308.784 151.545H307.632V150.411H308.766C309.438 150.411 309.978 150.291 310.386 150.051C310.8 149.805 311.007 149.421 311.007 148.899C311.007 148.347 310.8 147.939 310.386 147.675C309.978 147.405 309.489 147.27 308.919 147.27C308.343 147.27 307.797 147.39 307.281 147.63C306.771 147.864 306.342 148.167 305.994 148.539L305.148 147.648C305.634 147.114 306.201 146.709 306.849 146.433C307.503 146.151 308.226 146.01 309.018 146.01C309.642 146.01 310.206 146.121 310.71 146.343C311.22 146.559 311.622 146.877 311.916 147.297C312.216 147.717 312.366 148.221 312.366 148.809C312.366 149.361 312.231 149.838 311.961 150.24C311.697 150.642 311.322 150.975 310.836 151.239L310.764 150.744C311.184 150.822 311.532 150.99 311.808 151.248C312.084 151.506 312.288 151.815 312.42 152.175C312.552 152.535 312.618 152.901 312.618 153.273C312.618 153.891 312.456 154.425 312.132 154.875C311.814 155.319 311.379 155.664 310.827 155.91C310.281 156.15 309.666 156.27 308.982 156.27ZM318.663 156.27C317.697 156.27 316.872 156.051 316.188 155.613C315.504 155.175 314.979 154.569 314.613 153.795C314.247 153.021 314.064 152.133 314.064 151.131C314.064 150.111 314.25 149.217 314.622 148.449C314.994 147.681 315.522 147.084 316.206 146.658C316.896 146.226 317.715 146.01 318.663 146.01C319.635 146.01 320.463 146.229 321.147 146.667C321.837 147.099 322.362 147.702 322.722 148.476C323.088 149.244 323.271 150.129 323.271 151.131C323.271 152.151 323.088 153.048 322.722 153.822C322.356 154.59 321.828 155.19 321.138 155.622C320.448 156.054 319.623 156.27 318.663 156.27ZM318.663 155.001C319.743 155.001 320.547 154.644 321.075 153.93C321.603 153.21 321.867 152.277 321.867 151.131C321.867 149.955 321.6 149.019 321.066 148.323C320.538 147.627 319.737 147.279 318.663 147.279C317.937 147.279 317.337 147.444 316.863 147.774C316.395 148.098 316.044 148.551 315.81 149.133C315.582 149.709 315.468 150.375 315.468 151.131C315.468 152.301 315.738 153.24 316.278 153.948C316.818 154.65 317.613 155.001 318.663 155.001ZM325.247 156V146.28H329.252C329.456 146.28 329.702 146.292 329.99 146.316C330.284 146.34 330.557 146.385 330.809 146.451C331.355 146.595 331.793 146.889 332.123 147.333C332.459 147.777 332.627 148.311 332.627 148.935C332.627 149.283 332.573 149.595 332.465 149.871C332.363 150.141 332.216 150.375 332.024 150.573C331.934 150.675 331.835 150.765 331.727 150.843C331.619 150.915 331.514 150.975 331.412 151.023C331.604 151.059 331.811 151.143 332.033 151.275C332.381 151.479 332.645 151.755 332.825 152.103C333.005 152.445 333.095 152.862 333.095 153.354C333.095 154.02 332.936 154.563 332.618 154.983C332.3 155.403 331.874 155.691 331.34 155.847C331.1 155.913 330.839 155.955 330.557 155.973C330.281 155.991 330.02 156 329.774 156H325.247ZM326.579 154.875H329.711C329.837 154.875 329.996 154.866 330.188 154.848C330.38 154.824 330.551 154.794 330.701 154.758C331.055 154.668 331.313 154.488 331.475 154.218C331.643 153.942 331.727 153.642 331.727 153.318C331.727 152.892 331.601 152.544 331.349 152.274C331.103 151.998 330.773 151.83 330.359 151.77C330.221 151.74 330.077 151.722 329.927 151.716C329.777 151.71 329.642 151.707 329.522 151.707H326.579V154.875ZM326.579 150.573H329.297C329.453 150.573 329.627 150.564 329.819 150.546C330.017 150.522 330.188 150.483 330.332 150.429C330.644 150.321 330.872 150.135 331.016 149.871C331.166 149.607 331.241 149.319 331.241 149.007C331.241 148.665 331.16 148.365 330.998 148.107C330.842 147.849 330.605 147.669 330.287 147.567C330.071 147.489 329.837 147.444 329.585 147.432C329.339 147.42 329.183 147.414 329.117 147.414H326.579V150.573ZM337.67 156.27C336.938 156.27 336.323 156.138 335.825 155.874C335.333 155.61 334.964 155.259 334.718 154.821C334.472 154.383 334.349 153.906 334.349 153.39C334.349 152.862 334.454 152.412 334.664 152.04C334.88 151.662 335.171 151.353 335.537 151.113C335.909 150.873 336.338 150.69 336.824 150.564C337.316 150.444 337.859 150.339 338.453 150.249C339.053 150.153 339.638 150.072 340.208 150.006C340.784 149.934 341.288 149.865 341.72 149.799L341.252 150.087C341.27 149.127 341.084 148.416 340.694 147.954C340.304 147.492 339.626 147.261 338.66 147.261C337.994 147.261 337.43 147.411 336.968 147.711C336.512 148.011 336.191 148.485 336.005 149.133L334.718 148.755C334.94 147.885 335.387 147.21 336.059 146.73C336.731 146.25 337.604 146.01 338.678 146.01C339.566 146.01 340.319 146.178 340.937 146.514C341.561 146.844 342.002 147.324 342.26 147.954C342.38 148.236 342.458 148.551 342.494 148.899C342.53 149.247 342.548 149.601 342.548 149.961V156H341.369V153.561L341.711 153.705C341.381 154.539 340.868 155.175 340.172 155.613C339.476 156.051 338.642 156.27 337.67 156.27ZM337.823 155.127C338.441 155.127 338.981 155.016 339.443 154.794C339.905 154.572 340.277 154.269 340.559 153.885C340.841 153.495 341.024 153.057 341.108 152.571C341.18 152.259 341.219 151.917 341.225 151.545C341.231 151.167 341.234 150.885 341.234 150.699L341.738 150.96C341.288 151.02 340.799 151.08 340.271 151.14C339.749 151.2 339.233 151.269 338.723 151.347C338.219 151.425 337.763 151.518 337.355 151.626C337.079 151.704 336.812 151.815 336.554 151.959C336.296 152.097 336.083 152.283 335.915 152.517C335.753 152.751 335.672 153.042 335.672 153.39C335.672 153.672 335.741 153.945 335.879 154.209C336.023 154.473 336.251 154.692 336.563 154.866C336.881 155.04 337.301 155.127 337.823 155.127ZM347.528 156V147.504H344.081V146.28H352.298V147.504H348.851V156H347.528ZM358.127 156.27C357.179 156.27 356.357 156.06 355.661 155.64C354.971 155.22 354.434 154.629 354.05 153.867C353.666 153.105 353.474 152.211 353.474 151.185C353.474 150.123 353.663 149.205 354.041 148.431C354.419 147.657 354.95 147.06 355.634 146.64C356.324 146.22 357.137 146.01 358.073 146.01C359.033 146.01 359.852 146.232 360.53 146.676C361.208 147.114 361.721 147.744 362.069 148.566C362.417 149.388 362.576 150.369 362.546 151.509H361.196V151.041C361.172 149.781 360.899 148.83 360.377 148.188C359.861 147.546 359.105 147.225 358.109 147.225C357.065 147.225 356.264 147.564 355.706 148.242C355.154 148.92 354.878 149.886 354.878 151.14C354.878 152.364 355.154 153.315 355.706 153.993C356.264 154.665 357.053 155.001 358.073 155.001C358.769 155.001 359.375 154.842 359.891 154.524C360.413 154.2 360.824 153.735 361.124 153.129L362.357 153.606C361.973 154.452 361.406 155.109 360.656 155.577C359.912 156.039 359.069 156.27 358.127 156.27ZM354.41 151.509V150.402H361.835V151.509H354.41ZM363.643 156V154.839C364.003 154.905 364.276 154.89 364.462 154.794C364.654 154.692 364.795 154.524 364.885 154.29C364.975 154.05 365.05 153.753 365.11 153.399C365.206 152.811 365.293 152.163 365.371 151.455C365.449 150.747 365.518 149.967 365.578 149.115C365.644 148.257 365.71 147.312 365.776 146.28H372.382V156H371.068V147.549H367C366.958 148.185 366.91 148.818 366.856 149.448C366.802 150.078 366.745 150.684 366.685 151.266C366.631 151.842 366.571 152.373 366.505 152.859C366.439 153.345 366.37 153.765 366.298 154.119C366.19 154.653 366.046 155.079 365.866 155.397C365.692 155.715 365.431 155.925 365.083 156.027C364.735 156.129 364.255 156.12 363.643 156ZM380.99 156V152.337H378.722C378.458 152.337 378.185 152.328 377.903 152.31C377.627 152.286 377.369 152.253 377.129 152.211C376.445 152.079 375.863 151.779 375.383 151.311C374.909 150.837 374.672 150.183 374.672 149.349C374.672 148.533 374.894 147.879 375.338 147.387C375.782 146.889 376.319 146.565 376.949 146.415C377.237 146.349 377.528 146.31 377.822 146.298C378.122 146.286 378.38 146.28 378.596 146.28H382.313L382.322 156H380.99ZM374.357 156L377.066 151.923H378.533L375.806 156H374.357ZM378.65 151.203H380.99V147.414H378.65C378.506 147.414 378.305 147.42 378.047 147.432C377.789 147.444 377.546 147.483 377.318 147.549C377.12 147.609 376.922 147.714 376.724 147.864C376.532 148.008 376.37 148.203 376.238 148.449C376.106 148.689 376.04 148.983 376.04 149.331C376.04 149.817 376.172 150.207 376.436 150.501C376.706 150.789 377.042 150.987 377.444 151.095C377.66 151.143 377.876 151.173 378.092 151.185C378.308 151.197 378.494 151.203 378.65 151.203ZM387.729 158.16V154.866C388.281 154.866 388.677 154.689 388.917 154.335C389.157 153.975 389.352 153.402 389.502 152.616C389.604 152.106 389.688 151.557 389.754 150.969C389.82 150.381 389.877 149.709 389.925 148.953C389.973 148.191 390.018 147.3 390.06 146.28H396.486V154.866H397.422V158.16H396.144V156H388.998V158.16H387.729ZM389.97 154.866H395.172V147.414H391.284C391.266 147.87 391.239 148.353 391.203 148.863C391.173 149.373 391.134 149.883 391.086 150.393C391.044 150.903 390.993 151.383 390.933 151.833C390.879 152.277 390.813 152.667 390.735 153.003C390.645 153.435 390.546 153.804 390.438 154.11C390.336 154.416 390.18 154.668 389.97 154.866ZM403.284 156.27C402.318 156.27 401.493 156.051 400.809 155.613C400.125 155.175 399.6 154.569 399.234 153.795C398.868 153.021 398.685 152.133 398.685 151.131C398.685 150.111 398.871 149.217 399.243 148.449C399.615 147.681 400.143 147.084 400.827 146.658C401.517 146.226 402.336 146.01 403.284 146.01C404.256 146.01 405.084 146.229 405.768 146.667C406.458 147.099 406.983 147.702 407.343 148.476C407.709 149.244 407.892 150.129 407.892 151.131C407.892 152.151 407.709 153.048 407.343 153.822C406.977 154.59 406.449 155.19 405.759 155.622C405.069 156.054 404.244 156.27 403.284 156.27ZM403.284 155.001C404.364 155.001 405.168 154.644 405.696 153.93C406.224 153.21 406.488 152.277 406.488 151.131C406.488 149.955 406.221 149.019 405.687 148.323C405.159 147.627 404.358 147.279 403.284 147.279C402.558 147.279 401.958 147.444 401.484 147.774C401.016 148.098 400.665 148.551 400.431 149.133C400.203 149.709 400.089 150.375 400.089 151.131C400.089 152.301 400.359 153.24 400.899 153.948C401.439 154.65 402.234 155.001 403.284 155.001ZM29.612 179.683V178H21.251V168.28H22.574V176.731H27.659V168.28H28.982V176.776H30.935V179.683H29.612ZM36.4824 178.27C35.5344 178.27 34.7124 178.06 34.0164 177.64C33.3264 177.22 32.7894 176.629 32.4054 175.867C32.0214 175.105 31.8294 174.211 31.8294 173.185C31.8294 172.123 32.0184 171.205 32.3964 170.431C32.7744 169.657 33.3054 169.06 33.9894 168.64C34.6794 168.22 35.4924 168.01 36.4284 168.01C37.3884 168.01 38.2074 168.232 38.8854 168.676C39.5634 169.114 40.0764 169.744 40.4244 170.566C40.7724 171.388 40.9314 172.369 40.9014 173.509H39.5514V173.041C39.5274 171.781 39.2544 170.83 38.7324 170.188C38.2164 169.546 37.4604 169.225 36.4644 169.225C35.4204 169.225 34.6194 169.564 34.0614 170.242C33.5094 170.92 33.2334 171.886 33.2334 173.14C33.2334 174.364 33.5094 175.315 34.0614 175.993C34.6194 176.665 35.4084 177.001 36.4284 177.001C37.1244 177.001 37.7304 176.842 38.2464 176.524C38.7684 176.2 39.1794 175.735 39.4794 175.129L40.7124 175.606C40.3284 176.452 39.7614 177.109 39.0114 177.577C38.2674 178.039 37.4244 178.27 36.4824 178.27ZM32.7654 173.509V172.402H40.1904V173.509H32.7654ZM41.9987 178V176.839C42.3587 176.905 42.6317 176.89 42.8177 176.794C43.0097 176.692 43.1507 176.524 43.2407 176.29C43.3307 176.05 43.4057 175.753 43.4657 175.399C43.5617 174.811 43.6487 174.163 43.7267 173.455C43.8047 172.747 43.8737 171.967 43.9337 171.115C43.9997 170.257 44.0657 169.312 44.1317 168.28H50.7377V178H49.4237V169.549H45.3557C45.3137 170.185 45.2657 170.818 45.2117 171.448C45.1577 172.078 45.1007 172.684 45.0407 173.266C44.9867 173.842 44.9267 174.373 44.8607 174.859C44.7947 175.345 44.7257 175.765 44.6537 176.119C44.5457 176.653 44.4017 177.079 44.2217 177.397C44.0477 177.715 43.7867 177.925 43.4387 178.027C43.0907 178.129 42.6107 178.12 41.9987 178ZM57.3652 178.27C56.4172 178.27 55.5952 178.06 54.8992 177.64C54.2092 177.22 53.6722 176.629 53.2882 175.867C52.9042 175.105 52.7122 174.211 52.7122 173.185C52.7122 172.123 52.9012 171.205 53.2792 170.431C53.6572 169.657 54.1882 169.06 54.8722 168.64C55.5622 168.22 56.3752 168.01 57.3112 168.01C58.2712 168.01 59.0902 168.232 59.7682 168.676C60.4462 169.114 60.9592 169.744 61.3072 170.566C61.6552 171.388 61.8142 172.369 61.7842 173.509H60.4342V173.041C60.4102 171.781 60.1372 170.83 59.6152 170.188C59.0992 169.546 58.3432 169.225 57.3472 169.225C56.3032 169.225 55.5022 169.564 54.9442 170.242C54.3922 170.92 54.1162 171.886 54.1162 173.14C54.1162 174.364 54.3922 175.315 54.9442 175.993C55.5022 176.665 56.2912 177.001 57.3112 177.001C58.0072 177.001 58.6132 176.842 59.1292 176.524C59.6512 176.2 60.0622 175.735 60.3622 175.129L61.5952 175.606C61.2112 176.452 60.6442 177.109 59.8942 177.577C59.1502 178.039 58.3072 178.27 57.3652 178.27ZM53.6482 173.509V172.402H61.0732V173.509H53.6482ZM63.7725 178V168.28H67.7775C67.9815 168.28 68.2275 168.292 68.5155 168.316C68.8095 168.34 69.0825 168.385 69.3345 168.451C69.8805 168.595 70.3185 168.889 70.6485 169.333C70.9845 169.777 71.1525 170.311 71.1525 170.935C71.1525 171.283 71.0985 171.595 70.9905 171.871C70.8885 172.141 70.7415 172.375 70.5495 172.573C70.4595 172.675 70.3605 172.765 70.2525 172.843C70.1445 172.915 70.0395 172.975 69.9375 173.023C70.1295 173.059 70.3365 173.143 70.5585 173.275C70.9065 173.479 71.1705 173.755 71.3505 174.103C71.5305 174.445 71.6205 174.862 71.6205 175.354C71.6205 176.02 71.4615 176.563 71.1435 176.983C70.8255 177.403 70.3995 177.691 69.8655 177.847C69.6255 177.913 69.3645 177.955 69.0825 177.973C68.8065 177.991 68.5455 178 68.2995 178H63.7725ZM65.1045 176.875H68.2365C68.3625 176.875 68.5215 176.866 68.7135 176.848C68.9055 176.824 69.0765 176.794 69.2265 176.758C69.5805 176.668 69.8385 176.488 70.0005 176.218C70.1685 175.942 70.2525 175.642 70.2525 175.318C70.2525 174.892 70.1265 174.544 69.8745 174.274C69.6285 173.998 69.2985 173.83 68.8845 173.77C68.7465 173.74 68.6025 173.722 68.4525 173.716C68.3025 173.71 68.1675 173.707 68.0475 173.707H65.1045V176.875ZM65.1045 172.573H67.8225C67.9785 172.573 68.1525 172.564 68.3445 172.546C68.5425 172.522 68.7135 172.483 68.8575 172.429C69.1695 172.321 69.3975 172.135 69.5415 171.871C69.6915 171.607 69.7665 171.319 69.7665 171.007C69.7665 170.665 69.6855 170.365 69.5235 170.107C69.3675 169.849 69.1305 169.669 68.8125 169.567C68.5965 169.489 68.3625 169.444 68.1105 169.432C67.8645 169.42 67.7085 169.414 67.6425 169.414H65.1045V172.573ZM77.4733 178.27C76.5073 178.27 75.6823 178.051 74.9983 177.613C74.3143 177.175 73.7893 176.569 73.4233 175.795C73.0573 175.021 72.8743 174.133 72.8743 173.131C72.8743 172.111 73.0603 171.217 73.4323 170.449C73.8043 169.681 74.3323 169.084 75.0163 168.658C75.7063 168.226 76.5253 168.01 77.4733 168.01C78.4453 168.01 79.2733 168.229 79.9573 168.667C80.6473 169.099 81.1723 169.702 81.5323 170.476C81.8983 171.244 82.0813 172.129 82.0813 173.131C82.0813 174.151 81.8983 175.048 81.5323 175.822C81.1663 176.59 80.6383 177.19 79.9483 177.622C79.2583 178.054 78.4333 178.27 77.4733 178.27ZM77.4733 177.001C78.5533 177.001 79.3573 176.644 79.8853 175.93C80.4133 175.21 80.6773 174.277 80.6773 173.131C80.6773 171.955 80.4103 171.019 79.8763 170.323C79.3483 169.627 78.5473 169.279 77.4733 169.279C76.7473 169.279 76.1473 169.444 75.6733 169.774C75.2053 170.098 74.8543 170.551 74.6203 171.133C74.3923 171.709 74.2783 172.375 74.2783 173.131C74.2783 174.301 74.5483 175.24 75.0883 175.948C75.6283 176.65 76.4233 177.001 77.4733 177.001ZM84.0666 178V168.28H90.7266V169.549H85.3896V178H84.0666ZM96.317 178.27C95.351 178.27 94.526 178.051 93.842 177.613C93.158 177.175 92.633 176.569 92.267 175.795C91.901 175.021 91.718 174.133 91.718 173.131C91.718 172.111 91.904 171.217 92.276 170.449C92.648 169.681 93.176 169.084 93.86 168.658C94.55 168.226 95.369 168.01 96.317 168.01C97.289 168.01 98.117 168.229 98.801 168.667C99.491 169.099 100.016 169.702 100.376 170.476C100.742 171.244 100.925 172.129 100.925 173.131C100.925 174.151 100.742 175.048 100.376 175.822C100.01 176.59 99.482 177.19 98.792 177.622C98.102 178.054 97.277 178.27 96.317 178.27ZM96.317 177.001C97.397 177.001 98.201 176.644 98.729 175.93C99.257 175.21 99.521 174.277 99.521 173.131C99.521 171.955 99.254 171.019 98.72 170.323C98.192 169.627 97.391 169.279 96.317 169.279C95.591 169.279 94.991 169.444 94.517 169.774C94.049 170.098 93.698 170.551 93.464 171.133C93.236 171.709 93.122 172.375 93.122 173.131C93.122 174.301 93.392 175.24 93.932 175.948C94.472 176.65 95.267 177.001 96.317 177.001ZM105.794 180.16V176.866C106.346 176.866 106.742 176.689 106.982 176.335C107.222 175.975 107.417 175.402 107.567 174.616C107.669 174.106 107.753 173.557 107.819 172.969C107.885 172.381 107.942 171.709 107.99 170.953C108.038 170.191 108.083 169.3 108.125 168.28H114.551V176.866H115.487V180.16H114.209V178H107.063V180.16H105.794ZM108.035 176.866H113.237V169.414H109.349C109.331 169.87 109.304 170.353 109.268 170.863C109.238 171.373 109.199 171.883 109.151 172.393C109.109 172.903 109.058 173.383 108.998 173.833C108.944 174.277 108.878 174.667 108.8 175.003C108.71 175.435 108.611 175.804 108.503 176.11C108.401 176.416 108.245 176.668 108.035 176.866ZM121.402 178.27C120.454 178.27 119.632 178.06 118.936 177.64C118.246 177.22 117.709 176.629 117.325 175.867C116.941 175.105 116.749 174.211 116.749 173.185C116.749 172.123 116.938 171.205 117.316 170.431C117.694 169.657 118.225 169.06 118.909 168.64C119.599 168.22 120.412 168.01 121.348 168.01C122.308 168.01 123.127 168.232 123.805 168.676C124.483 169.114 124.996 169.744 125.344 170.566C125.692 171.388 125.851 172.369 125.821 173.509H124.471V173.041C124.447 171.781 124.174 170.83 123.652 170.188C123.136 169.546 122.38 169.225 121.384 169.225C120.34 169.225 119.539 169.564 118.981 170.242C118.429 170.92 118.153 171.886 118.153 173.14C118.153 174.364 118.429 175.315 118.981 175.993C119.539 176.665 120.328 177.001 121.348 177.001C122.044 177.001 122.65 176.842 123.166 176.524C123.688 176.2 124.099 175.735 124.399 175.129L125.632 175.606C125.248 176.452 124.681 177.109 123.931 177.577C123.187 178.039 122.344 178.27 121.402 178.27ZM117.685 173.509V172.402H125.11V173.509H117.685ZM131.851 167.128C131.425 167.128 131.035 167.023 130.681 166.813C130.327 166.603 130.045 166.324 129.835 165.976C129.631 165.622 129.529 165.232 129.529 164.806H130.627C130.627 165.142 130.747 165.43 130.987 165.67C131.227 165.91 131.515 166.03 131.851 166.03C132.193 166.03 132.481 165.91 132.715 165.67C132.955 165.43 133.075 165.142 133.075 164.806H134.173C134.173 165.232 134.068 165.622 133.858 165.976C133.654 166.324 133.375 166.603 133.021 166.813C132.667 167.023 132.277 167.128 131.851 167.128ZM135.541 168.28V178H134.254V170.431L128.926 178H127.81V168.28H129.097V175.786L134.434 168.28H135.541ZM142.099 178.27C141.121 178.27 140.293 178.051 139.615 177.613C138.937 177.175 138.421 176.572 138.067 175.804C137.719 175.03 137.539 174.142 137.527 173.14C137.539 172.12 137.725 171.226 138.085 170.458C138.445 169.684 138.964 169.084 139.642 168.658C140.32 168.226 141.142 168.01 142.108 168.01C143.092 168.01 143.947 168.25 144.673 168.73C145.405 169.21 145.906 169.867 146.176 170.701L144.88 171.115C144.652 170.533 144.289 170.083 143.791 169.765C143.299 169.441 142.735 169.279 142.099 169.279C141.385 169.279 140.794 169.444 140.326 169.774C139.858 170.098 139.51 170.551 139.282 171.133C139.054 171.715 138.937 172.384 138.931 173.14C138.943 174.304 139.213 175.24 139.741 175.948C140.269 176.65 141.055 177.001 142.099 177.001C142.759 177.001 143.32 176.851 143.782 176.551C144.25 176.245 144.604 175.801 144.844 175.219L146.176 175.615C145.816 176.479 145.288 177.139 144.592 177.595C143.896 178.045 143.065 178.27 142.099 178.27ZM150.442 178V169.504H146.995V168.28H155.212V169.504H151.765V178H150.442ZM156.919 178V168.28H160.924C161.128 168.28 161.374 168.292 161.662 168.316C161.956 168.34 162.229 168.385 162.481 168.451C163.027 168.595 163.465 168.889 163.795 169.333C164.131 169.777 164.299 170.311 164.299 170.935C164.299 171.283 164.245 171.595 164.137 171.871C164.035 172.141 163.888 172.375 163.696 172.573C163.606 172.675 163.507 172.765 163.399 172.843C163.291 172.915 163.186 172.975 163.084 173.023C163.276 173.059 163.483 173.143 163.705 173.275C164.053 173.479 164.317 173.755 164.497 174.103C164.677 174.445 164.767 174.862 164.767 175.354C164.767 176.02 164.608 176.563 164.29 176.983C163.972 177.403 163.546 177.691 163.012 177.847C162.772 177.913 162.511 177.955 162.229 177.973C161.953 177.991 161.692 178 161.446 178H156.919ZM158.251 176.875H161.383C161.509 176.875 161.668 176.866 161.86 176.848C162.052 176.824 162.223 176.794 162.373 176.758C162.727 176.668 162.985 176.488 163.147 176.218C163.315 175.942 163.399 175.642 163.399 175.318C163.399 174.892 163.273 174.544 163.021 174.274C162.775 173.998 162.445 173.83 162.031 173.77C161.893 173.74 161.749 173.722 161.599 173.716C161.449 173.71 161.314 173.707 161.194 173.707H158.251V176.875ZM158.251 172.573H160.969C161.125 172.573 161.299 172.564 161.491 172.546C161.689 172.522 161.86 172.483 162.004 172.429C162.316 172.321 162.544 172.135 162.688 171.871C162.838 171.607 162.913 171.319 162.913 171.007C162.913 170.665 162.832 170.365 162.67 170.107C162.514 169.849 162.277 169.669 161.959 169.567C161.743 169.489 161.509 169.444 161.257 169.432C161.011 169.42 160.855 169.414 160.789 169.414H158.251V172.573ZM174.283 168.28V178H172.996V170.431L167.668 178H166.552V168.28H167.839V175.786L173.176 168.28H174.283ZM182.902 178V174.337H180.634C180.37 174.337 180.097 174.328 179.815 174.31C179.539 174.286 179.281 174.253 179.041 174.211C178.357 174.079 177.775 173.779 177.295 173.311C176.821 172.837 176.584 172.183 176.584 171.349C176.584 170.533 176.806 169.879 177.25 169.387C177.694 168.889 178.231 168.565 178.861 168.415C179.149 168.349 179.44 168.31 179.734 168.298C180.034 168.286 180.292 168.28 180.508 168.28H184.225L184.234 178H182.902ZM176.269 178L178.978 173.923H180.445L177.718 178H176.269ZM180.562 173.203H182.902V169.414H180.562C180.418 169.414 180.217 169.42 179.959 169.432C179.701 169.444 179.458 169.483 179.23 169.549C179.032 169.609 178.834 169.714 178.636 169.864C178.444 170.008 178.282 170.203 178.15 170.449C178.018 170.689 177.952 170.983 177.952 171.331C177.952 171.817 178.084 172.207 178.348 172.501C178.618 172.789 178.954 172.987 179.356 173.095C179.572 173.143 179.788 173.173 180.004 173.185C180.22 173.197 180.406 173.203 180.562 173.203ZM187.01 178V176.461H188.549V178H187.01Z" fill="#262626"/>
<path d="M107.888 25.918H110.7V43.436C110.7 46.2227 111.27 48.338 112.41 49.782C113.55 51.2007 115.222 51.91 117.426 51.91C119.655 51.91 121.34 51.2007 122.48 49.782C123.62 48.338 124.19 46.2227 124.19 43.436V25.918H127.002V43.436C127.002 47.008 126.179 49.744 124.532 51.644C122.885 53.544 120.517 54.494 117.426 54.494C115.906 54.494 114.551 54.2533 113.36 53.772C112.169 53.2907 111.169 52.5813 110.358 51.644C109.547 50.7067 108.927 49.554 108.496 48.186C108.091 46.7927 107.888 45.2093 107.888 43.436V25.918ZM132.788 54V25.918H135.6V54H132.788ZM139.993 58.864L150.899 25.918H153.559L142.539 58.864H139.993ZM157.949 25.918H160.761V43.436C160.761 46.2227 161.331 48.338 162.471 49.782C163.611 51.2007 165.283 51.91 167.487 51.91C169.716 51.91 171.401 51.2007 172.541 49.782C173.681 48.338 174.251 46.2227 174.251 43.436V25.918H177.063V43.436C177.063 47.008 176.239 49.744 174.593 51.644C172.946 53.544 170.577 54.494 167.487 54.494C165.967 54.494 164.611 54.2533 163.421 53.772C162.23 53.2907 161.229 52.5813 160.419 51.644C159.608 50.7067 158.987 49.554 158.557 48.186C158.151 46.7927 157.949 45.2093 157.949 43.436V25.918ZM180.265 54L189.803 39.636L180.797 25.918H184.103L191.551 37.166L198.961 25.918H202.229L193.223 39.636L202.799 54H199.493L191.551 41.992L183.571 54H180.265Z" fill="#070707"/>
<rect width="68" height="68" rx="10" fill="#FF5C10"/>
<path d="M28.7499 54H42.2496M35.4998 14C28.0441 14 22 19.9695 22 27.3333C22 30.0322 22.8119 32.5438 24.2076 34.6429C26.3538 37.8707 27.426 39.4836 27.5653 39.7246C28.8045 41.8689 28.5763 41.1126 28.7323 43.5768C28.7498 43.8538 28.7499 44.2731 28.7499 45.1111C28.7499 46.3384 29.7572 47.3333 30.9998 47.3333L39.9997 47.3333C41.2423 47.3333 42.2496 46.3384 42.2496 45.1111C42.2496 44.2731 42.2496 43.8538 42.2672 43.5768C42.4231 41.1126 42.1937 41.8689 43.4329 39.7247C43.5722 39.4836 44.6462 37.8707 46.7924 34.6429C48.1881 32.5438 49 30.0322 49 27.3333C49 19.9695 42.9555 14 35.4998 14Z" stroke="white" stroke-width="2" stroke-linecap="round" stroke-linejoin="round"/>
</svg>
