<svg width="440" height="220" viewBox="0 0 440 220" fill="none" xmlns="http://www.w3.org/2000/svg">
<path d="M430 0C435.523 0 440 4.47715 440 10V210C440 215.523 435.523 220 430 220H10C4.47715 220 1.61069e-07 215.523 0 210V95C0 89.4771 4.47715 85 10 85H75C80.5229 85 85 80.5229 85 75V10C85 4.47715 89.4771 0 95 0H430Z" fill="white"/>
<path d="M25.061 119.21C24.0577 119.21 23.2107 118.988 22.52 118.545C21.8293 118.097 21.3067 117.479 20.952 116.69C20.5973 115.901 20.42 114.991 20.42 113.96C20.42 112.929 20.5973 112.019 20.952 111.23C21.3067 110.441 21.8293 109.825 22.52 109.382C23.2107 108.934 24.0577 108.71 25.061 108.71C26.2323 108.71 27.189 109.011 27.931 109.613C28.673 110.21 29.1817 111.013 29.457 112.021L28.407 112.294C28.1923 111.496 27.8073 110.864 27.252 110.397C26.6967 109.93 25.9663 109.697 25.061 109.697C24.2723 109.697 23.6167 109.877 23.094 110.236C22.5713 110.595 22.177 111.097 21.911 111.741C21.6497 112.38 21.5143 113.12 21.505 113.96C21.5003 114.8 21.6287 115.54 21.89 116.179C22.156 116.818 22.5527 117.32 23.08 117.684C23.612 118.043 24.2723 118.223 25.061 118.223C25.9663 118.223 26.6967 117.99 27.252 117.523C27.8073 117.052 28.1923 116.419 28.407 115.626L29.457 115.899C29.1817 116.907 28.673 117.712 27.931 118.314C27.189 118.911 26.2323 119.21 25.061 119.21ZM33.1645 119.21C32.5952 119.21 32.1168 119.107 31.7295 118.902C31.3468 118.697 31.0598 118.424 30.8685 118.083C30.6772 117.742 30.5815 117.371 30.5815 116.97C30.5815 116.559 30.6632 116.209 30.8265 115.92C30.9945 115.626 31.2208 115.386 31.5055 115.199C31.7948 115.012 32.1285 114.87 32.5065 114.772C32.8892 114.679 33.3115 114.597 33.7735 114.527C34.2402 114.452 34.6952 114.389 35.1385 114.338C35.5865 114.282 35.9785 114.228 36.3145 114.177L35.9505 114.401C35.9645 113.654 35.8198 113.101 35.5165 112.742C35.2132 112.383 34.6858 112.203 33.9345 112.203C33.4165 112.203 32.9778 112.32 32.6185 112.553C32.2638 112.786 32.0142 113.155 31.8695 113.659L30.8685 113.365C31.0412 112.688 31.3888 112.163 31.9115 111.79C32.4342 111.417 33.1132 111.23 33.9485 111.23C34.6392 111.23 35.2248 111.361 35.7055 111.622C36.1908 111.879 36.5338 112.252 36.7345 112.742C36.8278 112.961 36.8885 113.206 36.9165 113.477C36.9445 113.748 36.9585 114.023 36.9585 114.303V119H36.0415V117.103L36.3075 117.215C36.0508 117.864 35.6518 118.358 35.1105 118.699C34.5692 119.04 33.9205 119.21 33.1645 119.21ZM33.2835 118.321C33.7642 118.321 34.1842 118.235 34.5435 118.062C34.9028 117.889 35.1922 117.654 35.4115 117.355C35.6308 117.052 35.7732 116.711 35.8385 116.333C35.8945 116.09 35.9248 115.824 35.9295 115.535C35.9342 115.241 35.9365 115.022 35.9365 114.877L36.3285 115.08C35.9785 115.127 35.5982 115.173 35.1875 115.22C34.7815 115.267 34.3802 115.32 33.9835 115.381C33.5915 115.442 33.2368 115.514 32.9195 115.598C32.7048 115.659 32.4972 115.745 32.2965 115.857C32.0958 115.964 31.9302 116.109 31.7995 116.291C31.6735 116.473 31.6105 116.699 31.6105 116.97C31.6105 117.189 31.6642 117.402 31.7715 117.607C31.8835 117.812 32.0608 117.983 32.3035 118.118C32.5508 118.253 32.8775 118.321 33.2835 118.321ZM41.9168 110.544C41.5854 110.544 41.2821 110.462 41.0068 110.299C40.7314 110.136 40.5121 109.919 40.3488 109.648C40.1901 109.373 40.1108 109.069 40.1108 108.738H40.9648C40.9648 108.999 41.0581 109.223 41.2448 109.41C41.4314 109.597 41.6554 109.69 41.9168 109.69C42.1828 109.69 42.4068 109.597 42.5888 109.41C42.7754 109.223 42.8688 108.999 42.8688 108.738H43.7228C43.7228 109.069 43.6411 109.373 43.4778 109.648C43.3191 109.919 43.1021 110.136 42.8268 110.299C42.5514 110.462 42.2481 110.544 41.9168 110.544ZM44.7868 111.44V119H43.7858V113.113L39.6418 119H38.7738V111.44H39.7748V117.278L43.9258 111.44H44.7868ZM48.8025 119V112.392H46.1215V111.44H52.5125V112.392H49.8315V119H48.8025ZM59.7859 119.21C59.0253 119.21 58.3813 119.04 57.8539 118.699C57.3266 118.358 56.9253 117.889 56.6499 117.292C56.3793 116.69 56.2393 115.999 56.2299 115.22C56.2393 114.427 56.3839 113.731 56.6639 113.134C56.9439 112.532 57.3476 112.065 57.8749 111.734C58.4023 111.398 59.0416 111.23 59.7929 111.23C60.5583 111.23 61.2233 111.417 61.7879 111.79C62.3573 112.163 62.7469 112.674 62.9569 113.323L61.9489 113.645C61.7716 113.192 61.4893 112.842 61.1019 112.595C60.7193 112.343 60.2806 112.217 59.7859 112.217C59.2306 112.217 58.7709 112.345 58.4069 112.602C58.0429 112.854 57.7723 113.206 57.5949 113.659C57.4176 114.112 57.3266 114.632 57.3219 115.22C57.3313 116.125 57.5413 116.853 57.9519 117.404C58.3626 117.95 58.9739 118.223 59.7859 118.223C60.2993 118.223 60.7356 118.106 61.0949 117.873C61.4589 117.635 61.7343 117.29 61.9209 116.837L62.9569 117.145C62.6769 117.817 62.2663 118.33 61.7249 118.685C61.1836 119.035 60.5373 119.21 59.7859 119.21ZM66.2751 119V112.392H63.5941V111.44H69.9851V112.392H67.3041V119H66.2751ZM73.1957 119.21C72.6264 119.21 72.1481 119.107 71.7607 118.902C71.3781 118.697 71.0911 118.424 70.8997 118.083C70.7084 117.742 70.6127 117.371 70.6127 116.97C70.6127 116.559 70.6944 116.209 70.8577 115.92C71.0257 115.626 71.2521 115.386 71.5367 115.199C71.8261 115.012 72.1597 114.87 72.5377 114.772C72.9204 114.679 73.3427 114.597 73.8047 114.527C74.2714 114.452 74.7264 114.389 75.1697 114.338C75.6177 114.282 76.0097 114.228 76.3457 114.177L75.9817 114.401C75.9957 113.654 75.8511 113.101 75.5477 112.742C75.2444 112.383 74.7171 112.203 73.9657 112.203C73.4477 112.203 73.0091 112.32 72.6497 112.553C72.2951 112.786 72.0454 113.155 71.9007 113.659L70.8997 113.365C71.0724 112.688 71.4201 112.163 71.9427 111.79C72.4654 111.417 73.1444 111.23 73.9797 111.23C74.6704 111.23 75.2561 111.361 75.7367 111.622C76.2221 111.879 76.5651 112.252 76.7657 112.742C76.8591 112.961 76.9197 113.206 76.9477 113.477C76.9757 113.748 76.9897 114.023 76.9897 114.303V119H76.0727V117.103L76.3387 117.215C76.0821 117.864 75.6831 118.358 75.1417 118.699C74.6004 119.04 73.9517 119.21 73.1957 119.21ZM73.3147 118.321C73.7954 118.321 74.2154 118.235 74.5747 118.062C74.9341 117.889 75.2234 117.654 75.4427 117.355C75.6621 117.052 75.8044 116.711 75.8697 116.333C75.9257 116.09 75.9561 115.824 75.9607 115.535C75.9654 115.241 75.9677 115.022 75.9677 114.877L76.3597 115.08C76.0097 115.127 75.6294 115.173 75.2187 115.22C74.8127 115.267 74.4114 115.32 74.0147 115.381C73.6227 115.442 73.2681 115.514 72.9507 115.598C72.7361 115.659 72.5284 115.745 72.3277 115.857C72.1271 115.964 71.9614 116.109 71.8307 116.291C71.7047 116.473 71.6417 116.699 71.6417 116.97C71.6417 117.189 71.6954 117.402 71.8027 117.607C71.9147 117.812 72.0921 117.983 72.3347 118.118C72.5821 118.253 72.9087 118.321 73.3147 118.321ZM78.805 119V111.44H79.834V114.723H84.097V111.44H85.126V119H84.097V115.71H79.834V119H78.805ZM90.2405 119.21C89.4892 119.21 88.8475 119.04 88.3155 118.699C87.7835 118.358 87.3752 117.887 87.0905 117.285C86.8058 116.683 86.6635 115.992 86.6635 115.213C86.6635 114.42 86.8082 113.724 87.0975 113.127C87.3868 112.53 87.7975 112.065 88.3295 111.734C88.8662 111.398 89.5032 111.23 90.2405 111.23C90.9965 111.23 91.6405 111.4 92.1725 111.741C92.7092 112.077 93.1175 112.546 93.3975 113.148C93.6822 113.745 93.8245 114.434 93.8245 115.213C93.8245 116.006 93.6822 116.704 93.3975 117.306C93.1128 117.903 92.7022 118.37 92.1655 118.706C91.6288 119.042 90.9872 119.21 90.2405 119.21ZM90.2405 118.223C91.0805 118.223 91.7058 117.945 92.1165 117.39C92.5272 116.83 92.7325 116.104 92.7325 115.213C92.7325 114.298 92.5248 113.57 92.1095 113.029C91.6988 112.488 91.0758 112.217 90.2405 112.217C89.6758 112.217 89.2092 112.345 88.8405 112.602C88.4765 112.854 88.2035 113.206 88.0215 113.659C87.8442 114.107 87.7555 114.625 87.7555 115.213C87.7555 116.123 87.9655 116.853 88.3855 117.404C88.8055 117.95 89.4238 118.223 90.2405 118.223ZM95.3617 119V111.44H98.4767C98.6353 111.44 98.8267 111.449 99.0507 111.468C99.2793 111.487 99.4917 111.522 99.6877 111.573C100.112 111.685 100.453 111.914 100.71 112.259C100.971 112.604 101.102 113.02 101.102 113.505C101.102 113.776 101.06 114.018 100.976 114.233C100.896 114.443 100.782 114.625 100.633 114.779C100.563 114.858 100.486 114.928 100.402 114.989C100.318 115.045 100.236 115.092 100.157 115.129C100.306 115.157 100.467 115.222 100.64 115.325C100.91 115.484 101.116 115.698 101.256 115.969C101.396 116.235 101.466 116.559 101.466 116.942C101.466 117.46 101.342 117.882 101.095 118.209C100.847 118.536 100.516 118.76 100.101 118.881C99.914 118.932 99.711 118.965 99.4917 118.979C99.277 118.993 99.074 119 98.8827 119H95.3617ZM96.3977 118.125H98.8337C98.9317 118.125 99.0553 118.118 99.2047 118.104C99.354 118.085 99.487 118.062 99.6037 118.034C99.879 117.964 100.08 117.824 100.206 117.614C100.336 117.399 100.402 117.166 100.402 116.914C100.402 116.583 100.304 116.312 100.108 116.102C99.9163 115.887 99.6597 115.757 99.3377 115.71C99.2303 115.687 99.1183 115.673 99.0017 115.668C98.885 115.663 98.78 115.661 98.6867 115.661H96.3977V118.125ZM96.3977 114.779H98.5117C98.633 114.779 98.7683 114.772 98.9177 114.758C99.0717 114.739 99.2047 114.709 99.3167 114.667C99.5593 114.583 99.7367 114.438 99.8487 114.233C99.9653 114.028 100.024 113.804 100.024 113.561C100.024 113.295 99.9607 113.062 99.8347 112.861C99.7133 112.66 99.529 112.52 99.2817 112.441C99.1137 112.38 98.9317 112.345 98.7357 112.336C98.5443 112.327 98.423 112.322 98.3717 112.322H96.3977V114.779ZM108.867 111.44V119H107.866V113.113L103.722 119H102.854V111.44H103.855V117.278L108.006 111.44H108.867ZM112.883 119V112.392H110.202V111.44H116.593V112.392H113.912V119H112.883ZM120.927 119.21C120.166 119.21 119.522 119.04 118.995 118.699C118.467 118.358 118.066 117.889 117.791 117.292C117.52 116.69 117.38 115.999 117.371 115.22C117.38 114.427 117.525 113.731 117.805 113.134C118.085 112.532 118.488 112.065 119.016 111.734C119.543 111.398 120.182 111.23 120.934 111.23C121.699 111.23 122.364 111.417 122.929 111.79C123.498 112.163 123.888 112.674 124.098 113.323L123.09 113.645C122.912 113.192 122.63 112.842 122.243 112.595C121.86 112.343 121.421 112.217 120.927 112.217C120.371 112.217 119.912 112.345 119.548 112.602C119.184 112.854 118.913 113.206 118.736 113.659C118.558 114.112 118.467 114.632 118.463 115.22C118.472 116.125 118.682 116.853 119.093 117.404C119.503 117.95 120.115 118.223 120.927 118.223C121.44 118.223 121.876 118.106 122.236 117.873C122.6 117.635 122.875 117.29 123.062 116.837L124.098 117.145C123.818 117.817 123.407 118.33 122.866 118.685C122.324 119.035 121.678 119.21 120.927 119.21ZM130.24 119V116.151H128.476C128.271 116.151 128.059 116.144 127.839 116.13C127.625 116.111 127.424 116.086 127.237 116.053C126.705 115.95 126.253 115.717 125.879 115.353C125.511 114.984 125.326 114.476 125.326 113.827C125.326 113.192 125.499 112.684 125.844 112.301C126.19 111.914 126.607 111.662 127.097 111.545C127.321 111.494 127.548 111.463 127.776 111.454C128.01 111.445 128.21 111.44 128.378 111.44H131.269L131.276 119H130.24ZM125.081 119L127.188 115.829H128.329L126.208 119H125.081ZM128.42 115.269H130.24V112.322H128.42C128.308 112.322 128.152 112.327 127.951 112.336C127.751 112.345 127.562 112.376 127.384 112.427C127.23 112.474 127.076 112.555 126.922 112.672C126.773 112.784 126.647 112.936 126.544 113.127C126.442 113.314 126.39 113.542 126.39 113.813C126.39 114.191 126.493 114.494 126.698 114.723C126.908 114.947 127.17 115.101 127.482 115.185C127.65 115.222 127.818 115.246 127.986 115.255C128.154 115.264 128.299 115.269 128.42 115.269ZM139.178 119.21C138.418 119.21 137.774 119.04 137.247 118.699C136.719 118.358 136.318 117.889 136.043 117.292C135.772 116.69 135.632 115.999 135.623 115.22C135.632 114.427 135.777 113.731 136.057 113.134C136.337 112.532 136.74 112.065 137.268 111.734C137.795 111.398 138.434 111.23 139.186 111.23C139.951 111.23 140.616 111.417 141.181 111.79C141.75 112.163 142.14 112.674 142.35 113.323L141.342 113.645C141.164 113.192 140.882 112.842 140.495 112.595C140.112 112.343 139.673 112.217 139.178 112.217C138.623 112.217 138.164 112.345 137.8 112.602C137.436 112.854 137.165 113.206 136.988 113.659C136.81 114.112 136.719 114.632 136.715 115.22C136.724 116.125 136.934 116.853 137.345 117.404C137.755 117.95 138.367 118.223 139.178 118.223C139.692 118.223 140.128 118.106 140.488 117.873C140.852 117.635 141.127 117.29 141.314 116.837L142.35 117.145C142.07 117.817 141.659 118.33 141.118 118.685C140.576 119.035 139.93 119.21 139.178 119.21ZM145.668 119V112.392H142.987V111.44H149.378V112.392H146.697V119H145.668ZM152.588 119.21C152.019 119.21 151.541 119.107 151.153 118.902C150.771 118.697 150.484 118.424 150.292 118.083C150.101 117.742 150.005 117.371 150.005 116.97C150.005 116.559 150.087 116.209 150.25 115.92C150.418 115.626 150.645 115.386 150.929 115.199C151.219 115.012 151.552 114.87 151.93 114.772C152.313 114.679 152.735 114.597 153.197 114.527C153.664 114.452 154.119 114.389 154.562 114.338C155.01 114.282 155.402 114.228 155.738 114.177L155.374 114.401C155.388 113.654 155.244 113.101 154.94 112.742C154.637 112.383 154.11 112.203 153.358 112.203C152.84 112.203 152.402 112.32 152.042 112.553C151.688 112.786 151.438 113.155 151.293 113.659L150.292 113.365C150.465 112.688 150.813 112.163 151.335 111.79C151.858 111.417 152.537 111.23 153.372 111.23C154.063 111.23 154.649 111.361 155.129 111.622C155.615 111.879 155.958 112.252 156.158 112.742C156.252 112.961 156.312 113.206 156.34 113.477C156.368 113.748 156.382 114.023 156.382 114.303V119H155.465V117.103L155.731 117.215C155.475 117.864 155.076 118.358 154.534 118.699C153.993 119.04 153.344 119.21 152.588 119.21ZM152.707 118.321C153.188 118.321 153.608 118.235 153.967 118.062C154.327 117.889 154.616 117.654 154.835 117.355C155.055 117.052 155.197 116.711 155.262 116.333C155.318 116.09 155.349 115.824 155.353 115.535C155.358 115.241 155.36 115.022 155.36 114.877L155.752 115.08C155.402 115.127 155.022 115.173 154.611 115.22C154.205 115.267 153.804 115.32 153.407 115.381C153.015 115.442 152.661 115.514 152.343 115.598C152.129 115.659 151.921 115.745 151.72 115.857C151.52 115.964 151.354 116.109 151.223 116.291C151.097 116.473 151.034 116.699 151.034 116.97C151.034 117.189 151.088 117.402 151.195 117.607C151.307 117.812 151.485 117.983 151.727 118.118C151.975 118.253 152.301 118.321 152.707 118.321ZM161.236 119.217C160.531 119.212 159.927 119.058 159.423 118.755C158.919 118.452 158.527 117.999 158.247 117.397C157.971 116.795 157.822 116.044 157.799 115.143C157.785 114.746 157.794 114.315 157.827 113.848C157.859 113.377 157.911 112.929 157.981 112.504C158.051 112.079 158.135 111.734 158.233 111.468C158.354 111.123 158.527 110.801 158.751 110.502C158.979 110.199 159.243 109.951 159.542 109.76C159.831 109.564 160.158 109.412 160.522 109.305C160.89 109.193 161.273 109.107 161.67 109.046C162.071 108.985 162.468 108.932 162.86 108.885C163.256 108.838 163.623 108.78 163.959 108.71L164.071 109.641C163.814 109.692 163.511 109.739 163.161 109.781C162.811 109.823 162.444 109.874 162.062 109.935C161.679 109.991 161.313 110.068 160.963 110.166C160.613 110.264 160.314 110.392 160.067 110.551C159.689 110.78 159.397 111.125 159.192 111.587C158.991 112.049 158.867 112.579 158.821 113.176C159.11 112.723 159.493 112.383 159.969 112.154C160.449 111.925 160.97 111.811 161.53 111.811C162.211 111.811 162.797 111.967 163.287 112.28C163.781 112.593 164.162 113.027 164.428 113.582C164.694 114.137 164.827 114.774 164.827 115.493C164.827 116.244 164.68 116.9 164.386 117.46C164.096 118.02 163.683 118.454 163.147 118.762C162.61 119.065 161.973 119.217 161.236 119.217ZM161.313 118.23C162.106 118.23 162.708 117.983 163.119 117.488C163.534 116.993 163.742 116.335 163.742 115.514C163.742 114.674 163.527 114.011 163.098 113.526C162.673 113.041 162.073 112.798 161.299 112.798C160.524 112.798 159.929 113.041 159.514 113.526C159.098 114.011 158.891 114.674 158.891 115.514C158.891 116.354 159.098 117.017 159.514 117.502C159.929 117.987 160.529 118.23 161.313 118.23ZM172.373 111.44V119H171.372V113.113L167.228 119H166.36V111.44H167.361V117.278L171.512 111.44H172.373ZM173.637 119V118.097C173.917 118.148 174.13 118.137 174.274 118.062C174.424 117.983 174.533 117.852 174.603 117.67C174.673 117.483 174.732 117.252 174.778 116.977C174.853 116.52 174.921 116.016 174.981 115.465C175.042 114.914 175.096 114.308 175.142 113.645C175.194 112.978 175.245 112.243 175.296 111.44H180.434V119H179.412V112.427H176.248C176.216 112.922 176.178 113.414 176.136 113.904C176.094 114.394 176.05 114.865 176.003 115.318C175.961 115.766 175.915 116.179 175.863 116.557C175.812 116.935 175.758 117.262 175.702 117.537C175.618 117.952 175.506 118.284 175.366 118.531C175.231 118.778 175.028 118.942 174.757 119.021C174.487 119.1 174.113 119.093 173.637 119ZM182.397 119L182.383 111.44H183.419V114.289H185.19C185.409 114.289 185.624 114.294 185.834 114.303C186.049 114.312 186.238 114.331 186.401 114.359C186.774 114.429 187.106 114.553 187.395 114.73C187.689 114.907 187.918 115.152 188.081 115.465C188.249 115.778 188.333 116.17 188.333 116.641C188.333 117.29 188.165 117.801 187.829 118.174C187.498 118.547 187.078 118.79 186.569 118.902C186.378 118.944 186.17 118.972 185.946 118.986C185.722 118.995 185.5 119 185.281 119H182.397ZM183.419 118.118H185.239C185.398 118.118 185.575 118.113 185.771 118.104C185.967 118.095 186.14 118.069 186.289 118.027C186.536 117.957 186.76 117.817 186.961 117.607C187.166 117.392 187.269 117.07 187.269 116.641C187.269 116.216 187.171 115.897 186.975 115.682C186.779 115.463 186.518 115.318 186.191 115.248C186.046 115.215 185.89 115.194 185.722 115.185C185.554 115.176 185.393 115.171 185.239 115.171H183.419V118.118ZM189.657 119V111.44H190.686V114.723H194.949V111.44H195.978V119H194.949V115.71H190.686V119H189.657ZM197.942 119L197.928 111.44H198.964V114.289H200.28C200.499 114.289 200.714 114.294 200.924 114.303C201.134 114.312 201.323 114.331 201.491 114.359C201.864 114.434 202.196 114.56 202.485 114.737C202.774 114.914 203.003 115.159 203.171 115.472C203.339 115.78 203.423 116.17 203.423 116.641C203.423 117.29 203.255 117.801 202.919 118.174C202.583 118.547 202.161 118.79 201.652 118.902C201.461 118.944 201.253 118.972 201.029 118.986C200.805 118.995 200.586 119 200.371 119H197.942ZM198.964 118.118H200.329C200.483 118.118 200.658 118.113 200.854 118.104C201.05 118.095 201.223 118.069 201.372 118.027C201.624 117.957 201.85 117.817 202.051 117.607C202.256 117.392 202.359 117.07 202.359 116.641C202.359 116.216 202.261 115.897 202.065 115.682C201.869 115.463 201.608 115.318 201.281 115.248C201.132 115.215 200.973 115.194 200.805 115.185C200.642 115.176 200.483 115.171 200.329 115.171H198.964V118.118ZM204.326 119V111.44H205.355V119H204.326ZM207.307 119V111.44H208.224L211.171 117.628L214.125 111.44H215.035V119H214.041V113.638L211.5 119H210.849L208.308 113.638V119H207.307ZM225.802 111.44V119H224.801V113.113L220.657 119H219.789V111.44H220.79V117.278L224.941 111.44H225.802ZM230.903 119.21C230.142 119.21 229.498 119.04 228.971 118.699C228.444 118.358 228.042 117.889 227.767 117.292C227.496 116.69 227.356 115.999 227.347 115.22C227.356 114.427 227.501 113.731 227.781 113.134C228.061 112.532 228.465 112.065 228.992 111.734C229.519 111.398 230.159 111.23 230.91 111.23C231.675 111.23 232.34 111.417 232.905 111.79C233.474 112.163 233.864 112.674 234.074 113.323L233.066 113.645C232.889 113.192 232.606 112.842 232.219 112.595C231.836 112.343 231.398 112.217 230.903 112.217C230.348 112.217 229.888 112.345 229.524 112.602C229.16 112.854 228.889 113.206 228.712 113.659C228.535 114.112 228.444 114.632 228.439 115.22C228.448 116.125 228.658 116.853 229.069 117.404C229.48 117.95 230.091 118.223 230.903 118.223C231.416 118.223 231.853 118.106 232.212 117.873C232.576 117.635 232.851 117.29 233.038 116.837L234.074 117.145C233.794 117.817 233.383 118.33 232.842 118.685C232.301 119.035 231.654 119.21 230.903 119.21ZM237.392 119V112.392H234.711V111.44H241.102V112.392H238.421V119H237.392ZM245.457 119.21C244.706 119.21 244.064 119.04 243.532 118.699C243 118.358 242.592 117.887 242.307 117.285C242.023 116.683 241.88 115.992 241.88 115.213C241.88 114.42 242.025 113.724 242.314 113.127C242.604 112.53 243.014 112.065 243.546 111.734C244.083 111.398 244.72 111.23 245.457 111.23C246.213 111.23 246.857 111.4 247.389 111.741C247.926 112.077 248.334 112.546 248.614 113.148C248.899 113.745 249.041 114.434 249.041 115.213C249.041 116.006 248.899 116.704 248.614 117.306C248.33 117.903 247.919 118.37 247.382 118.706C246.846 119.042 246.204 119.21 245.457 119.21ZM245.457 118.223C246.297 118.223 246.923 117.945 247.333 117.39C247.744 116.83 247.949 116.104 247.949 115.213C247.949 114.298 247.742 113.57 247.326 113.029C246.916 112.488 246.293 112.217 245.457 112.217C244.893 112.217 244.426 112.345 244.057 112.602C243.693 112.854 243.42 113.206 243.238 113.659C243.061 114.107 242.972 114.625 242.972 115.213C242.972 116.123 243.182 116.853 243.602 117.404C244.022 117.95 244.641 118.223 245.457 118.223ZM255.212 119V116.186C254.96 116.312 254.65 116.422 254.281 116.515C253.913 116.608 253.516 116.655 253.091 116.655C252.326 116.655 251.705 116.485 251.229 116.144C250.753 115.803 250.443 115.311 250.298 114.667C250.252 114.476 250.219 114.273 250.2 114.058C250.186 113.843 250.177 113.65 250.172 113.477C250.168 113.304 250.165 113.181 250.165 113.106V111.44H251.201V113.106C251.201 113.26 251.206 113.435 251.215 113.631C251.225 113.827 251.246 114.018 251.278 114.205C251.372 114.714 251.582 115.099 251.908 115.36C252.24 115.621 252.704 115.752 253.301 115.752C253.675 115.752 254.027 115.705 254.358 115.612C254.694 115.514 254.979 115.383 255.212 115.22V111.44H256.241V119H255.212ZM258.194 119V111.44H259.223V114.723H263.486V111.44H264.515V119H263.486V115.71H259.223V119H258.194ZM272.478 111.44V119H271.477V113.113L267.333 119H266.465V111.44H267.466V117.278L271.617 111.44H272.478ZM274.436 119L274.443 111.44H275.479V115.08L278.853 111.44H280.225L276.683 115.22L280.687 119H279.189L275.479 115.36V119H274.436ZM284.408 119.21C283.657 119.21 283.015 119.04 282.483 118.699C281.951 118.358 281.543 117.887 281.258 117.285C280.974 116.683 280.831 115.992 280.831 115.213C280.831 114.42 280.976 113.724 281.265 113.127C281.555 112.53 281.965 112.065 282.497 111.734C283.034 111.398 283.671 111.23 284.408 111.23C285.164 111.23 285.808 111.4 286.34 111.741C286.877 112.077 287.285 112.546 287.565 113.148C287.85 113.745 287.992 114.434 287.992 115.213C287.992 116.006 287.85 116.704 287.565 117.306C287.281 117.903 286.87 118.37 286.333 118.706C285.797 119.042 285.155 119.21 284.408 119.21ZM284.408 118.223C285.248 118.223 285.874 117.945 286.284 117.39C286.695 116.83 286.9 116.104 286.9 115.213C286.9 114.298 286.693 113.57 286.277 113.029C285.867 112.488 285.244 112.217 284.408 112.217C283.844 112.217 283.377 112.345 283.008 112.602C282.644 112.854 282.371 113.206 282.189 113.659C282.012 114.107 281.923 114.625 281.923 115.213C281.923 116.123 282.133 116.853 282.553 117.404C282.973 117.95 283.592 118.223 284.408 118.223ZM289.53 119V111.44H290.447L293.394 117.628L296.348 111.44H297.258V119H296.264V113.638L293.723 119H293.072L290.531 113.638V119H289.53ZM302.012 119L302.019 111.44H303.055V115.08L306.429 111.44H307.801L304.259 115.22L308.263 119H306.765L303.055 115.36V119H302.012ZM308.128 119V118.097C308.408 118.148 308.62 118.137 308.765 118.062C308.914 117.983 309.024 117.852 309.094 117.67C309.164 117.483 309.222 117.252 309.269 116.977C309.343 116.52 309.411 116.016 309.472 115.465C309.532 114.914 309.586 114.308 309.633 113.645C309.684 112.978 309.735 112.243 309.787 111.44H314.925V119H313.903V112.427H310.739C310.706 112.922 310.669 113.414 310.627 113.904C310.585 114.394 310.54 114.865 310.494 115.318C310.452 115.766 310.405 116.179 310.354 116.557C310.302 116.935 310.249 117.262 310.193 117.537C310.109 117.952 309.997 118.284 309.857 118.531C309.721 118.778 309.518 118.942 309.248 119.021C308.977 119.1 308.604 119.093 308.128 119ZM322.886 111.44V119H321.885V113.113L317.741 119H316.873V111.44H317.874V117.278L322.025 111.44H322.886ZM328.05 119.21C327.313 119.21 326.673 119.047 326.132 118.72C325.595 118.393 325.178 117.934 324.879 117.341C324.58 116.748 324.431 116.053 324.431 115.255C324.431 114.429 324.578 113.715 324.872 113.113C325.166 112.511 325.579 112.047 326.111 111.72C326.648 111.393 327.28 111.23 328.008 111.23C328.755 111.23 329.392 111.403 329.919 111.748C330.446 112.089 330.845 112.579 331.116 113.218C331.387 113.857 331.51 114.62 331.487 115.507H330.437V115.143C330.418 114.163 330.206 113.423 329.8 112.924C329.399 112.425 328.811 112.175 328.036 112.175C327.224 112.175 326.601 112.439 326.167 112.966C325.738 113.493 325.523 114.245 325.523 115.22C325.523 116.172 325.738 116.912 326.167 117.439C326.601 117.962 327.215 118.223 328.008 118.223C328.549 118.223 329.021 118.099 329.422 117.852C329.828 117.6 330.148 117.238 330.381 116.767L331.34 117.138C331.041 117.796 330.6 118.307 330.017 118.671C329.438 119.03 328.783 119.21 328.05 119.21ZM325.159 115.507V114.646H330.934V115.507H325.159ZM333.034 119V111.44H334.063V114.723H338.326V111.44H339.355V119H338.326V115.71H334.063V119H333.034ZM343.363 119V112.392H340.682V111.44H347.073V112.392H344.392V119H343.363ZM351.428 119.21C350.677 119.21 350.035 119.04 349.503 118.699C348.971 118.358 348.563 117.887 348.278 117.285C347.993 116.683 347.851 115.992 347.851 115.213C347.851 114.42 347.996 113.724 348.285 113.127C348.574 112.53 348.985 112.065 349.517 111.734C350.054 111.398 350.691 111.23 351.428 111.23C352.184 111.23 352.828 111.4 353.36 111.741C353.897 112.077 354.305 112.546 354.585 113.148C354.87 113.745 355.012 114.434 355.012 115.213C355.012 116.006 354.87 116.704 354.585 117.306C354.3 117.903 353.89 118.37 353.353 118.706C352.816 119.042 352.175 119.21 351.428 119.21ZM351.428 118.223C352.268 118.223 352.893 117.945 353.304 117.39C353.715 116.83 353.92 116.104 353.92 115.213C353.92 114.298 353.712 113.57 353.297 113.029C352.886 112.488 352.263 112.217 351.428 112.217C350.863 112.217 350.397 112.345 350.028 112.602C349.664 112.854 349.391 113.206 349.209 113.659C349.032 114.107 348.943 114.625 348.943 115.213C348.943 116.123 349.153 116.853 349.573 117.404C349.993 117.95 350.611 118.223 351.428 118.223ZM356.549 119V111.44H359.664C359.823 111.44 360.014 111.449 360.238 111.468C360.467 111.487 360.679 111.522 360.875 111.573C361.3 111.685 361.641 111.914 361.897 112.259C362.159 112.604 362.289 113.02 362.289 113.505C362.289 113.776 362.247 114.018 362.163 114.233C362.084 114.443 361.97 114.625 361.82 114.779C361.75 114.858 361.673 114.928 361.589 114.989C361.505 115.045 361.424 115.092 361.344 115.129C361.494 115.157 361.655 115.222 361.827 115.325C362.098 115.484 362.303 115.698 362.443 115.969C362.583 116.235 362.653 116.559 362.653 116.942C362.653 117.46 362.53 117.882 362.282 118.209C362.035 118.536 361.704 118.76 361.288 118.881C361.102 118.932 360.899 118.965 360.679 118.979C360.465 118.993 360.262 119 360.07 119H356.549ZM357.585 118.125H360.021C360.119 118.125 360.243 118.118 360.392 118.104C360.542 118.085 360.675 118.062 360.791 118.034C361.067 117.964 361.267 117.824 361.393 117.614C361.524 117.399 361.589 117.166 361.589 116.914C361.589 116.583 361.491 116.312 361.295 116.102C361.104 115.887 360.847 115.757 360.525 115.71C360.418 115.687 360.306 115.673 360.189 115.668C360.073 115.663 359.968 115.661 359.874 115.661H357.585V118.125ZM357.585 114.779H359.699C359.821 114.779 359.956 114.772 360.105 114.758C360.259 114.739 360.392 114.709 360.504 114.667C360.747 114.583 360.924 114.438 361.036 114.233C361.153 114.028 361.211 113.804 361.211 113.561C361.211 113.295 361.148 113.062 361.022 112.861C360.901 112.66 360.717 112.52 360.469 112.441C360.301 112.38 360.119 112.345 359.923 112.336C359.732 112.327 359.611 112.322 359.559 112.322H357.585V114.779ZM372.857 111.44V119H371.856V113.113L367.712 119H366.844V111.44H367.845V117.278L371.996 111.44H372.857ZM377.545 119.21C376.784 119.21 376.119 119.044 375.55 118.713C374.985 118.377 374.539 117.913 374.213 117.32L375.039 116.795C375.314 117.262 375.657 117.616 376.068 117.859C376.478 118.102 376.95 118.223 377.482 118.223C378.037 118.223 378.483 118.095 378.819 117.838C379.155 117.581 379.323 117.229 379.323 116.781C379.323 116.473 379.25 116.228 379.106 116.046C378.966 115.864 378.751 115.733 378.462 115.654C378.177 115.575 377.82 115.535 377.391 115.535H376.495V114.653H377.377C377.899 114.653 378.319 114.56 378.637 114.373C378.959 114.182 379.12 113.883 379.12 113.477C379.12 113.048 378.959 112.73 378.637 112.525C378.319 112.315 377.939 112.21 377.496 112.21C377.048 112.21 376.623 112.303 376.222 112.49C375.825 112.672 375.491 112.908 375.221 113.197L374.563 112.504C374.941 112.089 375.382 111.774 375.886 111.559C376.394 111.34 376.957 111.23 377.573 111.23C378.058 111.23 378.497 111.316 378.889 111.489C379.285 111.657 379.598 111.904 379.827 112.231C380.06 112.558 380.177 112.95 380.177 113.407C380.177 113.836 380.072 114.207 379.862 114.52C379.656 114.833 379.365 115.092 378.987 115.297L378.931 114.912C379.257 114.973 379.528 115.103 379.743 115.304C379.957 115.505 380.116 115.745 380.219 116.025C380.321 116.305 380.373 116.59 380.373 116.879C380.373 117.36 380.247 117.775 379.995 118.125C379.747 118.47 379.409 118.739 378.98 118.93C378.555 119.117 378.077 119.21 377.545 119.21ZM27.847 136H26.825V132.171H23.472L23.115 132.087C22.3683 131.942 21.7943 131.59 21.393 131.03C20.9917 130.47 20.791 129.81 20.791 129.049C20.791 128.522 20.8867 128.041 21.078 127.607C21.2693 127.173 21.547 126.814 21.911 126.529C22.2797 126.24 22.7253 126.055 23.248 125.976C23.3787 125.953 23.5047 125.939 23.626 125.934C23.7473 125.925 23.857 125.92 23.955 125.92H27.847V136ZM21.743 136H20.56L22.744 131.52L23.731 131.898L21.743 136ZM26.825 131.191V126.907H23.983C23.9037 126.907 23.8057 126.912 23.689 126.921C23.577 126.926 23.4673 126.94 23.36 126.963C23.0147 127.038 22.73 127.18 22.506 127.39C22.2867 127.6 22.1233 127.852 22.016 128.146C21.9087 128.435 21.855 128.736 21.855 129.049C21.855 129.362 21.9087 129.663 22.016 129.952C22.1233 130.241 22.2867 130.491 22.506 130.701C22.73 130.911 23.0147 131.053 23.36 131.128C23.4673 131.151 23.577 131.168 23.689 131.177C23.8057 131.186 23.9037 131.191 23.983 131.191H26.825ZM29.805 136V128.44H30.834V131.723H35.097V128.44H36.126V136H35.097V132.71H30.834V136H29.805ZM37.5235 137.68V135.118C37.9528 135.118 38.2608 134.98 38.4475 134.705C38.6342 134.425 38.7858 133.979 38.9025 133.368C38.9818 132.971 39.0472 132.544 39.0985 132.087C39.1498 131.63 39.1942 131.107 39.2315 130.519C39.2688 129.926 39.3038 129.233 39.3365 128.44H44.3345V135.118H45.0625V137.68H44.0685V136H38.5105V137.68H37.5235ZM39.2665 135.118H43.3125V129.322H40.2885C40.2745 129.677 40.2535 130.052 40.2255 130.449C40.2022 130.846 40.1718 131.242 40.1345 131.639C40.1018 132.036 40.0622 132.409 40.0155 132.759C39.9735 133.104 39.9222 133.408 39.8615 133.669C39.7915 134.005 39.7145 134.292 39.6305 134.53C39.5512 134.768 39.4298 134.964 39.2665 135.118ZM49.6634 136.21C48.926 136.21 48.2867 136.047 47.7454 135.72C47.2087 135.393 46.791 134.934 46.4924 134.341C46.1937 133.748 46.0444 133.053 46.0444 132.255C46.0444 131.429 46.1914 130.715 46.4854 130.113C46.7794 129.511 47.1924 129.047 47.7244 128.72C48.261 128.393 48.8934 128.23 49.6214 128.23C50.368 128.23 51.005 128.403 51.5324 128.748C52.0597 129.089 52.4587 129.579 52.7294 130.218C53 130.857 53.1237 131.62 53.1004 132.507H52.0504V132.143C52.0317 131.163 51.8194 130.423 51.4134 129.924C51.012 129.425 50.424 129.175 49.6494 129.175C48.8374 129.175 48.2144 129.439 47.7804 129.966C47.351 130.493 47.1364 131.245 47.1364 132.22C47.1364 133.172 47.351 133.912 47.7804 134.439C48.2144 134.962 48.828 135.223 49.6214 135.223C50.1627 135.223 50.634 135.099 51.0354 134.852C51.4414 134.6 51.761 134.238 51.9944 133.767L52.9534 134.138C52.6547 134.796 52.2137 135.307 51.6304 135.671C51.0517 136.03 50.396 136.21 49.6634 136.21ZM46.7724 132.507V131.646H52.5474V132.507H46.7724ZM54.6468 136L54.6538 128.44H55.6898V132.08L59.0638 128.44H60.4358L56.8938 132.22L60.8978 136H59.3998L55.6898 132.36V136H54.6468ZM64.5984 136.21C63.8378 136.21 63.1938 136.04 62.6664 135.699C62.1391 135.358 61.7378 134.889 61.4624 134.292C61.1918 133.69 61.0518 132.999 61.0424 132.22C61.0518 131.427 61.1964 130.731 61.4764 130.134C61.7564 129.532 62.1601 129.065 62.6874 128.734C63.2148 128.398 63.8541 128.23 64.6054 128.23C65.3708 128.23 66.0358 128.417 66.6004 128.79C67.1698 129.163 67.5594 129.674 67.7694 130.323L66.7614 130.645C66.5841 130.192 66.3018 129.842 65.9144 129.595C65.5318 129.343 65.0931 129.217 64.5984 129.217C64.0431 129.217 63.5834 129.345 63.2194 129.602C62.8554 129.854 62.5848 130.206 62.4074 130.659C62.2301 131.112 62.1391 131.632 62.1344 132.22C62.1438 133.125 62.3538 133.853 62.7644 134.404C63.1751 134.95 63.7864 135.223 64.5984 135.223C65.1118 135.223 65.5481 135.106 65.9074 134.873C66.2714 134.635 66.5468 134.29 66.7334 133.837L67.7694 134.145C67.4894 134.817 67.0788 135.33 66.5374 135.685C65.9961 136.035 65.3498 136.21 64.5984 136.21ZM71.3364 136.21C70.767 136.21 70.2887 136.107 69.9014 135.902C69.5187 135.697 69.2317 135.424 69.0404 135.083C68.849 134.742 68.7534 134.371 68.7534 133.97C68.7534 133.559 68.835 133.209 68.9984 132.92C69.1664 132.626 69.3927 132.386 69.6774 132.199C69.9667 132.012 70.3004 131.87 70.6784 131.772C71.061 131.679 71.4834 131.597 71.9454 131.527C72.412 131.452 72.867 131.389 73.3104 131.338C73.7584 131.282 74.1504 131.228 74.4864 131.177L74.1224 131.401C74.1364 130.654 73.9917 130.101 73.6884 129.742C73.385 129.383 72.8577 129.203 72.1064 129.203C71.5884 129.203 71.1497 129.32 70.7904 129.553C70.4357 129.786 70.186 130.155 70.0414 130.659L69.0404 130.365C69.213 129.688 69.5607 129.163 70.0834 128.79C70.606 128.417 71.285 128.23 72.1204 128.23C72.811 128.23 73.3967 128.361 73.8774 128.622C74.3627 128.879 74.7057 129.252 74.9064 129.742C74.9997 129.961 75.0604 130.206 75.0884 130.477C75.1164 130.748 75.1304 131.023 75.1304 131.303V136H74.2134V134.103L74.4794 134.215C74.2227 134.864 73.8237 135.358 73.2824 135.699C72.741 136.04 72.0924 136.21 71.3364 136.21ZM71.4554 135.321C71.936 135.321 72.356 135.235 72.7154 135.062C73.0747 134.889 73.364 134.654 73.5834 134.355C73.8027 134.052 73.945 133.711 74.0104 133.333C74.0664 133.09 74.0967 132.824 74.1014 132.535C74.106 132.241 74.1084 132.022 74.1084 131.877L74.5004 132.08C74.1504 132.127 73.77 132.173 73.3594 132.22C72.9534 132.267 72.552 132.32 72.1554 132.381C71.7634 132.442 71.4087 132.514 71.0914 132.598C70.8767 132.659 70.669 132.745 70.4684 132.857C70.2677 132.964 70.102 133.109 69.9714 133.291C69.8454 133.473 69.7824 133.699 69.7824 133.97C69.7824 134.189 69.836 134.402 69.9434 134.607C70.0554 134.812 70.2327 134.983 70.4754 135.118C70.7227 135.253 71.0494 135.321 71.4554 135.321ZM85.7614 128.44V136H84.7604V130.113L80.6164 136H79.7484V128.44H80.7494V134.278L84.9004 128.44H85.7614ZM94.5678 136.21C93.8585 136.21 93.2192 136.086 92.6498 135.839C92.0805 135.592 91.5952 135.239 91.1938 134.782C90.7972 134.325 90.4938 133.774 90.2838 133.13C90.0738 132.481 89.9688 131.758 89.9688 130.96C89.9688 129.905 90.1508 128.986 90.5148 128.202C90.8835 127.413 91.4108 126.802 92.0968 126.368C92.7828 125.934 93.6065 125.717 94.5678 125.717C95.6412 125.717 96.5138 125.969 97.1858 126.473C97.8625 126.972 98.3338 127.644 98.5998 128.489L97.5638 128.741C97.3445 128.125 96.9828 127.633 96.4788 127.264C95.9795 126.895 95.3565 126.711 94.6098 126.711C93.8212 126.706 93.1655 126.884 92.6428 127.243C92.1202 127.598 91.7258 128.097 91.4598 128.741C91.1985 129.38 91.0655 130.12 91.0608 130.96C91.0562 131.8 91.1845 132.54 91.4458 133.179C91.7118 133.814 92.1085 134.313 92.6358 134.677C93.1632 135.036 93.8212 135.218 94.6098 135.223C95.3332 135.223 95.9305 135.083 96.4018 134.803C96.8732 134.523 97.2302 134.122 97.4728 133.599C97.7202 133.076 97.8602 132.458 97.8928 131.744H95.5688V130.862H98.9708C98.9848 130.969 98.9918 131.084 98.9918 131.205C98.9965 131.322 98.9988 131.406 98.9988 131.457C98.9988 132.367 98.8355 133.181 98.5088 133.9C98.1822 134.614 97.6898 135.179 97.0318 135.594C96.3785 136.005 95.5572 136.21 94.5678 136.21ZM103.557 136.21C102.806 136.21 102.164 136.04 101.632 135.699C101.1 135.358 100.692 134.887 100.407 134.285C100.122 133.683 99.9799 132.992 99.9799 132.213C99.9799 131.42 100.125 130.724 100.414 130.127C100.703 129.53 101.114 129.065 101.646 128.734C102.183 128.398 102.82 128.23 103.557 128.23C104.313 128.23 104.957 128.4 105.489 128.741C106.026 129.077 106.434 129.546 106.714 130.148C106.999 130.745 107.141 131.434 107.141 132.213C107.141 133.006 106.999 133.704 106.714 134.306C106.429 134.903 106.019 135.37 105.482 135.706C104.945 136.042 104.304 136.21 103.557 136.21ZM103.557 135.223C104.397 135.223 105.022 134.945 105.433 134.39C105.844 133.83 106.049 133.104 106.049 132.213C106.049 131.298 105.841 130.57 105.426 130.029C105.015 129.488 104.392 129.217 103.557 129.217C102.992 129.217 102.526 129.345 102.157 129.602C101.793 129.854 101.52 130.206 101.338 130.659C101.161 131.107 101.072 131.625 101.072 132.213C101.072 133.123 101.282 133.853 101.702 134.404C102.122 134.95 102.74 135.223 103.557 135.223ZM111.842 136.21C111.091 136.21 110.449 136.04 109.917 135.699C109.385 135.358 108.977 134.887 108.692 134.285C108.407 133.683 108.265 132.992 108.265 132.213C108.265 131.42 108.41 130.724 108.699 130.127C108.988 129.53 109.399 129.065 109.931 128.734C110.468 128.398 111.105 128.23 111.842 128.23C112.598 128.23 113.242 128.4 113.774 128.741C114.311 129.077 114.719 129.546 114.999 130.148C115.284 130.745 115.426 131.434 115.426 132.213C115.426 133.006 115.284 133.704 114.999 134.306C114.714 134.903 114.304 135.37 113.767 135.706C113.23 136.042 112.589 136.21 111.842 136.21ZM111.842 135.223C112.682 135.223 113.307 134.945 113.718 134.39C114.129 133.83 114.334 133.104 114.334 132.213C114.334 131.298 114.126 130.57 113.711 130.029C113.3 129.488 112.677 129.217 111.842 129.217C111.277 129.217 110.811 129.345 110.442 129.602C110.078 129.854 109.805 130.206 109.623 130.659C109.446 131.107 109.357 131.625 109.357 132.213C109.357 133.123 109.567 133.853 109.987 134.404C110.407 134.95 111.025 135.223 111.842 135.223ZM119.973 139.57C119.586 139.57 119.203 139.512 118.825 139.395C118.452 139.283 118.107 139.103 117.789 138.856C117.472 138.613 117.206 138.296 116.991 137.904L117.922 137.386C118.132 137.806 118.426 138.107 118.804 138.289C119.187 138.476 119.577 138.569 119.973 138.569C120.519 138.569 120.96 138.466 121.296 138.261C121.637 138.06 121.884 137.762 122.038 137.365C122.192 136.968 122.267 136.474 122.262 135.881V133.865H122.381V128.44H123.298V135.895C123.298 136.11 123.291 136.315 123.277 136.511C123.268 136.712 123.247 136.908 123.214 137.099C123.126 137.664 122.941 138.128 122.661 138.492C122.386 138.856 122.022 139.127 121.569 139.304C121.121 139.481 120.589 139.57 119.973 139.57ZM119.903 136.21C119.199 136.21 118.597 136.035 118.097 135.685C117.598 135.33 117.215 134.852 116.949 134.25C116.683 133.648 116.55 132.969 116.55 132.213C116.55 131.462 116.681 130.785 116.942 130.183C117.208 129.581 117.589 129.105 118.083 128.755C118.578 128.405 119.171 128.23 119.861 128.23C120.571 128.23 121.168 128.403 121.653 128.748C122.139 129.093 122.505 129.567 122.752 130.169C123.004 130.766 123.13 131.448 123.13 132.213C123.13 132.964 123.007 133.643 122.759 134.25C122.512 134.852 122.148 135.33 121.667 135.685C121.187 136.035 120.599 136.21 119.903 136.21ZM120.008 135.251C120.545 135.251 120.988 135.12 121.338 134.859C121.688 134.598 121.95 134.238 122.122 133.781C122.295 133.319 122.381 132.796 122.381 132.213C122.381 131.62 122.295 131.098 122.122 130.645C121.95 130.188 121.688 129.831 121.338 129.574C120.993 129.317 120.557 129.189 120.029 129.189C119.488 129.189 119.04 129.322 118.685 129.588C118.331 129.854 118.067 130.216 117.894 130.673C117.726 131.13 117.642 131.644 117.642 132.213C117.642 132.787 117.729 133.305 117.901 133.767C118.079 134.224 118.342 134.586 118.692 134.852C119.042 135.118 119.481 135.251 120.008 135.251ZM125.395 136V125.71H126.424V136H125.395ZM131.722 136.21C130.985 136.21 130.345 136.047 129.804 135.72C129.267 135.393 128.85 134.934 128.551 134.341C128.252 133.748 128.103 133.053 128.103 132.255C128.103 131.429 128.25 130.715 128.544 130.113C128.838 129.511 129.251 129.047 129.783 128.72C130.32 128.393 130.952 128.23 131.68 128.23C132.427 128.23 133.064 128.403 133.591 128.748C134.118 129.089 134.517 129.579 134.788 130.218C135.059 130.857 135.182 131.62 135.159 132.507H134.109V132.143C134.09 131.163 133.878 130.423 133.472 129.924C133.071 129.425 132.483 129.175 131.708 129.175C130.896 129.175 130.273 129.439 129.839 129.966C129.41 130.493 129.195 131.245 129.195 132.22C129.195 133.172 129.41 133.912 129.839 134.439C130.273 134.962 130.887 135.223 131.68 135.223C132.221 135.223 132.693 135.099 133.094 134.852C133.5 134.6 133.82 134.238 134.053 133.767L135.012 134.138C134.713 134.796 134.272 135.307 133.689 135.671C133.11 136.03 132.455 136.21 131.722 136.21ZM128.831 132.507V131.646H134.606V132.507H128.831ZM142.238 136.21C141.477 136.21 140.812 136.044 140.243 135.713C139.678 135.377 139.233 134.913 138.906 134.32L139.732 133.795C140.007 134.262 140.35 134.616 140.761 134.859C141.172 135.102 141.643 135.223 142.175 135.223C142.73 135.223 143.176 135.095 143.512 134.838C143.848 134.581 144.016 134.229 144.016 133.781C144.016 133.473 143.944 133.228 143.799 133.046C143.659 132.864 143.444 132.733 143.155 132.654C142.87 132.575 142.513 132.535 142.084 132.535H141.188V131.653H142.07C142.593 131.653 143.013 131.56 143.33 131.373C143.652 131.182 143.813 130.883 143.813 130.477C143.813 130.048 143.652 129.73 143.33 129.525C143.013 129.315 142.632 129.21 142.189 129.21C141.741 129.21 141.316 129.303 140.915 129.49C140.518 129.672 140.185 129.908 139.914 130.197L139.256 129.504C139.634 129.089 140.075 128.774 140.579 128.559C141.088 128.34 141.65 128.23 142.266 128.23C142.751 128.23 143.19 128.316 143.582 128.489C143.979 128.657 144.291 128.904 144.52 129.231C144.753 129.558 144.87 129.95 144.87 130.407C144.87 130.836 144.765 131.207 144.555 131.52C144.35 131.833 144.058 132.092 143.68 132.297L143.624 131.912C143.951 131.973 144.221 132.103 144.436 132.304C144.651 132.505 144.809 132.745 144.912 133.025C145.015 133.305 145.066 133.59 145.066 133.879C145.066 134.36 144.94 134.775 144.688 135.125C144.441 135.47 144.102 135.739 143.673 135.93C143.248 136.117 142.77 136.21 142.238 136.21ZM148.774 136.21C148.205 136.21 147.726 136.107 147.339 135.902C146.956 135.697 146.669 135.424 146.478 135.083C146.287 134.742 146.191 134.371 146.191 133.97C146.191 133.559 146.273 133.209 146.436 132.92C146.604 132.626 146.83 132.386 147.115 132.199C147.404 132.012 147.738 131.87 148.116 131.772C148.499 131.679 148.921 131.597 149.383 131.527C149.85 131.452 150.305 131.389 150.748 131.338C151.196 131.282 151.588 131.228 151.924 131.177L151.56 131.401C151.574 130.654 151.429 130.101 151.126 129.742C150.823 129.383 150.295 129.203 149.544 129.203C149.026 129.203 148.587 129.32 148.228 129.553C147.873 129.786 147.624 130.155 147.479 130.659L146.478 130.365C146.651 129.688 146.998 129.163 147.521 128.79C148.044 128.417 148.723 128.23 149.558 128.23C150.249 128.23 150.834 128.361 151.315 128.622C151.8 128.879 152.143 129.252 152.344 129.742C152.437 129.961 152.498 130.206 152.526 130.477C152.554 130.748 152.568 131.023 152.568 131.303V136H151.651V134.103L151.917 134.215C151.66 134.864 151.261 135.358 150.72 135.699C150.179 136.04 149.53 136.21 148.774 136.21ZM148.893 135.321C149.374 135.321 149.794 135.235 150.153 135.062C150.512 134.889 150.802 134.654 151.021 134.355C151.24 134.052 151.383 133.711 151.448 133.333C151.504 133.09 151.534 132.824 151.539 132.535C151.544 132.241 151.546 132.022 151.546 131.877L151.938 132.08C151.588 132.127 151.208 132.173 150.797 132.22C150.391 132.267 149.99 132.32 149.593 132.381C149.201 132.442 148.846 132.514 148.529 132.598C148.314 132.659 148.107 132.745 147.906 132.857C147.705 132.964 147.54 133.109 147.409 133.291C147.283 133.473 147.22 133.699 147.22 133.97C147.22 134.189 147.274 134.402 147.381 134.607C147.493 134.812 147.67 134.983 147.913 135.118C148.16 135.253 148.487 135.321 148.893 135.321ZM160.329 136.21C159.568 136.21 158.924 136.04 158.397 135.699C157.87 135.358 157.468 134.889 157.193 134.292C156.922 133.69 156.782 132.999 156.773 132.22C156.782 131.427 156.927 130.731 157.207 130.134C157.487 129.532 157.891 129.065 158.418 128.734C158.945 128.398 159.585 128.23 160.336 128.23C161.101 128.23 161.766 128.417 162.331 128.79C162.9 129.163 163.29 129.674 163.5 130.323L162.492 130.645C162.315 130.192 162.032 129.842 161.645 129.595C161.262 129.343 160.824 129.217 160.329 129.217C159.774 129.217 159.314 129.345 158.95 129.602C158.586 129.854 158.315 130.206 158.138 130.659C157.961 131.112 157.87 131.632 157.865 132.22C157.874 133.125 158.084 133.853 158.495 134.404C158.906 134.95 159.517 135.223 160.329 135.223C160.842 135.223 161.279 135.106 161.638 134.873C162.002 134.635 162.277 134.29 162.464 133.837L163.5 134.145C163.22 134.817 162.809 135.33 162.268 135.685C161.727 136.035 161.08 136.21 160.329 136.21ZM169.572 136V133.186C169.32 133.312 169.01 133.422 168.641 133.515C168.272 133.608 167.876 133.655 167.451 133.655C166.686 133.655 166.065 133.485 165.589 133.144C165.113 132.803 164.803 132.311 164.658 131.667C164.611 131.476 164.579 131.273 164.56 131.058C164.546 130.843 164.537 130.65 164.532 130.477C164.527 130.304 164.525 130.181 164.525 130.106V128.44H165.561V130.106C165.561 130.26 165.566 130.435 165.575 130.631C165.584 130.827 165.605 131.018 165.638 131.205C165.731 131.714 165.941 132.099 166.268 132.36C166.599 132.621 167.064 132.752 167.661 132.752C168.034 132.752 168.387 132.705 168.718 132.612C169.054 132.514 169.339 132.383 169.572 132.22V128.44H170.601V136H169.572ZM176.494 126.963V125.843H177.614V126.963H176.494ZM173.827 126.963V125.843H174.947V126.963H173.827ZM175.759 136.21C175.022 136.21 174.382 136.047 173.841 135.72C173.304 135.393 172.887 134.934 172.588 134.341C172.289 133.748 172.14 133.053 172.14 132.255C172.14 131.429 172.287 130.715 172.581 130.113C172.875 129.511 173.288 129.047 173.82 128.72C174.357 128.393 174.989 128.23 175.717 128.23C176.464 128.23 177.101 128.403 177.628 128.748C178.155 129.089 178.554 129.579 178.825 130.218C179.096 130.857 179.219 131.62 179.196 132.507H178.146V132.143C178.127 131.163 177.915 130.423 177.509 129.924C177.108 129.425 176.52 129.175 175.745 129.175C174.933 129.175 174.31 129.439 173.876 129.966C173.447 130.493 173.232 131.245 173.232 132.22C173.232 133.172 173.447 133.912 173.876 134.439C174.31 134.962 174.924 135.223 175.717 135.223C176.258 135.223 176.73 135.099 177.131 134.852C177.537 134.6 177.857 134.238 178.09 133.767L179.049 134.138C178.75 134.796 178.309 135.307 177.726 135.671C177.147 136.03 176.492 136.21 175.759 136.21ZM172.868 132.507V131.646H178.643V132.507H172.868ZM182.705 136V129.392H180.024V128.44H186.415V129.392H183.734V136H182.705ZM190.545 136V128.44H196.558V136H195.529V129.427H191.574V136H190.545ZM201.918 136.21C201.223 136.21 200.635 136.035 200.154 135.685C199.673 135.33 199.309 134.852 199.062 134.25C198.815 133.643 198.691 132.964 198.691 132.213C198.691 131.448 198.815 130.766 199.062 130.169C199.314 129.567 199.683 129.093 200.168 128.748C200.653 128.403 201.251 128.23 201.96 128.23C202.651 128.23 203.243 128.405 203.738 128.755C204.233 129.105 204.611 129.581 204.872 130.183C205.138 130.785 205.271 131.462 205.271 132.213C205.271 132.969 205.138 133.648 204.872 134.25C204.606 134.852 204.223 135.33 203.724 135.685C203.225 136.035 202.623 136.21 201.918 136.21ZM198.516 139.36V128.44H199.44V134.131H199.552V139.36H198.516ZM201.813 135.251C202.34 135.251 202.779 135.118 203.129 134.852C203.479 134.586 203.74 134.224 203.913 133.767C204.09 133.305 204.179 132.787 204.179 132.213C204.179 131.644 204.093 131.13 203.92 130.673C203.747 130.216 203.484 129.854 203.129 129.588C202.779 129.322 202.333 129.189 201.792 129.189C201.265 129.189 200.826 129.317 200.476 129.574C200.131 129.831 199.872 130.188 199.699 130.645C199.526 131.098 199.44 131.62 199.44 132.213C199.44 132.796 199.526 133.319 199.699 133.781C199.872 134.238 200.133 134.598 200.483 134.859C200.833 135.12 201.276 135.251 201.813 135.251ZM209.965 136.21C209.214 136.21 208.572 136.04 208.04 135.699C207.508 135.358 207.1 134.887 206.815 134.285C206.53 133.683 206.388 132.992 206.388 132.213C206.388 131.42 206.533 130.724 206.822 130.127C207.111 129.53 207.522 129.065 208.054 128.734C208.591 128.398 209.228 128.23 209.965 128.23C210.721 128.23 211.365 128.4 211.897 128.741C212.434 129.077 212.842 129.546 213.122 130.148C213.407 130.745 213.549 131.434 213.549 132.213C213.549 133.006 213.407 133.704 213.122 134.306C212.837 134.903 212.427 135.37 211.89 135.706C211.353 136.042 210.712 136.21 209.965 136.21ZM209.965 135.223C210.805 135.223 211.43 134.945 211.841 134.39C212.252 133.83 212.457 133.104 212.457 132.213C212.457 131.298 212.249 130.57 211.834 130.029C211.423 129.488 210.8 129.217 209.965 129.217C209.4 129.217 208.934 129.345 208.565 129.602C208.201 129.854 207.928 130.206 207.746 130.659C207.569 131.107 207.48 131.625 207.48 132.213C207.48 133.123 207.69 133.853 208.11 134.404C208.53 134.95 209.148 135.223 209.965 135.223ZM214.533 137.68V135.118C214.963 135.118 215.271 134.98 215.457 134.705C215.644 134.425 215.796 133.979 215.912 133.368C215.992 132.971 216.057 132.544 216.108 132.087C216.16 131.63 216.204 131.107 216.241 130.519C216.279 129.926 216.314 129.233 216.346 128.44H221.344V135.118H222.072V137.68H221.078V136H215.52V137.68H214.533ZM216.276 135.118H220.322V129.322H217.298C217.284 129.677 217.263 130.052 217.235 130.449C217.212 130.846 217.182 131.242 217.144 131.639C217.112 132.036 217.072 132.409 217.025 132.759C216.983 133.104 216.932 133.408 216.871 133.669C216.801 134.005 216.724 134.292 216.64 134.53C216.561 134.768 216.44 134.964 216.276 135.118ZM224.552 139.36L226.015 135.391L226.036 136.567L222.725 128.44H223.817L226.533 135.237H226.085L228.591 128.44H229.641L225.581 139.36H224.552ZM230.85 136V128.44H231.767L234.714 134.628L237.668 128.44H238.578V136H237.584V130.638L235.043 136H234.392L231.851 130.638V136H230.85ZM242.7 136.21C242.13 136.21 241.652 136.107 241.265 135.902C240.882 135.697 240.595 135.424 240.404 135.083C240.212 134.742 240.117 134.371 240.117 133.97C240.117 133.559 240.198 133.209 240.362 132.92C240.53 132.626 240.756 132.386 241.041 132.199C241.33 132.012 241.664 131.87 242.042 131.772C242.424 131.679 242.847 131.597 243.309 131.527C243.775 131.452 244.23 131.389 244.674 131.338C245.122 131.282 245.514 131.228 245.85 131.177L245.486 131.401C245.5 130.654 245.355 130.101 245.052 129.742C244.748 129.383 244.221 129.203 243.47 129.203C242.952 129.203 242.513 129.32 242.154 129.553C241.799 129.786 241.549 130.155 241.405 130.659L240.404 130.365C240.576 129.688 240.924 129.163 241.447 128.79C241.969 128.417 242.648 128.23 243.484 128.23C244.174 128.23 244.76 128.361 245.241 128.622C245.726 128.879 246.069 129.252 246.27 129.742C246.363 129.961 246.424 130.206 246.452 130.477C246.48 130.748 246.494 131.023 246.494 131.303V136H245.577V134.103L245.843 134.215C245.586 134.864 245.187 135.358 244.646 135.699C244.104 136.04 243.456 136.21 242.7 136.21ZM242.819 135.321C243.299 135.321 243.719 135.235 244.079 135.062C244.438 134.889 244.727 134.654 244.947 134.355C245.166 134.052 245.308 133.711 245.374 133.333C245.43 133.09 245.46 132.824 245.465 132.535C245.469 132.241 245.472 132.022 245.472 131.877L245.864 132.08C245.514 132.127 245.133 132.173 244.723 132.22C244.317 132.267 243.915 132.32 243.519 132.381C243.127 132.442 242.772 132.514 242.455 132.598C242.24 132.659 242.032 132.745 241.832 132.857C241.631 132.964 241.465 133.109 241.335 133.291C241.209 133.473 241.146 133.699 241.146 133.97C241.146 134.189 241.199 134.402 241.307 134.607C241.419 134.812 241.596 134.983 241.839 135.118C242.086 135.253 242.413 135.321 242.819 135.321ZM248.309 136V128.44H249.338V131.723H253.601V128.44H254.63V136H253.601V132.71H249.338V136H248.309ZM256.58 136V128.44H257.609V131.723H261.872V128.44H262.901V136H261.872V132.71H257.609V136H256.58ZM268.016 136.21C267.265 136.21 266.623 136.04 266.091 135.699C265.559 135.358 265.151 134.887 264.866 134.285C264.581 133.683 264.439 132.992 264.439 132.213C264.439 131.42 264.584 130.724 264.873 130.127C265.162 129.53 265.573 129.065 266.105 128.734C266.642 128.398 267.279 128.23 268.016 128.23C268.772 128.23 269.416 128.4 269.948 128.741C270.485 129.077 270.893 129.546 271.173 130.148C271.458 130.745 271.6 131.434 271.6 132.213C271.6 133.006 271.458 133.704 271.173 134.306C270.888 134.903 270.478 135.37 269.941 135.706C269.404 136.042 268.763 136.21 268.016 136.21ZM268.016 135.223C268.856 135.223 269.481 134.945 269.892 134.39C270.303 133.83 270.508 133.104 270.508 132.213C270.508 131.298 270.3 130.57 269.885 130.029C269.474 129.488 268.851 129.217 268.016 129.217C267.451 129.217 266.985 129.345 266.616 129.602C266.252 129.854 265.979 130.206 265.797 130.659C265.62 131.107 265.531 131.625 265.531 132.213C265.531 133.123 265.741 133.853 266.161 134.404C266.581 134.95 267.199 135.223 268.016 135.223ZM276.28 127.544C275.949 127.544 275.645 127.462 275.37 127.299C275.095 127.136 274.875 126.919 274.712 126.648C274.553 126.373 274.474 126.069 274.474 125.738H275.328C275.328 125.999 275.421 126.223 275.608 126.41C275.795 126.597 276.019 126.69 276.28 126.69C276.546 126.69 276.77 126.597 276.952 126.41C277.139 126.223 277.232 125.999 277.232 125.738H278.086C278.086 126.069 278.004 126.373 277.841 126.648C277.682 126.919 277.465 127.136 277.19 127.299C276.915 127.462 276.611 127.544 276.28 127.544ZM279.15 128.44V136H278.149V130.113L274.005 136H273.137V128.44H274.138V134.278L278.289 128.44H279.15ZM287.053 136.21C286.293 136.21 285.649 136.04 285.122 135.699C284.594 135.358 284.193 134.889 283.918 134.292C283.647 133.69 283.507 132.999 283.498 132.22C283.507 131.427 283.652 130.731 283.932 130.134C284.212 129.532 284.615 129.065 285.143 128.734C285.67 128.398 286.309 128.23 287.061 128.23C287.826 128.23 288.491 128.417 289.056 128.79C289.625 129.163 290.015 129.674 290.225 130.323L289.217 130.645C289.039 130.192 288.757 129.842 288.37 129.595C287.987 129.343 287.548 129.217 287.053 129.217C286.498 129.217 286.039 129.345 285.675 129.602C285.311 129.854 285.04 130.206 284.863 130.659C284.685 131.112 284.594 131.632 284.59 132.22C284.599 133.125 284.809 133.853 285.22 134.404C285.63 134.95 286.242 135.223 287.053 135.223C287.567 135.223 288.003 135.106 288.363 134.873C288.727 134.635 289.002 134.29 289.189 133.837L290.225 134.145C289.945 134.817 289.534 135.33 288.993 135.685C288.451 136.035 287.805 136.21 287.053 136.21ZM293.543 136V129.392H290.862V128.44H297.253V129.392H294.572V136H293.543ZM301.982 136.21C301.287 136.21 300.699 136.035 300.218 135.685C299.738 135.33 299.374 134.852 299.126 134.25C298.879 133.643 298.755 132.964 298.755 132.213C298.755 131.448 298.879 130.766 299.126 130.169C299.378 129.567 299.747 129.093 300.232 128.748C300.718 128.403 301.315 128.23 302.024 128.23C302.715 128.23 303.308 128.405 303.802 128.755C304.297 129.105 304.675 129.581 304.936 130.183C305.202 130.785 305.335 131.462 305.335 132.213C305.335 132.969 305.202 133.648 304.936 134.25C304.67 134.852 304.288 135.33 303.788 135.685C303.289 136.035 302.687 136.21 301.982 136.21ZM298.58 139.36V128.44H299.504V134.131H299.616V139.36H298.58ZM301.877 135.251C302.405 135.251 302.843 135.118 303.193 134.852C303.543 134.586 303.805 134.224 303.977 133.767C304.155 133.305 304.243 132.787 304.243 132.213C304.243 131.644 304.157 131.13 303.984 130.673C303.812 130.216 303.548 129.854 303.193 129.588C302.843 129.322 302.398 129.189 301.856 129.189C301.329 129.189 300.89 129.317 300.54 129.574C300.195 129.831 299.936 130.188 299.763 130.645C299.591 131.098 299.504 131.62 299.504 132.213C299.504 132.796 299.591 133.319 299.763 133.781C299.936 134.238 300.197 134.598 300.547 134.859C300.897 135.12 301.341 135.251 301.877 135.251ZM307.677 139.36L309.14 135.391L309.161 136.567L305.85 128.44H306.942L309.658 135.237H309.21L311.716 128.44H312.766L308.706 139.36H307.677ZM313.975 136L313.982 128.44H315.018V132.08L318.392 128.44H319.764L316.222 132.22L320.226 136H318.728L315.018 132.36V136H313.975ZM322.978 136V129.392H320.297V128.44H326.688V129.392H324.007V136H322.978ZM329.005 139.36L330.468 135.391L330.489 136.567L327.178 128.44H328.27L330.986 135.237H330.538L333.044 128.44H334.094L330.034 139.36H329.005ZM338.705 136.21C338.01 136.21 337.422 136.035 336.941 135.685C336.46 135.33 336.096 134.852 335.849 134.25C335.602 133.643 335.478 132.964 335.478 132.213C335.478 131.448 335.602 130.766 335.849 130.169C336.101 129.567 336.47 129.093 336.955 128.748C337.44 128.403 338.038 128.23 338.747 128.23C339.438 128.23 340.03 128.405 340.525 128.755C341.02 129.105 341.398 129.581 341.659 130.183C341.925 130.785 342.058 131.462 342.058 132.213C342.058 132.969 341.925 133.648 341.659 134.25C341.393 134.852 341.01 135.33 340.511 135.685C340.012 136.035 339.41 136.21 338.705 136.21ZM335.303 139.36V128.44H336.227V134.131H336.339V139.36H335.303ZM338.6 135.251C339.127 135.251 339.566 135.118 339.916 134.852C340.266 134.586 340.527 134.224 340.7 133.767C340.877 133.305 340.966 132.787 340.966 132.213C340.966 131.644 340.88 131.13 340.707 130.673C340.534 130.216 340.271 129.854 339.916 129.588C339.566 129.322 339.12 129.189 338.579 129.189C338.052 129.189 337.613 129.317 337.263 129.574C336.918 129.831 336.659 130.188 336.486 130.645C336.313 131.098 336.227 131.62 336.227 132.213C336.227 132.796 336.313 133.319 336.486 133.781C336.659 134.238 336.92 134.598 337.27 134.859C337.62 135.12 338.063 135.251 338.6 135.251ZM343.602 136L343.588 128.44H344.624V131.289H345.94C346.16 131.289 346.374 131.294 346.584 131.303C346.794 131.312 346.983 131.331 347.151 131.359C347.525 131.434 347.856 131.56 348.145 131.737C348.435 131.914 348.663 132.159 348.831 132.472C348.999 132.78 349.083 133.17 349.083 133.641C349.083 134.29 348.915 134.801 348.579 135.174C348.243 135.547 347.821 135.79 347.312 135.902C347.121 135.944 346.913 135.972 346.689 135.986C346.465 135.995 346.246 136 346.031 136H343.602ZM344.624 135.118H345.989C346.143 135.118 346.318 135.113 346.514 135.104C346.71 135.095 346.883 135.069 347.032 135.027C347.284 134.957 347.511 134.817 347.711 134.607C347.917 134.392 348.019 134.07 348.019 133.641C348.019 133.216 347.921 132.897 347.725 132.682C347.529 132.463 347.268 132.318 346.941 132.248C346.792 132.215 346.633 132.194 346.465 132.185C346.302 132.176 346.143 132.171 345.989 132.171H344.624V135.118ZM349.986 136V128.44H351.015V136H349.986ZM26.986 145.44V153H25.985V147.113L21.841 153H20.973V145.44H21.974V151.278L26.125 145.44H26.986ZM35.2534 153.21C34.5488 153.21 33.9141 153.093 33.3494 152.86C32.7894 152.622 32.3251 152.286 31.9564 151.852C31.5924 151.418 31.3544 150.902 31.2424 150.305L32.2924 150.13C32.4604 150.783 32.8151 151.297 33.3564 151.67C33.8978 152.039 34.5441 152.223 35.2954 152.223C35.7901 152.223 36.2334 152.146 36.6254 151.992C37.0174 151.833 37.3254 151.609 37.5494 151.32C37.7734 151.031 37.8854 150.688 37.8854 150.291C37.8854 150.03 37.8388 149.808 37.7454 149.626C37.6521 149.439 37.5284 149.285 37.3744 149.164C37.2204 149.043 37.0524 148.942 36.8704 148.863C36.6884 148.779 36.5111 148.711 36.3384 148.66L33.7834 147.897C33.4754 147.808 33.1908 147.696 32.9294 147.561C32.6681 147.421 32.4394 147.255 32.2434 147.064C32.0521 146.868 31.9028 146.639 31.7954 146.378C31.6881 146.117 31.6344 145.818 31.6344 145.482C31.6344 144.913 31.7838 144.42 32.0824 144.005C32.3811 143.59 32.7894 143.27 33.3074 143.046C33.8254 142.822 34.4158 142.712 35.0784 142.717C35.7504 142.717 36.3501 142.836 36.8774 143.074C37.4094 143.312 37.8481 143.653 38.1934 144.096C38.5388 144.535 38.7674 145.055 38.8794 145.657L37.8014 145.853C37.7314 145.414 37.5704 145.034 37.3184 144.712C37.0664 144.39 36.7444 144.143 36.3524 143.97C35.9651 143.793 35.5381 143.702 35.0714 143.697C34.6188 143.697 34.2151 143.774 33.8604 143.928C33.5104 144.077 33.2328 144.283 33.0274 144.544C32.8221 144.805 32.7194 145.104 32.7194 145.44C32.7194 145.781 32.8128 146.054 32.9994 146.259C33.1908 146.464 33.4241 146.625 33.6994 146.742C33.9794 146.859 34.2501 146.954 34.5114 147.029L36.4854 147.61C36.6908 147.666 36.9311 147.748 37.2064 147.855C37.4864 147.958 37.7571 148.107 38.0184 148.303C38.2844 148.494 38.5038 148.746 38.6764 149.059C38.8491 149.372 38.9354 149.768 38.9354 150.249C38.9354 150.716 38.8421 151.133 38.6554 151.502C38.4734 151.871 38.2144 152.181 37.8784 152.433C37.5471 152.685 37.1574 152.876 36.7094 153.007C36.2661 153.142 35.7808 153.21 35.2534 153.21ZM40.3804 153V142.92H46.6804V143.907H41.4094V147.393H45.8404V148.38H41.4094V152.013H46.6804V153H40.3804ZM52.0219 153.21C51.0186 153.21 50.1716 152.988 49.4809 152.545C48.7903 152.097 48.2676 151.479 47.9129 150.69C47.5583 149.901 47.3809 148.991 47.3809 147.96C47.3809 146.929 47.5583 146.019 47.9129 145.23C48.2676 144.441 48.7903 143.825 49.4809 143.382C50.1716 142.934 51.0186 142.71 52.0219 142.71C53.0299 142.71 53.8769 142.934 54.5629 143.382C55.2536 143.825 55.7763 144.441 56.1309 145.23C56.4903 146.019 56.6699 146.929 56.6699 147.96C56.6699 148.991 56.4903 149.901 56.1309 150.69C55.7763 151.479 55.2536 152.097 54.5629 152.545C53.8769 152.988 53.0299 153.21 52.0219 153.21ZM52.0219 152.223C52.8106 152.223 53.4686 152.043 53.9959 151.684C54.5233 151.325 54.9176 150.825 55.1789 150.186C55.4449 149.542 55.5779 148.8 55.5779 147.96C55.5779 147.12 55.4449 146.38 55.1789 145.741C54.9176 145.102 54.5233 144.602 53.9959 144.243C53.4686 143.884 52.8106 143.702 52.0219 143.697C51.2333 143.697 50.5776 143.877 50.0549 144.236C49.5323 144.595 49.1379 145.097 48.8719 145.741C48.6106 146.38 48.4776 147.12 48.4729 147.96C48.4683 148.8 48.5966 149.54 48.8579 150.179C49.1239 150.814 49.5206 151.313 50.0479 151.677C50.5753 152.036 51.2333 152.218 52.0219 152.223ZM57.9318 149.031V148.149H62.1318V149.031H57.9318ZM67.1077 153.21C66.3564 153.21 65.7147 153.04 65.1827 152.699C64.6507 152.358 64.2424 151.887 63.9577 151.285C63.673 150.683 63.5307 149.992 63.5307 149.213C63.5307 148.42 63.6754 147.724 63.9647 147.127C64.254 146.53 64.6647 146.065 65.1967 145.734C65.7334 145.398 66.3704 145.23 67.1077 145.23C67.8637 145.23 68.5077 145.4 69.0397 145.741C69.5764 146.077 69.9847 146.546 70.2647 147.148C70.5494 147.745 70.6917 148.434 70.6917 149.213C70.6917 150.006 70.5494 150.704 70.2647 151.306C69.98 151.903 69.5694 152.37 69.0327 152.706C68.496 153.042 67.8544 153.21 67.1077 153.21ZM67.1077 152.223C67.9477 152.223 68.573 151.945 68.9837 151.39C69.3944 150.83 69.5997 150.104 69.5997 149.213C69.5997 148.298 69.392 147.57 68.9767 147.029C68.566 146.488 67.943 146.217 67.1077 146.217C66.543 146.217 66.0764 146.345 65.7077 146.602C65.3437 146.854 65.0707 147.206 64.8887 147.659C64.7114 148.107 64.6227 148.625 64.6227 149.213C64.6227 150.123 64.8327 150.853 65.2527 151.404C65.6727 151.95 66.291 152.223 67.1077 152.223ZM75.3719 153.21C74.6112 153.21 73.9672 153.04 73.4399 152.699C72.9125 152.358 72.5112 151.889 72.2359 151.292C71.9652 150.69 71.8252 149.999 71.8159 149.22C71.8252 148.427 71.9699 147.731 72.2499 147.134C72.5299 146.532 72.9335 146.065 73.4609 145.734C73.9882 145.398 74.6275 145.23 75.3789 145.23C76.1442 145.23 76.8092 145.417 77.3739 145.79C77.9432 146.163 78.3329 146.674 78.5429 147.323L77.5349 147.645C77.3575 147.192 77.0752 146.842 76.6879 146.595C76.3052 146.343 75.8665 146.217 75.3719 146.217C74.8165 146.217 74.3569 146.345 73.9929 146.602C73.6289 146.854 73.3582 147.206 73.1809 147.659C73.0035 148.112 72.9125 148.632 72.9079 149.22C72.9172 150.125 73.1272 150.853 73.5379 151.404C73.9485 151.95 74.5599 152.223 75.3719 152.223C75.8852 152.223 76.3215 152.106 76.6809 151.873C77.0449 151.635 77.3202 151.29 77.5069 150.837L78.5429 151.145C78.2629 151.817 77.8522 152.33 77.3109 152.685C76.7695 153.035 76.1232 153.21 75.3719 153.21ZM79.9808 153V145.44H81.0098V148.723H85.2728V145.44H86.3018V153H85.2728V149.71H81.0098V153H79.9808ZM91.4163 153.21C90.665 153.21 90.0233 153.04 89.4913 152.699C88.9593 152.358 88.551 151.887 88.2663 151.285C87.9816 150.683 87.8393 149.992 87.8393 149.213C87.8393 148.42 87.984 147.724 88.2733 147.127C88.5626 146.53 88.9733 146.065 89.5053 145.734C90.042 145.398 90.679 145.23 91.4163 145.23C92.1723 145.23 92.8163 145.4 93.3483 145.741C93.885 146.077 94.2933 146.546 94.5733 147.148C94.858 147.745 95.0003 148.434 95.0003 149.213C95.0003 150.006 94.858 150.704 94.5733 151.306C94.2886 151.903 93.878 152.37 93.3413 152.706C92.8046 153.042 92.163 153.21 91.4163 153.21ZM91.4163 152.223C92.2563 152.223 92.8816 151.945 93.2923 151.39C93.703 150.83 93.9083 150.104 93.9083 149.213C93.9083 148.298 93.7006 147.57 93.2853 147.029C92.8746 146.488 92.2516 146.217 91.4163 146.217C90.8516 146.217 90.385 146.345 90.0163 146.602C89.6523 146.854 89.3793 147.206 89.1973 147.659C89.02 148.107 88.9313 148.625 88.9313 149.213C88.9313 150.123 89.1413 150.853 89.5613 151.404C89.9813 151.95 90.5996 152.223 91.4163 152.223ZM96.5375 153V145.44H99.6525C99.8111 145.44 100.002 145.449 100.226 145.468C100.455 145.487 100.667 145.522 100.863 145.573C101.288 145.685 101.629 145.914 101.885 146.259C102.147 146.604 102.277 147.02 102.277 147.505C102.277 147.776 102.235 148.018 102.151 148.233C102.072 148.443 101.958 148.625 101.808 148.779C101.738 148.858 101.661 148.928 101.577 148.989C101.493 149.045 101.412 149.092 101.332 149.129C101.482 149.157 101.643 149.222 101.815 149.325C102.086 149.484 102.291 149.698 102.431 149.969C102.571 150.235 102.641 150.559 102.641 150.942C102.641 151.46 102.518 151.882 102.27 152.209C102.023 152.536 101.692 152.76 101.276 152.881C101.09 152.932 100.887 152.965 100.667 152.979C100.453 152.993 100.25 153 100.058 153H96.5375ZM97.5735 152.125H100.009C100.107 152.125 100.231 152.118 100.38 152.104C100.53 152.085 100.663 152.062 100.779 152.034C101.055 151.964 101.255 151.824 101.381 151.614C101.512 151.399 101.577 151.166 101.577 150.914C101.577 150.583 101.479 150.312 101.283 150.102C101.092 149.887 100.835 149.757 100.513 149.71C100.406 149.687 100.294 149.673 100.177 149.668C100.061 149.663 99.9558 149.661 99.8625 149.661H97.5735V152.125ZM97.5735 148.779H99.6875C99.8088 148.779 99.9441 148.772 100.093 148.758C100.247 148.739 100.38 148.709 100.492 148.667C100.735 148.583 100.912 148.438 101.024 148.233C101.141 148.028 101.199 147.804 101.199 147.561C101.199 147.295 101.136 147.062 101.01 146.861C100.889 146.66 100.705 146.52 100.457 146.441C100.289 146.38 100.107 146.345 99.9115 146.336C99.7201 146.327 99.5988 146.322 99.5475 146.322H97.5735V148.779ZM104.044 153L104.03 145.44H105.066V148.289H106.382C106.601 148.289 106.816 148.294 107.026 148.303C107.236 148.312 107.425 148.331 107.593 148.359C107.966 148.434 108.297 148.56 108.587 148.737C108.876 148.914 109.105 149.159 109.273 149.472C109.441 149.78 109.525 150.17 109.525 150.641C109.525 151.29 109.357 151.801 109.021 152.174C108.685 152.547 108.262 152.79 107.754 152.902C107.562 152.944 107.355 152.972 107.131 152.986C106.907 152.995 106.687 153 106.473 153H104.044ZM105.066 152.118H106.431C106.585 152.118 106.76 152.113 106.956 152.104C107.152 152.095 107.324 152.069 107.474 152.027C107.726 151.957 107.952 151.817 108.153 151.607C108.358 151.392 108.461 151.07 108.461 150.641C108.461 150.216 108.363 149.897 108.167 149.682C107.971 149.463 107.709 149.318 107.383 149.248C107.233 149.215 107.075 149.194 106.907 149.185C106.743 149.176 106.585 149.171 106.431 149.171H105.066V152.118ZM110.428 153V145.44H111.457V153H110.428ZM113.612 153V151.803H114.809V153H113.612Z" fill="#262626"/>
<path d="M105.836 46.134H108.838C109.041 47.9833 109.649 49.4147 110.662 50.428C111.675 51.416 113.018 51.91 114.69 51.91C115.501 51.91 116.235 51.7707 116.894 51.492C117.578 51.2133 118.161 50.8333 118.642 50.352C119.149 49.8453 119.541 49.25 119.82 48.566C120.099 47.882 120.238 47.1347 120.238 46.324C120.238 45.5893 120.124 44.9307 119.896 44.348C119.693 43.7653 119.339 43.246 118.832 42.79C118.351 42.334 117.705 41.916 116.894 41.536C116.109 41.156 115.133 40.8013 113.968 40.472C112.651 40.092 111.523 39.674 110.586 39.218C109.674 38.7367 108.927 38.2047 108.344 37.622C107.787 37.0393 107.381 36.368 107.128 35.608C106.875 34.848 106.748 33.974 106.748 32.986C106.748 31.8967 106.938 30.896 107.318 29.984C107.723 29.0467 108.268 28.2487 108.952 27.59C109.636 26.906 110.447 26.374 111.384 25.994C112.347 25.614 113.398 25.424 114.538 25.424C115.678 25.424 116.729 25.614 117.692 25.994C118.655 26.3487 119.478 26.8553 120.162 27.514C120.846 28.1727 121.378 28.9707 121.758 29.908C122.163 30.8453 122.379 31.884 122.404 33.024H119.478C119.377 31.504 118.87 30.288 117.958 29.376C117.071 28.464 115.906 28.008 114.462 28.008C113.043 28.008 111.878 28.4767 110.966 29.414C110.054 30.326 109.598 31.4913 109.598 32.91C109.598 33.518 109.687 34.0753 109.864 34.582C110.067 35.0633 110.383 35.5067 110.814 35.912C111.27 36.292 111.84 36.6467 112.524 36.976C113.233 37.3053 114.082 37.622 115.07 37.926C116.539 38.3567 117.781 38.838 118.794 39.37C119.807 39.8767 120.631 40.4593 121.264 41.118C121.897 41.7513 122.353 42.486 122.632 43.322C122.936 44.158 123.088 45.108 123.088 46.172C123.088 47.3627 122.873 48.4647 122.442 49.478C122.011 50.4913 121.416 51.378 120.656 52.138C119.921 52.8727 119.035 53.4553 117.996 53.886C116.957 54.2913 115.83 54.494 114.614 54.494C113.347 54.494 112.195 54.304 111.156 53.924C110.117 53.5187 109.205 52.9487 108.42 52.214C107.66 51.4793 107.052 50.6053 106.596 49.592C106.165 48.5533 105.912 47.4007 105.836 46.134ZM126.814 54V25.918H142.166V28.464H129.626V38.534H141.748V41.08H129.626V51.454H142.166V54H126.814ZM145.971 39.978C145.971 37.9513 146.363 36.064 147.149 34.316C147.934 32.5427 148.998 30.9973 150.341 29.68C151.709 28.3627 153.305 27.324 155.129 26.564C156.953 25.804 158.916 25.424 161.019 25.424C163.02 25.424 164.907 25.8167 166.681 26.602C168.454 27.362 169.999 28.4133 171.317 29.756C172.659 31.0733 173.711 32.6187 174.471 34.392C175.256 36.14 175.649 38.002 175.649 39.978C175.649 41.9793 175.256 43.8667 174.471 45.64C173.685 47.388 172.621 48.9207 171.279 50.238C169.936 51.5553 168.365 52.594 166.567 53.354C164.768 54.114 162.855 54.494 160.829 54.494C158.802 54.494 156.889 54.114 155.091 53.354C153.292 52.5687 151.709 51.5173 150.341 50.2C148.998 48.8827 147.934 47.35 147.149 45.602C146.363 43.8287 145.971 41.954 145.971 39.978ZM148.821 39.978C148.821 41.5993 149.137 43.1447 149.771 44.614C150.404 46.058 151.265 47.3247 152.355 48.414C153.444 49.478 154.711 50.3267 156.155 50.96C157.624 51.5933 159.182 51.91 160.829 51.91C162.475 51.91 164.021 51.5933 165.465 50.96C166.909 50.3267 168.175 49.478 169.265 48.414C170.354 47.3247 171.215 46.058 171.849 44.614C172.482 43.17 172.799 41.6373 172.799 40.016C172.799 38.344 172.482 36.786 171.849 35.342C171.215 33.8727 170.354 32.5933 169.265 31.504C168.175 30.4147 166.883 29.566 165.389 28.958C163.919 28.3247 162.349 28.008 160.677 28.008C159.081 28.008 157.561 28.3373 156.117 28.996C154.673 29.6293 153.406 30.4907 152.317 31.58C151.253 32.6693 150.404 33.936 149.771 35.38C149.137 36.824 148.821 38.3567 148.821 39.978Z" fill="#070707"/>
<rect width="68" height="68" rx="10" fill="#FF5C10"/>
<path d="M34 45.5H50M18 34H50M18 22.5H50" stroke="white" stroke-width="2" stroke-linecap="round" stroke-linejoin="round"/>
</svg>
