<svg width="440" height="220" viewBox="0 0 440 220" fill="none" xmlns="http://www.w3.org/2000/svg">
<path d="M430 0C435.523 0 440 4.47715 440 10V210C440 215.523 435.523 220 430 220H10C4.47715 220 1.61069e-07 215.523 0 210V95C0 89.4771 4.47715 85 10 85H75C80.5229 85 85 80.5229 85 75V10C85 4.47715 89.4771 0 95 0H430Z" fill="white"/>
<path d="M26.507 134.27C25.217 134.27 24.128 133.985 23.24 133.415C22.352 132.839 21.68 132.044 21.224 131.03C20.768 130.016 20.54 128.846 20.54 127.52C20.54 126.194 20.768 125.024 21.224 124.01C21.68 122.996 22.352 122.204 23.24 121.634C24.128 121.058 25.217 120.77 26.507 120.77C28.013 120.77 29.243 121.157 30.197 121.931C31.151 122.699 31.805 123.731 32.159 125.027L30.809 125.378C30.533 124.352 30.038 123.539 29.324 122.939C28.61 122.339 27.671 122.039 26.507 122.039C25.493 122.039 24.65 122.27 23.978 122.732C23.306 123.194 22.799 123.839 22.457 124.667C22.121 125.489 21.947 126.44 21.935 127.52C21.929 128.6 22.094 129.551 22.43 130.373C22.772 131.195 23.282 131.84 23.96 132.308C24.644 132.77 25.493 133.001 26.507 133.001C27.671 133.001 28.61 132.701 29.324 132.101C30.038 131.495 30.533 130.682 30.809 129.662L32.159 130.013C31.805 131.309 31.151 132.344 30.197 133.118C29.243 133.886 28.013 134.27 26.507 134.27ZM36.9258 134.27C36.1938 134.27 35.5788 134.138 35.0808 133.874C34.5888 133.61 34.2198 133.259 33.9738 132.821C33.7278 132.383 33.6048 131.906 33.6048 131.39C33.6048 130.862 33.7098 130.412 33.9198 130.04C34.1358 129.662 34.4268 129.353 34.7928 129.113C35.1648 128.873 35.5938 128.69 36.0798 128.564C36.5718 128.444 37.1148 128.339 37.7088 128.249C38.3088 128.153 38.8938 128.072 39.4638 128.006C40.0398 127.934 40.5438 127.865 40.9758 127.799L40.5078 128.087C40.5258 127.127 40.3398 126.416 39.9498 125.954C39.5598 125.492 38.8818 125.261 37.9158 125.261C37.2498 125.261 36.6858 125.411 36.2238 125.711C35.7678 126.011 35.4468 126.485 35.2608 127.133L33.9738 126.755C34.1958 125.885 34.6428 125.21 35.3148 124.73C35.9868 124.25 36.8598 124.01 37.9338 124.01C38.8218 124.01 39.5748 124.178 40.1928 124.514C40.8168 124.844 41.2578 125.324 41.5158 125.954C41.6358 126.236 41.7138 126.551 41.7498 126.899C41.7858 127.247 41.8038 127.601 41.8038 127.961V134H40.6248V131.561L40.9668 131.705C40.6368 132.539 40.1238 133.175 39.4278 133.613C38.7318 134.051 37.8978 134.27 36.9258 134.27ZM37.0788 133.127C37.6968 133.127 38.2368 133.016 38.6988 132.794C39.1608 132.572 39.5328 132.269 39.8148 131.885C40.0968 131.495 40.2798 131.057 40.3638 130.571C40.4358 130.259 40.4748 129.917 40.4808 129.545C40.4868 129.167 40.4898 128.885 40.4898 128.699L40.9938 128.96C40.5438 129.02 40.0548 129.08 39.5268 129.14C39.0048 129.2 38.4888 129.269 37.9788 129.347C37.4748 129.425 37.0188 129.518 36.6108 129.626C36.3348 129.704 36.0678 129.815 35.8098 129.959C35.5518 130.097 35.3388 130.283 35.1708 130.517C35.0088 130.751 34.9278 131.042 34.9278 131.39C34.9278 131.672 34.9968 131.945 35.1348 132.209C35.2788 132.473 35.5068 132.692 35.8188 132.866C36.1368 133.04 36.5568 133.127 37.0788 133.127ZM48.1787 123.128C47.7527 123.128 47.3627 123.023 47.0087 122.813C46.6547 122.603 46.3727 122.324 46.1627 121.976C45.9587 121.622 45.8567 121.232 45.8567 120.806H46.9547C46.9547 121.142 47.0747 121.43 47.3147 121.67C47.5547 121.91 47.8427 122.03 48.1787 122.03C48.5207 122.03 48.8087 121.91 49.0427 121.67C49.2827 121.43 49.4027 121.142 49.4027 120.806H50.5007C50.5007 121.232 50.3957 121.622 50.1857 121.976C49.9817 122.324 49.7027 122.603 49.3487 122.813C48.9947 123.023 48.6047 123.128 48.1787 123.128ZM51.8687 124.28V134H50.5817V126.431L45.2537 134H44.1377V124.28H45.4247V131.786L50.7617 124.28H51.8687ZM57.0318 134V125.504H53.5848V124.28H61.8018V125.504H58.3548V134H57.0318ZM71.1533 134.27C70.1753 134.27 69.3473 134.051 68.6693 133.613C67.9913 133.175 67.4753 132.572 67.1213 131.804C66.7733 131.03 66.5933 130.142 66.5813 129.14C66.5933 128.12 66.7793 127.226 67.1393 126.458C67.4993 125.684 68.0183 125.084 68.6963 124.658C69.3743 124.226 70.1963 124.01 71.1623 124.01C72.1463 124.01 73.0013 124.25 73.7273 124.73C74.4593 125.21 74.9603 125.867 75.2303 126.701L73.9343 127.115C73.7063 126.533 73.3433 126.083 72.8453 125.765C72.3533 125.441 71.7893 125.279 71.1533 125.279C70.4393 125.279 69.8483 125.444 69.3803 125.774C68.9123 126.098 68.5643 126.551 68.3363 127.133C68.1083 127.715 67.9913 128.384 67.9853 129.14C67.9973 130.304 68.2673 131.24 68.7953 131.948C69.3233 132.65 70.1093 133.001 71.1533 133.001C71.8133 133.001 72.3743 132.851 72.8363 132.551C73.3043 132.245 73.6583 131.801 73.8983 131.219L75.2303 131.615C74.8703 132.479 74.3423 133.139 73.6463 133.595C72.9503 134.045 72.1193 134.27 71.1533 134.27ZM79.4966 134V125.504H76.0496V124.28H84.2666V125.504H80.8196V134H79.4966ZM88.3945 134.27C87.6625 134.27 87.0475 134.138 86.5495 133.874C86.0575 133.61 85.6885 133.259 85.4425 132.821C85.1965 132.383 85.0735 131.906 85.0735 131.39C85.0735 130.862 85.1785 130.412 85.3885 130.04C85.6045 129.662 85.8955 129.353 86.2615 129.113C86.6335 128.873 87.0625 128.69 87.5485 128.564C88.0405 128.444 88.5835 128.339 89.1775 128.249C89.7775 128.153 90.3625 128.072 90.9325 128.006C91.5085 127.934 92.0125 127.865 92.4445 127.799L91.9765 128.087C91.9945 127.127 91.8085 126.416 91.4185 125.954C91.0285 125.492 90.3505 125.261 89.3845 125.261C88.7185 125.261 88.1545 125.411 87.6925 125.711C87.2365 126.011 86.9155 126.485 86.7295 127.133L85.4425 126.755C85.6645 125.885 86.1115 125.21 86.7835 124.73C87.4555 124.25 88.3285 124.01 89.4025 124.01C90.2905 124.01 91.0435 124.178 91.6615 124.514C92.2855 124.844 92.7265 125.324 92.9845 125.954C93.1045 126.236 93.1825 126.551 93.2185 126.899C93.2545 127.247 93.2725 127.601 93.2725 127.961V134H92.0935V131.561L92.4355 131.705C92.1055 132.539 91.5925 133.175 90.8965 133.613C90.2005 134.051 89.3665 134.27 88.3945 134.27ZM88.5475 133.127C89.1655 133.127 89.7055 133.016 90.1675 132.794C90.6295 132.572 91.0015 132.269 91.2835 131.885C91.5655 131.495 91.7485 131.057 91.8325 130.571C91.9045 130.259 91.9435 129.917 91.9495 129.545C91.9555 129.167 91.9585 128.885 91.9585 128.699L92.4625 128.96C92.0125 129.02 91.5235 129.08 90.9955 129.14C90.4735 129.2 89.9575 129.269 89.4475 129.347C88.9435 129.425 88.4875 129.518 88.0795 129.626C87.8035 129.704 87.5365 129.815 87.2785 129.959C87.0205 130.097 86.8075 130.283 86.6395 130.517C86.4775 130.751 86.3965 131.042 86.3965 131.39C86.3965 131.672 86.4655 131.945 86.6035 132.209C86.7475 132.473 86.9755 132.692 87.2875 132.866C87.6055 133.04 88.0255 133.127 88.5475 133.127ZM95.6065 134V124.28H96.9295V128.501H102.41V124.28H103.733V134H102.41V129.77H96.9295V134H95.6065ZM110.309 134.27C109.343 134.27 108.518 134.051 107.834 133.613C107.15 133.175 106.625 132.569 106.259 131.795C105.893 131.021 105.71 130.133 105.71 129.131C105.71 128.111 105.896 127.217 106.268 126.449C106.64 125.681 107.168 125.084 107.852 124.658C108.542 124.226 109.361 124.01 110.309 124.01C111.281 124.01 112.109 124.229 112.793 124.667C113.483 125.099 114.008 125.702 114.368 126.476C114.734 127.244 114.917 128.129 114.917 129.131C114.917 130.151 114.734 131.048 114.368 131.822C114.002 132.59 113.474 133.19 112.784 133.622C112.094 134.054 111.269 134.27 110.309 134.27ZM110.309 133.001C111.389 133.001 112.193 132.644 112.721 131.93C113.249 131.21 113.513 130.277 113.513 129.131C113.513 127.955 113.246 127.019 112.712 126.323C112.184 125.627 111.383 125.279 110.309 125.279C109.583 125.279 108.983 125.444 108.509 125.774C108.041 126.098 107.69 126.551 107.456 127.133C107.228 127.709 107.114 128.375 107.114 129.131C107.114 130.301 107.384 131.24 107.924 131.948C108.464 132.65 109.259 133.001 110.309 133.001ZM116.894 134V124.28H120.899C121.103 124.28 121.349 124.292 121.637 124.316C121.931 124.34 122.204 124.385 122.456 124.451C123.002 124.595 123.44 124.889 123.77 125.333C124.106 125.777 124.274 126.311 124.274 126.935C124.274 127.283 124.22 127.595 124.112 127.871C124.01 128.141 123.863 128.375 123.671 128.573C123.581 128.675 123.482 128.765 123.374 128.843C123.266 128.915 123.161 128.975 123.059 129.023C123.251 129.059 123.458 129.143 123.68 129.275C124.028 129.479 124.292 129.755 124.472 130.103C124.652 130.445 124.742 130.862 124.742 131.354C124.742 132.02 124.583 132.563 124.265 132.983C123.947 133.403 123.521 133.691 122.987 133.847C122.747 133.913 122.486 133.955 122.204 133.973C121.928 133.991 121.667 134 121.421 134H116.894ZM118.226 132.875H121.358C121.484 132.875 121.643 132.866 121.835 132.848C122.027 132.824 122.198 132.794 122.348 132.758C122.702 132.668 122.96 132.488 123.122 132.218C123.29 131.942 123.374 131.642 123.374 131.318C123.374 130.892 123.248 130.544 122.996 130.274C122.75 129.998 122.42 129.83 122.006 129.77C121.868 129.74 121.724 129.722 121.574 129.716C121.424 129.71 121.289 129.707 121.169 129.707H118.226V132.875ZM118.226 128.573H120.944C121.1 128.573 121.274 128.564 121.466 128.546C121.664 128.522 121.835 128.483 121.979 128.429C122.291 128.321 122.519 128.135 122.663 127.871C122.813 127.607 122.888 127.319 122.888 127.007C122.888 126.665 122.807 126.365 122.645 126.107C122.489 125.849 122.252 125.669 121.934 125.567C121.718 125.489 121.484 125.444 121.232 125.432C120.986 125.42 120.83 125.414 120.764 125.414H118.226V128.573ZM134.257 124.28V134H132.97V126.431L127.642 134H126.526V124.28H127.813V131.786L133.15 124.28H134.257ZM139.42 134V125.504H135.973V124.28H144.19V125.504H140.743V134H139.42ZM149.763 134.27C148.785 134.27 147.957 134.051 147.279 133.613C146.601 133.175 146.085 132.572 145.731 131.804C145.383 131.03 145.203 130.142 145.191 129.14C145.203 128.12 145.389 127.226 145.749 126.458C146.109 125.684 146.628 125.084 147.306 124.658C147.984 124.226 148.806 124.01 149.772 124.01C150.756 124.01 151.611 124.25 152.337 124.73C153.069 125.21 153.57 125.867 153.84 126.701L152.544 127.115C152.316 126.533 151.953 126.083 151.455 125.765C150.963 125.441 150.399 125.279 149.763 125.279C149.049 125.279 148.458 125.444 147.99 125.774C147.522 126.098 147.174 126.551 146.946 127.133C146.718 127.715 146.601 128.384 146.595 129.14C146.607 130.304 146.877 131.24 147.405 131.948C147.933 132.65 148.719 133.001 149.763 133.001C150.423 133.001 150.984 132.851 151.446 132.551C151.914 132.245 152.268 131.801 152.508 131.219L153.84 131.615C153.48 132.479 152.952 133.139 152.256 133.595C151.56 134.045 150.729 134.27 149.763 134.27ZM161.738 134V130.337H159.47C159.206 130.337 158.933 130.328 158.651 130.31C158.375 130.286 158.117 130.253 157.877 130.211C157.193 130.079 156.611 129.779 156.131 129.311C155.657 128.837 155.42 128.183 155.42 127.349C155.42 126.533 155.642 125.879 156.086 125.387C156.53 124.889 157.067 124.565 157.697 124.415C157.985 124.349 158.276 124.31 158.57 124.298C158.87 124.286 159.128 124.28 159.344 124.28H163.061L163.07 134H161.738ZM155.105 134L157.814 129.923H159.281L156.554 134H155.105ZM159.398 129.203H161.738V125.414H159.398C159.254 125.414 159.053 125.42 158.795 125.432C158.537 125.444 158.294 125.483 158.066 125.549C157.868 125.609 157.67 125.714 157.472 125.864C157.28 126.008 157.118 126.203 156.986 126.449C156.854 126.689 156.788 126.983 156.788 127.331C156.788 127.817 156.92 128.207 157.184 128.501C157.454 128.789 157.79 128.987 158.192 129.095C158.408 129.143 158.624 129.173 158.84 129.185C159.056 129.197 159.242 129.203 159.398 129.203ZM173.229 134.27C172.252 134.27 171.424 134.051 170.746 133.613C170.068 133.175 169.552 132.572 169.198 131.804C168.85 131.03 168.67 130.142 168.658 129.14C168.67 128.12 168.856 127.226 169.216 126.458C169.576 125.684 170.095 125.084 170.773 124.658C171.451 124.226 172.273 124.01 173.239 124.01C174.223 124.01 175.078 124.25 175.804 124.73C176.536 125.21 177.037 125.867 177.307 126.701L176.011 127.115C175.783 126.533 175.42 126.083 174.922 125.765C174.43 125.441 173.866 125.279 173.229 125.279C172.516 125.279 171.925 125.444 171.457 125.774C170.989 126.098 170.641 126.551 170.413 127.133C170.185 127.715 170.068 128.384 170.062 129.14C170.074 130.304 170.344 131.24 170.872 131.948C171.4 132.65 172.186 133.001 173.229 133.001C173.89 133.001 174.451 132.851 174.913 132.551C175.381 132.245 175.735 131.801 175.975 131.219L177.307 131.615C176.947 132.479 176.419 133.139 175.723 133.595C175.027 134.045 174.196 134.27 173.229 134.27ZM181.573 134V125.504H178.126V124.28H186.343V125.504H182.896V134H181.573ZM190.471 134.27C189.739 134.27 189.124 134.138 188.626 133.874C188.134 133.61 187.765 133.259 187.519 132.821C187.273 132.383 187.15 131.906 187.15 131.39C187.15 130.862 187.255 130.412 187.465 130.04C187.681 129.662 187.972 129.353 188.338 129.113C188.71 128.873 189.139 128.69 189.625 128.564C190.117 128.444 190.66 128.339 191.254 128.249C191.854 128.153 192.439 128.072 193.009 128.006C193.585 127.934 194.089 127.865 194.521 127.799L194.053 128.087C194.071 127.127 193.885 126.416 193.495 125.954C193.105 125.492 192.427 125.261 191.461 125.261C190.795 125.261 190.231 125.411 189.769 125.711C189.313 126.011 188.992 126.485 188.806 127.133L187.519 126.755C187.741 125.885 188.188 125.21 188.86 124.73C189.532 124.25 190.405 124.01 191.479 124.01C192.367 124.01 193.12 124.178 193.738 124.514C194.362 124.844 194.803 125.324 195.061 125.954C195.181 126.236 195.259 126.551 195.295 126.899C195.331 127.247 195.349 127.601 195.349 127.961V134H194.17V131.561L194.512 131.705C194.182 132.539 193.669 133.175 192.973 133.613C192.277 134.051 191.443 134.27 190.471 134.27ZM190.624 133.127C191.242 133.127 191.782 133.016 192.244 132.794C192.706 132.572 193.078 132.269 193.36 131.885C193.642 131.495 193.825 131.057 193.909 130.571C193.981 130.259 194.02 129.917 194.026 129.545C194.032 129.167 194.035 128.885 194.035 128.699L194.539 128.96C194.089 129.02 193.6 129.08 193.072 129.14C192.55 129.2 192.034 129.269 191.524 129.347C191.02 129.425 190.564 129.518 190.156 129.626C189.88 129.704 189.613 129.815 189.355 129.959C189.097 130.097 188.884 130.283 188.716 130.517C188.554 130.751 188.473 131.042 188.473 131.39C188.473 131.672 188.542 131.945 188.68 132.209C188.824 132.473 189.052 132.692 189.364 132.866C189.682 133.04 190.102 133.127 190.624 133.127ZM201.589 134.279C200.683 134.273 199.906 134.075 199.258 133.685C198.61 133.295 198.106 132.713 197.746 131.939C197.392 131.165 197.2 130.199 197.17 129.041C197.152 128.531 197.164 127.976 197.206 127.376C197.248 126.77 197.314 126.194 197.404 125.648C197.494 125.102 197.602 124.658 197.728 124.316C197.884 123.872 198.106 123.458 198.394 123.074C198.688 122.684 199.027 122.366 199.411 122.12C199.783 121.868 200.203 121.673 200.671 121.535C201.145 121.391 201.637 121.28 202.147 121.202C202.663 121.124 203.173 121.055 203.677 120.995C204.187 120.935 204.658 120.86 205.09 120.77L205.234 121.967C204.904 122.033 204.514 122.093 204.064 122.147C203.614 122.201 203.143 122.267 202.651 122.345C202.159 122.417 201.688 122.516 201.238 122.642C200.788 122.768 200.404 122.933 200.086 123.137C199.6 123.431 199.225 123.875 198.961 124.469C198.703 125.063 198.544 125.744 198.484 126.512C198.856 125.93 199.348 125.492 199.96 125.198C200.578 124.904 201.247 124.757 201.967 124.757C202.843 124.757 203.596 124.958 204.226 125.36C204.862 125.762 205.351 126.32 205.693 127.034C206.035 127.748 206.206 128.567 206.206 129.491C206.206 130.457 206.017 131.3 205.639 132.02C205.267 132.74 204.736 133.298 204.046 133.694C203.356 134.084 202.537 134.279 201.589 134.279ZM201.688 133.01C202.708 133.01 203.482 132.692 204.01 132.056C204.544 131.42 204.811 130.574 204.811 129.518C204.811 128.438 204.535 127.586 203.983 126.962C203.437 126.338 202.666 126.026 201.67 126.026C200.674 126.026 199.909 126.338 199.375 126.962C198.841 127.586 198.574 128.438 198.574 129.518C198.574 130.598 198.841 131.45 199.375 132.074C199.909 132.698 200.68 133.01 201.688 133.01ZM215.908 124.28V134H214.621V126.431L209.293 134H208.177V124.28H209.464V131.786L214.801 124.28H215.908ZM217.534 134V132.839C217.894 132.905 218.167 132.89 218.353 132.794C218.545 132.692 218.686 132.524 218.776 132.29C218.866 132.05 218.941 131.753 219.001 131.399C219.097 130.811 219.184 130.163 219.262 129.455C219.34 128.747 219.409 127.967 219.469 127.115C219.535 126.257 219.601 125.312 219.667 124.28H226.273V134H224.959V125.549H220.891C220.849 126.185 220.801 126.818 220.747 127.448C220.693 128.078 220.636 128.684 220.576 129.266C220.522 129.842 220.462 130.373 220.396 130.859C220.33 131.345 220.261 131.765 220.189 132.119C220.081 132.653 219.937 133.079 219.757 133.397C219.583 133.715 219.322 133.925 218.974 134.027C218.626 134.129 218.146 134.12 217.534 134ZM228.796 134L228.778 124.28H230.11V127.943H232.387C232.669 127.943 232.945 127.949 233.215 127.961C233.491 127.973 233.734 127.997 233.944 128.033C234.424 128.123 234.85 128.282 235.222 128.51C235.6 128.738 235.894 129.053 236.104 129.455C236.32 129.857 236.428 130.361 236.428 130.967C236.428 131.801 236.212 132.458 235.78 132.938C235.354 133.418 234.814 133.73 234.16 133.874C233.914 133.928 233.647 133.964 233.359 133.982C233.071 133.994 232.786 134 232.504 134H228.796ZM230.11 132.866H232.45C232.654 132.866 232.882 132.86 233.134 132.848C233.386 132.836 233.608 132.803 233.8 132.749C234.118 132.659 234.406 132.479 234.664 132.209C234.928 131.933 235.06 131.519 235.06 130.967C235.06 130.421 234.934 130.01 234.682 129.734C234.43 129.452 234.094 129.266 233.674 129.176C233.488 129.134 233.287 129.107 233.071 129.095C232.855 129.083 232.648 129.077 232.45 129.077H230.11V132.866ZM238.13 134V124.28H239.453V128.501H244.934V124.28H246.257V134H244.934V129.77H239.453V134H238.13ZM248.783 134L248.765 124.28H250.097V127.943H251.789C252.071 127.943 252.347 127.949 252.617 127.961C252.887 127.973 253.13 127.997 253.346 128.033C253.826 128.129 254.252 128.291 254.624 128.519C254.996 128.747 255.29 129.062 255.506 129.464C255.722 129.86 255.83 130.361 255.83 130.967C255.83 131.801 255.614 132.458 255.182 132.938C254.75 133.418 254.207 133.73 253.553 133.874C253.307 133.928 253.04 133.964 252.752 133.982C252.464 133.994 252.182 134 251.906 134H248.783ZM250.097 132.866H251.852C252.05 132.866 252.275 132.86 252.527 132.848C252.779 132.836 253.001 132.803 253.193 132.749C253.517 132.659 253.808 132.479 254.066 132.209C254.33 131.933 254.462 131.519 254.462 130.967C254.462 130.421 254.336 130.01 254.084 129.734C253.832 129.452 253.496 129.266 253.076 129.176C252.884 129.134 252.68 129.107 252.464 129.095C252.254 129.083 252.05 129.077 251.852 129.077H250.097V132.866ZM256.991 134V124.28H258.314V134H256.991ZM260.823 134V124.28H262.002L265.791 132.236L269.589 124.28H270.759V134H269.481V127.106L266.214 134H265.377L262.11 127.106V134H260.823ZM284.603 124.28V134H283.316V126.431L277.988 134H276.872V124.28H278.159V131.786L283.496 124.28H284.603ZM291.161 134.27C290.183 134.27 289.355 134.051 288.677 133.613C287.999 133.175 287.483 132.572 287.129 131.804C286.781 131.03 286.601 130.142 286.589 129.14C286.601 128.12 286.787 127.226 287.147 126.458C287.507 125.684 288.026 125.084 288.704 124.658C289.382 124.226 290.204 124.01 291.17 124.01C292.154 124.01 293.009 124.25 293.735 124.73C294.467 125.21 294.968 125.867 295.238 126.701L293.942 127.115C293.714 126.533 293.351 126.083 292.853 125.765C292.361 125.441 291.797 125.279 291.161 125.279C290.447 125.279 289.856 125.444 289.388 125.774C288.92 126.098 288.572 126.551 288.344 127.133C288.116 127.715 287.999 128.384 287.993 129.14C288.005 130.304 288.275 131.24 288.803 131.948C289.331 132.65 290.117 133.001 291.161 133.001C291.821 133.001 292.382 132.851 292.844 132.551C293.312 132.245 293.666 131.801 293.906 131.219L295.238 131.615C294.878 132.479 294.35 133.139 293.654 133.595C292.958 134.045 292.127 134.27 291.161 134.27ZM299.504 134V125.504H296.057V124.28H304.274V125.504H300.827V134H299.504ZM309.874 134.27C308.908 134.27 308.083 134.051 307.399 133.613C306.715 133.175 306.19 132.569 305.824 131.795C305.458 131.021 305.275 130.133 305.275 129.131C305.275 128.111 305.461 127.217 305.833 126.449C306.205 125.681 306.733 125.084 307.417 124.658C308.107 124.226 308.926 124.01 309.874 124.01C310.846 124.01 311.674 124.229 312.358 124.667C313.048 125.099 313.573 125.702 313.933 126.476C314.299 127.244 314.482 128.129 314.482 129.131C314.482 130.151 314.299 131.048 313.933 131.822C313.567 132.59 313.039 133.19 312.349 133.622C311.659 134.054 310.834 134.27 309.874 134.27ZM309.874 133.001C310.954 133.001 311.758 132.644 312.286 131.93C312.814 131.21 313.078 130.277 313.078 129.131C313.078 127.955 312.811 127.019 312.277 126.323C311.749 125.627 310.948 125.279 309.874 125.279C309.148 125.279 308.548 125.444 308.074 125.774C307.606 126.098 307.255 126.551 307.021 127.133C306.793 127.709 306.679 128.375 306.679 129.131C306.679 130.301 306.949 131.24 307.489 131.948C308.029 132.65 308.824 133.001 309.874 133.001ZM322.416 134V130.382C322.092 130.544 321.693 130.685 321.219 130.805C320.745 130.925 320.235 130.985 319.689 130.985C318.705 130.985 317.907 130.766 317.295 130.328C316.683 129.89 316.284 129.257 316.098 128.429C316.038 128.183 315.996 127.922 315.972 127.646C315.954 127.37 315.942 127.121 315.936 126.899C315.93 126.677 315.927 126.518 315.927 126.422V124.28H317.259V126.422C317.259 126.62 317.265 126.845 317.277 127.097C317.289 127.349 317.316 127.595 317.358 127.835C317.478 128.489 317.748 128.984 318.168 129.32C318.594 129.656 319.191 129.824 319.959 129.824C320.439 129.824 320.892 129.764 321.318 129.644C321.75 129.518 322.116 129.35 322.416 129.14V124.28H323.739V134H322.416ZM326.249 134V124.28H327.572V128.501H333.053V124.28H334.376V134H333.053V129.77H327.572V134H326.249ZM344.615 124.28V134H343.328V126.431L338 134H336.884V124.28H338.171V131.786L343.508 124.28H344.615ZM347.132 134L347.141 124.28H348.473V128.96L352.811 124.28H354.575L350.021 129.14L355.169 134H353.243L348.473 129.32V134H347.132ZM359.954 134.27C358.988 134.27 358.163 134.051 357.479 133.613C356.795 133.175 356.27 132.569 355.904 131.795C355.538 131.021 355.355 130.133 355.355 129.131C355.355 128.111 355.541 127.217 355.913 126.449C356.285 125.681 356.813 125.084 357.497 124.658C358.187 124.226 359.006 124.01 359.954 124.01C360.926 124.01 361.754 124.229 362.438 124.667C363.128 125.099 363.653 125.702 364.013 126.476C364.379 127.244 364.562 128.129 364.562 129.131C364.562 130.151 364.379 131.048 364.013 131.822C363.647 132.59 363.119 133.19 362.429 133.622C361.739 134.054 360.914 134.27 359.954 134.27ZM359.954 133.001C361.034 133.001 361.838 132.644 362.366 131.93C362.894 131.21 363.158 130.277 363.158 129.131C363.158 127.955 362.891 127.019 362.357 126.323C361.829 125.627 361.028 125.279 359.954 125.279C359.228 125.279 358.628 125.444 358.154 125.774C357.686 126.098 357.335 126.551 357.101 127.133C356.873 127.709 356.759 128.375 356.759 129.131C356.759 130.301 357.029 131.24 357.569 131.948C358.109 132.65 358.904 133.001 359.954 133.001ZM366.538 134V124.28H367.717L371.506 132.236L375.304 124.28H376.474V134H375.196V127.106L371.929 134H371.092L367.825 127.106V134H366.538ZM21.251 156L21.26 146.28H22.592V150.96L26.93 146.28H28.694L24.14 151.14L29.288 156H27.362L22.592 151.32V156H21.251ZM29.1139 156V154.839C29.4739 154.905 29.7469 154.89 29.9329 154.794C30.1249 154.692 30.2659 154.524 30.3559 154.29C30.4459 154.05 30.5209 153.753 30.5809 153.399C30.6769 152.811 30.7639 152.163 30.8419 151.455C30.9199 150.747 30.9889 149.967 31.0489 149.115C31.1149 148.257 31.1809 147.312 31.2469 146.28H37.8529V156H36.5389V147.549H32.4709C32.4289 148.185 32.3809 148.818 32.3269 149.448C32.2729 150.078 32.2159 150.684 32.1559 151.266C32.1019 151.842 32.0419 152.373 31.9759 152.859C31.9099 153.345 31.8409 153.765 31.7689 154.119C31.6609 154.653 31.5169 155.079 31.3369 155.397C31.1629 155.715 30.9019 155.925 30.5539 156.027C30.2059 156.129 29.7259 156.12 29.1139 156ZM48.0894 146.28V156H46.8024V148.431L41.4744 156H40.3584V146.28H41.6454V153.786L46.9824 146.28H48.0894ZM54.7285 156.27C53.7805 156.27 52.9585 156.06 52.2625 155.64C51.5725 155.22 51.0355 154.629 50.6515 153.867C50.2675 153.105 50.0755 152.211 50.0755 151.185C50.0755 150.123 50.2645 149.205 50.6425 148.431C51.0205 147.657 51.5515 147.06 52.2355 146.64C52.9255 146.22 53.7385 146.01 54.6745 146.01C55.6345 146.01 56.4535 146.232 57.1315 146.676C57.8095 147.114 58.3225 147.744 58.6705 148.566C59.0185 149.388 59.1775 150.369 59.1475 151.509H57.7975V151.041C57.7735 149.781 57.5005 148.83 56.9785 148.188C56.4625 147.546 55.7065 147.225 54.7105 147.225C53.6665 147.225 52.8655 147.564 52.3075 148.242C51.7555 148.92 51.4795 149.886 51.4795 151.14C51.4795 152.364 51.7555 153.315 52.3075 153.993C52.8655 154.665 53.6545 155.001 54.6745 155.001C55.3705 155.001 55.9765 154.842 56.4925 154.524C57.0145 154.2 57.4255 153.735 57.7255 153.129L58.9585 153.606C58.5745 154.452 58.0075 155.109 57.2575 155.577C56.5135 156.039 55.6705 156.27 54.7285 156.27ZM51.0115 151.509V150.402H58.4365V151.509H51.0115ZM61.1358 156V146.28H62.4588V150.501H67.9398V146.28H69.2628V156H67.9398V151.77H62.4588V156H61.1358ZM74.4165 156V147.504H70.9695V146.28H79.1865V147.504H75.7395V156H74.4165ZM84.7858 156.27C83.8198 156.27 82.9948 156.051 82.3108 155.613C81.6268 155.175 81.1018 154.569 80.7358 153.795C80.3698 153.021 80.1868 152.133 80.1868 151.131C80.1868 150.111 80.3728 149.217 80.7448 148.449C81.1168 147.681 81.6448 147.084 82.3288 146.658C83.0188 146.226 83.8378 146.01 84.7858 146.01C85.7578 146.01 86.5858 146.229 87.2698 146.667C87.9598 147.099 88.4848 147.702 88.8448 148.476C89.2108 149.244 89.3938 150.129 89.3938 151.131C89.3938 152.151 89.2108 153.048 88.8448 153.822C88.4788 154.59 87.9508 155.19 87.2608 155.622C86.5708 156.054 85.7458 156.27 84.7858 156.27ZM84.7858 155.001C85.8658 155.001 86.6698 154.644 87.1978 153.93C87.7258 153.21 87.9898 152.277 87.9898 151.131C87.9898 149.955 87.7228 149.019 87.1888 148.323C86.6608 147.627 85.8598 147.279 84.7858 147.279C84.0598 147.279 83.4598 147.444 82.9858 147.774C82.5178 148.098 82.1668 148.551 81.9328 149.133C81.7048 149.709 81.5908 150.375 81.5908 151.131C81.5908 152.301 81.8608 153.24 82.4008 153.948C82.9408 154.65 83.7358 155.001 84.7858 155.001ZM91.3701 156V146.28H95.3751C95.5791 146.28 95.8251 146.292 96.1131 146.316C96.4071 146.34 96.6801 146.385 96.9321 146.451C97.4781 146.595 97.9161 146.889 98.2461 147.333C98.5821 147.777 98.7501 148.311 98.7501 148.935C98.7501 149.283 98.6961 149.595 98.5881 149.871C98.4861 150.141 98.3391 150.375 98.1471 150.573C98.0571 150.675 97.9581 150.765 97.8501 150.843C97.7421 150.915 97.6371 150.975 97.5351 151.023C97.7271 151.059 97.9341 151.143 98.1561 151.275C98.5041 151.479 98.7681 151.755 98.9481 152.103C99.1281 152.445 99.2181 152.862 99.2181 153.354C99.2181 154.02 99.0591 154.563 98.7411 154.983C98.4231 155.403 97.9971 155.691 97.4631 155.847C97.2231 155.913 96.9621 155.955 96.6801 155.973C96.4041 155.991 96.1431 156 95.8971 156H91.3701ZM92.7021 154.875H95.8341C95.9601 154.875 96.1191 154.866 96.3111 154.848C96.5031 154.824 96.6741 154.794 96.8241 154.758C97.1781 154.668 97.4361 154.488 97.5981 154.218C97.7661 153.942 97.8501 153.642 97.8501 153.318C97.8501 152.892 97.7241 152.544 97.4721 152.274C97.2261 151.998 96.8961 151.83 96.4821 151.77C96.3441 151.74 96.2001 151.722 96.0501 151.716C95.9001 151.71 95.7651 151.707 95.6451 151.707H92.7021V154.875ZM92.7021 150.573H95.4201C95.5761 150.573 95.7501 150.564 95.9421 150.546C96.1401 150.522 96.3111 150.483 96.4551 150.429C96.7671 150.321 96.9951 150.135 97.1391 149.871C97.2891 149.607 97.3641 149.319 97.3641 149.007C97.3641 148.665 97.2831 148.365 97.1211 148.107C96.9651 147.849 96.7281 147.669 96.4101 147.567C96.1941 147.489 95.9601 147.444 95.7081 147.432C95.4621 147.42 95.3061 147.414 95.2401 147.414H92.7021V150.573ZM112.337 146.28V156H111.05V148.431L105.722 156H104.606V146.28H105.893V153.786L111.23 146.28H112.337ZM118.365 156.27C117.387 156.27 116.532 156.057 115.8 155.631C115.074 155.199 114.501 154.602 114.081 153.84L115.143 153.165C115.497 153.765 115.938 154.221 116.466 154.533C116.994 154.845 117.6 155.001 118.284 155.001C118.998 155.001 119.571 154.836 120.003 154.506C120.435 154.176 120.651 153.723 120.651 153.147C120.651 152.751 120.558 152.436 120.372 152.202C120.192 151.968 119.916 151.8 119.544 151.698C119.178 151.596 118.719 151.545 118.167 151.545H117.015V150.411H118.149C118.821 150.411 119.361 150.291 119.769 150.051C120.183 149.805 120.39 149.421 120.39 148.899C120.39 148.347 120.183 147.939 119.769 147.675C119.361 147.405 118.872 147.27 118.302 147.27C117.726 147.27 117.18 147.39 116.664 147.63C116.154 147.864 115.725 148.167 115.377 148.539L114.531 147.648C115.017 147.114 115.584 146.709 116.232 146.433C116.886 146.151 117.609 146.01 118.401 146.01C119.025 146.01 119.589 146.121 120.093 146.343C120.603 146.559 121.005 146.877 121.299 147.297C121.599 147.717 121.749 148.221 121.749 148.809C121.749 149.361 121.614 149.838 121.344 150.24C121.08 150.642 120.705 150.975 120.219 151.239L120.147 150.744C120.567 150.822 120.915 150.99 121.191 151.248C121.467 151.506 121.671 151.815 121.803 152.175C121.935 152.535 122.001 152.901 122.001 153.273C122.001 153.891 121.839 154.425 121.515 154.875C121.197 155.319 120.762 155.664 120.21 155.91C119.664 156.15 119.049 156.27 118.365 156.27ZM136.419 156H135.105V151.077H130.794L130.335 150.969C129.375 150.783 128.637 150.33 128.121 149.61C127.605 148.89 127.347 148.041 127.347 147.063C127.347 146.385 127.47 145.767 127.716 145.209C127.962 144.651 128.319 144.189 128.787 143.823C129.261 143.451 129.834 143.214 130.506 143.112C130.674 143.082 130.836 143.064 130.992 143.058C131.148 143.046 131.289 143.04 131.415 143.04H136.419V156ZM128.571 156H127.05L129.858 150.24L131.127 150.726L128.571 156ZM135.105 149.817V144.309H131.451C131.349 144.309 131.223 144.315 131.073 144.327C130.929 144.333 130.788 144.351 130.65 144.381C130.206 144.477 129.84 144.66 129.552 144.93C129.27 145.2 129.06 145.524 128.922 145.902C128.784 146.274 128.715 146.661 128.715 147.063C128.715 147.465 128.784 147.852 128.922 148.224C129.06 148.596 129.27 148.917 129.552 149.187C129.84 149.457 130.206 149.64 130.65 149.736C130.788 149.766 130.929 149.787 131.073 149.799C131.223 149.811 131.349 149.817 131.451 149.817H135.105ZM138.937 156V146.28H140.26V150.501H145.741V146.28H147.064V156H145.741V151.77H140.26V156H138.937ZM148.86 158.16V154.866C149.412 154.866 149.808 154.689 150.048 154.335C150.288 153.975 150.483 153.402 150.633 152.616C150.735 152.106 150.819 151.557 150.885 150.969C150.951 150.381 151.008 149.709 151.056 148.953C151.104 148.191 151.149 147.3 151.191 146.28H157.617V154.866H158.553V158.16H157.275V156H150.129V158.16H148.86ZM151.101 154.866H156.303V147.414H152.415C152.397 147.87 152.37 148.353 152.334 148.863C152.304 149.373 152.265 149.883 152.217 150.393C152.175 150.903 152.124 151.383 152.064 151.833C152.01 152.277 151.944 152.667 151.866 153.003C151.776 153.435 151.677 153.804 151.569 154.11C151.467 154.416 151.311 154.668 151.101 154.866ZM164.469 156.27C163.521 156.27 162.699 156.06 162.003 155.64C161.313 155.22 160.776 154.629 160.392 153.867C160.008 153.105 159.816 152.211 159.816 151.185C159.816 150.123 160.005 149.205 160.383 148.431C160.761 147.657 161.292 147.06 161.976 146.64C162.666 146.22 163.479 146.01 164.415 146.01C165.375 146.01 166.194 146.232 166.872 146.676C167.55 147.114 168.063 147.744 168.411 148.566C168.759 149.388 168.918 150.369 168.888 151.509H167.538V151.041C167.514 149.781 167.241 148.83 166.719 148.188C166.203 147.546 165.447 147.225 164.451 147.225C163.407 147.225 162.606 147.564 162.048 148.242C161.496 148.92 161.22 149.886 161.22 151.14C161.22 152.364 161.496 153.315 162.048 153.993C162.606 154.665 163.395 155.001 164.415 155.001C165.111 155.001 165.717 154.842 166.233 154.524C166.755 154.2 167.166 153.735 167.466 153.129L168.699 153.606C168.315 154.452 167.748 155.109 166.998 155.577C166.254 156.039 165.411 156.27 164.469 156.27ZM160.752 151.509V150.402H168.177V151.509H160.752ZM170.876 156L170.885 146.28H172.217V150.96L176.555 146.28H178.319L173.765 151.14L178.913 156H176.987L172.217 151.32V156H170.876ZM183.671 156.27C182.693 156.27 181.865 156.051 181.187 155.613C180.509 155.175 179.993 154.572 179.639 153.804C179.291 153.03 179.111 152.142 179.099 151.14C179.111 150.12 179.297 149.226 179.657 148.458C180.017 147.684 180.536 147.084 181.214 146.658C181.892 146.226 182.714 146.01 183.68 146.01C184.664 146.01 185.519 146.25 186.245 146.73C186.977 147.21 187.478 147.867 187.748 148.701L186.452 149.115C186.224 148.533 185.861 148.083 185.363 147.765C184.871 147.441 184.307 147.279 183.671 147.279C182.957 147.279 182.366 147.444 181.898 147.774C181.43 148.098 181.082 148.551 180.854 149.133C180.626 149.715 180.509 150.384 180.503 151.14C180.515 152.304 180.785 153.24 181.313 153.948C181.841 154.65 182.627 155.001 183.671 155.001C184.331 155.001 184.892 154.851 185.354 154.551C185.822 154.245 186.176 153.801 186.416 153.219L187.748 153.615C187.388 154.479 186.86 155.139 186.164 155.595C185.468 156.045 184.637 156.27 183.671 156.27ZM192.334 156.27C191.602 156.27 190.987 156.138 190.489 155.874C189.997 155.61 189.628 155.259 189.382 154.821C189.136 154.383 189.013 153.906 189.013 153.39C189.013 152.862 189.118 152.412 189.328 152.04C189.544 151.662 189.835 151.353 190.201 151.113C190.573 150.873 191.002 150.69 191.488 150.564C191.98 150.444 192.523 150.339 193.117 150.249C193.717 150.153 194.302 150.072 194.872 150.006C195.448 149.934 195.952 149.865 196.384 149.799L195.916 150.087C195.934 149.127 195.748 148.416 195.358 147.954C194.968 147.492 194.29 147.261 193.324 147.261C192.658 147.261 192.094 147.411 191.632 147.711C191.176 148.011 190.855 148.485 190.669 149.133L189.382 148.755C189.604 147.885 190.051 147.21 190.723 146.73C191.395 146.25 192.268 146.01 193.342 146.01C194.23 146.01 194.983 146.178 195.601 146.514C196.225 146.844 196.666 147.324 196.924 147.954C197.044 148.236 197.122 148.551 197.158 148.899C197.194 149.247 197.212 149.601 197.212 149.961V156H196.033V153.561L196.375 153.705C196.045 154.539 195.532 155.175 194.836 155.613C194.14 156.051 193.306 156.27 192.334 156.27ZM192.487 155.127C193.105 155.127 193.645 155.016 194.107 154.794C194.569 154.572 194.941 154.269 195.223 153.885C195.505 153.495 195.688 153.057 195.772 152.571C195.844 152.259 195.883 151.917 195.889 151.545C195.895 151.167 195.898 150.885 195.898 150.699L196.402 150.96C195.952 151.02 195.463 151.08 194.935 151.14C194.413 151.2 193.897 151.269 193.387 151.347C192.883 151.425 192.427 151.518 192.019 151.626C191.743 151.704 191.476 151.815 191.218 151.959C190.96 152.097 190.747 152.283 190.579 152.517C190.417 152.751 190.336 153.042 190.336 153.39C190.336 153.672 190.405 153.945 190.543 154.209C190.687 154.473 190.915 154.692 191.227 154.866C191.545 155.04 191.965 155.127 192.487 155.127ZM210.88 146.28V156H209.593V148.431L204.265 156H203.149V146.28H204.436V153.786L209.773 146.28H210.88ZM222.203 156.27C221.291 156.27 220.469 156.111 219.737 155.793C219.005 155.475 218.381 155.022 217.865 154.434C217.355 153.846 216.965 153.138 216.695 152.31C216.425 151.476 216.29 150.546 216.29 149.52C216.29 148.164 216.524 146.982 216.992 145.974C217.466 144.96 218.144 144.174 219.026 143.616C219.908 143.058 220.967 142.779 222.203 142.779C223.583 142.779 224.705 143.103 225.569 143.751C226.439 144.393 227.045 145.257 227.387 146.343L226.055 146.667C225.773 145.875 225.308 145.242 224.66 144.768C224.018 144.294 223.217 144.057 222.257 144.057C221.243 144.051 220.4 144.279 219.728 144.741C219.056 145.197 218.549 145.839 218.207 146.667C217.871 147.489 217.7 148.44 217.694 149.52C217.688 150.6 217.853 151.551 218.189 152.373C218.531 153.189 219.041 153.831 219.719 154.299C220.397 154.761 221.243 154.995 222.257 155.001C223.187 155.001 223.955 154.821 224.561 154.461C225.167 154.101 225.626 153.585 225.938 152.913C226.256 152.241 226.436 151.446 226.478 150.528H223.49V149.394H227.864C227.882 149.532 227.891 149.679 227.891 149.835C227.897 149.985 227.9 150.093 227.9 150.159C227.9 151.329 227.69 152.376 227.27 153.3C226.85 154.218 226.217 154.944 225.371 155.478C224.531 156.006 223.475 156.27 222.203 156.27ZM233.76 156.27C232.794 156.27 231.969 156.051 231.285 155.613C230.601 155.175 230.076 154.569 229.71 153.795C229.344 153.021 229.161 152.133 229.161 151.131C229.161 150.111 229.347 149.217 229.719 148.449C230.091 147.681 230.619 147.084 231.303 146.658C231.993 146.226 232.812 146.01 233.76 146.01C234.732 146.01 235.56 146.229 236.244 146.667C236.934 147.099 237.459 147.702 237.819 148.476C238.185 149.244 238.368 150.129 238.368 151.131C238.368 152.151 238.185 153.048 237.819 153.822C237.453 154.59 236.925 155.19 236.235 155.622C235.545 156.054 234.72 156.27 233.76 156.27ZM233.76 155.001C234.84 155.001 235.644 154.644 236.172 153.93C236.7 153.21 236.964 152.277 236.964 151.131C236.964 149.955 236.697 149.019 236.163 148.323C235.635 147.627 234.834 147.279 233.76 147.279C233.034 147.279 232.434 147.444 231.96 147.774C231.492 148.098 231.141 148.551 230.907 149.133C230.679 149.709 230.565 150.375 230.565 151.131C230.565 152.301 230.835 153.24 231.375 153.948C231.915 154.65 232.71 155.001 233.76 155.001ZM244.413 156.27C243.447 156.27 242.622 156.051 241.938 155.613C241.254 155.175 240.729 154.569 240.363 153.795C239.997 153.021 239.814 152.133 239.814 151.131C239.814 150.111 240 149.217 240.372 148.449C240.744 147.681 241.272 147.084 241.956 146.658C242.646 146.226 243.465 146.01 244.413 146.01C245.385 146.01 246.213 146.229 246.897 146.667C247.587 147.099 248.112 147.702 248.472 148.476C248.838 149.244 249.021 150.129 249.021 151.131C249.021 152.151 248.838 153.048 248.472 153.822C248.106 154.59 247.578 155.19 246.888 155.622C246.198 156.054 245.373 156.27 244.413 156.27ZM244.413 155.001C245.493 155.001 246.297 154.644 246.825 153.93C247.353 153.21 247.617 152.277 247.617 151.131C247.617 149.955 247.35 149.019 246.816 148.323C246.288 147.627 245.487 147.279 244.413 147.279C243.687 147.279 243.087 147.444 242.613 147.774C242.145 148.098 241.794 148.551 241.56 149.133C241.332 149.709 241.218 150.375 241.218 151.131C241.218 152.301 241.488 153.24 242.028 153.948C242.568 154.65 243.363 155.001 244.413 155.001ZM254.867 160.59C254.369 160.59 253.877 160.515 253.391 160.365C252.911 160.221 252.467 159.99 252.059 159.672C251.651 159.36 251.309 158.952 251.033 158.448L252.23 157.782C252.5 158.322 252.878 158.709 253.364 158.943C253.856 159.183 254.357 159.303 254.867 159.303C255.569 159.303 256.136 159.171 256.568 158.907C257.006 158.649 257.324 158.265 257.522 157.755C257.72 157.245 257.816 156.609 257.81 155.847V153.255H257.963V146.28H259.142V155.865C259.142 156.141 259.133 156.405 259.115 156.657C259.103 156.915 259.076 157.167 259.034 157.413C258.92 158.139 258.683 158.736 258.323 159.204C257.969 159.672 257.501 160.02 256.919 160.248C256.343 160.476 255.659 160.59 254.867 160.59ZM254.777 156.27C253.871 156.27 253.097 156.045 252.455 155.595C251.813 155.139 251.321 154.524 250.979 153.75C250.637 152.976 250.466 152.103 250.466 151.131C250.466 150.165 250.634 149.295 250.97 148.521C251.312 147.747 251.801 147.135 252.437 146.685C253.073 146.235 253.835 146.01 254.723 146.01C255.635 146.01 256.403 146.232 257.027 146.676C257.651 147.12 258.122 147.729 258.44 148.503C258.764 149.271 258.926 150.147 258.926 151.131C258.926 152.097 258.767 152.97 258.449 153.75C258.131 154.524 257.663 155.139 257.045 155.595C256.427 156.045 255.671 156.27 254.777 156.27ZM254.912 155.037C255.602 155.037 256.172 154.869 256.622 154.533C257.072 154.197 257.408 153.735 257.63 153.147C257.852 152.553 257.963 151.881 257.963 151.131C257.963 150.369 257.852 149.697 257.63 149.115C257.408 148.527 257.072 148.068 256.622 147.738C256.178 147.408 255.617 147.243 254.939 147.243C254.243 147.243 253.667 147.414 253.211 147.756C252.755 148.098 252.416 148.563 252.194 149.151C251.978 149.739 251.87 150.399 251.87 151.131C251.87 151.869 251.981 152.535 252.203 153.129C252.431 153.717 252.77 154.182 253.22 154.524C253.67 154.866 254.234 155.037 254.912 155.037ZM261.838 156V142.77H263.161V156H261.838ZM269.973 156.27C269.025 156.27 268.203 156.06 267.507 155.64C266.817 155.22 266.28 154.629 265.896 153.867C265.512 153.105 265.32 152.211 265.32 151.185C265.32 150.123 265.509 149.205 265.887 148.431C266.265 147.657 266.796 147.06 267.48 146.64C268.17 146.22 268.983 146.01 269.919 146.01C270.879 146.01 271.698 146.232 272.376 146.676C273.054 147.114 273.567 147.744 273.915 148.566C274.263 149.388 274.422 150.369 274.392 151.509H273.042V151.041C273.018 149.781 272.745 148.83 272.223 148.188C271.707 147.546 270.951 147.225 269.955 147.225C268.911 147.225 268.11 147.564 267.552 148.242C267 148.92 266.724 149.886 266.724 151.14C266.724 152.364 267 153.315 267.552 153.993C268.11 154.665 268.899 155.001 269.919 155.001C270.615 155.001 271.221 154.842 271.737 154.524C272.259 154.2 272.67 153.735 272.97 153.129L274.203 153.606C273.819 154.452 273.252 155.109 272.502 155.577C271.758 156.039 270.915 156.27 269.973 156.27ZM266.256 151.509V150.402H273.681V151.509H266.256ZM283.493 156.27C282.515 156.27 281.66 156.057 280.928 155.631C280.202 155.199 279.629 154.602 279.209 153.84L280.271 153.165C280.625 153.765 281.066 154.221 281.594 154.533C282.122 154.845 282.728 155.001 283.412 155.001C284.126 155.001 284.699 154.836 285.131 154.506C285.563 154.176 285.779 153.723 285.779 153.147C285.779 152.751 285.686 152.436 285.5 152.202C285.32 151.968 285.044 151.8 284.672 151.698C284.306 151.596 283.847 151.545 283.295 151.545H282.143V150.411H283.277C283.949 150.411 284.489 150.291 284.897 150.051C285.311 149.805 285.518 149.421 285.518 148.899C285.518 148.347 285.311 147.939 284.897 147.675C284.489 147.405 284 147.27 283.43 147.27C282.854 147.27 282.308 147.39 281.792 147.63C281.282 147.864 280.853 148.167 280.505 148.539L279.659 147.648C280.145 147.114 280.712 146.709 281.36 146.433C282.014 146.151 282.737 146.01 283.529 146.01C284.153 146.01 284.717 146.121 285.221 146.343C285.731 146.559 286.133 146.877 286.427 147.297C286.727 147.717 286.877 148.221 286.877 148.809C286.877 149.361 286.742 149.838 286.472 150.24C286.208 150.642 285.833 150.975 285.347 151.239L285.275 150.744C285.695 150.822 286.043 150.99 286.319 151.248C286.595 151.506 286.799 151.815 286.931 152.175C287.063 152.535 287.129 152.901 287.129 153.273C287.129 153.891 286.967 154.425 286.643 154.875C286.325 155.319 285.89 155.664 285.338 155.91C284.792 156.15 284.177 156.27 283.493 156.27ZM291.896 156.27C291.164 156.27 290.549 156.138 290.051 155.874C289.559 155.61 289.19 155.259 288.944 154.821C288.698 154.383 288.575 153.906 288.575 153.39C288.575 152.862 288.68 152.412 288.89 152.04C289.106 151.662 289.397 151.353 289.763 151.113C290.135 150.873 290.564 150.69 291.05 150.564C291.542 150.444 292.085 150.339 292.679 150.249C293.279 150.153 293.864 150.072 294.434 150.006C295.01 149.934 295.514 149.865 295.946 149.799L295.478 150.087C295.496 149.127 295.31 148.416 294.92 147.954C294.53 147.492 293.852 147.261 292.886 147.261C292.22 147.261 291.656 147.411 291.194 147.711C290.738 148.011 290.417 148.485 290.231 149.133L288.944 148.755C289.166 147.885 289.613 147.21 290.285 146.73C290.957 146.25 291.83 146.01 292.904 146.01C293.792 146.01 294.545 146.178 295.163 146.514C295.787 146.844 296.228 147.324 296.486 147.954C296.606 148.236 296.684 148.551 296.72 148.899C296.756 149.247 296.774 149.601 296.774 149.961V156H295.595V153.561L295.937 153.705C295.607 154.539 295.094 155.175 294.398 155.613C293.702 156.051 292.868 156.27 291.896 156.27ZM292.049 155.127C292.667 155.127 293.207 155.016 293.669 154.794C294.131 154.572 294.503 154.269 294.785 153.885C295.067 153.495 295.25 153.057 295.334 152.571C295.406 152.259 295.445 151.917 295.451 151.545C295.457 151.167 295.46 150.885 295.46 150.699L295.964 150.96C295.514 151.02 295.025 151.08 294.497 151.14C293.975 151.2 293.459 151.269 292.949 151.347C292.445 151.425 291.989 151.518 291.581 151.626C291.305 151.704 291.038 151.815 290.78 151.959C290.522 152.097 290.309 152.283 290.141 152.517C289.979 152.751 289.898 153.042 289.898 153.39C289.898 153.672 289.967 153.945 290.105 154.209C290.249 154.473 290.477 154.692 290.789 154.866C291.107 155.04 291.527 155.127 292.049 155.127ZM306.753 156.27C305.775 156.27 304.947 156.051 304.269 155.613C303.591 155.175 303.075 154.572 302.721 153.804C302.373 153.03 302.193 152.142 302.181 151.14C302.193 150.12 302.379 149.226 302.739 148.458C303.099 147.684 303.618 147.084 304.296 146.658C304.974 146.226 305.796 146.01 306.762 146.01C307.746 146.01 308.601 146.25 309.327 146.73C310.059 147.21 310.56 147.867 310.83 148.701L309.534 149.115C309.306 148.533 308.943 148.083 308.445 147.765C307.953 147.441 307.389 147.279 306.753 147.279C306.039 147.279 305.448 147.444 304.98 147.774C304.512 148.098 304.164 148.551 303.936 149.133C303.708 149.715 303.591 150.384 303.585 151.14C303.597 152.304 303.867 153.24 304.395 153.948C304.923 154.65 305.709 155.001 306.753 155.001C307.413 155.001 307.974 154.851 308.436 154.551C308.904 154.245 309.258 153.801 309.498 153.219L310.83 153.615C310.47 154.479 309.942 155.139 309.246 155.595C308.55 156.045 307.719 156.27 306.753 156.27ZM318.637 156V152.382C318.313 152.544 317.914 152.685 317.44 152.805C316.966 152.925 316.456 152.985 315.91 152.985C314.926 152.985 314.128 152.766 313.516 152.328C312.904 151.89 312.505 151.257 312.319 150.429C312.259 150.183 312.217 149.922 312.193 149.646C312.175 149.37 312.163 149.121 312.157 148.899C312.151 148.677 312.148 148.518 312.148 148.422V146.28H313.48V148.422C313.48 148.62 313.486 148.845 313.498 149.097C313.51 149.349 313.537 149.595 313.579 149.835C313.699 150.489 313.969 150.984 314.389 151.32C314.815 151.656 315.412 151.824 316.18 151.824C316.66 151.824 317.113 151.764 317.539 151.644C317.971 151.518 318.337 151.35 318.637 151.14V146.28H319.96V156H318.637ZM327.537 144.381V142.941H328.977V144.381H327.537ZM324.108 144.381V142.941H325.548V144.381H324.108ZM326.592 156.27C325.644 156.27 324.822 156.06 324.126 155.64C323.436 155.22 322.899 154.629 322.515 153.867C322.131 153.105 321.939 152.211 321.939 151.185C321.939 150.123 322.128 149.205 322.506 148.431C322.884 147.657 323.415 147.06 324.099 146.64C324.789 146.22 325.602 146.01 326.538 146.01C327.498 146.01 328.317 146.232 328.995 146.676C329.673 147.114 330.186 147.744 330.534 148.566C330.882 149.388 331.041 150.369 331.011 151.509H329.661V151.041C329.637 149.781 329.364 148.83 328.842 148.188C328.326 147.546 327.57 147.225 326.574 147.225C325.53 147.225 324.729 147.564 324.171 148.242C323.619 148.92 323.343 149.886 323.343 151.14C323.343 152.364 323.619 153.315 324.171 153.993C324.729 154.665 325.518 155.001 326.538 155.001C327.234 155.001 327.84 154.842 328.356 154.524C328.878 154.2 329.289 153.735 329.589 153.129L330.822 153.606C330.438 154.452 329.871 155.109 329.121 155.577C328.377 156.039 327.534 156.27 326.592 156.27ZM322.875 151.509V150.402H330.3V151.509H322.875ZM335.522 156V147.504H332.075V146.28H340.292V147.504H336.845V156H335.522ZM21.251 178V168.28H28.982V178H27.659V169.549H22.574V178H21.251ZM35.873 178.27C34.979 178.27 34.223 178.045 33.605 177.595C32.987 177.139 32.519 176.524 32.201 175.75C31.883 174.97 31.724 174.097 31.724 173.131C31.724 172.147 31.883 171.271 32.201 170.503C32.525 169.729 32.999 169.12 33.623 168.676C34.247 168.232 35.015 168.01 35.927 168.01C36.815 168.01 37.577 168.235 38.213 168.685C38.849 169.135 39.335 169.747 39.671 170.521C40.013 171.295 40.184 172.165 40.184 173.131C40.184 174.103 40.013 174.976 39.671 175.75C39.329 176.524 38.837 177.139 38.195 177.595C37.553 178.045 36.779 178.27 35.873 178.27ZM31.499 182.32V168.28H32.687V175.597H32.831V182.32H31.499ZM35.738 177.037C36.416 177.037 36.98 176.866 37.43 176.524C37.88 176.182 38.216 175.717 38.438 175.129C38.666 174.535 38.78 173.869 38.78 173.131C38.78 172.399 38.669 171.739 38.447 171.151C38.225 170.563 37.886 170.098 37.43 169.756C36.98 169.414 36.407 169.243 35.711 169.243C35.033 169.243 34.469 169.408 34.019 169.738C33.575 170.068 33.242 170.527 33.02 171.115C32.798 171.697 32.687 172.369 32.687 173.131C32.687 173.881 32.798 174.553 33.02 175.147C33.242 175.735 33.578 176.197 34.028 176.533C34.478 176.869 35.048 177.037 35.738 177.037ZM46.2194 178.27C45.2534 178.27 44.4284 178.051 43.7444 177.613C43.0604 177.175 42.5354 176.569 42.1694 175.795C41.8034 175.021 41.6204 174.133 41.6204 173.131C41.6204 172.111 41.8064 171.217 42.1784 170.449C42.5504 169.681 43.0784 169.084 43.7624 168.658C44.4524 168.226 45.2714 168.01 46.2194 168.01C47.1914 168.01 48.0194 168.229 48.7034 168.667C49.3934 169.099 49.9184 169.702 50.2784 170.476C50.6444 171.244 50.8274 172.129 50.8274 173.131C50.8274 174.151 50.6444 175.048 50.2784 175.822C49.9124 176.59 49.3844 177.19 48.6944 177.622C48.0044 178.054 47.1794 178.27 46.2194 178.27ZM46.2194 177.001C47.2994 177.001 48.1034 176.644 48.6314 175.93C49.1594 175.21 49.4234 174.277 49.4234 173.131C49.4234 171.955 49.1564 171.019 48.6224 170.323C48.0944 169.627 47.2934 169.279 46.2194 169.279C45.4934 169.279 44.8934 169.444 44.4194 169.774C43.9514 170.098 43.6004 170.551 43.3664 171.133C43.1384 171.709 43.0244 172.375 43.0244 173.131C43.0244 174.301 43.2944 175.24 43.8344 175.948C44.3744 176.65 45.1694 177.001 46.2194 177.001ZM52.0927 180.16V176.866C52.6447 176.866 53.0407 176.689 53.2807 176.335C53.5207 175.975 53.7157 175.402 53.8657 174.616C53.9677 174.106 54.0517 173.557 54.1177 172.969C54.1837 172.381 54.2407 171.709 54.2887 170.953C54.3367 170.191 54.3817 169.3 54.4237 168.28H60.8497V176.866H61.7857V180.16H60.5077V178H53.3617V180.16H52.0927ZM54.3337 176.866H59.5357V169.414H55.6477C55.6297 169.87 55.6027 170.353 55.5667 170.863C55.5367 171.373 55.4977 171.883 55.4497 172.393C55.4077 172.903 55.3567 173.383 55.2967 173.833C55.2427 174.277 55.1767 174.667 55.0987 175.003C55.0087 175.435 54.9097 175.804 54.8017 176.11C54.6997 176.416 54.5437 176.668 54.3337 176.866ZM64.9741 182.32L66.8551 177.217L66.8821 178.729L62.6251 168.28H64.0291L67.5211 177.019H66.9451L70.1671 168.28H71.5171L66.2971 182.32H64.9741ZM73.0713 178V168.28H74.2503L78.0393 176.236L81.8373 168.28H83.0073V178H81.7293V171.106L78.4623 178H77.6253L74.3583 171.106V178H73.0713ZM88.3066 178.27C87.5746 178.27 86.9596 178.138 86.4616 177.874C85.9696 177.61 85.6006 177.259 85.3546 176.821C85.1086 176.383 84.9856 175.906 84.9856 175.39C84.9856 174.862 85.0906 174.412 85.3006 174.04C85.5166 173.662 85.8076 173.353 86.1736 173.113C86.5456 172.873 86.9746 172.69 87.4606 172.564C87.9526 172.444 88.4956 172.339 89.0896 172.249C89.6896 172.153 90.2746 172.072 90.8446 172.006C91.4206 171.934 91.9246 171.865 92.3566 171.799L91.8886 172.087C91.9066 171.127 91.7206 170.416 91.3306 169.954C90.9406 169.492 90.2626 169.261 89.2966 169.261C88.6306 169.261 88.0666 169.411 87.6046 169.711C87.1486 170.011 86.8276 170.485 86.6416 171.133L85.3546 170.755C85.5766 169.885 86.0236 169.21 86.6956 168.73C87.3676 168.25 88.2406 168.01 89.3146 168.01C90.2026 168.01 90.9556 168.178 91.5736 168.514C92.1976 168.844 92.6386 169.324 92.8966 169.954C93.0166 170.236 93.0946 170.551 93.1306 170.899C93.1666 171.247 93.1846 171.601 93.1846 171.961V178H92.0056V175.561L92.3476 175.705C92.0176 176.539 91.5046 177.175 90.8086 177.613C90.1126 178.051 89.2786 178.27 88.3066 178.27ZM88.4596 177.127C89.0776 177.127 89.6176 177.016 90.0796 176.794C90.5416 176.572 90.9136 176.269 91.1956 175.885C91.4776 175.495 91.6606 175.057 91.7446 174.571C91.8166 174.259 91.8556 173.917 91.8616 173.545C91.8676 173.167 91.8706 172.885 91.8706 172.699L92.3746 172.96C91.9246 173.02 91.4356 173.08 90.9076 173.14C90.3856 173.2 89.8696 173.269 89.3596 173.347C88.8556 173.425 88.3996 173.518 87.9916 173.626C87.7156 173.704 87.4486 173.815 87.1906 173.959C86.9326 174.097 86.7196 174.283 86.5516 174.517C86.3896 174.751 86.3086 175.042 86.3086 175.39C86.3086 175.672 86.3776 175.945 86.5156 176.209C86.6596 176.473 86.8876 176.692 87.1996 176.866C87.5176 177.04 87.9376 177.127 88.4596 177.127ZM95.5186 178V168.28H96.8416V172.501H102.323V168.28H103.646V178H102.323V173.77H96.8416V178H95.5186ZM106.153 178V168.28H107.476V172.501H112.957V168.28H114.28V178H112.957V173.77H107.476V178H106.153ZM120.856 178.27C119.89 178.27 119.065 178.051 118.381 177.613C117.697 177.175 117.172 176.569 116.806 175.795C116.44 175.021 116.257 174.133 116.257 173.131C116.257 172.111 116.443 171.217 116.815 170.449C117.187 169.681 117.715 169.084 118.399 168.658C119.089 168.226 119.908 168.01 120.856 168.01C121.828 168.01 122.656 168.229 123.34 168.667C124.03 169.099 124.555 169.702 124.915 170.476C125.281 171.244 125.464 172.129 125.464 173.131C125.464 174.151 125.281 175.048 124.915 175.822C124.549 176.59 124.021 177.19 123.331 177.622C122.641 178.054 121.816 178.27 120.856 178.27ZM120.856 177.001C121.936 177.001 122.74 176.644 123.268 175.93C123.796 175.21 124.06 174.277 124.06 173.131C124.06 171.955 123.793 171.019 123.259 170.323C122.731 169.627 121.93 169.279 120.856 169.279C120.13 169.279 119.53 169.444 119.056 169.774C118.588 170.098 118.237 170.551 118.003 171.133C117.775 171.709 117.661 172.375 117.661 173.131C117.661 174.301 117.931 175.24 118.471 175.948C119.011 176.65 119.806 177.001 120.856 177.001ZM131.481 167.128C131.055 167.128 130.665 167.023 130.311 166.813C129.957 166.603 129.675 166.324 129.465 165.976C129.261 165.622 129.159 165.232 129.159 164.806H130.257C130.257 165.142 130.377 165.43 130.617 165.67C130.857 165.91 131.145 166.03 131.481 166.03C131.823 166.03 132.111 165.91 132.345 165.67C132.585 165.43 132.705 165.142 132.705 164.806H133.803C133.803 165.232 133.698 165.622 133.488 165.976C133.284 166.324 133.005 166.603 132.651 166.813C132.297 167.023 131.907 167.128 131.481 167.128ZM135.171 168.28V178H133.884V170.431L128.556 178H127.44V168.28H128.727V175.786L134.064 168.28H135.171ZM145.333 178.27C144.355 178.27 143.527 178.051 142.849 177.613C142.171 177.175 141.655 176.572 141.301 175.804C140.953 175.03 140.773 174.142 140.761 173.14C140.773 172.12 140.959 171.226 141.319 170.458C141.679 169.684 142.198 169.084 142.876 168.658C143.554 168.226 144.376 168.01 145.342 168.01C146.326 168.01 147.181 168.25 147.907 168.73C148.639 169.21 149.14 169.867 149.41 170.701L148.114 171.115C147.886 170.533 147.523 170.083 147.025 169.765C146.533 169.441 145.969 169.279 145.333 169.279C144.619 169.279 144.028 169.444 143.56 169.774C143.092 170.098 142.744 170.551 142.516 171.133C142.288 171.715 142.171 172.384 142.165 173.14C142.177 174.304 142.447 175.24 142.975 175.948C143.503 176.65 144.289 177.001 145.333 177.001C145.993 177.001 146.554 176.851 147.016 176.551C147.484 176.245 147.838 175.801 148.078 175.219L149.41 175.615C149.05 176.479 148.522 177.139 147.826 177.595C147.13 178.045 146.299 178.27 145.333 178.27ZM153.676 178V169.504H150.229V168.28H158.446V169.504H154.999V178H153.676ZM164.527 178.27C163.633 178.27 162.877 178.045 162.259 177.595C161.641 177.139 161.173 176.524 160.855 175.75C160.537 174.97 160.378 174.097 160.378 173.131C160.378 172.147 160.537 171.271 160.855 170.503C161.179 169.729 161.653 169.12 162.277 168.676C162.901 168.232 163.669 168.01 164.581 168.01C165.469 168.01 166.231 168.235 166.867 168.685C167.503 169.135 167.989 169.747 168.325 170.521C168.667 171.295 168.838 172.165 168.838 173.131C168.838 174.103 168.667 174.976 168.325 175.75C167.983 176.524 167.491 177.139 166.849 177.595C166.207 178.045 165.433 178.27 164.527 178.27ZM160.153 182.32V168.28H161.341V175.597H161.485V182.32H160.153ZM164.392 177.037C165.07 177.037 165.634 176.866 166.084 176.524C166.534 176.182 166.87 175.717 167.092 175.129C167.32 174.535 167.434 173.869 167.434 173.131C167.434 172.399 167.323 171.739 167.101 171.151C166.879 170.563 166.54 170.098 166.084 169.756C165.634 169.414 165.061 169.243 164.365 169.243C163.687 169.243 163.123 169.408 162.673 169.738C162.229 170.068 161.896 170.527 161.674 171.115C161.452 171.697 161.341 172.369 161.341 173.131C161.341 173.881 161.452 174.553 161.674 175.147C161.896 175.735 162.232 176.197 162.682 176.533C163.132 176.869 163.702 177.037 164.392 177.037ZM171.849 182.32L173.73 177.217L173.757 178.729L169.5 168.28H170.904L174.396 177.019H173.82L177.042 168.28H178.392L173.172 182.32H171.849ZM179.946 178L179.955 168.28H181.287V172.96L185.625 168.28H187.389L182.835 173.14L187.983 178H186.057L181.287 173.32V178H179.946ZM191.522 178V169.504H188.075V168.28H196.292V169.504H192.845V178H191.522ZM199.271 182.32L201.152 177.217L201.179 178.729L196.922 168.28H198.326L201.818 177.019H201.242L204.464 168.28H205.814L200.594 182.32H199.271ZM211.742 178.27C210.848 178.27 210.092 178.045 209.474 177.595C208.856 177.139 208.388 176.524 208.07 175.75C207.752 174.97 207.593 174.097 207.593 173.131C207.593 172.147 207.752 171.271 208.07 170.503C208.394 169.729 208.868 169.12 209.492 168.676C210.116 168.232 210.884 168.01 211.796 168.01C212.684 168.01 213.446 168.235 214.082 168.685C214.718 169.135 215.204 169.747 215.54 170.521C215.882 171.295 216.053 172.165 216.053 173.131C216.053 174.103 215.882 174.976 215.54 175.75C215.198 176.524 214.706 177.139 214.064 177.595C213.422 178.045 212.648 178.27 211.742 178.27ZM207.368 182.32V168.28H208.556V175.597H208.7V182.32H207.368ZM211.607 177.037C212.285 177.037 212.849 176.866 213.299 176.524C213.749 176.182 214.085 175.717 214.307 175.129C214.535 174.535 214.649 173.869 214.649 173.131C214.649 172.399 214.538 171.739 214.316 171.151C214.094 170.563 213.755 170.098 213.299 169.756C212.849 169.414 212.276 169.243 211.58 169.243C210.902 169.243 210.338 169.408 209.888 169.738C209.444 170.068 209.111 170.527 208.889 171.115C208.667 171.697 208.556 172.369 208.556 173.131C208.556 173.881 208.667 174.553 208.889 175.147C209.111 175.735 209.447 176.197 209.897 176.533C210.347 176.869 210.917 177.037 211.607 177.037ZM218.039 178L218.021 168.28H219.353V171.943H221.045C221.327 171.943 221.603 171.949 221.873 171.961C222.143 171.973 222.386 171.997 222.602 172.033C223.082 172.129 223.508 172.291 223.88 172.519C224.252 172.747 224.546 173.062 224.762 173.464C224.978 173.86 225.086 174.361 225.086 174.967C225.086 175.801 224.87 176.458 224.438 176.938C224.006 177.418 223.463 177.73 222.809 177.874C222.563 177.928 222.296 177.964 222.008 177.982C221.72 177.994 221.438 178 221.162 178H218.039ZM219.353 176.866H221.108C221.306 176.866 221.531 176.86 221.783 176.848C222.035 176.836 222.257 176.803 222.449 176.749C222.773 176.659 223.064 176.479 223.322 176.209C223.586 175.933 223.718 175.519 223.718 174.967C223.718 174.421 223.592 174.01 223.34 173.734C223.088 173.452 222.752 173.266 222.332 173.176C222.14 173.134 221.936 173.107 221.72 173.095C221.51 173.083 221.306 173.077 221.108 173.077H219.353V176.866ZM226.247 178V168.28H227.57V178H226.247ZM245.017 168.28V178H243.73V170.431L238.402 178H237.286V168.28H238.573V175.786L243.91 168.28H245.017ZM255.647 178.27C254.741 178.27 253.925 178.12 253.199 177.82C252.479 177.514 251.882 177.082 251.408 176.524C250.94 175.966 250.634 175.303 250.49 174.535L251.84 174.31C252.056 175.15 252.512 175.81 253.208 176.29C253.904 176.764 254.735 177.001 255.701 177.001C256.337 177.001 256.907 176.902 257.411 176.704C257.915 176.5 258.311 176.212 258.599 175.84C258.887 175.468 259.031 175.027 259.031 174.517C259.031 174.181 258.971 173.896 258.851 173.662C258.731 173.422 258.572 173.224 258.374 173.068C258.176 172.912 257.96 172.783 257.726 172.681C257.492 172.573 257.264 172.486 257.042 172.42L253.757 171.439C253.361 171.325 252.995 171.181 252.659 171.007C252.323 170.827 252.029 170.614 251.777 170.368C251.531 170.116 251.339 169.822 251.201 169.486C251.063 169.15 250.994 168.766 250.994 168.334C250.994 167.602 251.186 166.969 251.57 166.435C251.954 165.901 252.479 165.49 253.145 165.202C253.811 164.914 254.57 164.773 255.422 164.779C256.286 164.779 257.057 164.932 257.735 165.238C258.419 165.544 258.983 165.982 259.427 166.552C259.871 167.116 260.165 167.785 260.309 168.559L258.923 168.811C258.833 168.247 258.626 167.758 258.302 167.344C257.978 166.93 257.564 166.612 257.06 166.39C256.562 166.162 256.013 166.045 255.413 166.039C254.831 166.039 254.312 166.138 253.856 166.336C253.406 166.528 253.049 166.792 252.785 167.128C252.521 167.464 252.389 167.848 252.389 168.28C252.389 168.718 252.509 169.069 252.749 169.333C252.995 169.597 253.295 169.804 253.649 169.954C254.009 170.104 254.357 170.227 254.693 170.323L257.231 171.07C257.495 171.142 257.804 171.247 258.158 171.385C258.518 171.517 258.866 171.709 259.202 171.961C259.544 172.207 259.826 172.531 260.048 172.933C260.27 173.335 260.381 173.845 260.381 174.463C260.381 175.063 260.261 175.6 260.021 176.074C259.787 176.548 259.454 176.947 259.022 177.271C258.596 177.595 258.095 177.841 257.519 178.009C256.949 178.183 256.325 178.27 255.647 178.27ZM262.239 178V165.04H270.339V166.309H263.562V170.791H269.259V172.06H263.562V176.731H270.339V178H262.239ZM277.206 178.27C275.916 178.27 274.827 177.985 273.939 177.415C273.051 176.839 272.379 176.044 271.923 175.03C271.467 174.016 271.239 172.846 271.239 171.52C271.239 170.194 271.467 169.024 271.923 168.01C272.379 166.996 273.051 166.204 273.939 165.634C274.827 165.058 275.916 164.77 277.206 164.77C278.502 164.77 279.591 165.058 280.473 165.634C281.361 166.204 282.033 166.996 282.489 168.01C282.951 169.024 283.182 170.194 283.182 171.52C283.182 172.846 282.951 174.016 282.489 175.03C282.033 176.044 281.361 176.839 280.473 177.415C279.591 177.985 278.502 178.27 277.206 178.27ZM277.206 177.001C278.22 177.001 279.066 176.77 279.744 176.308C280.422 175.846 280.929 175.204 281.265 174.382C281.607 173.554 281.778 172.6 281.778 171.52C281.778 170.44 281.607 169.489 281.265 168.667C280.929 167.845 280.422 167.203 279.744 166.741C279.066 166.279 278.22 166.045 277.206 166.039C276.192 166.039 275.349 166.27 274.677 166.732C274.005 167.194 273.498 167.839 273.156 168.667C272.82 169.489 272.649 170.44 272.643 171.52C272.637 172.6 272.802 173.551 273.138 174.373C273.48 175.189 273.99 175.831 274.668 176.299C275.346 176.761 276.192 176.995 277.206 177.001ZM284.805 172.897V171.763H290.205V172.897H284.805ZM296.602 178.27C295.636 178.27 294.811 178.051 294.127 177.613C293.443 177.175 292.918 176.569 292.552 175.795C292.186 175.021 292.003 174.133 292.003 173.131C292.003 172.111 292.189 171.217 292.561 170.449C292.933 169.681 293.461 169.084 294.145 168.658C294.835 168.226 295.654 168.01 296.602 168.01C297.574 168.01 298.402 168.229 299.086 168.667C299.776 169.099 300.301 169.702 300.661 170.476C301.027 171.244 301.21 172.129 301.21 173.131C301.21 174.151 301.027 175.048 300.661 175.822C300.295 176.59 299.767 177.19 299.077 177.622C298.387 178.054 297.562 178.27 296.602 178.27ZM296.602 177.001C297.682 177.001 298.486 176.644 299.014 175.93C299.542 175.21 299.806 174.277 299.806 173.131C299.806 171.955 299.539 171.019 299.005 170.323C298.477 169.627 297.676 169.279 296.602 169.279C295.876 169.279 295.276 169.444 294.802 169.774C294.334 170.098 293.983 170.551 293.749 171.133C293.521 171.709 293.407 172.375 293.407 173.131C293.407 174.301 293.677 175.24 294.217 175.948C294.757 176.65 295.552 177.001 296.602 177.001ZM307.228 178.27C306.25 178.27 305.422 178.051 304.744 177.613C304.066 177.175 303.55 176.572 303.196 175.804C302.848 175.03 302.668 174.142 302.656 173.14C302.668 172.12 302.854 171.226 303.214 170.458C303.574 169.684 304.093 169.084 304.771 168.658C305.449 168.226 306.271 168.01 307.237 168.01C308.221 168.01 309.076 168.25 309.802 168.73C310.534 169.21 311.035 169.867 311.305 170.701L310.009 171.115C309.781 170.533 309.418 170.083 308.92 169.765C308.428 169.441 307.864 169.279 307.228 169.279C306.514 169.279 305.923 169.444 305.455 169.774C304.987 170.098 304.639 170.551 304.411 171.133C304.183 171.715 304.066 172.384 304.06 173.14C304.072 174.304 304.342 175.24 304.87 175.948C305.398 176.65 306.184 177.001 307.228 177.001C307.888 177.001 308.449 176.851 308.911 176.551C309.379 176.245 309.733 175.801 309.973 175.219L311.305 175.615C310.945 176.479 310.417 177.139 309.721 177.595C309.025 178.045 308.194 178.27 307.228 178.27ZM313.153 178V168.28H314.476V172.501H319.957V168.28H321.28V178H319.957V173.77H314.476V178H313.153ZM327.856 178.27C326.89 178.27 326.065 178.051 325.381 177.613C324.697 177.175 324.172 176.569 323.806 175.795C323.44 175.021 323.257 174.133 323.257 173.131C323.257 172.111 323.443 171.217 323.815 170.449C324.187 169.681 324.715 169.084 325.399 168.658C326.089 168.226 326.908 168.01 327.856 168.01C328.828 168.01 329.656 168.229 330.34 168.667C331.03 169.099 331.555 169.702 331.915 170.476C332.281 171.244 332.464 172.129 332.464 173.131C332.464 174.151 332.281 175.048 331.915 175.822C331.549 176.59 331.021 177.19 330.331 177.622C329.641 178.054 328.816 178.27 327.856 178.27ZM327.856 177.001C328.936 177.001 329.74 176.644 330.268 175.93C330.796 175.21 331.06 174.277 331.06 173.131C331.06 171.955 330.793 171.019 330.259 170.323C329.731 169.627 328.93 169.279 327.856 169.279C327.13 169.279 326.53 169.444 326.056 169.774C325.588 170.098 325.237 170.551 325.003 171.133C324.775 171.709 324.661 172.375 324.661 173.131C324.661 174.301 324.931 175.24 325.471 175.948C326.011 176.65 326.806 177.001 327.856 177.001ZM334.44 178V168.28H338.445C338.649 168.28 338.895 168.292 339.183 168.316C339.477 168.34 339.75 168.385 340.002 168.451C340.548 168.595 340.986 168.889 341.316 169.333C341.652 169.777 341.82 170.311 341.82 170.935C341.82 171.283 341.766 171.595 341.658 171.871C341.556 172.141 341.409 172.375 341.217 172.573C341.127 172.675 341.028 172.765 340.92 172.843C340.812 172.915 340.707 172.975 340.605 173.023C340.797 173.059 341.004 173.143 341.226 173.275C341.574 173.479 341.838 173.755 342.018 174.103C342.198 174.445 342.288 174.862 342.288 175.354C342.288 176.02 342.129 176.563 341.811 176.983C341.493 177.403 341.067 177.691 340.533 177.847C340.293 177.913 340.032 177.955 339.75 177.973C339.474 177.991 339.213 178 338.967 178H334.44ZM335.772 176.875H338.904C339.03 176.875 339.189 176.866 339.381 176.848C339.573 176.824 339.744 176.794 339.894 176.758C340.248 176.668 340.506 176.488 340.668 176.218C340.836 175.942 340.92 175.642 340.92 175.318C340.92 174.892 340.794 174.544 340.542 174.274C340.296 173.998 339.966 173.83 339.552 173.77C339.414 173.74 339.27 173.722 339.12 173.716C338.97 173.71 338.835 173.707 338.715 173.707H335.772V176.875ZM335.772 172.573H338.49C338.646 172.573 338.82 172.564 339.012 172.546C339.21 172.522 339.381 172.483 339.525 172.429C339.837 172.321 340.065 172.135 340.209 171.871C340.359 171.607 340.434 171.319 340.434 171.007C340.434 170.665 340.353 170.365 340.191 170.107C340.035 169.849 339.798 169.669 339.48 169.567C339.264 169.489 339.03 169.444 338.778 169.432C338.532 169.42 338.376 169.414 338.31 169.414H335.772V172.573ZM344.091 178L344.073 168.28H345.405V171.943H347.097C347.379 171.943 347.655 171.949 347.925 171.961C348.195 171.973 348.438 171.997 348.654 172.033C349.134 172.129 349.56 172.291 349.932 172.519C350.304 172.747 350.598 173.062 350.814 173.464C351.03 173.86 351.138 174.361 351.138 174.967C351.138 175.801 350.922 176.458 350.49 176.938C350.058 177.418 349.515 177.73 348.861 177.874C348.615 177.928 348.348 177.964 348.06 177.982C347.772 177.994 347.49 178 347.214 178H344.091ZM345.405 176.866H347.16C347.358 176.866 347.583 176.86 347.835 176.848C348.087 176.836 348.309 176.803 348.501 176.749C348.825 176.659 349.116 176.479 349.374 176.209C349.638 175.933 349.77 175.519 349.77 174.967C349.77 174.421 349.644 174.01 349.392 173.734C349.14 173.452 348.804 173.266 348.384 173.176C348.192 173.134 347.988 173.107 347.772 173.095C347.562 173.083 347.358 173.077 347.16 173.077H345.405V176.866ZM352.299 178V168.28H353.622V178H352.299ZM356.393 178V176.461H357.932V178H356.393Z" fill="#262626"/>
<path d="M105.836 46.134H108.838C109.041 47.9833 109.649 49.4147 110.662 50.428C111.675 51.416 113.018 51.91 114.69 51.91C115.501 51.91 116.235 51.7707 116.894 51.492C117.578 51.2133 118.161 50.8333 118.642 50.352C119.149 49.8453 119.541 49.25 119.82 48.566C120.099 47.882 120.238 47.1347 120.238 46.324C120.238 45.5893 120.124 44.9307 119.896 44.348C119.693 43.7653 119.339 43.246 118.832 42.79C118.351 42.334 117.705 41.916 116.894 41.536C116.109 41.156 115.133 40.8013 113.968 40.472C112.651 40.092 111.523 39.674 110.586 39.218C109.674 38.7367 108.927 38.2047 108.344 37.622C107.787 37.0393 107.381 36.368 107.128 35.608C106.875 34.848 106.748 33.974 106.748 32.986C106.748 31.8967 106.938 30.896 107.318 29.984C107.723 29.0467 108.268 28.2487 108.952 27.59C109.636 26.906 110.447 26.374 111.384 25.994C112.347 25.614 113.398 25.424 114.538 25.424C115.678 25.424 116.729 25.614 117.692 25.994C118.655 26.3487 119.478 26.8553 120.162 27.514C120.846 28.1727 121.378 28.9707 121.758 29.908C122.163 30.8453 122.379 31.884 122.404 33.024H119.478C119.377 31.504 118.87 30.288 117.958 29.376C117.071 28.464 115.906 28.008 114.462 28.008C113.043 28.008 111.878 28.4767 110.966 29.414C110.054 30.326 109.598 31.4913 109.598 32.91C109.598 33.518 109.687 34.0753 109.864 34.582C110.067 35.0633 110.383 35.5067 110.814 35.912C111.27 36.292 111.84 36.6467 112.524 36.976C113.233 37.3053 114.082 37.622 115.07 37.926C116.539 38.3567 117.781 38.838 118.794 39.37C119.807 39.8767 120.631 40.4593 121.264 41.118C121.897 41.7513 122.353 42.486 122.632 43.322C122.936 44.158 123.088 45.108 123.088 46.172C123.088 47.3627 122.873 48.4647 122.442 49.478C122.011 50.4913 121.416 51.378 120.656 52.138C119.921 52.8727 119.035 53.4553 117.996 53.886C116.957 54.2913 115.83 54.494 114.614 54.494C113.347 54.494 112.195 54.304 111.156 53.924C110.117 53.5187 109.205 52.9487 108.42 52.214C107.66 51.4793 107.052 50.6053 106.596 49.592C106.165 48.5533 105.912 47.4007 105.836 46.134ZM126.814 54V25.918H142.166V28.464H129.626V38.534H141.748V41.08H129.626V51.454H142.166V54H126.814ZM145.971 39.978C145.971 37.9513 146.363 36.064 147.149 34.316C147.934 32.5427 148.998 30.9973 150.341 29.68C151.709 28.3627 153.305 27.324 155.129 26.564C156.953 25.804 158.916 25.424 161.019 25.424C163.02 25.424 164.907 25.8167 166.681 26.602C168.454 27.362 169.999 28.4133 171.317 29.756C172.659 31.0733 173.711 32.6187 174.471 34.392C175.256 36.14 175.649 38.002 175.649 39.978C175.649 41.9793 175.256 43.8667 174.471 45.64C173.685 47.388 172.621 48.9207 171.279 50.238C169.936 51.5553 168.365 52.594 166.567 53.354C164.768 54.114 162.855 54.494 160.829 54.494C158.802 54.494 156.889 54.114 155.091 53.354C153.292 52.5687 151.709 51.5173 150.341 50.2C148.998 48.8827 147.934 47.35 147.149 45.602C146.363 43.8287 145.971 41.954 145.971 39.978ZM148.821 39.978C148.821 41.5993 149.137 43.1447 149.771 44.614C150.404 46.058 151.265 47.3247 152.355 48.414C153.444 49.478 154.711 50.3267 156.155 50.96C157.624 51.5933 159.182 51.91 160.829 51.91C162.475 51.91 164.021 51.5933 165.465 50.96C166.909 50.3267 168.175 49.478 169.265 48.414C170.354 47.3247 171.215 46.058 171.849 44.614C172.482 43.17 172.799 41.6373 172.799 40.016C172.799 38.344 172.482 36.786 171.849 35.342C171.215 33.8727 170.354 32.5933 169.265 31.504C168.175 30.4147 166.883 29.566 165.389 28.958C163.919 28.3247 162.349 28.008 160.677 28.008C159.081 28.008 157.561 28.3373 156.117 28.996C154.673 29.6293 153.406 30.4907 152.317 31.58C151.253 32.6693 150.404 33.936 149.771 35.38C149.137 36.824 148.821 38.3567 148.821 39.978Z" fill="#070707"/>
<rect width="68" height="68" rx="10" fill="#FF5C10"/>
<path fill-rule="evenodd" clip-rule="evenodd" d="M41.041 41.0403C38.3272 43.7541 34.7172 45.2494 30.8781 45.2494C27.039 45.2494 23.4316 43.7541 20.7178 41.0403C15.114 35.4365 15.114 26.3209 20.7178 20.7171C23.5197 17.9152 27.1976 16.5155 30.8781 16.5155C34.5586 16.5155 38.2391 17.9177 41.041 20.7171C46.6448 26.3209 46.6448 35.4365 41.041 41.0403ZM53.6331 51.8526L43.6666 41.8862C49.3762 35.2578 49.1043 25.2233 42.8208 18.9373C36.2377 12.3542 25.521 12.3542 18.938 18.9373C12.3524 25.5229 12.3524 36.237 18.938 42.8201C22.1275 46.0097 26.3669 47.7669 30.8781 47.7669C34.9664 47.7669 38.8256 46.3118 41.8868 43.666L51.8533 53.6325C52.1 53.8792 52.4222 54 52.742 54C53.0642 54 53.3864 53.8792 53.6331 53.6325C54.124 53.1416 54.124 52.3435 53.6331 51.8526Z" fill="white"/>
</svg>
