<svg width="440" height="220" viewBox="0 0 440 220" fill="none" xmlns="http://www.w3.org/2000/svg">
<path d="M430 0C435.523 0 440 4.47715 440 10V210C440 215.523 435.523 220 430 220H10C4.47715 220 1.61069e-07 215.523 0 210V95C0 89.4771 4.47715 85 10 85H75C80.5229 85 85 80.5229 85 75V10C85 4.47715 89.4771 0 95 0H430Z" fill="white"/>
<path d="M26.507 134.27C25.217 134.27 24.128 133.985 23.24 133.415C22.352 132.839 21.68 132.044 21.224 131.03C20.768 130.016 20.54 128.846 20.54 127.52C20.54 126.194 20.768 125.024 21.224 124.01C21.68 122.996 22.352 122.204 23.24 121.634C24.128 121.058 25.217 120.77 26.507 120.77C28.013 120.77 29.243 121.157 30.197 121.931C31.151 122.699 31.805 123.731 32.159 125.027L30.809 125.378C30.533 124.352 30.038 123.539 29.324 122.939C28.61 122.339 27.671 122.039 26.507 122.039C25.493 122.039 24.65 122.27 23.978 122.732C23.306 123.194 22.799 123.839 22.457 124.667C22.121 125.489 21.947 126.44 21.935 127.52C21.929 128.6 22.094 129.551 22.43 130.373C22.772 131.195 23.282 131.84 23.96 132.308C24.644 132.77 25.493 133.001 26.507 133.001C27.671 133.001 28.61 132.701 29.324 132.101C30.038 131.495 30.533 130.682 30.809 129.662L32.159 130.013C31.805 131.309 31.151 132.344 30.197 133.118C29.243 133.886 28.013 134.27 26.507 134.27ZM36.9258 134.27C36.1938 134.27 35.5788 134.138 35.0808 133.874C34.5888 133.61 34.2198 133.259 33.9738 132.821C33.7278 132.383 33.6048 131.906 33.6048 131.39C33.6048 130.862 33.7098 130.412 33.9198 130.04C34.1358 129.662 34.4268 129.353 34.7928 129.113C35.1648 128.873 35.5938 128.69 36.0798 128.564C36.5718 128.444 37.1148 128.339 37.7088 128.249C38.3088 128.153 38.8938 128.072 39.4638 128.006C40.0398 127.934 40.5438 127.865 40.9758 127.799L40.5078 128.087C40.5258 127.127 40.3398 126.416 39.9498 125.954C39.5598 125.492 38.8818 125.261 37.9158 125.261C37.2498 125.261 36.6858 125.411 36.2238 125.711C35.7678 126.011 35.4468 126.485 35.2608 127.133L33.9738 126.755C34.1958 125.885 34.6428 125.21 35.3148 124.73C35.9868 124.25 36.8598 124.01 37.9338 124.01C38.8218 124.01 39.5748 124.178 40.1928 124.514C40.8168 124.844 41.2578 125.324 41.5158 125.954C41.6358 126.236 41.7138 126.551 41.7498 126.899C41.7858 127.247 41.8038 127.601 41.8038 127.961V134H40.6248V131.561L40.9668 131.705C40.6368 132.539 40.1238 133.175 39.4278 133.613C38.7318 134.051 37.8978 134.27 36.9258 134.27ZM37.0788 133.127C37.6968 133.127 38.2368 133.016 38.6988 132.794C39.1608 132.572 39.5328 132.269 39.8148 131.885C40.0968 131.495 40.2798 131.057 40.3638 130.571C40.4358 130.259 40.4748 129.917 40.4808 129.545C40.4868 129.167 40.4898 128.885 40.4898 128.699L40.9938 128.96C40.5438 129.02 40.0548 129.08 39.5268 129.14C39.0048 129.2 38.4888 129.269 37.9788 129.347C37.4748 129.425 37.0188 129.518 36.6108 129.626C36.3348 129.704 36.0678 129.815 35.8098 129.959C35.5518 130.097 35.3388 130.283 35.1708 130.517C35.0088 130.751 34.9278 131.042 34.9278 131.39C34.9278 131.672 34.9968 131.945 35.1348 132.209C35.2788 132.473 35.5068 132.692 35.8188 132.866C36.1368 133.04 36.5568 133.127 37.0788 133.127ZM48.1787 123.128C47.7527 123.128 47.3627 123.023 47.0087 122.813C46.6547 122.603 46.3727 122.324 46.1627 121.976C45.9587 121.622 45.8567 121.232 45.8567 120.806H46.9547C46.9547 121.142 47.0747 121.43 47.3147 121.67C47.5547 121.91 47.8427 122.03 48.1787 122.03C48.5207 122.03 48.8087 121.91 49.0427 121.67C49.2827 121.43 49.4027 121.142 49.4027 120.806H50.5007C50.5007 121.232 50.3957 121.622 50.1857 121.976C49.9817 122.324 49.7027 122.603 49.3487 122.813C48.9947 123.023 48.6047 123.128 48.1787 123.128ZM51.8687 124.28V134H50.5817V126.431L45.2537 134H44.1377V124.28H45.4247V131.786L50.7617 124.28H51.8687ZM57.0318 134V125.504H53.5848V124.28H61.8018V125.504H58.3548V134H57.0318ZM61.8964 135.881L61.9774 135.224C62.2174 135.242 62.3914 135.194 62.4994 135.08C62.6074 134.966 62.6734 134.813 62.6974 134.621C62.7214 134.429 62.7274 134.222 62.7154 134H61.8964V132.101H63.4354V134.36C63.4354 134.912 63.2944 135.326 63.0124 135.602C62.7364 135.878 62.3644 135.971 61.8964 135.881ZM70.4522 134L70.4612 124.28H71.7932V128.96L76.1312 124.28H77.8952L73.3412 129.14L78.4892 134H76.5632L71.7932 129.32V134H70.4522ZM83.2741 134.27C82.3081 134.27 81.4831 134.051 80.7991 133.613C80.1151 133.175 79.5901 132.569 79.2241 131.795C78.8581 131.021 78.6751 130.133 78.6751 129.131C78.6751 128.111 78.8611 127.217 79.2331 126.449C79.6051 125.681 80.1331 125.084 80.8171 124.658C81.5071 124.226 82.3261 124.01 83.2741 124.01C84.2461 124.01 85.0741 124.229 85.7581 124.667C86.4481 125.099 86.9731 125.702 87.3331 126.476C87.6991 127.244 87.8821 128.129 87.8821 129.131C87.8821 130.151 87.6991 131.048 87.3331 131.822C86.9671 132.59 86.4391 133.19 85.7491 133.622C85.0591 134.054 84.2341 134.27 83.2741 134.27ZM83.2741 133.001C84.3541 133.001 85.1581 132.644 85.6861 131.93C86.2141 131.21 86.4781 130.277 86.4781 129.131C86.4781 127.955 86.2111 127.019 85.6771 126.323C85.1491 125.627 84.3481 125.279 83.2741 125.279C82.5481 125.279 81.9481 125.444 81.4741 125.774C81.0061 126.098 80.6551 126.551 80.4211 127.133C80.1931 127.709 80.0791 128.375 80.0791 129.131C80.0791 130.301 80.3491 131.24 80.8891 131.948C81.4291 132.65 82.2241 133.001 83.2741 133.001ZM92.2759 134V125.504H88.8289V124.28H97.0459V125.504H93.5989V134H92.2759ZM102.645 134.27C101.679 134.27 100.854 134.051 100.17 133.613C99.4862 133.175 98.9612 132.569 98.5952 131.795C98.2292 131.021 98.0462 130.133 98.0462 129.131C98.0462 128.111 98.2322 127.217 98.6042 126.449C98.9762 125.681 99.5042 125.084 100.188 124.658C100.878 124.226 101.697 124.01 102.645 124.01C103.617 124.01 104.445 124.229 105.129 124.667C105.819 125.099 106.344 125.702 106.704 126.476C107.07 127.244 107.253 128.129 107.253 129.131C107.253 130.151 107.07 131.048 106.704 131.822C106.338 132.59 105.81 133.19 105.12 133.622C104.43 134.054 103.605 134.27 102.645 134.27ZM102.645 133.001C103.725 133.001 104.529 132.644 105.057 131.93C105.585 131.21 105.849 130.277 105.849 129.131C105.849 127.955 105.582 127.019 105.048 126.323C104.52 125.627 103.719 125.279 102.645 125.279C101.919 125.279 101.319 125.444 100.845 125.774C100.377 126.098 100.026 126.551 99.7922 127.133C99.5642 127.709 99.4502 128.375 99.4502 129.131C99.4502 130.301 99.7202 131.24 100.26 131.948C100.8 132.65 101.595 133.001 102.645 133.001ZM113.604 134.27C112.71 134.27 111.954 134.045 111.336 133.595C110.718 133.139 110.25 132.524 109.932 131.75C109.614 130.97 109.455 130.097 109.455 129.131C109.455 128.147 109.614 127.271 109.932 126.503C110.256 125.729 110.73 125.12 111.354 124.676C111.978 124.232 112.746 124.01 113.658 124.01C114.546 124.01 115.308 124.235 115.944 124.685C116.58 125.135 117.066 125.747 117.402 126.521C117.744 127.295 117.915 128.165 117.915 129.131C117.915 130.103 117.744 130.976 117.402 131.75C117.06 132.524 116.568 133.139 115.926 133.595C115.284 134.045 114.51 134.27 113.604 134.27ZM109.23 138.32V124.28H110.418V131.597H110.562V138.32H109.23ZM113.469 133.037C114.147 133.037 114.711 132.866 115.161 132.524C115.611 132.182 115.947 131.717 116.169 131.129C116.397 130.535 116.511 129.869 116.511 129.131C116.511 128.399 116.4 127.739 116.178 127.151C115.956 126.563 115.617 126.098 115.161 125.756C114.711 125.414 114.138 125.243 113.442 125.243C112.764 125.243 112.2 125.408 111.75 125.738C111.306 126.068 110.973 126.527 110.751 127.115C110.529 127.697 110.418 128.369 110.418 129.131C110.418 129.881 110.529 130.553 110.751 131.147C110.973 131.735 111.309 132.197 111.759 132.533C112.209 132.869 112.779 133.037 113.469 133.037ZM119.9 134L119.882 124.28H121.214V127.943H122.906C123.188 127.943 123.464 127.949 123.734 127.961C124.004 127.973 124.247 127.997 124.463 128.033C124.943 128.129 125.369 128.291 125.741 128.519C126.113 128.747 126.407 129.062 126.623 129.464C126.839 129.86 126.947 130.361 126.947 130.967C126.947 131.801 126.731 132.458 126.299 132.938C125.867 133.418 125.324 133.73 124.67 133.874C124.424 133.928 124.157 133.964 123.869 133.982C123.581 133.994 123.299 134 123.023 134H119.9ZM121.214 132.866H122.969C123.167 132.866 123.392 132.86 123.644 132.848C123.896 132.836 124.118 132.803 124.31 132.749C124.634 132.659 124.925 132.479 125.183 132.209C125.447 131.933 125.579 131.519 125.579 130.967C125.579 130.421 125.453 130.01 125.201 129.734C124.949 129.452 124.613 129.266 124.193 129.176C124.001 129.134 123.797 129.107 123.581 129.095C123.371 129.083 123.167 129.077 122.969 129.077H121.214V132.866ZM128.108 134V124.28H129.431V134H128.108ZM135.981 123.128C135.555 123.128 135.165 123.023 134.811 122.813C134.457 122.603 134.175 122.324 133.965 121.976C133.761 121.622 133.659 121.232 133.659 120.806H134.757C134.757 121.142 134.877 121.43 135.117 121.67C135.357 121.91 135.645 122.03 135.981 122.03C136.323 122.03 136.611 121.91 136.845 121.67C137.085 121.43 137.205 121.142 137.205 120.806H138.303C138.303 121.232 138.198 121.622 137.988 121.976C137.784 122.324 137.505 122.603 137.151 122.813C136.797 123.023 136.407 123.128 135.981 123.128ZM139.671 124.28V134H138.384V126.431L133.056 134H131.94V124.28H133.227V131.786L138.564 124.28H139.671ZM145.792 134V124.28H153.523V134H152.2V125.549H147.115V134H145.792ZM160.108 134.27C159.142 134.27 158.317 134.051 157.633 133.613C156.949 133.175 156.424 132.569 156.058 131.795C155.692 131.021 155.509 130.133 155.509 129.131C155.509 128.111 155.695 127.217 156.067 126.449C156.439 125.681 156.967 125.084 157.651 124.658C158.341 124.226 159.16 124.01 160.108 124.01C161.08 124.01 161.908 124.229 162.592 124.667C163.282 125.099 163.807 125.702 164.167 126.476C164.533 127.244 164.716 128.129 164.716 129.131C164.716 130.151 164.533 131.048 164.167 131.822C163.801 132.59 163.273 133.19 162.583 133.622C161.893 134.054 161.068 134.27 160.108 134.27ZM160.108 133.001C161.188 133.001 161.992 132.644 162.52 131.93C163.048 131.21 163.312 130.277 163.312 129.131C163.312 127.955 163.045 127.019 162.511 126.323C161.983 125.627 161.182 125.279 160.108 125.279C159.382 125.279 158.782 125.444 158.308 125.774C157.84 126.098 157.489 126.551 157.255 127.133C157.027 127.709 156.913 128.375 156.913 129.131C156.913 130.301 157.183 131.24 157.723 131.948C158.263 132.65 159.058 133.001 160.108 133.001ZM166.692 134V124.28H174.423V134H173.1V125.549H168.015V134H166.692ZM179.73 134.27C178.998 134.27 178.383 134.138 177.885 133.874C177.393 133.61 177.024 133.259 176.778 132.821C176.532 132.383 176.409 131.906 176.409 131.39C176.409 130.862 176.514 130.412 176.724 130.04C176.94 129.662 177.231 129.353 177.597 129.113C177.969 128.873 178.398 128.69 178.884 128.564C179.376 128.444 179.919 128.339 180.513 128.249C181.113 128.153 181.698 128.072 182.268 128.006C182.844 127.934 183.348 127.865 183.78 127.799L183.312 128.087C183.33 127.127 183.144 126.416 182.754 125.954C182.364 125.492 181.686 125.261 180.72 125.261C180.054 125.261 179.49 125.411 179.028 125.711C178.572 126.011 178.251 126.485 178.065 127.133L176.778 126.755C177 125.885 177.447 125.21 178.119 124.73C178.791 124.25 179.664 124.01 180.738 124.01C181.626 124.01 182.379 124.178 182.997 124.514C183.621 124.844 184.062 125.324 184.32 125.954C184.44 126.236 184.518 126.551 184.554 126.899C184.59 127.247 184.608 127.601 184.608 127.961V134H183.429V131.561L183.771 131.705C183.441 132.539 182.928 133.175 182.232 133.613C181.536 134.051 180.702 134.27 179.73 134.27ZM179.883 133.127C180.501 133.127 181.041 133.016 181.503 132.794C181.965 132.572 182.337 132.269 182.619 131.885C182.901 131.495 183.084 131.057 183.168 130.571C183.24 130.259 183.279 129.917 183.285 129.545C183.291 129.167 183.294 128.885 183.294 128.699L183.798 128.96C183.348 129.02 182.859 129.08 182.331 129.14C181.809 129.2 181.293 129.269 180.783 129.347C180.279 129.425 179.823 129.518 179.415 129.626C179.139 129.704 178.872 129.815 178.614 129.959C178.356 130.097 178.143 130.283 177.975 130.517C177.813 130.751 177.732 131.042 177.732 131.39C177.732 131.672 177.801 131.945 177.939 132.209C178.083 132.473 178.311 132.692 178.623 132.866C178.941 133.04 179.361 133.127 179.883 133.127ZM186.231 136.16V132.866C186.783 132.866 187.179 132.689 187.419 132.335C187.659 131.975 187.854 131.402 188.004 130.616C188.106 130.106 188.19 129.557 188.256 128.969C188.322 128.381 188.379 127.709 188.427 126.953C188.475 126.191 188.52 125.3 188.562 124.28H194.988V132.866H195.924V136.16H194.646V134H187.5V136.16H186.231ZM188.472 132.866H193.674V125.414H189.786C189.768 125.87 189.741 126.353 189.705 126.863C189.675 127.373 189.636 127.883 189.588 128.393C189.546 128.903 189.495 129.383 189.435 129.833C189.381 130.277 189.315 130.667 189.237 131.003C189.147 131.435 189.048 131.804 188.94 132.11C188.838 132.416 188.682 132.668 188.472 132.866ZM200.508 134.27C199.776 134.27 199.161 134.138 198.663 133.874C198.171 133.61 197.802 133.259 197.556 132.821C197.31 132.383 197.187 131.906 197.187 131.39C197.187 130.862 197.292 130.412 197.502 130.04C197.718 129.662 198.009 129.353 198.375 129.113C198.747 128.873 199.176 128.69 199.662 128.564C200.154 128.444 200.697 128.339 201.291 128.249C201.891 128.153 202.476 128.072 203.046 128.006C203.622 127.934 204.126 127.865 204.558 127.799L204.09 128.087C204.108 127.127 203.922 126.416 203.532 125.954C203.142 125.492 202.464 125.261 201.498 125.261C200.832 125.261 200.268 125.411 199.806 125.711C199.35 126.011 199.029 126.485 198.843 127.133L197.556 126.755C197.778 125.885 198.225 125.21 198.897 124.73C199.569 124.25 200.442 124.01 201.516 124.01C202.404 124.01 203.157 124.178 203.775 124.514C204.399 124.844 204.84 125.324 205.098 125.954C205.218 126.236 205.296 126.551 205.332 126.899C205.368 127.247 205.386 127.601 205.386 127.961V134H204.207V131.561L204.549 131.705C204.219 132.539 203.706 133.175 203.01 133.613C202.314 134.051 201.48 134.27 200.508 134.27ZM200.661 133.127C201.279 133.127 201.819 133.016 202.281 132.794C202.743 132.572 203.115 132.269 203.397 131.885C203.679 131.495 203.862 131.057 203.946 130.571C204.018 130.259 204.057 129.917 204.063 129.545C204.069 129.167 204.072 128.885 204.072 128.699L204.576 128.96C204.126 129.02 203.637 129.08 203.109 129.14C202.587 129.2 202.071 129.269 201.561 129.347C201.057 129.425 200.601 129.518 200.193 129.626C199.917 129.704 199.65 129.815 199.392 129.959C199.134 130.097 198.921 130.283 198.753 130.517C198.591 130.751 198.51 131.042 198.51 131.39C198.51 131.672 198.579 131.945 198.717 132.209C198.861 132.473 199.089 132.692 199.401 132.866C199.719 133.04 200.139 133.127 200.661 133.127ZM211.842 134.27C210.894 134.27 210.072 134.06 209.376 133.64C208.686 133.22 208.149 132.629 207.765 131.867C207.381 131.105 207.189 130.211 207.189 129.185C207.189 128.123 207.378 127.205 207.756 126.431C208.134 125.657 208.665 125.06 209.349 124.64C210.039 124.22 210.852 124.01 211.788 124.01C212.748 124.01 213.567 124.232 214.245 124.676C214.923 125.114 215.436 125.744 215.784 126.566C216.132 127.388 216.291 128.369 216.261 129.509H214.911V129.041C214.887 127.781 214.614 126.83 214.092 126.188C213.576 125.546 212.82 125.225 211.824 125.225C210.78 125.225 209.979 125.564 209.421 126.242C208.869 126.92 208.593 127.886 208.593 129.14C208.593 130.364 208.869 131.315 209.421 131.993C209.979 132.665 210.768 133.001 211.788 133.001C212.484 133.001 213.09 132.842 213.606 132.524C214.128 132.2 214.539 131.735 214.839 131.129L216.072 131.606C215.688 132.452 215.121 133.109 214.371 133.577C213.627 134.039 212.784 134.27 211.842 134.27ZM208.125 129.509V128.402H215.55V129.509H208.125ZM220.772 134V125.504H217.325V124.28H225.542V125.504H222.095V134H220.772ZM230.853 134V124.28H234.858C235.062 124.28 235.308 124.292 235.596 124.316C235.89 124.34 236.163 124.385 236.415 124.451C236.961 124.595 237.399 124.889 237.729 125.333C238.065 125.777 238.233 126.311 238.233 126.935C238.233 127.283 238.179 127.595 238.071 127.871C237.969 128.141 237.822 128.375 237.63 128.573C237.54 128.675 237.441 128.765 237.333 128.843C237.225 128.915 237.12 128.975 237.018 129.023C237.21 129.059 237.417 129.143 237.639 129.275C237.987 129.479 238.251 129.755 238.431 130.103C238.611 130.445 238.701 130.862 238.701 131.354C238.701 132.02 238.542 132.563 238.224 132.983C237.906 133.403 237.48 133.691 236.946 133.847C236.706 133.913 236.445 133.955 236.163 133.973C235.887 133.991 235.626 134 235.38 134H230.853ZM232.185 132.875H235.317C235.443 132.875 235.602 132.866 235.794 132.848C235.986 132.824 236.157 132.794 236.307 132.758C236.661 132.668 236.919 132.488 237.081 132.218C237.249 131.942 237.333 131.642 237.333 131.318C237.333 130.892 237.207 130.544 236.955 130.274C236.709 129.998 236.379 129.83 235.965 129.77C235.827 129.74 235.683 129.722 235.533 129.716C235.383 129.71 235.248 129.707 235.128 129.707H232.185V132.875ZM232.185 128.573H234.903C235.059 128.573 235.233 128.564 235.425 128.546C235.623 128.522 235.794 128.483 235.938 128.429C236.25 128.321 236.478 128.135 236.622 127.871C236.772 127.607 236.847 127.319 236.847 127.007C236.847 126.665 236.766 126.365 236.604 126.107C236.448 125.849 236.211 125.669 235.893 125.567C235.677 125.489 235.443 125.444 235.191 125.432C234.945 125.42 234.789 125.414 234.723 125.414H232.185V128.573ZM248.157 134.27C247.191 134.27 246.366 134.051 245.682 133.613C244.998 133.175 244.473 132.569 244.107 131.795C243.741 131.021 243.558 130.133 243.558 129.131C243.558 128.111 243.744 127.217 244.116 126.449C244.488 125.681 245.016 125.084 245.7 124.658C246.39 124.226 247.209 124.01 248.157 124.01C249.129 124.01 249.957 124.229 250.641 124.667C251.331 125.099 251.856 125.702 252.216 126.476C252.582 127.244 252.765 128.129 252.765 129.131C252.765 130.151 252.582 131.048 252.216 131.822C251.85 132.59 251.322 133.19 250.632 133.622C249.942 134.054 249.117 134.27 248.157 134.27ZM248.157 133.001C249.237 133.001 250.041 132.644 250.569 131.93C251.097 131.21 251.361 130.277 251.361 129.131C251.361 127.955 251.094 127.019 250.56 126.323C250.032 125.627 249.231 125.279 248.157 125.279C247.431 125.279 246.831 125.444 246.357 125.774C245.889 126.098 245.538 126.551 245.304 127.133C245.076 127.709 244.962 128.375 244.962 129.131C244.962 130.301 245.232 131.24 245.772 131.948C246.312 132.65 247.107 133.001 248.157 133.001ZM257.159 134V125.504H253.712V124.28H261.929V125.504H258.482V134H257.159ZM263.636 134V124.28H267.641C267.845 124.28 268.091 124.292 268.379 124.316C268.673 124.34 268.946 124.385 269.198 124.451C269.744 124.595 270.182 124.889 270.512 125.333C270.848 125.777 271.016 126.311 271.016 126.935C271.016 127.283 270.962 127.595 270.854 127.871C270.752 128.141 270.605 128.375 270.413 128.573C270.323 128.675 270.224 128.765 270.116 128.843C270.008 128.915 269.903 128.975 269.801 129.023C269.993 129.059 270.2 129.143 270.422 129.275C270.77 129.479 271.034 129.755 271.214 130.103C271.394 130.445 271.484 130.862 271.484 131.354C271.484 132.02 271.325 132.563 271.007 132.983C270.689 133.403 270.263 133.691 269.729 133.847C269.489 133.913 269.228 133.955 268.946 133.973C268.67 133.991 268.409 134 268.163 134H263.636ZM264.968 132.875H268.1C268.226 132.875 268.385 132.866 268.577 132.848C268.769 132.824 268.94 132.794 269.09 132.758C269.444 132.668 269.702 132.488 269.864 132.218C270.032 131.942 270.116 131.642 270.116 131.318C270.116 130.892 269.99 130.544 269.738 130.274C269.492 129.998 269.162 129.83 268.748 129.77C268.61 129.74 268.466 129.722 268.316 129.716C268.166 129.71 268.031 129.707 267.911 129.707H264.968V132.875ZM264.968 128.573H267.686C267.842 128.573 268.016 128.564 268.208 128.546C268.406 128.522 268.577 128.483 268.721 128.429C269.033 128.321 269.261 128.135 269.405 127.871C269.555 127.607 269.63 127.319 269.63 127.007C269.63 126.665 269.549 126.365 269.387 126.107C269.231 125.849 268.994 125.669 268.676 125.567C268.46 125.489 268.226 125.444 267.974 125.432C267.728 125.42 267.572 125.414 267.506 125.414H264.968V128.573ZM277.391 134.27C276.443 134.27 275.621 134.06 274.925 133.64C274.235 133.22 273.698 132.629 273.314 131.867C272.93 131.105 272.738 130.211 272.738 129.185C272.738 128.123 272.927 127.205 273.305 126.431C273.683 125.657 274.214 125.06 274.898 124.64C275.588 124.22 276.401 124.01 277.337 124.01C278.297 124.01 279.116 124.232 279.794 124.676C280.472 125.114 280.985 125.744 281.333 126.566C281.681 127.388 281.84 128.369 281.81 129.509H280.46V129.041C280.436 127.781 280.163 126.83 279.641 126.188C279.125 125.546 278.369 125.225 277.373 125.225C276.329 125.225 275.528 125.564 274.97 126.242C274.418 126.92 274.142 127.886 274.142 129.14C274.142 130.364 274.418 131.315 274.97 131.993C275.528 132.665 276.317 133.001 277.337 133.001C278.033 133.001 278.639 132.842 279.155 132.524C279.677 132.2 280.088 131.735 280.388 131.129L281.621 131.606C281.237 132.452 280.67 133.109 279.92 133.577C279.176 134.039 278.333 134.27 277.391 134.27ZM273.674 129.509V128.402H281.099V129.509H273.674ZM286.321 134V125.504H282.874V124.28H291.091V125.504H287.644V134H286.321ZM292.816 134L292.798 124.28H294.13V127.943H295.822C296.104 127.943 296.38 127.949 296.65 127.961C296.92 127.973 297.163 127.997 297.379 128.033C297.859 128.129 298.285 128.291 298.657 128.519C299.029 128.747 299.323 129.062 299.539 129.464C299.755 129.86 299.863 130.361 299.863 130.967C299.863 131.801 299.647 132.458 299.215 132.938C298.783 133.418 298.24 133.73 297.586 133.874C297.34 133.928 297.073 133.964 296.785 133.982C296.497 133.994 296.215 134 295.939 134H292.816ZM294.13 132.866H295.885C296.083 132.866 296.308 132.86 296.56 132.848C296.812 132.836 297.034 132.803 297.226 132.749C297.55 132.659 297.841 132.479 298.099 132.209C298.363 131.933 298.495 131.519 298.495 130.967C298.495 130.421 298.369 130.01 298.117 129.734C297.865 129.452 297.529 129.266 297.109 129.176C296.917 129.134 296.713 129.107 296.497 129.095C296.287 129.083 296.083 129.077 295.885 129.077H294.13V132.866ZM301.024 134V124.28H302.347V134H301.024ZM313.662 134.27C312.75 134.27 311.928 134.111 311.196 133.793C310.464 133.475 309.84 133.022 309.324 132.434C308.814 131.846 308.424 131.138 308.154 130.31C307.884 129.476 307.749 128.546 307.749 127.52C307.749 126.164 307.983 124.982 308.451 123.974C308.925 122.96 309.603 122.174 310.485 121.616C311.367 121.058 312.426 120.779 313.662 120.779C315.042 120.779 316.164 121.103 317.028 121.751C317.898 122.393 318.504 123.257 318.846 124.343L317.514 124.667C317.232 123.875 316.767 123.242 316.119 122.768C315.477 122.294 314.676 122.057 313.716 122.057C312.702 122.051 311.859 122.279 311.187 122.741C310.515 123.197 310.008 123.839 309.666 124.667C309.33 125.489 309.159 126.44 309.153 127.52C309.147 128.6 309.312 129.551 309.648 130.373C309.99 131.189 310.5 131.831 311.178 132.299C311.856 132.761 312.702 132.995 313.716 133.001C314.646 133.001 315.414 132.821 316.02 132.461C316.626 132.101 317.085 131.585 317.397 130.913C317.715 130.241 317.895 129.446 317.937 128.528H314.949V127.394H319.323C319.341 127.532 319.35 127.679 319.35 127.835C319.356 127.985 319.359 128.093 319.359 128.159C319.359 129.329 319.149 130.376 318.729 131.3C318.309 132.218 317.676 132.944 316.83 133.478C315.99 134.006 314.934 134.27 313.662 134.27ZM321.16 134V121.04H326.164C326.29 121.04 326.431 121.046 326.587 121.058C326.749 121.064 326.911 121.082 327.073 121.112C327.751 121.214 328.324 121.451 328.792 121.823C329.266 122.189 329.623 122.651 329.863 123.209C330.109 123.767 330.232 124.385 330.232 125.063C330.232 125.735 330.109 126.35 329.863 126.908C329.617 127.466 329.257 127.931 328.783 128.303C328.315 128.669 327.745 128.903 327.073 129.005C326.911 129.029 326.749 129.047 326.587 129.059C326.431 129.071 326.29 129.077 326.164 129.077H322.483V134H321.16ZM322.483 127.817H326.128C326.236 127.817 326.362 127.811 326.506 127.799C326.65 127.787 326.791 127.766 326.929 127.736C327.373 127.64 327.736 127.457 328.018 127.187C328.306 126.917 328.519 126.596 328.657 126.224C328.801 125.852 328.873 125.465 328.873 125.063C328.873 124.661 328.801 124.274 328.657 123.902C328.519 123.524 328.306 123.2 328.018 122.93C327.736 122.66 327.373 122.477 326.929 122.381C326.791 122.351 326.65 122.333 326.506 122.327C326.362 122.315 326.236 122.309 326.128 122.309H322.483V127.817ZM335.471 134V122.309H330.944V121.04H341.321V122.309H336.794V134H335.471ZM340.791 135.881L340.872 135.224C341.112 135.242 341.286 135.194 341.394 135.08C341.502 134.966 341.568 134.813 341.592 134.621C341.616 134.429 341.622 134.222 341.61 134H340.791V132.101H342.33V134.36C342.33 134.912 342.189 135.326 341.907 135.602C341.631 135.878 341.259 135.971 340.791 135.881ZM348.456 134L352.92 121.04H354.675L359.139 134H357.762L353.523 121.778H354.045L349.833 134H348.456ZM350.445 130.859V129.617H357.141V130.859H350.445ZM359.864 134V132.839C360.224 132.905 360.497 132.89 360.683 132.794C360.875 132.692 361.016 132.524 361.106 132.29C361.196 132.05 361.271 131.753 361.331 131.399C361.427 130.811 361.514 130.163 361.592 129.455C361.67 128.747 361.739 127.967 361.799 127.115C361.865 126.257 361.931 125.312 361.997 124.28H368.603V134H367.289V125.549H363.221C363.179 126.185 363.131 126.818 363.077 127.448C363.023 128.078 362.966 128.684 362.906 129.266C362.852 129.842 362.792 130.373 362.726 130.859C362.66 131.345 362.591 131.765 362.519 132.119C362.411 132.653 362.267 133.079 362.087 133.397C361.913 133.715 361.652 133.925 361.304 134.027C360.956 134.129 360.476 134.12 359.864 134ZM378.839 124.28V134H377.552V126.431L372.224 134H371.108V124.28H372.395V131.786L377.732 124.28H378.839ZM385.397 134.27C384.419 134.27 383.591 134.051 382.913 133.613C382.235 133.175 381.719 132.572 381.365 131.804C381.017 131.03 380.837 130.142 380.825 129.14C380.837 128.12 381.023 127.226 381.383 126.458C381.743 125.684 382.262 125.084 382.94 124.658C383.618 124.226 384.44 124.01 385.406 124.01C386.39 124.01 387.245 124.25 387.971 124.73C388.703 125.21 389.204 125.867 389.474 126.701L388.178 127.115C387.95 126.533 387.587 126.083 387.089 125.765C386.597 125.441 386.033 125.279 385.397 125.279C384.683 125.279 384.092 125.444 383.624 125.774C383.156 126.098 382.808 126.551 382.58 127.133C382.352 127.715 382.235 128.384 382.229 129.14C382.241 130.304 382.511 131.24 383.039 131.948C383.567 132.65 384.353 133.001 385.397 133.001C386.057 133.001 386.618 132.851 387.08 132.551C387.548 132.245 387.902 131.801 388.142 131.219L389.474 131.615C389.114 132.479 388.586 133.139 387.89 133.595C387.194 134.045 386.363 134.27 385.397 134.27ZM391.341 134L391.323 124.28H392.655V127.943H394.347C394.629 127.943 394.905 127.949 395.175 127.961C395.445 127.973 395.688 127.997 395.904 128.033C396.384 128.129 396.81 128.291 397.182 128.519C397.554 128.747 397.848 129.062 398.064 129.464C398.28 129.86 398.388 130.361 398.388 130.967C398.388 131.801 398.172 132.458 397.74 132.938C397.308 133.418 396.765 133.73 396.111 133.874C395.865 133.928 395.598 133.964 395.31 133.982C395.022 133.994 394.74 134 394.464 134H391.341ZM392.655 132.866H394.41C394.608 132.866 394.833 132.86 395.085 132.848C395.337 132.836 395.559 132.803 395.751 132.749C396.075 132.659 396.366 132.479 396.624 132.209C396.888 131.933 397.02 131.519 397.02 130.967C397.02 130.421 396.894 130.01 396.642 129.734C396.39 129.452 396.054 129.266 395.634 129.176C395.442 129.134 395.238 129.107 395.022 129.095C394.812 129.083 394.608 129.077 394.41 129.077H392.655V132.866ZM399.549 134V124.28H400.872V134H399.549ZM414.716 124.28V134H413.429V126.431L408.101 134H406.985V124.28H408.272V131.786L413.609 124.28H414.716ZM20.36 156L24.824 143.04H26.579L31.043 156H29.666L25.427 143.778H25.949L21.737 156H20.36ZM22.349 152.859V151.617H29.045V152.859H22.349ZM32.8482 156V143.04H34.1712V156H32.8482ZM40.4639 156V146.28H48.1949V156H46.8719V147.549H41.7869V156H40.4639ZM54.7799 156.27C53.8139 156.27 52.9889 156.051 52.3049 155.613C51.6209 155.175 51.0959 154.569 50.7299 153.795C50.3639 153.021 50.1809 152.133 50.1809 151.131C50.1809 150.111 50.3669 149.217 50.7389 148.449C51.1109 147.681 51.6389 147.084 52.3229 146.658C53.0129 146.226 53.8319 146.01 54.7799 146.01C55.7519 146.01 56.5799 146.229 57.2639 146.667C57.9539 147.099 58.4789 147.702 58.8389 148.476C59.2049 149.244 59.3879 150.129 59.3879 151.131C59.3879 152.151 59.2049 153.048 58.8389 153.822C58.4729 154.59 57.9449 155.19 57.2549 155.622C56.5649 156.054 55.7399 156.27 54.7799 156.27ZM54.7799 155.001C55.8599 155.001 56.6639 154.644 57.1919 153.93C57.7199 153.21 57.9839 152.277 57.9839 151.131C57.9839 149.955 57.7169 149.019 57.1829 148.323C56.6549 147.627 55.8539 147.279 54.7799 147.279C54.0539 147.279 53.4539 147.444 52.9799 147.774C52.5119 148.098 52.1609 148.551 51.9269 149.133C51.6989 149.709 51.5849 150.375 51.5849 151.131C51.5849 152.301 51.8549 153.24 52.3949 153.948C52.9349 154.65 53.7299 155.001 54.7799 155.001ZM69.0953 146.28V156H67.8083V148.431L62.4803 156H61.3643V146.28H62.6513V153.786L67.9883 146.28H69.0953ZM75.6533 156.27C74.6753 156.27 73.8473 156.051 73.1693 155.613C72.4913 155.175 71.9753 154.572 71.6213 153.804C71.2733 153.03 71.0933 152.142 71.0813 151.14C71.0933 150.12 71.2793 149.226 71.6393 148.458C71.9993 147.684 72.5183 147.084 73.1963 146.658C73.8743 146.226 74.6963 146.01 75.6623 146.01C76.6463 146.01 77.5013 146.25 78.2273 146.73C78.9593 147.21 79.4603 147.867 79.7303 148.701L78.4343 149.115C78.2063 148.533 77.8433 148.083 77.3453 147.765C76.8533 147.441 76.2893 147.279 75.6533 147.279C74.9393 147.279 74.3483 147.444 73.8803 147.774C73.4123 148.098 73.0643 148.551 72.8363 149.133C72.6083 149.715 72.4913 150.384 72.4853 151.14C72.4973 152.304 72.7673 153.24 73.2953 153.948C73.8233 154.65 74.6093 155.001 75.6533 155.001C76.3133 155.001 76.8743 154.851 77.3363 154.551C77.8043 154.245 78.1583 153.801 78.3983 153.219L79.7303 153.615C79.3703 154.479 78.8423 155.139 78.1463 155.595C77.4503 156.045 76.6193 156.27 75.6533 156.27ZM81.5791 156L81.5881 146.28H82.9201V150.96L87.2581 146.28H89.0221L84.4681 151.14L89.6161 156H87.6901L82.9201 151.32V156H81.5791ZM93.2988 156.27C92.5668 156.27 91.9518 156.138 91.4538 155.874C90.9618 155.61 90.5928 155.259 90.3468 154.821C90.1008 154.383 89.9778 153.906 89.9778 153.39C89.9778 152.862 90.0828 152.412 90.2928 152.04C90.5088 151.662 90.7998 151.353 91.1658 151.113C91.5378 150.873 91.9668 150.69 92.4528 150.564C92.9448 150.444 93.4878 150.339 94.0818 150.249C94.6818 150.153 95.2668 150.072 95.8368 150.006C96.4128 149.934 96.9168 149.865 97.3488 149.799L96.8808 150.087C96.8988 149.127 96.7128 148.416 96.3228 147.954C95.9328 147.492 95.2548 147.261 94.2888 147.261C93.6228 147.261 93.0588 147.411 92.5968 147.711C92.1408 148.011 91.8198 148.485 91.6338 149.133L90.3468 148.755C90.5688 147.885 91.0158 147.21 91.6878 146.73C92.3598 146.25 93.2328 146.01 94.3068 146.01C95.1948 146.01 95.9478 146.178 96.5658 146.514C97.1898 146.844 97.6308 147.324 97.8888 147.954C98.0088 148.236 98.0868 148.551 98.1228 148.899C98.1588 149.247 98.1768 149.601 98.1768 149.961V156H96.9978V153.561L97.3398 153.705C97.0098 154.539 96.4968 155.175 95.8008 155.613C95.1048 156.051 94.2708 156.27 93.2988 156.27ZM93.4518 155.127C94.0698 155.127 94.6098 155.016 95.0718 154.794C95.5338 154.572 95.9058 154.269 96.1878 153.885C96.4698 153.495 96.6528 153.057 96.7368 152.571C96.8088 152.259 96.8478 151.917 96.8538 151.545C96.8598 151.167 96.8628 150.885 96.8628 150.699L97.3668 150.96C96.9168 151.02 96.4278 151.08 95.8998 151.14C95.3778 151.2 94.8618 151.269 94.3518 151.347C93.8478 151.425 93.3918 151.518 92.9838 151.626C92.7078 151.704 92.4408 151.815 92.1828 151.959C91.9248 152.097 91.7118 152.283 91.5438 152.517C91.3818 152.751 91.3008 153.042 91.3008 153.39C91.3008 153.672 91.3698 153.945 91.5078 154.209C91.6518 154.473 91.8798 154.692 92.1918 154.866C92.5098 155.04 92.9298 155.127 93.4518 155.127ZM111.845 146.28V156H110.558V148.431L105.23 156H104.114V146.28H105.401V153.786L110.738 146.28H111.845ZM122.007 156.27C121.029 156.27 120.201 156.051 119.523 155.613C118.845 155.175 118.329 154.572 117.975 153.804C117.627 153.03 117.447 152.142 117.435 151.14C117.447 150.12 117.633 149.226 117.993 148.458C118.353 147.684 118.872 147.084 119.55 146.658C120.228 146.226 121.05 146.01 122.016 146.01C123 146.01 123.855 146.25 124.581 146.73C125.313 147.21 125.814 147.867 126.084 148.701L124.788 149.115C124.56 148.533 124.197 148.083 123.699 147.765C123.207 147.441 122.643 147.279 122.007 147.279C121.293 147.279 120.702 147.444 120.234 147.774C119.766 148.098 119.418 148.551 119.19 149.133C118.962 149.715 118.845 150.384 118.839 151.14C118.851 152.304 119.121 153.24 119.649 153.948C120.177 154.65 120.963 155.001 122.007 155.001C122.667 155.001 123.228 154.851 123.69 154.551C124.158 154.245 124.512 153.801 124.752 153.219L126.084 153.615C125.724 154.479 125.196 155.139 124.5 155.595C123.804 156.045 122.973 156.27 122.007 156.27ZM130.35 156V147.504H126.903V146.28H135.12V147.504H131.673V156H130.35ZM139.248 156.27C138.516 156.27 137.901 156.138 137.403 155.874C136.911 155.61 136.542 155.259 136.296 154.821C136.05 154.383 135.927 153.906 135.927 153.39C135.927 152.862 136.032 152.412 136.242 152.04C136.458 151.662 136.749 151.353 137.115 151.113C137.487 150.873 137.916 150.69 138.402 150.564C138.894 150.444 139.437 150.339 140.031 150.249C140.631 150.153 141.216 150.072 141.786 150.006C142.362 149.934 142.866 149.865 143.298 149.799L142.83 150.087C142.848 149.127 142.662 148.416 142.272 147.954C141.882 147.492 141.204 147.261 140.238 147.261C139.572 147.261 139.008 147.411 138.546 147.711C138.09 148.011 137.769 148.485 137.583 149.133L136.296 148.755C136.518 147.885 136.965 147.21 137.637 146.73C138.309 146.25 139.182 146.01 140.256 146.01C141.144 146.01 141.897 146.178 142.515 146.514C143.139 146.844 143.58 147.324 143.838 147.954C143.958 148.236 144.036 148.551 144.072 148.899C144.108 149.247 144.126 149.601 144.126 149.961V156H142.947V153.561L143.289 153.705C142.959 154.539 142.446 155.175 141.75 155.613C141.054 156.051 140.22 156.27 139.248 156.27ZM139.401 155.127C140.019 155.127 140.559 155.016 141.021 154.794C141.483 154.572 141.855 154.269 142.137 153.885C142.419 153.495 142.602 153.057 142.686 152.571C142.758 152.259 142.797 151.917 142.803 151.545C142.809 151.167 142.812 150.885 142.812 150.699L143.316 150.96C142.866 151.02 142.377 151.08 141.849 151.14C141.327 151.2 140.811 151.269 140.301 151.347C139.797 151.425 139.341 151.518 138.933 151.626C138.657 151.704 138.39 151.815 138.132 151.959C137.874 152.097 137.661 152.283 137.493 152.517C137.331 152.751 137.25 153.042 137.25 153.39C137.25 153.672 137.319 153.945 137.457 154.209C137.601 154.473 137.829 154.692 138.141 154.866C138.459 155.04 138.879 155.127 139.401 155.127ZM146.46 156V146.28H147.783V150.501H153.264V146.28H154.587V156H153.264V151.77H147.783V156H146.46ZM161.163 156.27C160.197 156.27 159.372 156.051 158.688 155.613C158.004 155.175 157.479 154.569 157.113 153.795C156.747 153.021 156.564 152.133 156.564 151.131C156.564 150.111 156.75 149.217 157.122 148.449C157.494 147.681 158.022 147.084 158.706 146.658C159.396 146.226 160.215 146.01 161.163 146.01C162.135 146.01 162.963 146.229 163.647 146.667C164.337 147.099 164.862 147.702 165.222 148.476C165.588 149.244 165.771 150.129 165.771 151.131C165.771 152.151 165.588 153.048 165.222 153.822C164.856 154.59 164.328 155.19 163.638 155.622C162.948 156.054 162.123 156.27 161.163 156.27ZM161.163 155.001C162.243 155.001 163.047 154.644 163.575 153.93C164.103 153.21 164.367 152.277 164.367 151.131C164.367 149.955 164.1 149.019 163.566 148.323C163.038 147.627 162.237 147.279 161.163 147.279C160.437 147.279 159.837 147.444 159.363 147.774C158.895 148.098 158.544 148.551 158.31 149.133C158.082 149.709 157.968 150.375 157.968 151.131C157.968 152.301 158.238 153.24 158.778 153.948C159.318 154.65 160.113 155.001 161.163 155.001ZM167.747 156V146.28H171.752C171.956 146.28 172.202 146.292 172.49 146.316C172.784 146.34 173.057 146.385 173.309 146.451C173.855 146.595 174.293 146.889 174.623 147.333C174.959 147.777 175.127 148.311 175.127 148.935C175.127 149.283 175.073 149.595 174.965 149.871C174.863 150.141 174.716 150.375 174.524 150.573C174.434 150.675 174.335 150.765 174.227 150.843C174.119 150.915 174.014 150.975 173.912 151.023C174.104 151.059 174.311 151.143 174.533 151.275C174.881 151.479 175.145 151.755 175.325 152.103C175.505 152.445 175.595 152.862 175.595 153.354C175.595 154.02 175.436 154.563 175.118 154.983C174.8 155.403 174.374 155.691 173.84 155.847C173.6 155.913 173.339 155.955 173.057 155.973C172.781 155.991 172.52 156 172.274 156H167.747ZM169.079 154.875H172.211C172.337 154.875 172.496 154.866 172.688 154.848C172.88 154.824 173.051 154.794 173.201 154.758C173.555 154.668 173.813 154.488 173.975 154.218C174.143 153.942 174.227 153.642 174.227 153.318C174.227 152.892 174.101 152.544 173.849 152.274C173.603 151.998 173.273 151.83 172.859 151.77C172.721 151.74 172.577 151.722 172.427 151.716C172.277 151.71 172.142 151.707 172.022 151.707H169.079V154.875ZM169.079 150.573H171.797C171.953 150.573 172.127 150.564 172.319 150.546C172.517 150.522 172.688 150.483 172.832 150.429C173.144 150.321 173.372 150.135 173.516 149.871C173.666 149.607 173.741 149.319 173.741 149.007C173.741 148.665 173.66 148.365 173.498 148.107C173.342 147.849 173.105 147.669 172.787 147.567C172.571 147.489 172.337 147.444 172.085 147.432C171.839 147.42 171.683 147.414 171.617 147.414H169.079V150.573ZM185.111 146.28V156H183.824V148.431L178.496 156H177.38V146.28H178.667V153.786L184.004 146.28H185.111ZM190.274 156V147.504H186.827V146.28H195.044V147.504H191.597V156H190.274ZM200.616 156.27C199.638 156.27 198.81 156.051 198.132 155.613C197.454 155.175 196.938 154.572 196.584 153.804C196.236 153.03 196.056 152.142 196.044 151.14C196.056 150.12 196.242 149.226 196.602 148.458C196.962 147.684 197.481 147.084 198.159 146.658C198.837 146.226 199.659 146.01 200.625 146.01C201.609 146.01 202.464 146.25 203.19 146.73C203.922 147.21 204.423 147.867 204.693 148.701L203.397 149.115C203.169 148.533 202.806 148.083 202.308 147.765C201.816 147.441 201.252 147.279 200.616 147.279C199.902 147.279 199.311 147.444 198.843 147.774C198.375 148.098 198.027 148.551 197.799 149.133C197.571 149.715 197.454 150.384 197.448 151.14C197.46 152.304 197.73 153.24 198.258 153.948C198.786 154.65 199.572 155.001 200.616 155.001C201.276 155.001 201.837 154.851 202.299 154.551C202.767 154.245 203.121 153.801 203.361 153.219L204.693 153.615C204.333 154.479 203.805 155.139 203.109 155.595C202.413 156.045 201.582 156.27 200.616 156.27ZM212.591 156V152.337H210.323C210.059 152.337 209.786 152.328 209.504 152.31C209.228 152.286 208.97 152.253 208.73 152.211C208.046 152.079 207.464 151.779 206.984 151.311C206.51 150.837 206.273 150.183 206.273 149.349C206.273 148.533 206.495 147.879 206.939 147.387C207.383 146.889 207.92 146.565 208.55 146.415C208.838 146.349 209.129 146.31 209.423 146.298C209.723 146.286 209.981 146.28 210.197 146.28H213.914L213.923 156H212.591ZM205.958 156L208.667 151.923H210.134L207.407 156H205.958ZM210.251 151.203H212.591V147.414H210.251C210.107 147.414 209.906 147.42 209.648 147.432C209.39 147.444 209.147 147.483 208.919 147.549C208.721 147.609 208.523 147.714 208.325 147.864C208.133 148.008 207.971 148.203 207.839 148.449C207.707 148.689 207.641 148.983 207.641 149.331C207.641 149.817 207.773 150.207 208.037 150.501C208.307 150.789 208.643 150.987 209.045 151.095C209.261 151.143 209.477 151.173 209.693 151.185C209.909 151.197 210.095 151.203 210.251 151.203ZM219.331 158.16V154.866C219.883 154.866 220.279 154.689 220.519 154.335C220.759 153.975 220.954 153.402 221.104 152.616C221.206 152.106 221.29 151.557 221.356 150.969C221.422 150.381 221.479 149.709 221.527 148.953C221.575 148.191 221.62 147.3 221.662 146.28H228.088V154.866H229.024V158.16H227.746V156H220.6V158.16H219.331ZM221.572 154.866H226.774V147.414H222.886C222.868 147.87 222.841 148.353 222.805 148.863C222.775 149.373 222.736 149.883 222.688 150.393C222.646 150.903 222.595 151.383 222.535 151.833C222.481 152.277 222.415 152.667 222.337 153.003C222.247 153.435 222.148 153.804 222.04 154.11C221.938 154.416 221.782 154.668 221.572 154.866ZM234.885 156.27C233.919 156.27 233.094 156.051 232.41 155.613C231.726 155.175 231.201 154.569 230.835 153.795C230.469 153.021 230.286 152.133 230.286 151.131C230.286 150.111 230.472 149.217 230.844 148.449C231.216 147.681 231.744 147.084 232.428 146.658C233.118 146.226 233.937 146.01 234.885 146.01C235.857 146.01 236.685 146.229 237.369 146.667C238.059 147.099 238.584 147.702 238.944 148.476C239.31 149.244 239.493 150.129 239.493 151.131C239.493 152.151 239.31 153.048 238.944 153.822C238.578 154.59 238.05 155.19 237.36 155.622C236.67 156.054 235.845 156.27 234.885 156.27ZM234.885 155.001C235.965 155.001 236.769 154.644 237.297 153.93C237.825 153.21 238.089 152.277 238.089 151.131C238.089 149.955 237.822 149.019 237.288 148.323C236.76 147.627 235.959 147.279 234.885 147.279C234.159 147.279 233.559 147.444 233.085 147.774C232.617 148.098 232.266 148.551 232.032 149.133C231.804 149.709 231.69 150.375 231.69 151.131C231.69 152.301 231.96 153.24 232.5 153.948C233.04 154.65 233.835 155.001 234.885 155.001ZM241.47 156V146.28H249.201V156H247.878V147.549H242.793V156H241.47ZM255.786 156.27C254.82 156.27 253.995 156.051 253.311 155.613C252.627 155.175 252.102 154.569 251.736 153.795C251.37 153.021 251.187 152.133 251.187 151.131C251.187 150.111 251.373 149.217 251.745 148.449C252.117 147.681 252.645 147.084 253.329 146.658C254.019 146.226 254.838 146.01 255.786 146.01C256.758 146.01 257.586 146.229 258.27 146.667C258.96 147.099 259.485 147.702 259.845 148.476C260.211 149.244 260.394 150.129 260.394 151.131C260.394 152.151 260.211 153.048 259.845 153.822C259.479 154.59 258.951 155.19 258.261 155.622C257.571 156.054 256.746 156.27 255.786 156.27ZM255.786 155.001C256.866 155.001 257.67 154.644 258.198 153.93C258.726 153.21 258.99 152.277 258.99 151.131C258.99 149.955 258.723 149.019 258.189 148.323C257.661 147.627 256.86 147.279 255.786 147.279C255.06 147.279 254.46 147.444 253.986 147.774C253.518 148.098 253.167 148.551 252.933 149.133C252.705 149.709 252.591 150.375 252.591 151.131C252.591 152.301 252.861 153.24 253.401 153.948C253.941 154.65 254.736 155.001 255.786 155.001ZM261.479 156V154.839C261.839 154.905 262.112 154.89 262.298 154.794C262.49 154.692 262.631 154.524 262.721 154.29C262.811 154.05 262.886 153.753 262.946 153.399C263.042 152.811 263.129 152.163 263.207 151.455C263.285 150.747 263.354 149.967 263.414 149.115C263.48 148.257 263.546 147.312 263.612 146.28H270.218V156H268.904V147.549H264.836C264.794 148.185 264.746 148.818 264.692 149.448C264.638 150.078 264.581 150.684 264.521 151.266C264.467 151.842 264.407 152.373 264.341 152.859C264.275 153.345 264.206 153.765 264.134 154.119C264.026 154.653 263.882 155.079 263.702 155.397C263.528 155.715 263.267 155.925 262.919 156.027C262.571 156.129 262.091 156.12 261.479 156ZM272.724 156V146.28H274.047V150.501H279.528V146.28H280.851V156H279.528V151.77H274.047V156H272.724ZM291.089 146.28V156H289.802V148.431L284.474 156H283.358V146.28H284.645V153.786L289.982 146.28H291.089ZM296.252 156V147.504H292.805V146.28H301.022V147.504H297.575V156H296.252ZM306.852 156.27C305.904 156.27 305.082 156.06 304.386 155.64C303.696 155.22 303.159 154.629 302.775 153.867C302.391 153.105 302.199 152.211 302.199 151.185C302.199 150.123 302.388 149.205 302.766 148.431C303.144 147.657 303.675 147.06 304.359 146.64C305.049 146.22 305.862 146.01 306.798 146.01C307.758 146.01 308.577 146.232 309.255 146.676C309.933 147.114 310.446 147.744 310.794 148.566C311.142 149.388 311.301 150.369 311.271 151.509H309.921V151.041C309.897 149.781 309.624 148.83 309.102 148.188C308.586 147.546 307.83 147.225 306.834 147.225C305.79 147.225 304.989 147.564 304.431 148.242C303.879 148.92 303.603 149.886 303.603 151.14C303.603 152.364 303.879 153.315 304.431 153.993C304.989 154.665 305.778 155.001 306.798 155.001C307.494 155.001 308.1 154.842 308.616 154.524C309.138 154.2 309.549 153.735 309.849 153.129L311.082 153.606C310.698 154.452 310.131 155.109 309.381 155.577C308.637 156.039 307.794 156.27 306.852 156.27ZM303.135 151.509V150.402H310.56V151.509H303.135ZM312.368 156V154.839C312.728 154.905 313.001 154.89 313.187 154.794C313.379 154.692 313.52 154.524 313.61 154.29C313.7 154.05 313.775 153.753 313.835 153.399C313.931 152.811 314.018 152.163 314.096 151.455C314.174 150.747 314.243 149.967 314.303 149.115C314.369 148.257 314.435 147.312 314.501 146.28H321.107V156H319.793V147.549H315.725C315.683 148.185 315.635 148.818 315.581 149.448C315.527 150.078 315.47 150.684 315.41 151.266C315.356 151.842 315.296 152.373 315.23 152.859C315.164 153.345 315.095 153.765 315.023 154.119C314.915 154.653 314.771 155.079 314.591 155.397C314.417 155.715 314.156 155.925 313.808 156.027C313.46 156.129 312.98 156.12 312.368 156ZM323.63 156L323.612 146.28H324.944V149.943H327.221C327.503 149.943 327.779 149.949 328.049 149.961C328.325 149.973 328.568 149.997 328.778 150.033C329.258 150.123 329.684 150.282 330.056 150.51C330.434 150.738 330.728 151.053 330.938 151.455C331.154 151.857 331.262 152.361 331.262 152.967C331.262 153.801 331.046 154.458 330.614 154.938C330.188 155.418 329.648 155.73 328.994 155.874C328.748 155.928 328.481 155.964 328.193 155.982C327.905 155.994 327.62 156 327.338 156H323.63ZM324.944 154.866H327.284C327.488 154.866 327.716 154.86 327.968 154.848C328.22 154.836 328.442 154.803 328.634 154.749C328.952 154.659 329.24 154.479 329.498 154.209C329.762 153.933 329.894 153.519 329.894 152.967C329.894 152.421 329.768 152.01 329.516 151.734C329.264 151.452 328.928 151.266 328.508 151.176C328.322 151.134 328.121 151.107 327.905 151.095C327.689 151.083 327.482 151.077 327.284 151.077H324.944V154.866ZM332.964 156V146.28H334.287V150.501H339.768V146.28H341.091V156H339.768V151.77H334.287V156H332.964ZM343.617 156L343.599 146.28H344.931V149.943H346.623C346.905 149.943 347.181 149.949 347.451 149.961C347.721 149.973 347.964 149.997 348.18 150.033C348.66 150.129 349.086 150.291 349.458 150.519C349.83 150.747 350.124 151.062 350.34 151.464C350.556 151.86 350.664 152.361 350.664 152.967C350.664 153.801 350.448 154.458 350.016 154.938C349.584 155.418 349.041 155.73 348.387 155.874C348.141 155.928 347.874 155.964 347.586 155.982C347.298 155.994 347.016 156 346.74 156H343.617ZM344.931 154.866H346.686C346.884 154.866 347.109 154.86 347.361 154.848C347.613 154.836 347.835 154.803 348.027 154.749C348.351 154.659 348.642 154.479 348.9 154.209C349.164 153.933 349.296 153.519 349.296 152.967C349.296 152.421 349.17 152.01 348.918 151.734C348.666 151.452 348.33 151.266 347.91 151.176C347.718 151.134 347.514 151.107 347.298 151.095C347.088 151.083 346.884 151.077 346.686 151.077H344.931V154.866ZM351.825 156V146.28H353.148V156H351.825ZM355.657 156V146.28H356.836L360.625 154.236L364.423 146.28H365.593V156H364.315V149.106L361.048 156H360.211L356.944 149.106V156H355.657ZM21.251 178L21.26 168.28H22.592V172.96L26.93 168.28H28.694L24.14 173.14L29.288 178H27.362L22.592 173.32V178H21.251ZM32.9707 178.27C32.2387 178.27 31.6237 178.138 31.1257 177.874C30.6337 177.61 30.2647 177.259 30.0187 176.821C29.7727 176.383 29.6497 175.906 29.6497 175.39C29.6497 174.862 29.7547 174.412 29.9647 174.04C30.1807 173.662 30.4717 173.353 30.8377 173.113C31.2097 172.873 31.6387 172.69 32.1247 172.564C32.6167 172.444 33.1597 172.339 33.7537 172.249C34.3537 172.153 34.9387 172.072 35.5087 172.006C36.0847 171.934 36.5887 171.865 37.0207 171.799L36.5527 172.087C36.5707 171.127 36.3847 170.416 35.9947 169.954C35.6047 169.492 34.9267 169.261 33.9607 169.261C33.2947 169.261 32.7307 169.411 32.2687 169.711C31.8127 170.011 31.4917 170.485 31.3057 171.133L30.0187 170.755C30.2407 169.885 30.6877 169.21 31.3597 168.73C32.0317 168.25 32.9047 168.01 33.9787 168.01C34.8667 168.01 35.6197 168.178 36.2377 168.514C36.8617 168.844 37.3027 169.324 37.5607 169.954C37.6807 170.236 37.7587 170.551 37.7947 170.899C37.8307 171.247 37.8487 171.601 37.8487 171.961V178H36.6697V175.561L37.0117 175.705C36.6817 176.539 36.1687 177.175 35.4727 177.613C34.7767 178.051 33.9427 178.27 32.9707 178.27ZM33.1237 177.127C33.7417 177.127 34.2817 177.016 34.7437 176.794C35.2057 176.572 35.5777 176.269 35.8597 175.885C36.1417 175.495 36.3247 175.057 36.4087 174.571C36.4807 174.259 36.5197 173.917 36.5257 173.545C36.5317 173.167 36.5347 172.885 36.5347 172.699L37.0387 172.96C36.5887 173.02 36.0997 173.08 35.5717 173.14C35.0497 173.2 34.5337 173.269 34.0237 173.347C33.5197 173.425 33.0637 173.518 32.6557 173.626C32.3797 173.704 32.1127 173.815 31.8547 173.959C31.5967 174.097 31.3837 174.283 31.2157 174.517C31.0537 174.751 30.9727 175.042 30.9727 175.39C30.9727 175.672 31.0417 175.945 31.1797 176.209C31.3237 176.473 31.5517 176.692 31.8637 176.866C32.1817 177.04 32.6017 177.127 33.1237 177.127ZM40.1826 178V168.28H41.5056V172.501H46.9866V168.28H48.3096V178H46.9866V173.77H41.5056V178H40.1826ZM53.6074 178.27C52.8754 178.27 52.2604 178.138 51.7624 177.874C51.2704 177.61 50.9014 177.259 50.6554 176.821C50.4094 176.383 50.2864 175.906 50.2864 175.39C50.2864 174.862 50.3914 174.412 50.6014 174.04C50.8174 173.662 51.1084 173.353 51.4744 173.113C51.8464 172.873 52.2754 172.69 52.7614 172.564C53.2534 172.444 53.7964 172.339 54.3904 172.249C54.9904 172.153 55.5754 172.072 56.1454 172.006C56.7214 171.934 57.2254 171.865 57.6574 171.799L57.1894 172.087C57.2074 171.127 57.0214 170.416 56.6314 169.954C56.2414 169.492 55.5634 169.261 54.5974 169.261C53.9314 169.261 53.3674 169.411 52.9054 169.711C52.4494 170.011 52.1284 170.485 51.9424 171.133L50.6554 170.755C50.8774 169.885 51.3244 169.21 51.9964 168.73C52.6684 168.25 53.5414 168.01 54.6154 168.01C55.5034 168.01 56.2564 168.178 56.8744 168.514C57.4984 168.844 57.9394 169.324 58.1974 169.954C58.3174 170.236 58.3954 170.551 58.4314 170.899C58.4674 171.247 58.4854 171.601 58.4854 171.961V178H57.3064V175.561L57.6484 175.705C57.3184 176.539 56.8054 177.175 56.1094 177.613C55.4134 178.051 54.5794 178.27 53.6074 178.27ZM53.7604 177.127C54.3784 177.127 54.9184 177.016 55.3804 176.794C55.8424 176.572 56.2144 176.269 56.4964 175.885C56.7784 175.495 56.9614 175.057 57.0454 174.571C57.1174 174.259 57.1564 173.917 57.1624 173.545C57.1684 173.167 57.1714 172.885 57.1714 172.699L57.6754 172.96C57.2254 173.02 56.7364 173.08 56.2084 173.14C55.6864 173.2 55.1704 173.269 54.6604 173.347C54.1564 173.425 53.7004 173.518 53.2924 173.626C53.0164 173.704 52.7494 173.815 52.4914 173.959C52.2334 174.097 52.0204 174.283 51.8524 174.517C51.6904 174.751 51.6094 175.042 51.6094 175.39C51.6094 175.672 51.6784 175.945 51.8164 176.209C51.9604 176.473 52.1884 176.692 52.5004 176.866C52.8184 177.04 53.2384 177.127 53.7604 177.127ZM59.9284 178V176.839C60.2884 176.905 60.5614 176.89 60.7474 176.794C60.9394 176.692 61.0804 176.524 61.1704 176.29C61.2604 176.05 61.3354 175.753 61.3954 175.399C61.4914 174.811 61.5784 174.163 61.6564 173.455C61.7344 172.747 61.8034 171.967 61.8634 171.115C61.9294 170.257 61.9954 169.312 62.0614 168.28H68.6674V178H67.3534V169.549H63.2854C63.2434 170.185 63.1954 170.818 63.1414 171.448C63.0874 172.078 63.0304 172.684 62.9704 173.266C62.9164 173.842 62.8564 174.373 62.7904 174.859C62.7244 175.345 62.6554 175.765 62.5834 176.119C62.4754 176.653 62.3314 177.079 62.1514 177.397C61.9774 177.715 61.7164 177.925 61.3684 178.027C61.0204 178.129 60.5404 178.12 59.9284 178ZM75.2409 178.27C74.2749 178.27 73.4499 178.051 72.7659 177.613C72.0819 177.175 71.5569 176.569 71.1909 175.795C70.8249 175.021 70.6419 174.133 70.6419 173.131C70.6419 172.111 70.8279 171.217 71.1999 170.449C71.5719 169.681 72.0999 169.084 72.7839 168.658C73.4739 168.226 74.2929 168.01 75.2409 168.01C76.2129 168.01 77.0409 168.229 77.7249 168.667C78.4149 169.099 78.9399 169.702 79.2999 170.476C79.6659 171.244 79.8489 172.129 79.8489 173.131C79.8489 174.151 79.6659 175.048 79.2999 175.822C78.9339 176.59 78.4059 177.19 77.7159 177.622C77.0259 178.054 76.2009 178.27 75.2409 178.27ZM75.2409 177.001C76.3209 177.001 77.1249 176.644 77.6529 175.93C78.1809 175.21 78.4449 174.277 78.4449 173.131C78.4449 171.955 78.1779 171.019 77.6439 170.323C77.1159 169.627 76.3149 169.279 75.2409 169.279C74.5149 169.279 73.9149 169.444 73.4409 169.774C72.9729 170.098 72.6219 170.551 72.3879 171.133C72.1599 171.709 72.0459 172.375 72.0459 173.131C72.0459 174.301 72.3159 175.24 72.8559 175.948C73.3959 176.65 74.1909 177.001 75.2409 177.001ZM81.8252 178V168.28H83.0042L86.7932 176.236L90.5912 168.28H91.7612V178H90.4832V171.106L87.2162 178H86.3792L83.1122 171.106V178H81.8252ZM101.942 178.27C100.976 178.27 100.151 178.051 99.467 177.613C98.783 177.175 98.258 176.569 97.892 175.795C97.526 175.021 97.343 174.133 97.343 173.131C97.343 172.111 97.529 171.217 97.901 170.449C98.273 169.681 98.801 169.084 99.485 168.658C100.175 168.226 100.994 168.01 101.942 168.01C102.914 168.01 103.742 168.229 104.426 168.667C105.116 169.099 105.641 169.702 106.001 170.476C106.367 171.244 106.55 172.129 106.55 173.131C106.55 174.151 106.367 175.048 106.001 175.822C105.635 176.59 105.107 177.19 104.417 177.622C103.727 178.054 102.902 178.27 101.942 178.27ZM101.942 177.001C103.022 177.001 103.826 176.644 104.354 175.93C104.882 175.21 105.146 174.277 105.146 173.131C105.146 171.955 104.879 171.019 104.345 170.323C103.817 169.627 103.016 169.279 101.942 169.279C101.216 169.279 100.616 169.444 100.142 169.774C99.674 170.098 99.323 170.551 99.089 171.133C98.861 171.709 98.747 172.375 98.747 173.131C98.747 174.301 99.017 175.24 99.557 175.948C100.097 176.65 100.892 177.001 101.942 177.001ZM112.432 178.279C111.526 178.273 110.749 178.075 110.101 177.685C109.453 177.295 108.949 176.713 108.589 175.939C108.235 175.165 108.043 174.199 108.013 173.041C107.995 172.531 108.007 171.976 108.049 171.376C108.091 170.77 108.157 170.194 108.247 169.648C108.337 169.102 108.445 168.658 108.571 168.316C108.727 167.872 108.949 167.458 109.237 167.074C109.531 166.684 109.87 166.366 110.254 166.12C110.626 165.868 111.046 165.673 111.514 165.535C111.988 165.391 112.48 165.28 112.99 165.202C113.506 165.124 114.016 165.055 114.52 164.995C115.03 164.935 115.501 164.86 115.933 164.77L116.077 165.967C115.747 166.033 115.357 166.093 114.907 166.147C114.457 166.201 113.986 166.267 113.494 166.345C113.002 166.417 112.531 166.516 112.081 166.642C111.631 166.768 111.247 166.933 110.929 167.137C110.443 167.431 110.068 167.875 109.804 168.469C109.546 169.063 109.387 169.744 109.327 170.512C109.699 169.93 110.191 169.492 110.803 169.198C111.421 168.904 112.09 168.757 112.81 168.757C113.686 168.757 114.439 168.958 115.069 169.36C115.705 169.762 116.194 170.32 116.536 171.034C116.878 171.748 117.049 172.567 117.049 173.491C117.049 174.457 116.86 175.3 116.482 176.02C116.11 176.74 115.579 177.298 114.889 177.694C114.199 178.084 113.38 178.279 112.432 178.279ZM112.531 177.01C113.551 177.01 114.325 176.692 114.853 176.056C115.387 175.42 115.654 174.574 115.654 173.518C115.654 172.438 115.378 171.586 114.826 170.962C114.28 170.338 113.509 170.026 112.513 170.026C111.517 170.026 110.752 170.338 110.218 170.962C109.684 171.586 109.417 172.438 109.417 173.518C109.417 174.598 109.684 175.45 110.218 176.074C110.752 176.698 111.523 177.01 112.531 177.01ZM123.395 178.27C122.501 178.27 121.745 178.045 121.127 177.595C120.509 177.139 120.041 176.524 119.723 175.75C119.405 174.97 119.246 174.097 119.246 173.131C119.246 172.147 119.405 171.271 119.723 170.503C120.047 169.729 120.521 169.12 121.145 168.676C121.769 168.232 122.537 168.01 123.449 168.01C124.337 168.01 125.099 168.235 125.735 168.685C126.371 169.135 126.857 169.747 127.193 170.521C127.535 171.295 127.706 172.165 127.706 173.131C127.706 174.103 127.535 174.976 127.193 175.75C126.851 176.524 126.359 177.139 125.717 177.595C125.075 178.045 124.301 178.27 123.395 178.27ZM119.021 182.32V168.28H120.209V175.597H120.353V182.32H119.021ZM123.26 177.037C123.938 177.037 124.502 176.866 124.952 176.524C125.402 176.182 125.738 175.717 125.96 175.129C126.188 174.535 126.302 173.869 126.302 173.131C126.302 172.399 126.191 171.739 125.969 171.151C125.747 170.563 125.408 170.098 124.952 169.756C124.502 169.414 123.929 169.243 123.233 169.243C122.555 169.243 121.991 169.408 121.541 169.738C121.097 170.068 120.764 170.527 120.542 171.115C120.32 171.697 120.209 172.369 120.209 173.131C120.209 173.881 120.32 174.553 120.542 175.147C120.764 175.735 121.1 176.197 121.55 176.533C122 176.869 122.57 177.037 123.26 177.037ZM132.463 178.27C131.731 178.27 131.116 178.138 130.618 177.874C130.126 177.61 129.757 177.259 129.511 176.821C129.265 176.383 129.142 175.906 129.142 175.39C129.142 174.862 129.247 174.412 129.457 174.04C129.673 173.662 129.964 173.353 130.33 173.113C130.702 172.873 131.131 172.69 131.617 172.564C132.109 172.444 132.652 172.339 133.246 172.249C133.846 172.153 134.431 172.072 135.001 172.006C135.577 171.934 136.081 171.865 136.513 171.799L136.045 172.087C136.063 171.127 135.877 170.416 135.487 169.954C135.097 169.492 134.419 169.261 133.453 169.261C132.787 169.261 132.223 169.411 131.761 169.711C131.305 170.011 130.984 170.485 130.798 171.133L129.511 170.755C129.733 169.885 130.18 169.21 130.852 168.73C131.524 168.25 132.397 168.01 133.471 168.01C134.359 168.01 135.112 168.178 135.73 168.514C136.354 168.844 136.795 169.324 137.053 169.954C137.173 170.236 137.251 170.551 137.287 170.899C137.323 171.247 137.341 171.601 137.341 171.961V178H136.162V175.561L136.504 175.705C136.174 176.539 135.661 177.175 134.965 177.613C134.269 178.051 133.435 178.27 132.463 178.27ZM132.616 177.127C133.234 177.127 133.774 177.016 134.236 176.794C134.698 176.572 135.07 176.269 135.352 175.885C135.634 175.495 135.817 175.057 135.901 174.571C135.973 174.259 136.012 173.917 136.018 173.545C136.024 173.167 136.027 172.885 136.027 172.699L136.531 172.96C136.081 173.02 135.592 173.08 135.064 173.14C134.542 173.2 134.026 173.269 133.516 173.347C133.012 173.425 132.556 173.518 132.148 173.626C131.872 173.704 131.605 173.815 131.347 173.959C131.089 174.097 130.876 174.283 130.708 174.517C130.546 174.751 130.465 175.042 130.465 175.39C130.465 175.672 130.534 175.945 130.672 176.209C130.816 176.473 131.044 176.692 131.356 176.866C131.674 177.04 132.094 177.127 132.616 177.127ZM150.763 179.683V178H139.675V168.28H140.962V176.776H144.607V168.28H145.894V176.776H149.53V168.28H150.817V176.776H152.086V179.683H150.763ZM157.631 178.27C156.683 178.27 155.861 178.06 155.165 177.64C154.475 177.22 153.938 176.629 153.554 175.867C153.17 175.105 152.978 174.211 152.978 173.185C152.978 172.123 153.167 171.205 153.545 170.431C153.923 169.657 154.454 169.06 155.138 168.64C155.828 168.22 156.641 168.01 157.577 168.01C158.537 168.01 159.356 168.232 160.034 168.676C160.712 169.114 161.225 169.744 161.573 170.566C161.921 171.388 162.08 172.369 162.05 173.509H160.7V173.041C160.676 171.781 160.403 170.83 159.881 170.188C159.365 169.546 158.609 169.225 157.613 169.225C156.569 169.225 155.768 169.564 155.21 170.242C154.658 170.92 154.382 171.886 154.382 173.14C154.382 174.364 154.658 175.315 155.21 175.993C155.768 176.665 156.557 177.001 157.577 177.001C158.273 177.001 158.879 176.842 159.395 176.524C159.917 176.2 160.328 175.735 160.628 175.129L161.861 175.606C161.477 176.452 160.91 177.109 160.16 177.577C159.416 178.039 158.573 178.27 157.631 178.27ZM153.914 173.509V172.402H161.339V173.509H153.914ZM164.038 178V168.28H165.361V172.501H170.842V168.28H172.165V178H170.842V173.77H165.361V178H164.038ZM182.404 168.28V178H181.117V170.431L175.789 178H174.673V168.28H175.96V175.786L181.297 168.28H182.404ZM188.962 167.128C188.536 167.128 188.146 167.023 187.792 166.813C187.438 166.603 187.156 166.324 186.946 165.976C186.742 165.622 186.64 165.232 186.64 164.806H187.738C187.738 165.142 187.858 165.43 188.098 165.67C188.338 165.91 188.626 166.03 188.962 166.03C189.304 166.03 189.592 165.91 189.826 165.67C190.066 165.43 190.186 165.142 190.186 164.806H191.284C191.284 165.232 191.179 165.622 190.969 165.976C190.765 166.324 190.486 166.603 190.132 166.813C189.778 167.023 189.388 167.128 188.962 167.128ZM192.652 168.28V178H191.365V170.431L186.037 178H184.921V168.28H186.208V175.786L191.545 168.28H192.652ZM195.43 178V176.461H196.969V178H195.43Z" fill="#262626"/>
<path d="M117.502 43.588V41.042H136.578C136.477 42.942 136.021 44.7153 135.21 46.362C134.399 48.0087 133.335 49.44 132.018 50.656C130.726 51.8467 129.206 52.784 127.458 53.468C125.735 54.152 123.899 54.494 121.948 54.494C119.795 54.494 117.781 54.1267 115.906 53.392C114.057 52.632 112.448 51.606 111.08 50.314C109.712 48.9967 108.635 47.4513 107.85 45.678C107.065 43.8793 106.672 41.954 106.672 39.902C106.672 37.8753 107.052 35.988 107.812 34.24C108.597 32.4667 109.649 30.934 110.966 29.642C112.309 28.3247 113.879 27.2987 115.678 26.564C117.502 25.804 119.465 25.424 121.568 25.424C123.088 25.424 124.545 25.614 125.938 25.994C127.357 26.374 128.649 26.9187 129.814 27.628C130.979 28.312 131.993 29.148 132.854 30.136C133.741 31.124 134.412 32.2133 134.868 33.404H131.714C130.751 31.6813 129.396 30.3513 127.648 29.414C125.925 28.4767 123.975 28.008 121.796 28.008C120.048 28.008 118.427 28.312 116.932 28.92C115.437 29.528 114.145 30.3767 113.056 31.466C111.967 32.53 111.105 33.7967 110.472 35.266C109.839 36.71 109.522 38.2807 109.522 39.978C109.522 41.65 109.839 43.208 110.472 44.652C111.105 46.096 111.979 47.3627 113.094 48.452C114.209 49.516 115.513 50.3647 117.008 50.998C118.503 51.606 120.111 51.91 121.834 51.91C123.177 51.91 124.469 51.7073 125.71 51.302C126.951 50.8713 128.079 50.2887 129.092 49.554C130.105 48.794 130.967 47.9073 131.676 46.894C132.411 45.8807 132.917 44.7787 133.196 43.588H117.502ZM141.027 54V25.918H156.379V28.464H143.839V38.534H155.961V41.08H143.839V51.454H156.379V54H141.027ZM160.184 39.978C160.184 37.9513 160.576 36.064 161.362 34.316C162.147 32.5427 163.211 30.9973 164.554 29.68C165.922 28.3627 167.518 27.324 169.342 26.564C171.166 25.804 173.129 25.424 175.232 25.424C177.233 25.424 179.12 25.8167 180.894 26.602C182.667 27.362 184.212 28.4133 185.53 29.756C186.872 31.0733 187.924 32.6187 188.684 34.392C189.469 36.14 189.862 38.002 189.862 39.978C189.862 41.9793 189.469 43.8667 188.684 45.64C187.898 47.388 186.834 48.9207 185.492 50.238C184.149 51.5553 182.578 52.594 180.78 53.354C178.981 54.114 177.068 54.494 175.042 54.494C173.015 54.494 171.102 54.114 169.304 53.354C167.505 52.5687 165.922 51.5173 164.554 50.2C163.211 48.8827 162.147 47.35 161.362 45.602C160.576 43.8287 160.184 41.954 160.184 39.978ZM163.034 39.978C163.034 41.5993 163.35 43.1447 163.984 44.614C164.617 46.058 165.478 47.3247 166.568 48.414C167.657 49.478 168.924 50.3267 170.368 50.96C171.837 51.5933 173.395 51.91 175.042 51.91C176.688 51.91 178.234 51.5933 179.678 50.96C181.122 50.3267 182.388 49.478 183.478 48.414C184.567 47.3247 185.428 46.058 186.062 44.614C186.695 43.17 187.012 41.6373 187.012 40.016C187.012 38.344 186.695 36.786 186.062 35.342C185.428 33.8727 184.567 32.5933 183.478 31.504C182.388 30.4147 181.096 29.566 179.602 28.958C178.132 28.3247 176.562 28.008 174.89 28.008C173.294 28.008 171.774 28.3373 170.33 28.996C168.886 29.6293 167.619 30.4907 166.53 31.58C165.466 32.6693 164.617 33.936 163.984 35.38C163.35 36.824 163.034 38.3567 163.034 39.978ZM193.059 58.864L203.965 25.918H206.625L195.605 58.864H193.059ZM208.545 54L220.591 25.918H223.745L235.829 54H232.751L228.685 44.538H215.613L211.509 54H208.545ZM216.677 41.992H227.583L222.187 29.11L216.677 41.992ZM239.144 54V25.918H241.956V54H239.144Z" fill="#070707"/>
<rect width="68" height="68" rx="10" fill="#FF5C10"/>
<path d="M34 45.5H50M18 34H50M18 22.5H50" stroke="white" stroke-width="2" stroke-linecap="round" stroke-linejoin="round"/>
</svg>
