<svg width="64" height="64" viewBox="0 0 64 64" fill="none" xmlns="http://www.w3.org/2000/svg">
  <!-- Логотип по высоте на весь кадр, слева видна буква А -->
  <g transform="scale(2.286)">
    <path d="M113.108 25.7039L114.772 21.1332L119.236 22.7578L117.572 27.3285L113.108 25.7039Z" fill="#FF5C10"/>
    <path d="M101.661 26.8857C99.9294 26.8857 98.3522 26.4652 96.9297 25.624C95.5195 24.7829 94.3939 23.6572 93.5527 22.2471C92.7116 20.8245 92.291 19.2536 92.291 17.5342C92.291 15.8024 92.7116 14.2314 93.5527 12.8213C94.3939 11.3988 95.5195 10.2669 96.9297 9.42578C98.3522 8.58464 99.9294 8.16406 101.661 8.16406C102.948 8.16406 104.154 8.41146 105.279 8.90625C106.417 9.38867 107.729 10.3721 109.213 11.8564L106.077 15.0107C104.989 13.9222 104.147 13.2542 103.554 13.0068C102.96 12.7471 102.329 12.6172 101.661 12.6172C100.758 12.6172 99.9294 12.8398 99.1748 13.2852C98.4326 13.7181 97.8389 14.3057 97.3936 15.0479C96.9606 15.79 96.7441 16.6188 96.7441 17.5342C96.7441 18.4372 96.9606 19.2598 97.3936 20.002C97.8389 20.7441 98.4326 21.3379 99.1748 21.7832C99.9294 22.2161 100.758 22.4326 101.661 22.4326C102.329 22.4326 102.96 22.3089 103.554 22.0615C104.147 21.8018 104.989 21.1276 106.077 20.0391L109.231 23.1934C107.735 24.6777 106.417 25.6673 105.279 26.1621C104.154 26.6445 102.948 26.8857 101.661 26.8857Z" fill="black"/>
    <path d="M89.3408 26.626C86.7803 26.626 84.8073 26.2178 83.4219 25.4014C82.0488 24.5726 80.9541 23.4717 80.1377 22.0986C79.3213 20.7256 78.9007 19.6556 78.876 18.8887H77.2988V26.626H72.8457V8.40527H77.2988V14.417H78.2822C79.1357 14.417 79.915 14.2129 80.6201 13.8047C81.3252 13.3841 81.8818 12.8213 82.29 12.1162C82.7106 11.3988 82.9209 10.1618 82.9209 8.40527H87.3926C87.3926 11.4977 86.6999 13.8789 85.3145 15.5488C84.5599 16.4395 83.9043 17.0456 83.3477 17.3672V17.4971C83.3477 18.363 83.5579 19.1546 83.9785 19.8721C84.3991 20.5771 84.9619 21.14 85.667 21.5605C86.3844 21.9811 87.609 22.1914 89.3408 22.1914V26.626Z" fill="black"/>
    <path d="M60.2842 26.8857C58.5648 26.8857 56.9938 26.4652 55.5713 25.624C54.1488 24.7829 53.0169 23.651 52.1758 22.2285C51.3346 20.806 50.9141 19.2412 50.9141 17.5342C50.9141 15.8148 51.3346 14.2438 52.1758 12.8213C53.0169 11.3988 54.1488 10.2669 55.5713 9.42578C56.9938 8.58464 58.5648 8.16406 60.2842 8.16406C61.8799 8.16406 63.3519 8.53516 64.7002 9.27734C66.0485 10.0072 67.1494 10.9967 68.0029 12.2461C68.8564 13.4954 69.3822 14.9303 69.5801 16.5508L69.6172 17.5342L69.543 19.7422H55.6641C55.6888 19.9401 56.1527 20.4411 57.0557 21.2451C57.9587 22.0492 59.0348 22.4512 60.2842 22.4512C61.484 22.4512 62.8571 21.7956 64.4033 20.4844L67.502 23.6201C65.9681 24.9808 64.6755 25.8652 63.624 26.2734C62.5726 26.6816 61.4593 26.8857 60.2842 26.8857ZM64.9043 15.3076C64.8672 15.1097 64.391 14.6149 63.4756 13.8232C62.5726 13.0192 61.5088 12.6172 60.2842 12.6172C59.0348 12.6172 57.9587 13.0192 57.0557 13.8232C56.1527 14.6149 55.6826 15.1097 55.6455 15.3076H64.9043Z" fill="black"/>
    <path d="M46.7021 26.626H42.249V12.8584H34.7715V26.626H30.3184V8.42383H46.7021V26.626Z" fill="black"/>
    <path d="M21.3936 26.9971H26.3662L15.085 0H11.2812L0 26.9971H4.97266L7.125 21.8203H16.2842L13.6796 17.2373H9.05469L13.1738 7.3291L17.3115 17.2373L21.3936 26.9971Z" fill="black"/>
  </g>
</svg>
