<svg width="68" height="68" viewBox="0 0 68 68" fill="none" xmlns="http://www.w3.org/2000/svg">
<rect width="68" height="68" rx="10" fill="#FF5C10" fill-opacity="0.3"/>
<path d="M22.4445 14H18.1111C16.1178 14 14.5 15.6592 14.5 17.7037V22.1481C14.5 22.5555 14.825 22.8888 15.2222 22.8888C15.6195 22.8888 15.9445 22.5555 15.9445 22.1481V17.7037C15.9445 16.4815 16.9195 15.4815 18.1111 15.4815H22.4445C22.8417 15.4815 23.1667 15.1481 23.1667 14.7407C23.1667 14.3333 22.8417 14 22.4445 14Z" fill="#FF5C10"/>
<path d="M49.8891 14H45.5557C45.1585 14 44.8335 14.3333 44.8335 14.7407C44.8335 15.1481 45.1585 15.4815 45.5557 15.4815H49.8891C51.0807 15.4815 52.0558 16.4815 52.0558 17.7037V22.1481C52.0558 22.5555 52.3808 22.8888 52.778 22.8888C53.1752 22.8888 53.5002 22.5555 53.5002 22.1481V17.7037C53.5002 15.6592 51.8824 14 49.8891 14Z" fill="#FF5C10"/>
<path d="M52.778 45.1111C52.3808 45.1111 52.0558 45.4444 52.0558 45.8518V50.2962C52.0558 51.5184 51.0807 52.5184 49.8891 52.5184H45.5557C45.1585 52.5184 44.8335 52.8518 44.8335 53.2592C44.8335 53.6666 45.1585 53.9999 45.5557 53.9999H49.8891C51.8824 53.9999 53.5002 52.3407 53.5002 50.2962V45.8518C53.5002 45.4444 53.1752 45.1111 52.778 45.1111Z" fill="#FF5C10"/>
<path d="M22.4445 52.518H18.1111C16.9195 52.518 15.9445 51.518 15.9445 50.2958V45.8513C15.9445 45.4439 15.6195 45.1106 15.2222 45.1106C14.825 45.1106 14.5 45.4439 14.5 45.8513V50.2958C14.5 52.3402 16.1178 53.9994 18.1111 53.9994H22.4445C22.8417 53.9994 23.1667 53.6661 23.1667 53.2587C23.1667 52.8513 22.8417 52.518 22.4445 52.518Z" fill="#FF5C10"/>
<path d="M39.0559 33.2594H34.7226V28.815C34.7226 28.4075 34.3976 28.0742 34.0003 28.0742C33.6031 28.0742 33.2781 28.4075 33.2781 28.815V33.2594H28.9448C28.5475 33.2594 28.2225 33.5927 28.2225 34.0001C28.2225 34.4075 28.5475 34.7408 28.9448 34.7408H33.2781V39.1853C33.2781 39.5927 33.6031 39.926 34.0003 39.926C34.3976 39.926 34.7226 39.5927 34.7226 39.1853V34.7408H39.0559C39.4531 34.7408 39.7781 34.4075 39.7781 34.0001C39.7781 33.5927 39.4531 33.2594 39.0559 33.2594Z" fill="#FF5C10"/>
</svg>
