<svg width="26" height="24" viewBox="0 0 26 24" fill="none" xmlns="http://www.w3.org/2000/svg">
<path d="M18.7876 0H6.27105C2.81311 0 0 2.81394 0 6.2729V17.7271C0 21.1861 2.81311 24 6.27105 24H18.7876C22.2456 24 25.0587 21.1861 25.0587 17.7271V6.2729C25.0587 2.81394 22.2456 0 18.7876 0ZM2.21223 6.2729C2.21223 4.0345 4.03331 2.21286 6.27105 2.21286H18.7876C21.0254 2.21286 22.8465 4.0345 22.8465 6.2729V17.7271C22.8465 19.9655 21.0254 21.7871 18.7876 21.7871H6.27105C4.03331 21.7871 2.21223 19.9655 2.21223 17.7271V6.2729Z" fill="white"/>
<path d="M12.5304 17.8347C15.746 17.8347 18.3635 15.2178 18.3635 11.9999C18.3635 8.78192 15.7474 6.16504 12.5304 6.16504C9.3134 6.16504 6.69727 8.78192 6.69727 11.9999C6.69727 15.2178 9.3134 17.8347 12.5304 17.8347ZM12.5304 8.37932C14.5272 8.37932 16.1513 10.0039 16.1513 12.0013C16.1513 13.9987 14.5272 15.6233 12.5304 15.6233C10.5336 15.6233 8.9095 13.9987 8.9095 12.0013C8.9095 10.0039 10.5336 8.37932 12.5304 8.37932Z" fill="white"/>
<path d="M18.9025 7.1081C19.7684 7.1081 20.4741 6.40357 20.4741 5.536C20.4741 4.66843 19.7698 3.96387 18.9025 3.96387C18.0351 3.96387 17.3308 4.66843 17.3308 5.536C17.3308 6.40357 18.0351 7.1081 18.9025 7.1081Z" fill="white"/>
</svg>
