<svg width="440" height="220" viewBox="0 0 440 220" fill="none" xmlns="http://www.w3.org/2000/svg">
<path d="M430 0C435.523 0 440 4.47715 440 10V210C440 215.523 435.523 220 430 220H10C4.47715 220 1.61069e-07 215.523 0 210V95C0 89.4771 4.47715 85 10 85H75C80.5229 85 85 80.5229 85 75V10C85 4.47715 89.4771 0 95 0H430Z" fill="white"/>
<path d="M26.507 123.27C25.217 123.27 24.128 122.985 23.24 122.415C22.352 121.839 21.68 121.044 21.224 120.03C20.768 119.016 20.54 117.846 20.54 116.52C20.54 115.194 20.768 114.024 21.224 113.01C21.68 111.996 22.352 111.204 23.24 110.634C24.128 110.058 25.217 109.77 26.507 109.77C28.013 109.77 29.243 110.157 30.197 110.931C31.151 111.699 31.805 112.731 32.159 114.027L30.809 114.378C30.533 113.352 30.038 112.539 29.324 111.939C28.61 111.339 27.671 111.039 26.507 111.039C25.493 111.039 24.65 111.27 23.978 111.732C23.306 112.194 22.799 112.839 22.457 113.667C22.121 114.489 21.947 115.44 21.935 116.52C21.929 117.6 22.094 118.551 22.43 119.373C22.772 120.195 23.282 120.84 23.96 121.308C24.644 121.77 25.493 122.001 26.507 122.001C27.671 122.001 28.61 121.701 29.324 121.101C30.038 120.495 30.533 119.682 30.809 118.662L32.159 119.013C31.805 120.309 31.151 121.344 30.197 122.118C29.243 122.886 28.013 123.27 26.507 123.27ZM36.9258 123.27C36.1938 123.27 35.5788 123.138 35.0808 122.874C34.5888 122.61 34.2198 122.259 33.9738 121.821C33.7278 121.383 33.6048 120.906 33.6048 120.39C33.6048 119.862 33.7098 119.412 33.9198 119.04C34.1358 118.662 34.4268 118.353 34.7928 118.113C35.1648 117.873 35.5938 117.69 36.0798 117.564C36.5718 117.444 37.1148 117.339 37.7088 117.249C38.3088 117.153 38.8938 117.072 39.4638 117.006C40.0398 116.934 40.5438 116.865 40.9758 116.799L40.5078 117.087C40.5258 116.127 40.3398 115.416 39.9498 114.954C39.5598 114.492 38.8818 114.261 37.9158 114.261C37.2498 114.261 36.6858 114.411 36.2238 114.711C35.7678 115.011 35.4468 115.485 35.2608 116.133L33.9738 115.755C34.1958 114.885 34.6428 114.21 35.3148 113.73C35.9868 113.25 36.8598 113.01 37.9338 113.01C38.8218 113.01 39.5748 113.178 40.1928 113.514C40.8168 113.844 41.2578 114.324 41.5158 114.954C41.6358 115.236 41.7138 115.551 41.7498 115.899C41.7858 116.247 41.8038 116.601 41.8038 116.961V123H40.6248V120.561L40.9668 120.705C40.6368 121.539 40.1238 122.175 39.4278 122.613C38.7318 123.051 37.8978 123.27 36.9258 123.27ZM37.0788 122.127C37.6968 122.127 38.2368 122.016 38.6988 121.794C39.1608 121.572 39.5328 121.269 39.8148 120.885C40.0968 120.495 40.2798 120.057 40.3638 119.571C40.4358 119.259 40.4748 118.917 40.4808 118.545C40.4868 118.167 40.4898 117.885 40.4898 117.699L40.9938 117.96C40.5438 118.02 40.0548 118.08 39.5268 118.14C39.0048 118.2 38.4888 118.269 37.9788 118.347C37.4748 118.425 37.0188 118.518 36.6108 118.626C36.3348 118.704 36.0678 118.815 35.8098 118.959C35.5518 119.097 35.3388 119.283 35.1708 119.517C35.0088 119.751 34.9278 120.042 34.9278 120.39C34.9278 120.672 34.9968 120.945 35.1348 121.209C35.2788 121.473 35.5068 121.692 35.8188 121.866C36.1368 122.04 36.5568 122.127 37.0788 122.127ZM48.1787 112.128C47.7527 112.128 47.3627 112.023 47.0087 111.813C46.6547 111.603 46.3727 111.324 46.1627 110.976C45.9587 110.622 45.8567 110.232 45.8567 109.806H46.9547C46.9547 110.142 47.0747 110.43 47.3147 110.67C47.5547 110.91 47.8427 111.03 48.1787 111.03C48.5207 111.03 48.8087 110.91 49.0427 110.67C49.2827 110.43 49.4027 110.142 49.4027 109.806H50.5007C50.5007 110.232 50.3957 110.622 50.1857 110.976C49.9817 111.324 49.7027 111.603 49.3487 111.813C48.9947 112.023 48.6047 112.128 48.1787 112.128ZM51.8687 113.28V123H50.5817V115.431L45.2537 123H44.1377V113.28H45.4247V120.786L50.7617 113.28H51.8687ZM57.0318 123V114.504H53.5848V113.28H61.8018V114.504H58.3548V123H57.0318ZM71.1533 123.27C70.1753 123.27 69.3473 123.051 68.6693 122.613C67.9913 122.175 67.4753 121.572 67.1213 120.804C66.7733 120.03 66.5933 119.142 66.5813 118.14C66.5933 117.12 66.7793 116.226 67.1393 115.458C67.4993 114.684 68.0183 114.084 68.6963 113.658C69.3743 113.226 70.1963 113.01 71.1623 113.01C72.1463 113.01 73.0013 113.25 73.7273 113.73C74.4593 114.21 74.9603 114.867 75.2303 115.701L73.9343 116.115C73.7063 115.533 73.3433 115.083 72.8453 114.765C72.3533 114.441 71.7893 114.279 71.1533 114.279C70.4393 114.279 69.8483 114.444 69.3803 114.774C68.9123 115.098 68.5643 115.551 68.3363 116.133C68.1083 116.715 67.9913 117.384 67.9853 118.14C67.9973 119.304 68.2673 120.24 68.7953 120.948C69.3233 121.65 70.1093 122.001 71.1533 122.001C71.8133 122.001 72.3743 121.851 72.8363 121.551C73.3043 121.245 73.6583 120.801 73.8983 120.219L75.2303 120.615C74.8703 121.479 74.3423 122.139 73.6463 122.595C72.9503 123.045 72.1193 123.27 71.1533 123.27ZM79.4966 123V114.504H76.0496V113.28H84.2666V114.504H80.8196V123H79.4966ZM88.3945 123.27C87.6625 123.27 87.0475 123.138 86.5495 122.874C86.0575 122.61 85.6885 122.259 85.4425 121.821C85.1965 121.383 85.0735 120.906 85.0735 120.39C85.0735 119.862 85.1785 119.412 85.3885 119.04C85.6045 118.662 85.8955 118.353 86.2615 118.113C86.6335 117.873 87.0625 117.69 87.5485 117.564C88.0405 117.444 88.5835 117.339 89.1775 117.249C89.7775 117.153 90.3625 117.072 90.9325 117.006C91.5085 116.934 92.0125 116.865 92.4445 116.799L91.9765 117.087C91.9945 116.127 91.8085 115.416 91.4185 114.954C91.0285 114.492 90.3505 114.261 89.3845 114.261C88.7185 114.261 88.1545 114.411 87.6925 114.711C87.2365 115.011 86.9155 115.485 86.7295 116.133L85.4425 115.755C85.6645 114.885 86.1115 114.21 86.7835 113.73C87.4555 113.25 88.3285 113.01 89.4025 113.01C90.2905 113.01 91.0435 113.178 91.6615 113.514C92.2855 113.844 92.7265 114.324 92.9845 114.954C93.1045 115.236 93.1825 115.551 93.2185 115.899C93.2545 116.247 93.2725 116.601 93.2725 116.961V123H92.0935V120.561L92.4355 120.705C92.1055 121.539 91.5925 122.175 90.8965 122.613C90.2005 123.051 89.3665 123.27 88.3945 123.27ZM88.5475 122.127C89.1655 122.127 89.7055 122.016 90.1675 121.794C90.6295 121.572 91.0015 121.269 91.2835 120.885C91.5655 120.495 91.7485 120.057 91.8325 119.571C91.9045 119.259 91.9435 118.917 91.9495 118.545C91.9555 118.167 91.9585 117.885 91.9585 117.699L92.4625 117.96C92.0125 118.02 91.5235 118.08 90.9955 118.14C90.4735 118.2 89.9575 118.269 89.4475 118.347C88.9435 118.425 88.4875 118.518 88.0795 118.626C87.8035 118.704 87.5365 118.815 87.2785 118.959C87.0205 119.097 86.8075 119.283 86.6395 119.517C86.4775 119.751 86.3965 120.042 86.3965 120.39C86.3965 120.672 86.4655 120.945 86.6035 121.209C86.7475 121.473 86.9755 121.692 87.2875 121.866C87.6055 122.04 88.0255 122.127 88.5475 122.127ZM95.6065 123V113.28H96.9295V117.501H102.41V113.28H103.733V123H102.41V118.77H96.9295V123H95.6065ZM110.309 123.27C109.343 123.27 108.518 123.051 107.834 122.613C107.15 122.175 106.625 121.569 106.259 120.795C105.893 120.021 105.71 119.133 105.71 118.131C105.71 117.111 105.896 116.217 106.268 115.449C106.64 114.681 107.168 114.084 107.852 113.658C108.542 113.226 109.361 113.01 110.309 113.01C111.281 113.01 112.109 113.229 112.793 113.667C113.483 114.099 114.008 114.702 114.368 115.476C114.734 116.244 114.917 117.129 114.917 118.131C114.917 119.151 114.734 120.048 114.368 120.822C114.002 121.59 113.474 122.19 112.784 122.622C112.094 123.054 111.269 123.27 110.309 123.27ZM110.309 122.001C111.389 122.001 112.193 121.644 112.721 120.93C113.249 120.21 113.513 119.277 113.513 118.131C113.513 116.955 113.246 116.019 112.712 115.323C112.184 114.627 111.383 114.279 110.309 114.279C109.583 114.279 108.983 114.444 108.509 114.774C108.041 115.098 107.69 115.551 107.456 116.133C107.228 116.709 107.114 117.375 107.114 118.131C107.114 119.301 107.384 120.24 107.924 120.948C108.464 121.65 109.259 122.001 110.309 122.001ZM116.894 123V113.28H120.899C121.103 113.28 121.349 113.292 121.637 113.316C121.931 113.34 122.204 113.385 122.456 113.451C123.002 113.595 123.44 113.889 123.77 114.333C124.106 114.777 124.274 115.311 124.274 115.935C124.274 116.283 124.22 116.595 124.112 116.871C124.01 117.141 123.863 117.375 123.671 117.573C123.581 117.675 123.482 117.765 123.374 117.843C123.266 117.915 123.161 117.975 123.059 118.023C123.251 118.059 123.458 118.143 123.68 118.275C124.028 118.479 124.292 118.755 124.472 119.103C124.652 119.445 124.742 119.862 124.742 120.354C124.742 121.02 124.583 121.563 124.265 121.983C123.947 122.403 123.521 122.691 122.987 122.847C122.747 122.913 122.486 122.955 122.204 122.973C121.928 122.991 121.667 123 121.421 123H116.894ZM118.226 121.875H121.358C121.484 121.875 121.643 121.866 121.835 121.848C122.027 121.824 122.198 121.794 122.348 121.758C122.702 121.668 122.96 121.488 123.122 121.218C123.29 120.942 123.374 120.642 123.374 120.318C123.374 119.892 123.248 119.544 122.996 119.274C122.75 118.998 122.42 118.83 122.006 118.77C121.868 118.74 121.724 118.722 121.574 118.716C121.424 118.71 121.289 118.707 121.169 118.707H118.226V121.875ZM118.226 117.573H120.944C121.1 117.573 121.274 117.564 121.466 117.546C121.664 117.522 121.835 117.483 121.979 117.429C122.291 117.321 122.519 117.135 122.663 116.871C122.813 116.607 122.888 116.319 122.888 116.007C122.888 115.665 122.807 115.365 122.645 115.107C122.489 114.849 122.252 114.669 121.934 114.567C121.718 114.489 121.484 114.444 121.232 114.432C120.986 114.42 120.83 114.414 120.764 114.414H118.226V117.573ZM134.257 113.28V123H132.97V115.431L127.642 123H126.526V113.28H127.813V120.786L133.15 113.28H134.257ZM139.42 123V114.504H135.973V113.28H144.19V114.504H140.743V123H139.42ZM149.763 123.27C148.785 123.27 147.957 123.051 147.279 122.613C146.601 122.175 146.085 121.572 145.731 120.804C145.383 120.03 145.203 119.142 145.191 118.14C145.203 117.12 145.389 116.226 145.749 115.458C146.109 114.684 146.628 114.084 147.306 113.658C147.984 113.226 148.806 113.01 149.772 113.01C150.756 113.01 151.611 113.25 152.337 113.73C153.069 114.21 153.57 114.867 153.84 115.701L152.544 116.115C152.316 115.533 151.953 115.083 151.455 114.765C150.963 114.441 150.399 114.279 149.763 114.279C149.049 114.279 148.458 114.444 147.99 114.774C147.522 115.098 147.174 115.551 146.946 116.133C146.718 116.715 146.601 117.384 146.595 118.14C146.607 119.304 146.877 120.24 147.405 120.948C147.933 121.65 148.719 122.001 149.763 122.001C150.423 122.001 150.984 121.851 151.446 121.551C151.914 121.245 152.268 120.801 152.508 120.219L153.84 120.615C153.48 121.479 152.952 122.139 152.256 122.595C151.56 123.045 150.729 123.27 149.763 123.27ZM161.738 123V119.337H159.47C159.206 119.337 158.933 119.328 158.651 119.31C158.375 119.286 158.117 119.253 157.877 119.211C157.193 119.079 156.611 118.779 156.131 118.311C155.657 117.837 155.42 117.183 155.42 116.349C155.42 115.533 155.642 114.879 156.086 114.387C156.53 113.889 157.067 113.565 157.697 113.415C157.985 113.349 158.276 113.31 158.57 113.298C158.87 113.286 159.128 113.28 159.344 113.28H163.061L163.07 123H161.738ZM155.105 123L157.814 118.923H159.281L156.554 123H155.105ZM159.398 118.203H161.738V114.414H159.398C159.254 114.414 159.053 114.42 158.795 114.432C158.537 114.444 158.294 114.483 158.066 114.549C157.868 114.609 157.67 114.714 157.472 114.864C157.28 115.008 157.118 115.203 156.986 115.449C156.854 115.689 156.788 115.983 156.788 116.331C156.788 116.817 156.92 117.207 157.184 117.501C157.454 117.789 157.79 117.987 158.192 118.095C158.408 118.143 158.624 118.173 158.84 118.185C159.056 118.197 159.242 118.203 159.398 118.203ZM173.229 123.27C172.252 123.27 171.424 123.051 170.746 122.613C170.068 122.175 169.552 121.572 169.198 120.804C168.85 120.03 168.67 119.142 168.658 118.14C168.67 117.12 168.856 116.226 169.216 115.458C169.576 114.684 170.095 114.084 170.773 113.658C171.451 113.226 172.273 113.01 173.239 113.01C174.223 113.01 175.078 113.25 175.804 113.73C176.536 114.21 177.037 114.867 177.307 115.701L176.011 116.115C175.783 115.533 175.42 115.083 174.922 114.765C174.43 114.441 173.866 114.279 173.229 114.279C172.516 114.279 171.925 114.444 171.457 114.774C170.989 115.098 170.641 115.551 170.413 116.133C170.185 116.715 170.068 117.384 170.062 118.14C170.074 119.304 170.344 120.24 170.872 120.948C171.4 121.65 172.186 122.001 173.229 122.001C173.89 122.001 174.451 121.851 174.913 121.551C175.381 121.245 175.735 120.801 175.975 120.219L177.307 120.615C176.947 121.479 176.419 122.139 175.723 122.595C175.027 123.045 174.196 123.27 173.229 123.27ZM181.573 123V114.504H178.126V113.28H186.343V114.504H182.896V123H181.573ZM190.471 123.27C189.739 123.27 189.124 123.138 188.626 122.874C188.134 122.61 187.765 122.259 187.519 121.821C187.273 121.383 187.15 120.906 187.15 120.39C187.15 119.862 187.255 119.412 187.465 119.04C187.681 118.662 187.972 118.353 188.338 118.113C188.71 117.873 189.139 117.69 189.625 117.564C190.117 117.444 190.66 117.339 191.254 117.249C191.854 117.153 192.439 117.072 193.009 117.006C193.585 116.934 194.089 116.865 194.521 116.799L194.053 117.087C194.071 116.127 193.885 115.416 193.495 114.954C193.105 114.492 192.427 114.261 191.461 114.261C190.795 114.261 190.231 114.411 189.769 114.711C189.313 115.011 188.992 115.485 188.806 116.133L187.519 115.755C187.741 114.885 188.188 114.21 188.86 113.73C189.532 113.25 190.405 113.01 191.479 113.01C192.367 113.01 193.12 113.178 193.738 113.514C194.362 113.844 194.803 114.324 195.061 114.954C195.181 115.236 195.259 115.551 195.295 115.899C195.331 116.247 195.349 116.601 195.349 116.961V123H194.17V120.561L194.512 120.705C194.182 121.539 193.669 122.175 192.973 122.613C192.277 123.051 191.443 123.27 190.471 123.27ZM190.624 122.127C191.242 122.127 191.782 122.016 192.244 121.794C192.706 121.572 193.078 121.269 193.36 120.885C193.642 120.495 193.825 120.057 193.909 119.571C193.981 119.259 194.02 118.917 194.026 118.545C194.032 118.167 194.035 117.885 194.035 117.699L194.539 117.96C194.089 118.02 193.6 118.08 193.072 118.14C192.55 118.2 192.034 118.269 191.524 118.347C191.02 118.425 190.564 118.518 190.156 118.626C189.88 118.704 189.613 118.815 189.355 118.959C189.097 119.097 188.884 119.283 188.716 119.517C188.554 119.751 188.473 120.042 188.473 120.39C188.473 120.672 188.542 120.945 188.68 121.209C188.824 121.473 189.052 121.692 189.364 121.866C189.682 122.04 190.102 122.127 190.624 122.127ZM201.589 123.279C200.683 123.273 199.906 123.075 199.258 122.685C198.61 122.295 198.106 121.713 197.746 120.939C197.392 120.165 197.2 119.199 197.17 118.041C197.152 117.531 197.164 116.976 197.206 116.376C197.248 115.77 197.314 115.194 197.404 114.648C197.494 114.102 197.602 113.658 197.728 113.316C197.884 112.872 198.106 112.458 198.394 112.074C198.688 111.684 199.027 111.366 199.411 111.12C199.783 110.868 200.203 110.673 200.671 110.535C201.145 110.391 201.637 110.28 202.147 110.202C202.663 110.124 203.173 110.055 203.677 109.995C204.187 109.935 204.658 109.86 205.09 109.77L205.234 110.967C204.904 111.033 204.514 111.093 204.064 111.147C203.614 111.201 203.143 111.267 202.651 111.345C202.159 111.417 201.688 111.516 201.238 111.642C200.788 111.768 200.404 111.933 200.086 112.137C199.6 112.431 199.225 112.875 198.961 113.469C198.703 114.063 198.544 114.744 198.484 115.512C198.856 114.93 199.348 114.492 199.96 114.198C200.578 113.904 201.247 113.757 201.967 113.757C202.843 113.757 203.596 113.958 204.226 114.36C204.862 114.762 205.351 115.32 205.693 116.034C206.035 116.748 206.206 117.567 206.206 118.491C206.206 119.457 206.017 120.3 205.639 121.02C205.267 121.74 204.736 122.298 204.046 122.694C203.356 123.084 202.537 123.279 201.589 123.279ZM201.688 122.01C202.708 122.01 203.482 121.692 204.01 121.056C204.544 120.42 204.811 119.574 204.811 118.518C204.811 117.438 204.535 116.586 203.983 115.962C203.437 115.338 202.666 115.026 201.67 115.026C200.674 115.026 199.909 115.338 199.375 115.962C198.841 116.586 198.574 117.438 198.574 118.518C198.574 119.598 198.841 120.45 199.375 121.074C199.909 121.698 200.68 122.01 201.688 122.01ZM215.908 113.28V123H214.621V115.431L209.293 123H208.177V113.28H209.464V120.786L214.801 113.28H215.908ZM217.534 123V121.839C217.894 121.905 218.167 121.89 218.353 121.794C218.545 121.692 218.686 121.524 218.776 121.29C218.866 121.05 218.941 120.753 219.001 120.399C219.097 119.811 219.184 119.163 219.262 118.455C219.34 117.747 219.409 116.967 219.469 116.115C219.535 115.257 219.601 114.312 219.667 113.28H226.273V123H224.959V114.549H220.891C220.849 115.185 220.801 115.818 220.747 116.448C220.693 117.078 220.636 117.684 220.576 118.266C220.522 118.842 220.462 119.373 220.396 119.859C220.33 120.345 220.261 120.765 220.189 121.119C220.081 121.653 219.937 122.079 219.757 122.397C219.583 122.715 219.322 122.925 218.974 123.027C218.626 123.129 218.146 123.12 217.534 123ZM228.796 123L228.778 113.28H230.11V116.943H232.387C232.669 116.943 232.945 116.949 233.215 116.961C233.491 116.973 233.734 116.997 233.944 117.033C234.424 117.123 234.85 117.282 235.222 117.51C235.6 117.738 235.894 118.053 236.104 118.455C236.32 118.857 236.428 119.361 236.428 119.967C236.428 120.801 236.212 121.458 235.78 121.938C235.354 122.418 234.814 122.73 234.16 122.874C233.914 122.928 233.647 122.964 233.359 122.982C233.071 122.994 232.786 123 232.504 123H228.796ZM230.11 121.866H232.45C232.654 121.866 232.882 121.86 233.134 121.848C233.386 121.836 233.608 121.803 233.8 121.749C234.118 121.659 234.406 121.479 234.664 121.209C234.928 120.933 235.06 120.519 235.06 119.967C235.06 119.421 234.934 119.01 234.682 118.734C234.43 118.452 234.094 118.266 233.674 118.176C233.488 118.134 233.287 118.107 233.071 118.095C232.855 118.083 232.648 118.077 232.45 118.077H230.11V121.866ZM238.13 123V113.28H239.453V117.501H244.934V113.28H246.257V123H244.934V118.77H239.453V123H238.13ZM248.783 123L248.765 113.28H250.097V116.943H251.789C252.071 116.943 252.347 116.949 252.617 116.961C252.887 116.973 253.13 116.997 253.346 117.033C253.826 117.129 254.252 117.291 254.624 117.519C254.996 117.747 255.29 118.062 255.506 118.464C255.722 118.86 255.83 119.361 255.83 119.967C255.83 120.801 255.614 121.458 255.182 121.938C254.75 122.418 254.207 122.73 253.553 122.874C253.307 122.928 253.04 122.964 252.752 122.982C252.464 122.994 252.182 123 251.906 123H248.783ZM250.097 121.866H251.852C252.05 121.866 252.275 121.86 252.527 121.848C252.779 121.836 253.001 121.803 253.193 121.749C253.517 121.659 253.808 121.479 254.066 121.209C254.33 120.933 254.462 120.519 254.462 119.967C254.462 119.421 254.336 119.01 254.084 118.734C253.832 118.452 253.496 118.266 253.076 118.176C252.884 118.134 252.68 118.107 252.464 118.095C252.254 118.083 252.05 118.077 251.852 118.077H250.097V121.866ZM256.991 123V113.28H258.314V123H256.991ZM260.823 123V113.28H262.002L265.791 121.236L269.589 113.28H270.759V123H269.481V116.106L266.214 123H265.377L262.11 116.106V123H260.823ZM284.603 113.28V123H283.316V115.431L277.988 123H276.872V113.28H278.159V120.786L283.496 113.28H284.603ZM291.161 123.27C290.183 123.27 289.355 123.051 288.677 122.613C287.999 122.175 287.483 121.572 287.129 120.804C286.781 120.03 286.601 119.142 286.589 118.14C286.601 117.12 286.787 116.226 287.147 115.458C287.507 114.684 288.026 114.084 288.704 113.658C289.382 113.226 290.204 113.01 291.17 113.01C292.154 113.01 293.009 113.25 293.735 113.73C294.467 114.21 294.968 114.867 295.238 115.701L293.942 116.115C293.714 115.533 293.351 115.083 292.853 114.765C292.361 114.441 291.797 114.279 291.161 114.279C290.447 114.279 289.856 114.444 289.388 114.774C288.92 115.098 288.572 115.551 288.344 116.133C288.116 116.715 287.999 117.384 287.993 118.14C288.005 119.304 288.275 120.24 288.803 120.948C289.331 121.65 290.117 122.001 291.161 122.001C291.821 122.001 292.382 121.851 292.844 121.551C293.312 121.245 293.666 120.801 293.906 120.219L295.238 120.615C294.878 121.479 294.35 122.139 293.654 122.595C292.958 123.045 292.127 123.27 291.161 123.27ZM299.504 123V114.504H296.057V113.28H304.274V114.504H300.827V123H299.504ZM309.874 123.27C308.908 123.27 308.083 123.051 307.399 122.613C306.715 122.175 306.19 121.569 305.824 120.795C305.458 120.021 305.275 119.133 305.275 118.131C305.275 117.111 305.461 116.217 305.833 115.449C306.205 114.681 306.733 114.084 307.417 113.658C308.107 113.226 308.926 113.01 309.874 113.01C310.846 113.01 311.674 113.229 312.358 113.667C313.048 114.099 313.573 114.702 313.933 115.476C314.299 116.244 314.482 117.129 314.482 118.131C314.482 119.151 314.299 120.048 313.933 120.822C313.567 121.59 313.039 122.19 312.349 122.622C311.659 123.054 310.834 123.27 309.874 123.27ZM309.874 122.001C310.954 122.001 311.758 121.644 312.286 120.93C312.814 120.21 313.078 119.277 313.078 118.131C313.078 116.955 312.811 116.019 312.277 115.323C311.749 114.627 310.948 114.279 309.874 114.279C309.148 114.279 308.548 114.444 308.074 114.774C307.606 115.098 307.255 115.551 307.021 116.133C306.793 116.709 306.679 117.375 306.679 118.131C306.679 119.301 306.949 120.24 307.489 120.948C308.029 121.65 308.824 122.001 309.874 122.001ZM322.416 123V119.382C322.092 119.544 321.693 119.685 321.219 119.805C320.745 119.925 320.235 119.985 319.689 119.985C318.705 119.985 317.907 119.766 317.295 119.328C316.683 118.89 316.284 118.257 316.098 117.429C316.038 117.183 315.996 116.922 315.972 116.646C315.954 116.37 315.942 116.121 315.936 115.899C315.93 115.677 315.927 115.518 315.927 115.422V113.28H317.259V115.422C317.259 115.62 317.265 115.845 317.277 116.097C317.289 116.349 317.316 116.595 317.358 116.835C317.478 117.489 317.748 117.984 318.168 118.32C318.594 118.656 319.191 118.824 319.959 118.824C320.439 118.824 320.892 118.764 321.318 118.644C321.75 118.518 322.116 118.35 322.416 118.14V113.28H323.739V123H322.416ZM326.249 123V113.28H327.572V117.501H333.053V113.28H334.376V123H333.053V118.77H327.572V123H326.249ZM344.615 113.28V123H343.328V115.431L338 123H336.884V113.28H338.171V120.786L343.508 113.28H344.615ZM347.132 123L347.141 113.28H348.473V117.96L352.811 113.28H354.575L350.021 118.14L355.169 123H353.243L348.473 118.32V123H347.132ZM359.954 123.27C358.988 123.27 358.163 123.051 357.479 122.613C356.795 122.175 356.27 121.569 355.904 120.795C355.538 120.021 355.355 119.133 355.355 118.131C355.355 117.111 355.541 116.217 355.913 115.449C356.285 114.681 356.813 114.084 357.497 113.658C358.187 113.226 359.006 113.01 359.954 113.01C360.926 113.01 361.754 113.229 362.438 113.667C363.128 114.099 363.653 114.702 364.013 115.476C364.379 116.244 364.562 117.129 364.562 118.131C364.562 119.151 364.379 120.048 364.013 120.822C363.647 121.59 363.119 122.19 362.429 122.622C361.739 123.054 360.914 123.27 359.954 123.27ZM359.954 122.001C361.034 122.001 361.838 121.644 362.366 120.93C362.894 120.21 363.158 119.277 363.158 118.131C363.158 116.955 362.891 116.019 362.357 115.323C361.829 114.627 361.028 114.279 359.954 114.279C359.228 114.279 358.628 114.444 358.154 114.774C357.686 115.098 357.335 115.551 357.101 116.133C356.873 116.709 356.759 117.375 356.759 118.131C356.759 119.301 357.029 120.24 357.569 120.948C358.109 121.65 358.904 122.001 359.954 122.001ZM366.538 123V113.28H367.717L371.506 121.236L375.304 113.28H376.474V123H375.196V116.106L371.929 123H371.092L367.825 116.106V123H366.538ZM21.251 145L21.26 135.28H22.592V139.96L26.93 135.28H28.694L24.14 140.14L29.288 145H27.362L22.592 140.32V145H21.251ZM29.1139 145V143.839C29.4739 143.905 29.7469 143.89 29.9329 143.794C30.1249 143.692 30.2659 143.524 30.3559 143.29C30.4459 143.05 30.5209 142.753 30.5809 142.399C30.6769 141.811 30.7639 141.163 30.8419 140.455C30.9199 139.747 30.9889 138.967 31.0489 138.115C31.1149 137.257 31.1809 136.312 31.2469 135.28H37.8529V145H36.5389V136.549H32.4709C32.4289 137.185 32.3809 137.818 32.3269 138.448C32.2729 139.078 32.2159 139.684 32.1559 140.266C32.1019 140.842 32.0419 141.373 31.9759 141.859C31.9099 142.345 31.8409 142.765 31.7689 143.119C31.6609 143.653 31.5169 144.079 31.3369 144.397C31.1629 144.715 30.9019 144.925 30.5539 145.027C30.2059 145.129 29.7259 145.12 29.1139 145ZM48.0894 135.28V145H46.8024V137.431L41.4744 145H40.3584V135.28H41.6454V142.786L46.9824 135.28H48.0894ZM54.7285 145.27C53.7805 145.27 52.9585 145.06 52.2625 144.64C51.5725 144.22 51.0355 143.629 50.6515 142.867C50.2675 142.105 50.0755 141.211 50.0755 140.185C50.0755 139.123 50.2645 138.205 50.6425 137.431C51.0205 136.657 51.5515 136.06 52.2355 135.64C52.9255 135.22 53.7385 135.01 54.6745 135.01C55.6345 135.01 56.4535 135.232 57.1315 135.676C57.8095 136.114 58.3225 136.744 58.6705 137.566C59.0185 138.388 59.1775 139.369 59.1475 140.509H57.7975V140.041C57.7735 138.781 57.5005 137.83 56.9785 137.188C56.4625 136.546 55.7065 136.225 54.7105 136.225C53.6665 136.225 52.8655 136.564 52.3075 137.242C51.7555 137.92 51.4795 138.886 51.4795 140.14C51.4795 141.364 51.7555 142.315 52.3075 142.993C52.8655 143.665 53.6545 144.001 54.6745 144.001C55.3705 144.001 55.9765 143.842 56.4925 143.524C57.0145 143.2 57.4255 142.735 57.7255 142.129L58.9585 142.606C58.5745 143.452 58.0075 144.109 57.2575 144.577C56.5135 145.039 55.6705 145.27 54.7285 145.27ZM51.0115 140.509V139.402H58.4365V140.509H51.0115ZM61.1358 145V135.28H62.4588V139.501H67.9398V135.28H69.2628V145H67.9398V140.77H62.4588V145H61.1358ZM74.4165 145V136.504H70.9695V135.28H79.1865V136.504H75.7395V145H74.4165ZM84.7858 145.27C83.8198 145.27 82.9948 145.051 82.3108 144.613C81.6268 144.175 81.1018 143.569 80.7358 142.795C80.3698 142.021 80.1868 141.133 80.1868 140.131C80.1868 139.111 80.3728 138.217 80.7448 137.449C81.1168 136.681 81.6448 136.084 82.3288 135.658C83.0188 135.226 83.8378 135.01 84.7858 135.01C85.7578 135.01 86.5858 135.229 87.2698 135.667C87.9598 136.099 88.4848 136.702 88.8448 137.476C89.2108 138.244 89.3938 139.129 89.3938 140.131C89.3938 141.151 89.2108 142.048 88.8448 142.822C88.4788 143.59 87.9508 144.19 87.2608 144.622C86.5708 145.054 85.7458 145.27 84.7858 145.27ZM84.7858 144.001C85.8658 144.001 86.6698 143.644 87.1978 142.93C87.7258 142.21 87.9898 141.277 87.9898 140.131C87.9898 138.955 87.7228 138.019 87.1888 137.323C86.6608 136.627 85.8598 136.279 84.7858 136.279C84.0598 136.279 83.4598 136.444 82.9858 136.774C82.5178 137.098 82.1668 137.551 81.9328 138.133C81.7048 138.709 81.5908 139.375 81.5908 140.131C81.5908 141.301 81.8608 142.24 82.4008 142.948C82.9408 143.65 83.7358 144.001 84.7858 144.001ZM91.3701 145V135.28H95.3751C95.5791 135.28 95.8251 135.292 96.1131 135.316C96.4071 135.34 96.6801 135.385 96.9321 135.451C97.4781 135.595 97.9161 135.889 98.2461 136.333C98.5821 136.777 98.7501 137.311 98.7501 137.935C98.7501 138.283 98.6961 138.595 98.5881 138.871C98.4861 139.141 98.3391 139.375 98.1471 139.573C98.0571 139.675 97.9581 139.765 97.8501 139.843C97.7421 139.915 97.6371 139.975 97.5351 140.023C97.7271 140.059 97.9341 140.143 98.1561 140.275C98.5041 140.479 98.7681 140.755 98.9481 141.103C99.1281 141.445 99.2181 141.862 99.2181 142.354C99.2181 143.02 99.0591 143.563 98.7411 143.983C98.4231 144.403 97.9971 144.691 97.4631 144.847C97.2231 144.913 96.9621 144.955 96.6801 144.973C96.4041 144.991 96.1431 145 95.8971 145H91.3701ZM92.7021 143.875H95.8341C95.9601 143.875 96.1191 143.866 96.3111 143.848C96.5031 143.824 96.6741 143.794 96.8241 143.758C97.1781 143.668 97.4361 143.488 97.5981 143.218C97.7661 142.942 97.8501 142.642 97.8501 142.318C97.8501 141.892 97.7241 141.544 97.4721 141.274C97.2261 140.998 96.8961 140.83 96.4821 140.77C96.3441 140.74 96.2001 140.722 96.0501 140.716C95.9001 140.71 95.7651 140.707 95.6451 140.707H92.7021V143.875ZM92.7021 139.573H95.4201C95.5761 139.573 95.7501 139.564 95.9421 139.546C96.1401 139.522 96.3111 139.483 96.4551 139.429C96.7671 139.321 96.9951 139.135 97.1391 138.871C97.2891 138.607 97.3641 138.319 97.3641 138.007C97.3641 137.665 97.2831 137.365 97.1211 137.107C96.9651 136.849 96.7281 136.669 96.4101 136.567C96.1941 136.489 95.9601 136.444 95.7081 136.432C95.4621 136.42 95.3061 136.414 95.2401 136.414H92.7021V139.573ZM112.337 135.28V145H111.05V137.431L105.722 145H104.606V135.28H105.893V142.786L111.23 135.28H112.337ZM118.365 145.27C117.387 145.27 116.532 145.057 115.8 144.631C115.074 144.199 114.501 143.602 114.081 142.84L115.143 142.165C115.497 142.765 115.938 143.221 116.466 143.533C116.994 143.845 117.6 144.001 118.284 144.001C118.998 144.001 119.571 143.836 120.003 143.506C120.435 143.176 120.651 142.723 120.651 142.147C120.651 141.751 120.558 141.436 120.372 141.202C120.192 140.968 119.916 140.8 119.544 140.698C119.178 140.596 118.719 140.545 118.167 140.545H117.015V139.411H118.149C118.821 139.411 119.361 139.291 119.769 139.051C120.183 138.805 120.39 138.421 120.39 137.899C120.39 137.347 120.183 136.939 119.769 136.675C119.361 136.405 118.872 136.27 118.302 136.27C117.726 136.27 117.18 136.39 116.664 136.63C116.154 136.864 115.725 137.167 115.377 137.539L114.531 136.648C115.017 136.114 115.584 135.709 116.232 135.433C116.886 135.151 117.609 135.01 118.401 135.01C119.025 135.01 119.589 135.121 120.093 135.343C120.603 135.559 121.005 135.877 121.299 136.297C121.599 136.717 121.749 137.221 121.749 137.809C121.749 138.361 121.614 138.838 121.344 139.24C121.08 139.642 120.705 139.975 120.219 140.239L120.147 139.744C120.567 139.822 120.915 139.99 121.191 140.248C121.467 140.506 121.671 140.815 121.803 141.175C121.935 141.535 122.001 141.901 122.001 142.273C122.001 142.891 121.839 143.425 121.515 143.875C121.197 144.319 120.762 144.664 120.21 144.91C119.664 145.15 119.049 145.27 118.365 145.27ZM136.419 145H135.105V140.077H130.794L130.335 139.969C129.375 139.783 128.637 139.33 128.121 138.61C127.605 137.89 127.347 137.041 127.347 136.063C127.347 135.385 127.47 134.767 127.716 134.209C127.962 133.651 128.319 133.189 128.787 132.823C129.261 132.451 129.834 132.214 130.506 132.112C130.674 132.082 130.836 132.064 130.992 132.058C131.148 132.046 131.289 132.04 131.415 132.04H136.419V145ZM128.571 145H127.05L129.858 139.24L131.127 139.726L128.571 145ZM135.105 138.817V133.309H131.451C131.349 133.309 131.223 133.315 131.073 133.327C130.929 133.333 130.788 133.351 130.65 133.381C130.206 133.477 129.84 133.66 129.552 133.93C129.27 134.2 129.06 134.524 128.922 134.902C128.784 135.274 128.715 135.661 128.715 136.063C128.715 136.465 128.784 136.852 128.922 137.224C129.06 137.596 129.27 137.917 129.552 138.187C129.84 138.457 130.206 138.64 130.65 138.736C130.788 138.766 130.929 138.787 131.073 138.799C131.223 138.811 131.349 138.817 131.451 138.817H135.105ZM138.937 145V135.28H140.26V139.501H145.741V135.28H147.064V145H145.741V140.77H140.26V145H138.937ZM148.86 147.16V143.866C149.412 143.866 149.808 143.689 150.048 143.335C150.288 142.975 150.483 142.402 150.633 141.616C150.735 141.106 150.819 140.557 150.885 139.969C150.951 139.381 151.008 138.709 151.056 137.953C151.104 137.191 151.149 136.3 151.191 135.28H157.617V143.866H158.553V147.16H157.275V145H150.129V147.16H148.86ZM151.101 143.866H156.303V136.414H152.415C152.397 136.87 152.37 137.353 152.334 137.863C152.304 138.373 152.265 138.883 152.217 139.393C152.175 139.903 152.124 140.383 152.064 140.833C152.01 141.277 151.944 141.667 151.866 142.003C151.776 142.435 151.677 142.804 151.569 143.11C151.467 143.416 151.311 143.668 151.101 143.866ZM164.469 145.27C163.521 145.27 162.699 145.06 162.003 144.64C161.313 144.22 160.776 143.629 160.392 142.867C160.008 142.105 159.816 141.211 159.816 140.185C159.816 139.123 160.005 138.205 160.383 137.431C160.761 136.657 161.292 136.06 161.976 135.64C162.666 135.22 163.479 135.01 164.415 135.01C165.375 135.01 166.194 135.232 166.872 135.676C167.55 136.114 168.063 136.744 168.411 137.566C168.759 138.388 168.918 139.369 168.888 140.509H167.538V140.041C167.514 138.781 167.241 137.83 166.719 137.188C166.203 136.546 165.447 136.225 164.451 136.225C163.407 136.225 162.606 136.564 162.048 137.242C161.496 137.92 161.22 138.886 161.22 140.14C161.22 141.364 161.496 142.315 162.048 142.993C162.606 143.665 163.395 144.001 164.415 144.001C165.111 144.001 165.717 143.842 166.233 143.524C166.755 143.2 167.166 142.735 167.466 142.129L168.699 142.606C168.315 143.452 167.748 144.109 166.998 144.577C166.254 145.039 165.411 145.27 164.469 145.27ZM160.752 140.509V139.402H168.177V140.509H160.752ZM170.876 145L170.885 135.28H172.217V139.96L176.555 135.28H178.319L173.765 140.14L178.913 145H176.987L172.217 140.32V145H170.876ZM183.671 145.27C182.693 145.27 181.865 145.051 181.187 144.613C180.509 144.175 179.993 143.572 179.639 142.804C179.291 142.03 179.111 141.142 179.099 140.14C179.111 139.12 179.297 138.226 179.657 137.458C180.017 136.684 180.536 136.084 181.214 135.658C181.892 135.226 182.714 135.01 183.68 135.01C184.664 135.01 185.519 135.25 186.245 135.73C186.977 136.21 187.478 136.867 187.748 137.701L186.452 138.115C186.224 137.533 185.861 137.083 185.363 136.765C184.871 136.441 184.307 136.279 183.671 136.279C182.957 136.279 182.366 136.444 181.898 136.774C181.43 137.098 181.082 137.551 180.854 138.133C180.626 138.715 180.509 139.384 180.503 140.14C180.515 141.304 180.785 142.24 181.313 142.948C181.841 143.65 182.627 144.001 183.671 144.001C184.331 144.001 184.892 143.851 185.354 143.551C185.822 143.245 186.176 142.801 186.416 142.219L187.748 142.615C187.388 143.479 186.86 144.139 186.164 144.595C185.468 145.045 184.637 145.27 183.671 145.27ZM192.334 145.27C191.602 145.27 190.987 145.138 190.489 144.874C189.997 144.61 189.628 144.259 189.382 143.821C189.136 143.383 189.013 142.906 189.013 142.39C189.013 141.862 189.118 141.412 189.328 141.04C189.544 140.662 189.835 140.353 190.201 140.113C190.573 139.873 191.002 139.69 191.488 139.564C191.98 139.444 192.523 139.339 193.117 139.249C193.717 139.153 194.302 139.072 194.872 139.006C195.448 138.934 195.952 138.865 196.384 138.799L195.916 139.087C195.934 138.127 195.748 137.416 195.358 136.954C194.968 136.492 194.29 136.261 193.324 136.261C192.658 136.261 192.094 136.411 191.632 136.711C191.176 137.011 190.855 137.485 190.669 138.133L189.382 137.755C189.604 136.885 190.051 136.21 190.723 135.73C191.395 135.25 192.268 135.01 193.342 135.01C194.23 135.01 194.983 135.178 195.601 135.514C196.225 135.844 196.666 136.324 196.924 136.954C197.044 137.236 197.122 137.551 197.158 137.899C197.194 138.247 197.212 138.601 197.212 138.961V145H196.033V142.561L196.375 142.705C196.045 143.539 195.532 144.175 194.836 144.613C194.14 145.051 193.306 145.27 192.334 145.27ZM192.487 144.127C193.105 144.127 193.645 144.016 194.107 143.794C194.569 143.572 194.941 143.269 195.223 142.885C195.505 142.495 195.688 142.057 195.772 141.571C195.844 141.259 195.883 140.917 195.889 140.545C195.895 140.167 195.898 139.885 195.898 139.699L196.402 139.96C195.952 140.02 195.463 140.08 194.935 140.14C194.413 140.2 193.897 140.269 193.387 140.347C192.883 140.425 192.427 140.518 192.019 140.626C191.743 140.704 191.476 140.815 191.218 140.959C190.96 141.097 190.747 141.283 190.579 141.517C190.417 141.751 190.336 142.042 190.336 142.39C190.336 142.672 190.405 142.945 190.543 143.209C190.687 143.473 190.915 143.692 191.227 143.866C191.545 144.04 191.965 144.127 192.487 144.127ZM210.88 135.28V145H209.593V137.431L204.265 145H203.149V135.28H204.436V142.786L209.773 135.28H210.88ZM222.203 145.27C221.291 145.27 220.469 145.111 219.737 144.793C219.005 144.475 218.381 144.022 217.865 143.434C217.355 142.846 216.965 142.138 216.695 141.31C216.425 140.476 216.29 139.546 216.29 138.52C216.29 137.164 216.524 135.982 216.992 134.974C217.466 133.96 218.144 133.174 219.026 132.616C219.908 132.058 220.967 131.779 222.203 131.779C223.583 131.779 224.705 132.103 225.569 132.751C226.439 133.393 227.045 134.257 227.387 135.343L226.055 135.667C225.773 134.875 225.308 134.242 224.66 133.768C224.018 133.294 223.217 133.057 222.257 133.057C221.243 133.051 220.4 133.279 219.728 133.741C219.056 134.197 218.549 134.839 218.207 135.667C217.871 136.489 217.7 137.44 217.694 138.52C217.688 139.6 217.853 140.551 218.189 141.373C218.531 142.189 219.041 142.831 219.719 143.299C220.397 143.761 221.243 143.995 222.257 144.001C223.187 144.001 223.955 143.821 224.561 143.461C225.167 143.101 225.626 142.585 225.938 141.913C226.256 141.241 226.436 140.446 226.478 139.528H223.49V138.394H227.864C227.882 138.532 227.891 138.679 227.891 138.835C227.897 138.985 227.9 139.093 227.9 139.159C227.9 140.329 227.69 141.376 227.27 142.3C226.85 143.218 226.217 143.944 225.371 144.478C224.531 145.006 223.475 145.27 222.203 145.27ZM233.76 145.27C232.794 145.27 231.969 145.051 231.285 144.613C230.601 144.175 230.076 143.569 229.71 142.795C229.344 142.021 229.161 141.133 229.161 140.131C229.161 139.111 229.347 138.217 229.719 137.449C230.091 136.681 230.619 136.084 231.303 135.658C231.993 135.226 232.812 135.01 233.76 135.01C234.732 135.01 235.56 135.229 236.244 135.667C236.934 136.099 237.459 136.702 237.819 137.476C238.185 138.244 238.368 139.129 238.368 140.131C238.368 141.151 238.185 142.048 237.819 142.822C237.453 143.59 236.925 144.19 236.235 144.622C235.545 145.054 234.72 145.27 233.76 145.27ZM233.76 144.001C234.84 144.001 235.644 143.644 236.172 142.93C236.7 142.21 236.964 141.277 236.964 140.131C236.964 138.955 236.697 138.019 236.163 137.323C235.635 136.627 234.834 136.279 233.76 136.279C233.034 136.279 232.434 136.444 231.96 136.774C231.492 137.098 231.141 137.551 230.907 138.133C230.679 138.709 230.565 139.375 230.565 140.131C230.565 141.301 230.835 142.24 231.375 142.948C231.915 143.65 232.71 144.001 233.76 144.001ZM244.413 145.27C243.447 145.27 242.622 145.051 241.938 144.613C241.254 144.175 240.729 143.569 240.363 142.795C239.997 142.021 239.814 141.133 239.814 140.131C239.814 139.111 240 138.217 240.372 137.449C240.744 136.681 241.272 136.084 241.956 135.658C242.646 135.226 243.465 135.01 244.413 135.01C245.385 135.01 246.213 135.229 246.897 135.667C247.587 136.099 248.112 136.702 248.472 137.476C248.838 138.244 249.021 139.129 249.021 140.131C249.021 141.151 248.838 142.048 248.472 142.822C248.106 143.59 247.578 144.19 246.888 144.622C246.198 145.054 245.373 145.27 244.413 145.27ZM244.413 144.001C245.493 144.001 246.297 143.644 246.825 142.93C247.353 142.21 247.617 141.277 247.617 140.131C247.617 138.955 247.35 138.019 246.816 137.323C246.288 136.627 245.487 136.279 244.413 136.279C243.687 136.279 243.087 136.444 242.613 136.774C242.145 137.098 241.794 137.551 241.56 138.133C241.332 138.709 241.218 139.375 241.218 140.131C241.218 141.301 241.488 142.24 242.028 142.948C242.568 143.65 243.363 144.001 244.413 144.001ZM254.867 149.59C254.369 149.59 253.877 149.515 253.391 149.365C252.911 149.221 252.467 148.99 252.059 148.672C251.651 148.36 251.309 147.952 251.033 147.448L252.23 146.782C252.5 147.322 252.878 147.709 253.364 147.943C253.856 148.183 254.357 148.303 254.867 148.303C255.569 148.303 256.136 148.171 256.568 147.907C257.006 147.649 257.324 147.265 257.522 146.755C257.72 146.245 257.816 145.609 257.81 144.847V142.255H257.963V135.28H259.142V144.865C259.142 145.141 259.133 145.405 259.115 145.657C259.103 145.915 259.076 146.167 259.034 146.413C258.92 147.139 258.683 147.736 258.323 148.204C257.969 148.672 257.501 149.02 256.919 149.248C256.343 149.476 255.659 149.59 254.867 149.59ZM254.777 145.27C253.871 145.27 253.097 145.045 252.455 144.595C251.813 144.139 251.321 143.524 250.979 142.75C250.637 141.976 250.466 141.103 250.466 140.131C250.466 139.165 250.634 138.295 250.97 137.521C251.312 136.747 251.801 136.135 252.437 135.685C253.073 135.235 253.835 135.01 254.723 135.01C255.635 135.01 256.403 135.232 257.027 135.676C257.651 136.12 258.122 136.729 258.44 137.503C258.764 138.271 258.926 139.147 258.926 140.131C258.926 141.097 258.767 141.97 258.449 142.75C258.131 143.524 257.663 144.139 257.045 144.595C256.427 145.045 255.671 145.27 254.777 145.27ZM254.912 144.037C255.602 144.037 256.172 143.869 256.622 143.533C257.072 143.197 257.408 142.735 257.63 142.147C257.852 141.553 257.963 140.881 257.963 140.131C257.963 139.369 257.852 138.697 257.63 138.115C257.408 137.527 257.072 137.068 256.622 136.738C256.178 136.408 255.617 136.243 254.939 136.243C254.243 136.243 253.667 136.414 253.211 136.756C252.755 137.098 252.416 137.563 252.194 138.151C251.978 138.739 251.87 139.399 251.87 140.131C251.87 140.869 251.981 141.535 252.203 142.129C252.431 142.717 252.77 143.182 253.22 143.524C253.67 143.866 254.234 144.037 254.912 144.037ZM261.838 145V131.77H263.161V145H261.838ZM269.973 145.27C269.025 145.27 268.203 145.06 267.507 144.64C266.817 144.22 266.28 143.629 265.896 142.867C265.512 142.105 265.32 141.211 265.32 140.185C265.32 139.123 265.509 138.205 265.887 137.431C266.265 136.657 266.796 136.06 267.48 135.64C268.17 135.22 268.983 135.01 269.919 135.01C270.879 135.01 271.698 135.232 272.376 135.676C273.054 136.114 273.567 136.744 273.915 137.566C274.263 138.388 274.422 139.369 274.392 140.509H273.042V140.041C273.018 138.781 272.745 137.83 272.223 137.188C271.707 136.546 270.951 136.225 269.955 136.225C268.911 136.225 268.11 136.564 267.552 137.242C267 137.92 266.724 138.886 266.724 140.14C266.724 141.364 267 142.315 267.552 142.993C268.11 143.665 268.899 144.001 269.919 144.001C270.615 144.001 271.221 143.842 271.737 143.524C272.259 143.2 272.67 142.735 272.97 142.129L274.203 142.606C273.819 143.452 273.252 144.109 272.502 144.577C271.758 145.039 270.915 145.27 269.973 145.27ZM266.256 140.509V139.402H273.681V140.509H266.256ZM283.493 145.27C282.515 145.27 281.66 145.057 280.928 144.631C280.202 144.199 279.629 143.602 279.209 142.84L280.271 142.165C280.625 142.765 281.066 143.221 281.594 143.533C282.122 143.845 282.728 144.001 283.412 144.001C284.126 144.001 284.699 143.836 285.131 143.506C285.563 143.176 285.779 142.723 285.779 142.147C285.779 141.751 285.686 141.436 285.5 141.202C285.32 140.968 285.044 140.8 284.672 140.698C284.306 140.596 283.847 140.545 283.295 140.545H282.143V139.411H283.277C283.949 139.411 284.489 139.291 284.897 139.051C285.311 138.805 285.518 138.421 285.518 137.899C285.518 137.347 285.311 136.939 284.897 136.675C284.489 136.405 284 136.27 283.43 136.27C282.854 136.27 282.308 136.39 281.792 136.63C281.282 136.864 280.853 137.167 280.505 137.539L279.659 136.648C280.145 136.114 280.712 135.709 281.36 135.433C282.014 135.151 282.737 135.01 283.529 135.01C284.153 135.01 284.717 135.121 285.221 135.343C285.731 135.559 286.133 135.877 286.427 136.297C286.727 136.717 286.877 137.221 286.877 137.809C286.877 138.361 286.742 138.838 286.472 139.24C286.208 139.642 285.833 139.975 285.347 140.239L285.275 139.744C285.695 139.822 286.043 139.99 286.319 140.248C286.595 140.506 286.799 140.815 286.931 141.175C287.063 141.535 287.129 141.901 287.129 142.273C287.129 142.891 286.967 143.425 286.643 143.875C286.325 144.319 285.89 144.664 285.338 144.91C284.792 145.15 284.177 145.27 283.493 145.27ZM291.896 145.27C291.164 145.27 290.549 145.138 290.051 144.874C289.559 144.61 289.19 144.259 288.944 143.821C288.698 143.383 288.575 142.906 288.575 142.39C288.575 141.862 288.68 141.412 288.89 141.04C289.106 140.662 289.397 140.353 289.763 140.113C290.135 139.873 290.564 139.69 291.05 139.564C291.542 139.444 292.085 139.339 292.679 139.249C293.279 139.153 293.864 139.072 294.434 139.006C295.01 138.934 295.514 138.865 295.946 138.799L295.478 139.087C295.496 138.127 295.31 137.416 294.92 136.954C294.53 136.492 293.852 136.261 292.886 136.261C292.22 136.261 291.656 136.411 291.194 136.711C290.738 137.011 290.417 137.485 290.231 138.133L288.944 137.755C289.166 136.885 289.613 136.21 290.285 135.73C290.957 135.25 291.83 135.01 292.904 135.01C293.792 135.01 294.545 135.178 295.163 135.514C295.787 135.844 296.228 136.324 296.486 136.954C296.606 137.236 296.684 137.551 296.72 137.899C296.756 138.247 296.774 138.601 296.774 138.961V145H295.595V142.561L295.937 142.705C295.607 143.539 295.094 144.175 294.398 144.613C293.702 145.051 292.868 145.27 291.896 145.27ZM292.049 144.127C292.667 144.127 293.207 144.016 293.669 143.794C294.131 143.572 294.503 143.269 294.785 142.885C295.067 142.495 295.25 142.057 295.334 141.571C295.406 141.259 295.445 140.917 295.451 140.545C295.457 140.167 295.46 139.885 295.46 139.699L295.964 139.96C295.514 140.02 295.025 140.08 294.497 140.14C293.975 140.2 293.459 140.269 292.949 140.347C292.445 140.425 291.989 140.518 291.581 140.626C291.305 140.704 291.038 140.815 290.78 140.959C290.522 141.097 290.309 141.283 290.141 141.517C289.979 141.751 289.898 142.042 289.898 142.39C289.898 142.672 289.967 142.945 290.105 143.209C290.249 143.473 290.477 143.692 290.789 143.866C291.107 144.04 291.527 144.127 292.049 144.127ZM306.753 145.27C305.775 145.27 304.947 145.051 304.269 144.613C303.591 144.175 303.075 143.572 302.721 142.804C302.373 142.03 302.193 141.142 302.181 140.14C302.193 139.12 302.379 138.226 302.739 137.458C303.099 136.684 303.618 136.084 304.296 135.658C304.974 135.226 305.796 135.01 306.762 135.01C307.746 135.01 308.601 135.25 309.327 135.73C310.059 136.21 310.56 136.867 310.83 137.701L309.534 138.115C309.306 137.533 308.943 137.083 308.445 136.765C307.953 136.441 307.389 136.279 306.753 136.279C306.039 136.279 305.448 136.444 304.98 136.774C304.512 137.098 304.164 137.551 303.936 138.133C303.708 138.715 303.591 139.384 303.585 140.14C303.597 141.304 303.867 142.24 304.395 142.948C304.923 143.65 305.709 144.001 306.753 144.001C307.413 144.001 307.974 143.851 308.436 143.551C308.904 143.245 309.258 142.801 309.498 142.219L310.83 142.615C310.47 143.479 309.942 144.139 309.246 144.595C308.55 145.045 307.719 145.27 306.753 145.27ZM318.637 145V141.382C318.313 141.544 317.914 141.685 317.44 141.805C316.966 141.925 316.456 141.985 315.91 141.985C314.926 141.985 314.128 141.766 313.516 141.328C312.904 140.89 312.505 140.257 312.319 139.429C312.259 139.183 312.217 138.922 312.193 138.646C312.175 138.37 312.163 138.121 312.157 137.899C312.151 137.677 312.148 137.518 312.148 137.422V135.28H313.48V137.422C313.48 137.62 313.486 137.845 313.498 138.097C313.51 138.349 313.537 138.595 313.579 138.835C313.699 139.489 313.969 139.984 314.389 140.32C314.815 140.656 315.412 140.824 316.18 140.824C316.66 140.824 317.113 140.764 317.539 140.644C317.971 140.518 318.337 140.35 318.637 140.14V135.28H319.96V145H318.637ZM327.537 133.381V131.941H328.977V133.381H327.537ZM324.108 133.381V131.941H325.548V133.381H324.108ZM326.592 145.27C325.644 145.27 324.822 145.06 324.126 144.64C323.436 144.22 322.899 143.629 322.515 142.867C322.131 142.105 321.939 141.211 321.939 140.185C321.939 139.123 322.128 138.205 322.506 137.431C322.884 136.657 323.415 136.06 324.099 135.64C324.789 135.22 325.602 135.01 326.538 135.01C327.498 135.01 328.317 135.232 328.995 135.676C329.673 136.114 330.186 136.744 330.534 137.566C330.882 138.388 331.041 139.369 331.011 140.509H329.661V140.041C329.637 138.781 329.364 137.83 328.842 137.188C328.326 136.546 327.57 136.225 326.574 136.225C325.53 136.225 324.729 136.564 324.171 137.242C323.619 137.92 323.343 138.886 323.343 140.14C323.343 141.364 323.619 142.315 324.171 142.993C324.729 143.665 325.518 144.001 326.538 144.001C327.234 144.001 327.84 143.842 328.356 143.524C328.878 143.2 329.289 142.735 329.589 142.129L330.822 142.606C330.438 143.452 329.871 144.109 329.121 144.577C328.377 145.039 327.534 145.27 326.592 145.27ZM322.875 140.509V139.402H330.3V140.509H322.875ZM335.522 145V136.504H332.075V135.28H340.292V136.504H336.845V145H335.522ZM21.251 167V157.28H28.982V167H27.659V158.549H22.574V167H21.251ZM35.873 167.27C34.979 167.27 34.223 167.045 33.605 166.595C32.987 166.139 32.519 165.524 32.201 164.75C31.883 163.97 31.724 163.097 31.724 162.131C31.724 161.147 31.883 160.271 32.201 159.503C32.525 158.729 32.999 158.12 33.623 157.676C34.247 157.232 35.015 157.01 35.927 157.01C36.815 157.01 37.577 157.235 38.213 157.685C38.849 158.135 39.335 158.747 39.671 159.521C40.013 160.295 40.184 161.165 40.184 162.131C40.184 163.103 40.013 163.976 39.671 164.75C39.329 165.524 38.837 166.139 38.195 166.595C37.553 167.045 36.779 167.27 35.873 167.27ZM31.499 171.32V157.28H32.687V164.597H32.831V171.32H31.499ZM35.738 166.037C36.416 166.037 36.98 165.866 37.43 165.524C37.88 165.182 38.216 164.717 38.438 164.129C38.666 163.535 38.78 162.869 38.78 162.131C38.78 161.399 38.669 160.739 38.447 160.151C38.225 159.563 37.886 159.098 37.43 158.756C36.98 158.414 36.407 158.243 35.711 158.243C35.033 158.243 34.469 158.408 34.019 158.738C33.575 159.068 33.242 159.527 33.02 160.115C32.798 160.697 32.687 161.369 32.687 162.131C32.687 162.881 32.798 163.553 33.02 164.147C33.242 164.735 33.578 165.197 34.028 165.533C34.478 165.869 35.048 166.037 35.738 166.037ZM46.2194 167.27C45.2534 167.27 44.4284 167.051 43.7444 166.613C43.0604 166.175 42.5354 165.569 42.1694 164.795C41.8034 164.021 41.6204 163.133 41.6204 162.131C41.6204 161.111 41.8064 160.217 42.1784 159.449C42.5504 158.681 43.0784 158.084 43.7624 157.658C44.4524 157.226 45.2714 157.01 46.2194 157.01C47.1914 157.01 48.0194 157.229 48.7034 157.667C49.3934 158.099 49.9184 158.702 50.2784 159.476C50.6444 160.244 50.8274 161.129 50.8274 162.131C50.8274 163.151 50.6444 164.048 50.2784 164.822C49.9124 165.59 49.3844 166.19 48.6944 166.622C48.0044 167.054 47.1794 167.27 46.2194 167.27ZM46.2194 166.001C47.2994 166.001 48.1034 165.644 48.6314 164.93C49.1594 164.21 49.4234 163.277 49.4234 162.131C49.4234 160.955 49.1564 160.019 48.6224 159.323C48.0944 158.627 47.2934 158.279 46.2194 158.279C45.4934 158.279 44.8934 158.444 44.4194 158.774C43.9514 159.098 43.6004 159.551 43.3664 160.133C43.1384 160.709 43.0244 161.375 43.0244 162.131C43.0244 163.301 43.2944 164.24 43.8344 164.948C44.3744 165.65 45.1694 166.001 46.2194 166.001ZM52.0927 169.16V165.866C52.6447 165.866 53.0407 165.689 53.2807 165.335C53.5207 164.975 53.7157 164.402 53.8657 163.616C53.9677 163.106 54.0517 162.557 54.1177 161.969C54.1837 161.381 54.2407 160.709 54.2887 159.953C54.3367 159.191 54.3817 158.3 54.4237 157.28H60.8497V165.866H61.7857V169.16H60.5077V167H53.3617V169.16H52.0927ZM54.3337 165.866H59.5357V158.414H55.6477C55.6297 158.87 55.6027 159.353 55.5667 159.863C55.5367 160.373 55.4977 160.883 55.4497 161.393C55.4077 161.903 55.3567 162.383 55.2967 162.833C55.2427 163.277 55.1767 163.667 55.0987 164.003C55.0087 164.435 54.9097 164.804 54.8017 165.11C54.6997 165.416 54.5437 165.668 54.3337 165.866ZM64.9741 171.32L66.8551 166.217L66.8821 167.729L62.6251 157.28H64.0291L67.5211 166.019H66.9451L70.1671 157.28H71.5171L66.2971 171.32H64.9741ZM73.0713 167V157.28H74.2503L78.0393 165.236L81.8373 157.28H83.0073V167H81.7293V160.106L78.4623 167H77.6253L74.3583 160.106V167H73.0713ZM88.3066 167.27C87.5746 167.27 86.9596 167.138 86.4616 166.874C85.9696 166.61 85.6006 166.259 85.3546 165.821C85.1086 165.383 84.9856 164.906 84.9856 164.39C84.9856 163.862 85.0906 163.412 85.3006 163.04C85.5166 162.662 85.8076 162.353 86.1736 162.113C86.5456 161.873 86.9746 161.69 87.4606 161.564C87.9526 161.444 88.4956 161.339 89.0896 161.249C89.6896 161.153 90.2746 161.072 90.8446 161.006C91.4206 160.934 91.9246 160.865 92.3566 160.799L91.8886 161.087C91.9066 160.127 91.7206 159.416 91.3306 158.954C90.9406 158.492 90.2626 158.261 89.2966 158.261C88.6306 158.261 88.0666 158.411 87.6046 158.711C87.1486 159.011 86.8276 159.485 86.6416 160.133L85.3546 159.755C85.5766 158.885 86.0236 158.21 86.6956 157.73C87.3676 157.25 88.2406 157.01 89.3146 157.01C90.2026 157.01 90.9556 157.178 91.5736 157.514C92.1976 157.844 92.6386 158.324 92.8966 158.954C93.0166 159.236 93.0946 159.551 93.1306 159.899C93.1666 160.247 93.1846 160.601 93.1846 160.961V167H92.0056V164.561L92.3476 164.705C92.0176 165.539 91.5046 166.175 90.8086 166.613C90.1126 167.051 89.2786 167.27 88.3066 167.27ZM88.4596 166.127C89.0776 166.127 89.6176 166.016 90.0796 165.794C90.5416 165.572 90.9136 165.269 91.1956 164.885C91.4776 164.495 91.6606 164.057 91.7446 163.571C91.8166 163.259 91.8556 162.917 91.8616 162.545C91.8676 162.167 91.8706 161.885 91.8706 161.699L92.3746 161.96C91.9246 162.02 91.4356 162.08 90.9076 162.14C90.3856 162.2 89.8696 162.269 89.3596 162.347C88.8556 162.425 88.3996 162.518 87.9916 162.626C87.7156 162.704 87.4486 162.815 87.1906 162.959C86.9326 163.097 86.7196 163.283 86.5516 163.517C86.3896 163.751 86.3086 164.042 86.3086 164.39C86.3086 164.672 86.3776 164.945 86.5156 165.209C86.6596 165.473 86.8876 165.692 87.1996 165.866C87.5176 166.04 87.9376 166.127 88.4596 166.127ZM95.5186 167V157.28H96.8416V161.501H102.323V157.28H103.646V167H102.323V162.77H96.8416V167H95.5186ZM106.153 167V157.28H107.476V161.501H112.957V157.28H114.28V167H112.957V162.77H107.476V167H106.153ZM120.856 167.27C119.89 167.27 119.065 167.051 118.381 166.613C117.697 166.175 117.172 165.569 116.806 164.795C116.44 164.021 116.257 163.133 116.257 162.131C116.257 161.111 116.443 160.217 116.815 159.449C117.187 158.681 117.715 158.084 118.399 157.658C119.089 157.226 119.908 157.01 120.856 157.01C121.828 157.01 122.656 157.229 123.34 157.667C124.03 158.099 124.555 158.702 124.915 159.476C125.281 160.244 125.464 161.129 125.464 162.131C125.464 163.151 125.281 164.048 124.915 164.822C124.549 165.59 124.021 166.19 123.331 166.622C122.641 167.054 121.816 167.27 120.856 167.27ZM120.856 166.001C121.936 166.001 122.74 165.644 123.268 164.93C123.796 164.21 124.06 163.277 124.06 162.131C124.06 160.955 123.793 160.019 123.259 159.323C122.731 158.627 121.93 158.279 120.856 158.279C120.13 158.279 119.53 158.444 119.056 158.774C118.588 159.098 118.237 159.551 118.003 160.133C117.775 160.709 117.661 161.375 117.661 162.131C117.661 163.301 117.931 164.24 118.471 164.948C119.011 165.65 119.806 166.001 120.856 166.001ZM131.481 156.128C131.055 156.128 130.665 156.023 130.311 155.813C129.957 155.603 129.675 155.324 129.465 154.976C129.261 154.622 129.159 154.232 129.159 153.806H130.257C130.257 154.142 130.377 154.43 130.617 154.67C130.857 154.91 131.145 155.03 131.481 155.03C131.823 155.03 132.111 154.91 132.345 154.67C132.585 154.43 132.705 154.142 132.705 153.806H133.803C133.803 154.232 133.698 154.622 133.488 154.976C133.284 155.324 133.005 155.603 132.651 155.813C132.297 156.023 131.907 156.128 131.481 156.128ZM135.171 157.28V167H133.884V159.431L128.556 167H127.44V157.28H128.727V164.786L134.064 157.28H135.171ZM145.333 167.27C144.355 167.27 143.527 167.051 142.849 166.613C142.171 166.175 141.655 165.572 141.301 164.804C140.953 164.03 140.773 163.142 140.761 162.14C140.773 161.12 140.959 160.226 141.319 159.458C141.679 158.684 142.198 158.084 142.876 157.658C143.554 157.226 144.376 157.01 145.342 157.01C146.326 157.01 147.181 157.25 147.907 157.73C148.639 158.21 149.14 158.867 149.41 159.701L148.114 160.115C147.886 159.533 147.523 159.083 147.025 158.765C146.533 158.441 145.969 158.279 145.333 158.279C144.619 158.279 144.028 158.444 143.56 158.774C143.092 159.098 142.744 159.551 142.516 160.133C142.288 160.715 142.171 161.384 142.165 162.14C142.177 163.304 142.447 164.24 142.975 164.948C143.503 165.65 144.289 166.001 145.333 166.001C145.993 166.001 146.554 165.851 147.016 165.551C147.484 165.245 147.838 164.801 148.078 164.219L149.41 164.615C149.05 165.479 148.522 166.139 147.826 166.595C147.13 167.045 146.299 167.27 145.333 167.27ZM153.676 167V158.504H150.229V157.28H158.446V158.504H154.999V167H153.676ZM164.527 167.27C163.633 167.27 162.877 167.045 162.259 166.595C161.641 166.139 161.173 165.524 160.855 164.75C160.537 163.97 160.378 163.097 160.378 162.131C160.378 161.147 160.537 160.271 160.855 159.503C161.179 158.729 161.653 158.12 162.277 157.676C162.901 157.232 163.669 157.01 164.581 157.01C165.469 157.01 166.231 157.235 166.867 157.685C167.503 158.135 167.989 158.747 168.325 159.521C168.667 160.295 168.838 161.165 168.838 162.131C168.838 163.103 168.667 163.976 168.325 164.75C167.983 165.524 167.491 166.139 166.849 166.595C166.207 167.045 165.433 167.27 164.527 167.27ZM160.153 171.32V157.28H161.341V164.597H161.485V171.32H160.153ZM164.392 166.037C165.07 166.037 165.634 165.866 166.084 165.524C166.534 165.182 166.87 164.717 167.092 164.129C167.32 163.535 167.434 162.869 167.434 162.131C167.434 161.399 167.323 160.739 167.101 160.151C166.879 159.563 166.54 159.098 166.084 158.756C165.634 158.414 165.061 158.243 164.365 158.243C163.687 158.243 163.123 158.408 162.673 158.738C162.229 159.068 161.896 159.527 161.674 160.115C161.452 160.697 161.341 161.369 161.341 162.131C161.341 162.881 161.452 163.553 161.674 164.147C161.896 164.735 162.232 165.197 162.682 165.533C163.132 165.869 163.702 166.037 164.392 166.037ZM171.849 171.32L173.73 166.217L173.757 167.729L169.5 157.28H170.904L174.396 166.019H173.82L177.042 157.28H178.392L173.172 171.32H171.849ZM179.946 167L179.955 157.28H181.287V161.96L185.625 157.28H187.389L182.835 162.14L187.983 167H186.057L181.287 162.32V167H179.946ZM191.522 167V158.504H188.075V157.28H196.292V158.504H192.845V167H191.522ZM199.271 171.32L201.152 166.217L201.179 167.729L196.922 157.28H198.326L201.818 166.019H201.242L204.464 157.28H205.814L200.594 171.32H199.271ZM211.742 167.27C210.848 167.27 210.092 167.045 209.474 166.595C208.856 166.139 208.388 165.524 208.07 164.75C207.752 163.97 207.593 163.097 207.593 162.131C207.593 161.147 207.752 160.271 208.07 159.503C208.394 158.729 208.868 158.12 209.492 157.676C210.116 157.232 210.884 157.01 211.796 157.01C212.684 157.01 213.446 157.235 214.082 157.685C214.718 158.135 215.204 158.747 215.54 159.521C215.882 160.295 216.053 161.165 216.053 162.131C216.053 163.103 215.882 163.976 215.54 164.75C215.198 165.524 214.706 166.139 214.064 166.595C213.422 167.045 212.648 167.27 211.742 167.27ZM207.368 171.32V157.28H208.556V164.597H208.7V171.32H207.368ZM211.607 166.037C212.285 166.037 212.849 165.866 213.299 165.524C213.749 165.182 214.085 164.717 214.307 164.129C214.535 163.535 214.649 162.869 214.649 162.131C214.649 161.399 214.538 160.739 214.316 160.151C214.094 159.563 213.755 159.098 213.299 158.756C212.849 158.414 212.276 158.243 211.58 158.243C210.902 158.243 210.338 158.408 209.888 158.738C209.444 159.068 209.111 159.527 208.889 160.115C208.667 160.697 208.556 161.369 208.556 162.131C208.556 162.881 208.667 163.553 208.889 164.147C209.111 164.735 209.447 165.197 209.897 165.533C210.347 165.869 210.917 166.037 211.607 166.037ZM218.039 167L218.021 157.28H219.353V160.943H221.045C221.327 160.943 221.603 160.949 221.873 160.961C222.143 160.973 222.386 160.997 222.602 161.033C223.082 161.129 223.508 161.291 223.88 161.519C224.252 161.747 224.546 162.062 224.762 162.464C224.978 162.86 225.086 163.361 225.086 163.967C225.086 164.801 224.87 165.458 224.438 165.938C224.006 166.418 223.463 166.73 222.809 166.874C222.563 166.928 222.296 166.964 222.008 166.982C221.72 166.994 221.438 167 221.162 167H218.039ZM219.353 165.866H221.108C221.306 165.866 221.531 165.86 221.783 165.848C222.035 165.836 222.257 165.803 222.449 165.749C222.773 165.659 223.064 165.479 223.322 165.209C223.586 164.933 223.718 164.519 223.718 163.967C223.718 163.421 223.592 163.01 223.34 162.734C223.088 162.452 222.752 162.266 222.332 162.176C222.14 162.134 221.936 162.107 221.72 162.095C221.51 162.083 221.306 162.077 221.108 162.077H219.353V165.866ZM226.247 167V157.28H227.57V167H226.247ZM317.087 157.28V167H315.8V159.431L310.472 167H309.356V157.28H310.643V164.786L315.98 157.28H317.087ZM327.717 167.27C326.811 167.27 325.995 167.12 325.269 166.82C324.549 166.514 323.952 166.082 323.478 165.524C323.01 164.966 322.704 164.303 322.56 163.535L323.91 163.31C324.126 164.15 324.582 164.81 325.278 165.29C325.974 165.764 326.805 166.001 327.771 166.001C328.407 166.001 328.977 165.902 329.481 165.704C329.985 165.5 330.381 165.212 330.669 164.84C330.957 164.468 331.101 164.027 331.101 163.517C331.101 163.181 331.041 162.896 330.921 162.662C330.801 162.422 330.642 162.224 330.444 162.068C330.246 161.912 330.03 161.783 329.796 161.681C329.562 161.573 329.334 161.486 329.112 161.42L325.827 160.439C325.431 160.325 325.065 160.181 324.729 160.007C324.393 159.827 324.099 159.614 323.847 159.368C323.601 159.116 323.409 158.822 323.271 158.486C323.133 158.15 323.064 157.766 323.064 157.334C323.064 156.602 323.256 155.969 323.64 155.435C324.024 154.901 324.549 154.49 325.215 154.202C325.881 153.914 326.64 153.773 327.492 153.779C328.356 153.779 329.127 153.932 329.805 154.238C330.489 154.544 331.053 154.982 331.497 155.552C331.941 156.116 332.235 156.785 332.379 157.559L330.993 157.811C330.903 157.247 330.696 156.758 330.372 156.344C330.048 155.93 329.634 155.612 329.13 155.39C328.632 155.162 328.083 155.045 327.483 155.039C326.901 155.039 326.382 155.138 325.926 155.336C325.476 155.528 325.119 155.792 324.855 156.128C324.591 156.464 324.459 156.848 324.459 157.28C324.459 157.718 324.579 158.069 324.819 158.333C325.065 158.597 325.365 158.804 325.719 158.954C326.079 159.104 326.427 159.227 326.763 159.323L329.301 160.07C329.565 160.142 329.874 160.247 330.228 160.385C330.588 160.517 330.936 160.709 331.272 160.961C331.614 161.207 331.896 161.531 332.118 161.933C332.34 162.335 332.451 162.845 332.451 163.463C332.451 164.063 332.331 164.6 332.091 165.074C331.857 165.548 331.524 165.947 331.092 166.271C330.666 166.595 330.165 166.841 329.589 167.009C329.019 167.183 328.395 167.27 327.717 167.27ZM334.309 167V154.04H342.409V155.309H335.632V159.791H341.329V161.06H335.632V165.731H342.409V167H334.309ZM349.277 167.27C347.987 167.27 346.898 166.985 346.01 166.415C345.122 165.839 344.45 165.044 343.994 164.03C343.538 163.016 343.31 161.846 343.31 160.52C343.31 159.194 343.538 158.024 343.994 157.01C344.45 155.996 345.122 155.204 346.01 154.634C346.898 154.058 347.987 153.77 349.277 153.77C350.573 153.77 351.662 154.058 352.544 154.634C353.432 155.204 354.104 155.996 354.56 157.01C355.022 158.024 355.253 159.194 355.253 160.52C355.253 161.846 355.022 163.016 354.56 164.03C354.104 165.044 353.432 165.839 352.544 166.415C351.662 166.985 350.573 167.27 349.277 167.27ZM349.277 166.001C350.291 166.001 351.137 165.77 351.815 165.308C352.493 164.846 353 164.204 353.336 163.382C353.678 162.554 353.849 161.6 353.849 160.52C353.849 159.44 353.678 158.489 353.336 157.667C353 156.845 352.493 156.203 351.815 155.741C351.137 155.279 350.291 155.045 349.277 155.039C348.263 155.039 347.42 155.27 346.748 155.732C346.076 156.194 345.569 156.839 345.227 157.667C344.891 158.489 344.72 159.44 344.714 160.52C344.708 161.6 344.873 162.551 345.209 163.373C345.551 164.189 346.061 164.831 346.739 165.299C347.417 165.761 348.263 165.995 349.277 166.001ZM356.875 161.897V160.763H362.275V161.897H356.875ZM25.319 189.27C24.353 189.27 23.528 189.051 22.844 188.613C22.16 188.175 21.635 187.569 21.269 186.795C20.903 186.021 20.72 185.133 20.72 184.131C20.72 183.111 20.906 182.217 21.278 181.449C21.65 180.681 22.178 180.084 22.862 179.658C23.552 179.226 24.371 179.01 25.319 179.01C26.291 179.01 27.119 179.229 27.803 179.667C28.493 180.099 29.018 180.702 29.378 181.476C29.744 182.244 29.927 183.129 29.927 184.131C29.927 185.151 29.744 186.048 29.378 186.822C29.012 187.59 28.484 188.19 27.794 188.622C27.104 189.054 26.279 189.27 25.319 189.27ZM25.319 188.001C26.399 188.001 27.203 187.644 27.731 186.93C28.259 186.21 28.523 185.277 28.523 184.131C28.523 182.955 28.256 182.019 27.722 181.323C27.194 180.627 26.393 180.279 25.319 180.279C24.593 180.279 23.993 180.444 23.519 180.774C23.051 181.098 22.7 181.551 22.466 182.133C22.238 182.709 22.124 183.375 22.124 184.131C22.124 185.301 22.394 186.24 22.934 186.948C23.474 187.65 24.269 188.001 25.319 188.001ZM35.9443 189.27C34.9663 189.27 34.1383 189.051 33.4603 188.613C32.7823 188.175 32.2663 187.572 31.9123 186.804C31.5643 186.03 31.3843 185.142 31.3723 184.14C31.3843 183.12 31.5703 182.226 31.9303 181.458C32.2903 180.684 32.8093 180.084 33.4873 179.658C34.1653 179.226 34.9873 179.01 35.9533 179.01C36.9373 179.01 37.7923 179.25 38.5183 179.73C39.2503 180.21 39.7513 180.867 40.0213 181.701L38.7253 182.115C38.4973 181.533 38.1343 181.083 37.6363 180.765C37.1443 180.441 36.5803 180.279 35.9443 180.279C35.2303 180.279 34.6393 180.444 34.1713 180.774C33.7033 181.098 33.3553 181.551 33.1273 182.133C32.8993 182.715 32.7823 183.384 32.7763 184.14C32.7883 185.304 33.0583 186.24 33.5863 186.948C34.1143 187.65 34.9003 188.001 35.9443 188.001C36.6043 188.001 37.1653 187.851 37.6273 187.551C38.0953 187.245 38.4493 186.801 38.6893 186.219L40.0213 186.615C39.6613 187.479 39.1333 188.139 38.4373 188.595C37.7413 189.045 36.9103 189.27 35.9443 189.27ZM41.8701 189V179.28H43.1931V183.501H48.6741V179.28H49.9971V189H48.6741V184.77H43.1931V189H41.8701ZM56.5729 189.27C55.6069 189.27 54.7819 189.051 54.0979 188.613C53.4139 188.175 52.8889 187.569 52.5229 186.795C52.1569 186.021 51.9739 185.133 51.9739 184.131C51.9739 183.111 52.1599 182.217 52.5319 181.449C52.9039 180.681 53.4319 180.084 54.1159 179.658C54.8059 179.226 55.6249 179.01 56.5729 179.01C57.5449 179.01 58.3729 179.229 59.0569 179.667C59.7469 180.099 60.2719 180.702 60.6319 181.476C60.9979 182.244 61.1809 183.129 61.1809 184.131C61.1809 185.151 60.9979 186.048 60.6319 186.822C60.2659 187.59 59.7379 188.19 59.0479 188.622C58.3579 189.054 57.5329 189.27 56.5729 189.27ZM56.5729 188.001C57.6529 188.001 58.4569 187.644 58.9849 186.93C59.5129 186.21 59.7769 185.277 59.7769 184.131C59.7769 182.955 59.5099 182.019 58.9759 181.323C58.4479 180.627 57.6469 180.279 56.5729 180.279C55.8469 180.279 55.2469 180.444 54.7729 180.774C54.3049 181.098 53.9539 181.551 53.7199 182.133C53.4919 182.709 53.3779 183.375 53.3779 184.131C53.3779 185.301 53.6479 186.24 54.1879 186.948C54.7279 187.65 55.5229 188.001 56.5729 188.001ZM63.1573 189V179.28H67.1623C67.3663 179.28 67.6123 179.292 67.9003 179.316C68.1943 179.34 68.4673 179.385 68.7193 179.451C69.2653 179.595 69.7033 179.889 70.0333 180.333C70.3693 180.777 70.5373 181.311 70.5373 181.935C70.5373 182.283 70.4833 182.595 70.3753 182.871C70.2733 183.141 70.1263 183.375 69.9343 183.573C69.8443 183.675 69.7453 183.765 69.6373 183.843C69.5293 183.915 69.4243 183.975 69.3223 184.023C69.5143 184.059 69.7213 184.143 69.9433 184.275C70.2913 184.479 70.5553 184.755 70.7353 185.103C70.9153 185.445 71.0053 185.862 71.0053 186.354C71.0053 187.02 70.8463 187.563 70.5283 187.983C70.2103 188.403 69.7843 188.691 69.2503 188.847C69.0103 188.913 68.7493 188.955 68.4673 188.973C68.1913 188.991 67.9303 189 67.6843 189H63.1573ZM64.4893 187.875H67.6213C67.7473 187.875 67.9063 187.866 68.0983 187.848C68.2903 187.824 68.4613 187.794 68.6113 187.758C68.9653 187.668 69.2233 187.488 69.3853 187.218C69.5533 186.942 69.6373 186.642 69.6373 186.318C69.6373 185.892 69.5113 185.544 69.2593 185.274C69.0133 184.998 68.6833 184.83 68.2693 184.77C68.1313 184.74 67.9873 184.722 67.8373 184.716C67.6873 184.71 67.5523 184.707 67.4323 184.707H64.4893V187.875ZM64.4893 183.573H67.2073C67.3633 183.573 67.5373 183.564 67.7293 183.546C67.9273 183.522 68.0983 183.483 68.2423 183.429C68.5543 183.321 68.7823 183.135 68.9263 182.871C69.0763 182.607 69.1513 182.319 69.1513 182.007C69.1513 181.665 69.0703 181.365 68.9083 181.107C68.7523 180.849 68.5153 180.669 68.1973 180.567C67.9813 180.489 67.7473 180.444 67.4953 180.432C67.2493 180.42 67.0933 180.414 67.0273 180.414H64.4893V183.573ZM72.8081 189L72.7901 179.28H74.1221V182.943H75.8141C76.0961 182.943 76.3721 182.949 76.6421 182.961C76.9121 182.973 77.1551 182.997 77.3711 183.033C77.8511 183.129 78.2771 183.291 78.6491 183.519C79.0211 183.747 79.3151 184.062 79.5311 184.464C79.7471 184.86 79.8551 185.361 79.8551 185.967C79.8551 186.801 79.6391 187.458 79.2071 187.938C78.7751 188.418 78.2321 188.73 77.5781 188.874C77.3321 188.928 77.0651 188.964 76.7771 188.982C76.4891 188.994 76.2071 189 75.9311 189H72.8081ZM74.1221 187.866H75.8771C76.0751 187.866 76.3001 187.86 76.5521 187.848C76.8041 187.836 77.0261 187.803 77.2181 187.749C77.5421 187.659 77.8331 187.479 78.0911 187.209C78.3551 186.933 78.4871 186.519 78.4871 185.967C78.4871 185.421 78.3611 185.01 78.1091 184.734C77.8571 184.452 77.5211 184.266 77.1011 184.176C76.9091 184.134 76.7051 184.107 76.4891 184.095C76.2791 184.083 76.0751 184.077 75.8771 184.077H74.1221V187.866ZM81.0161 189V179.28H82.3391V189H81.0161ZM85.1097 189V187.461H86.6487V189H85.1097Z" fill="#262626"/>
<path d="M105.836 46.134H108.838C109.041 47.9833 109.649 49.4147 110.662 50.428C111.675 51.416 113.018 51.91 114.69 51.91C115.501 51.91 116.235 51.7707 116.894 51.492C117.578 51.2133 118.161 50.8333 118.642 50.352C119.149 49.8453 119.541 49.25 119.82 48.566C120.099 47.882 120.238 47.1347 120.238 46.324C120.238 45.5893 120.124 44.9307 119.896 44.348C119.693 43.7653 119.339 43.246 118.832 42.79C118.351 42.334 117.705 41.916 116.894 41.536C116.109 41.156 115.133 40.8013 113.968 40.472C112.651 40.092 111.523 39.674 110.586 39.218C109.674 38.7367 108.927 38.2047 108.344 37.622C107.787 37.0393 107.381 36.368 107.128 35.608C106.875 34.848 106.748 33.974 106.748 32.986C106.748 31.8967 106.938 30.896 107.318 29.984C107.723 29.0467 108.268 28.2487 108.952 27.59C109.636 26.906 110.447 26.374 111.384 25.994C112.347 25.614 113.398 25.424 114.538 25.424C115.678 25.424 116.729 25.614 117.692 25.994C118.655 26.3487 119.478 26.8553 120.162 27.514C120.846 28.1727 121.378 28.9707 121.758 29.908C122.163 30.8453 122.379 31.884 122.404 33.024H119.478C119.377 31.504 118.87 30.288 117.958 29.376C117.071 28.464 115.906 28.008 114.462 28.008C113.043 28.008 111.878 28.4767 110.966 29.414C110.054 30.326 109.598 31.4913 109.598 32.91C109.598 33.518 109.687 34.0753 109.864 34.582C110.067 35.0633 110.383 35.5067 110.814 35.912C111.27 36.292 111.84 36.6467 112.524 36.976C113.233 37.3053 114.082 37.622 115.07 37.926C116.539 38.3567 117.781 38.838 118.794 39.37C119.807 39.8767 120.631 40.4593 121.264 41.118C121.897 41.7513 122.353 42.486 122.632 43.322C122.936 44.158 123.088 45.108 123.088 46.172C123.088 47.3627 122.873 48.4647 122.442 49.478C122.011 50.4913 121.416 51.378 120.656 52.138C119.921 52.8727 119.035 53.4553 117.996 53.886C116.957 54.2913 115.83 54.494 114.614 54.494C113.347 54.494 112.195 54.304 111.156 53.924C110.117 53.5187 109.205 52.9487 108.42 52.214C107.66 51.4793 107.052 50.6053 106.596 49.592C106.165 48.5533 105.912 47.4007 105.836 46.134ZM126.814 54V25.918H142.166V28.464H129.626V38.534H141.748V41.08H129.626V51.454H142.166V54H126.814ZM145.971 39.978C145.971 37.9513 146.363 36.064 147.149 34.316C147.934 32.5427 148.998 30.9973 150.341 29.68C151.709 28.3627 153.305 27.324 155.129 26.564C156.953 25.804 158.916 25.424 161.019 25.424C163.02 25.424 164.907 25.8167 166.681 26.602C168.454 27.362 169.999 28.4133 171.317 29.756C172.659 31.0733 173.711 32.6187 174.471 34.392C175.256 36.14 175.649 38.002 175.649 39.978C175.649 41.9793 175.256 43.8667 174.471 45.64C173.685 47.388 172.621 48.9207 171.279 50.238C169.936 51.5553 168.365 52.594 166.567 53.354C164.768 54.114 162.855 54.494 160.829 54.494C158.802 54.494 156.889 54.114 155.091 53.354C153.292 52.5687 151.709 51.5173 150.341 50.2C148.998 48.8827 147.934 47.35 147.149 45.602C146.363 43.8287 145.971 41.954 145.971 39.978ZM148.821 39.978C148.821 41.5993 149.137 43.1447 149.771 44.614C150.404 46.058 151.265 47.3247 152.355 48.414C153.444 49.478 154.711 50.3267 156.155 50.96C157.624 51.5933 159.182 51.91 160.829 51.91C162.475 51.91 164.021 51.5933 165.465 50.96C166.909 50.3267 168.175 49.478 169.265 48.414C170.354 47.3247 171.215 46.058 171.849 44.614C172.482 43.17 172.799 41.6373 172.799 40.016C172.799 38.344 172.482 36.786 171.849 35.342C171.215 33.8727 170.354 32.5933 169.265 31.504C168.175 30.4147 166.883 29.566 165.389 28.958C163.919 28.3247 162.349 28.008 160.677 28.008C159.081 28.008 157.561 28.3373 156.117 28.996C154.673 29.6293 153.406 30.4907 152.317 31.58C151.253 32.6693 150.404 33.936 149.771 35.38C149.137 36.824 148.821 38.3567 148.821 39.978Z" fill="#070707"/>
<rect width="68" height="68" rx="10" fill="#FF5C10"/>
<path d="M34 45.5H50M18 34H50M18 22.5H50" stroke="white" stroke-width="2" stroke-linecap="round" stroke-linejoin="round"/>
</svg>
